G04 #@! TF.GenerationSoftware,KiCad,Pcbnew,5.1.9+dfsg1-1+deb11u1*
G04 #@! TF.CreationDate,2023-03-18T22:01:19+02:00*
G04 #@! TF.ProjectId,lora_tracker_wide,6c6f7261-5f74-4726-9163-6b65725f7769,rev?*
G04 #@! TF.SameCoordinates,Original*
G04 #@! TF.FileFunction,Copper,L2,Bot*
G04 #@! TF.FilePolarity,Positive*
%FSLAX46Y46*%
G04 Gerber Fmt 4.6, Leading zero omitted, Abs format (unit mm)*
G04 Created by KiCad (PCBNEW 5.1.9+dfsg1-1+deb11u1) date 2023-03-18 22:01:19*
%MOMM*%
%LPD*%
G01*
G04 APERTURE LIST*
G04 #@! TA.AperFunction,SMDPad,CuDef*
%ADD10R,1.350000X4.200000*%
G04 #@! TD*
G04 #@! TA.AperFunction,ComponentPad*
%ADD11R,1.700000X1.700000*%
G04 #@! TD*
G04 #@! TA.AperFunction,ComponentPad*
%ADD12O,1.700000X1.700000*%
G04 #@! TD*
G04 #@! TA.AperFunction,ComponentPad*
%ADD13C,1.524000*%
G04 #@! TD*
G04 #@! TA.AperFunction,ViaPad*
%ADD14C,0.800000*%
G04 #@! TD*
G04 #@! TA.AperFunction,Conductor*
%ADD15C,0.250000*%
G04 #@! TD*
G04 #@! TA.AperFunction,Conductor*
%ADD16C,0.254000*%
G04 #@! TD*
G04 #@! TA.AperFunction,Conductor*
%ADD17C,0.150000*%
G04 #@! TD*
G04 APERTURE END LIST*
D10*
X85121000Y-45720000D03*
X79471000Y-45720000D03*
D11*
X79248000Y-117348000D03*
D12*
X79248000Y-114808000D03*
X79248000Y-112268000D03*
X79248000Y-109728000D03*
X79248000Y-107188000D03*
X79248000Y-104648000D03*
X79248000Y-102108000D03*
X79248000Y-99568000D03*
X79248000Y-97028000D03*
X79248000Y-94488000D03*
D11*
X110236000Y-125984000D03*
D12*
X110236000Y-123444000D03*
X110236000Y-120904000D03*
X110236000Y-118364000D03*
X110236000Y-115824000D03*
X110236000Y-113284000D03*
X110236000Y-110744000D03*
X110236000Y-108204000D03*
X110236000Y-105664000D03*
X110236000Y-103124000D03*
X110236000Y-100584000D03*
X110236000Y-98044000D03*
D11*
X79248000Y-128524000D03*
D12*
X79248000Y-131064000D03*
X79248000Y-133604000D03*
D13*
X82042000Y-88265000D03*
X82042000Y-90805000D03*
X82042000Y-93345000D03*
X82042000Y-95885000D03*
X82042000Y-98425000D03*
X82042000Y-100965000D03*
X82042000Y-103505000D03*
X82042000Y-106045000D03*
X82042000Y-108585000D03*
X82042000Y-111125000D03*
X82042000Y-113665000D03*
X82042000Y-116205000D03*
X82042000Y-118745000D03*
X82042000Y-121285000D03*
X82042000Y-123825000D03*
X82042000Y-126365000D03*
X82042000Y-128905000D03*
X82042000Y-131445000D03*
X107442000Y-133985000D03*
X107442000Y-131445000D03*
X107442000Y-128905000D03*
X107442000Y-126365000D03*
X107442000Y-123825000D03*
X107442000Y-121285000D03*
X107442000Y-118745000D03*
X107442000Y-116205000D03*
X107442000Y-113665000D03*
X107442000Y-111125000D03*
X107442000Y-108585000D03*
X107442000Y-106045000D03*
X107442000Y-103505000D03*
X107442000Y-100965000D03*
X107442000Y-98425000D03*
X107442000Y-95885000D03*
X107442000Y-93345000D03*
X107442000Y-90805000D03*
X82042000Y-133985000D03*
X107442000Y-88265000D03*
D14*
X77216000Y-44704000D03*
X77216000Y-46736000D03*
X77216000Y-48768000D03*
X77216000Y-50800000D03*
X77216000Y-52832000D03*
X79248000Y-53848000D03*
X87884000Y-44704000D03*
X87884000Y-46736000D03*
X87376000Y-48768000D03*
X87376000Y-50800000D03*
X89916000Y-44704000D03*
X91948000Y-44704000D03*
X93980000Y-44704000D03*
X96012000Y-44704000D03*
X98044000Y-44704000D03*
X100076000Y-44704000D03*
X102108000Y-44704000D03*
X104140000Y-44704000D03*
X106172000Y-44704000D03*
X108204000Y-44704000D03*
X110236000Y-44704000D03*
X112268000Y-44704000D03*
X75184000Y-44704000D03*
X75184000Y-46736000D03*
X75184000Y-48768000D03*
X75184000Y-50800000D03*
X75184000Y-52832000D03*
X75184000Y-54864000D03*
X75184000Y-56896000D03*
X75184000Y-58928000D03*
X75184000Y-60960000D03*
X75184000Y-62992000D03*
X75184000Y-65024000D03*
X75184000Y-67056000D03*
X75184000Y-69088000D03*
X75184000Y-71120000D03*
X75184000Y-73152000D03*
X112268000Y-46736000D03*
X112268000Y-48768000D03*
X112268000Y-50800000D03*
X112268000Y-52832000D03*
X112268000Y-54864000D03*
X112268000Y-56896000D03*
X112268000Y-58928000D03*
X112268000Y-60960000D03*
X112268000Y-62992000D03*
X112268000Y-65024000D03*
X112268000Y-67056000D03*
X112268000Y-69088000D03*
X112268000Y-71120000D03*
X112268000Y-73152000D03*
X112268000Y-75184000D03*
X112268000Y-77216000D03*
X75184000Y-75184000D03*
X84836000Y-53848000D03*
X75184000Y-77216000D03*
X75184000Y-79248000D03*
X75184000Y-81280000D03*
X75184000Y-83312000D03*
X75184000Y-85344000D03*
X75184000Y-87376000D03*
X75184000Y-89408000D03*
X75184000Y-91440000D03*
X75184000Y-93472000D03*
X75184000Y-95504000D03*
X75184000Y-97536000D03*
X75184000Y-99568000D03*
X75184000Y-101600000D03*
X75184000Y-103632000D03*
X75184000Y-105664000D03*
X75184000Y-107696000D03*
X75184000Y-109728000D03*
X75184000Y-111760000D03*
X75184000Y-113792000D03*
X75184000Y-115824000D03*
X75184000Y-117856000D03*
X75184000Y-119888000D03*
X75184000Y-121920000D03*
X75184000Y-123952000D03*
X75184000Y-125984000D03*
X75184000Y-128016000D03*
X75184000Y-130048000D03*
X75184000Y-132080000D03*
X75184000Y-134112000D03*
X75184000Y-136144000D03*
X112268000Y-79248000D03*
X112268000Y-81280000D03*
X112268000Y-83312000D03*
X112268000Y-85344000D03*
X112268000Y-87376000D03*
X112268000Y-89408000D03*
X112268000Y-91440000D03*
X112268000Y-93472000D03*
X112268000Y-95504000D03*
X112268000Y-97536000D03*
X112268000Y-99568000D03*
X112268000Y-101600000D03*
X112268000Y-103632000D03*
X112268000Y-105664000D03*
X112268000Y-107696000D03*
X112268000Y-109728000D03*
X112268000Y-111760000D03*
X112268000Y-113792000D03*
X112268000Y-115824000D03*
X112268000Y-117856000D03*
X112268000Y-119888000D03*
X112268000Y-121920000D03*
X112268000Y-123952000D03*
X112268000Y-125984000D03*
X112268000Y-128016000D03*
X112268000Y-130048000D03*
X112268000Y-132080000D03*
X112268000Y-134112000D03*
X112268000Y-136144000D03*
X110744000Y-137160000D03*
X108712000Y-137160000D03*
X106680000Y-137160000D03*
X104648000Y-137160000D03*
X102616000Y-137160000D03*
X100584000Y-137160000D03*
X98552000Y-137160000D03*
X96520000Y-137160000D03*
X94488000Y-137160000D03*
X92456000Y-137160000D03*
X90424000Y-137160000D03*
X88392000Y-137160000D03*
X86360000Y-137160000D03*
X84328000Y-137160000D03*
X82296000Y-137160000D03*
X80264000Y-137160000D03*
X78232000Y-137160000D03*
X76200000Y-137160000D03*
X108204000Y-71120000D03*
X104140000Y-71120000D03*
X104140000Y-63500000D03*
X94488000Y-66040000D03*
X86868000Y-56388000D03*
X86868000Y-59436000D03*
X87884000Y-63500000D03*
X85344000Y-69088000D03*
X105156000Y-56388000D03*
X105156000Y-59944000D03*
X78740000Y-79248000D03*
X82804000Y-79248000D03*
X86360000Y-79248000D03*
X92964000Y-79248000D03*
X96012000Y-79248000D03*
X99060000Y-79248000D03*
X109728000Y-79248000D03*
X99060000Y-82804000D03*
X99060000Y-86360000D03*
X102616000Y-86360000D03*
X106172000Y-85344000D03*
X107696000Y-83312000D03*
X109728000Y-83312000D03*
X109728000Y-81280000D03*
X109728000Y-77216000D03*
X96520000Y-116840000D03*
X101600000Y-116840000D03*
X101600000Y-121920000D03*
X96520000Y-121920000D03*
X96520000Y-127000000D03*
X101600000Y-127000000D03*
X91948000Y-127000000D03*
X91440000Y-121920000D03*
X91440000Y-116840000D03*
X91440000Y-111252000D03*
X91440000Y-106172000D03*
X86868000Y-116840000D03*
X86360000Y-127000000D03*
X91440000Y-132080000D03*
X96520000Y-132080000D03*
X101600000Y-132080000D03*
X96520000Y-111252000D03*
X86360000Y-106680000D03*
X86360000Y-101600000D03*
X86360000Y-96520000D03*
X96520000Y-91440000D03*
X96520000Y-96520000D03*
X96520000Y-86360000D03*
X78740000Y-85344000D03*
X82804000Y-85344000D03*
X101092000Y-56388000D03*
X90895000Y-99695000D03*
X92075000Y-101600000D03*
X102616000Y-53340000D03*
X84836000Y-61468000D03*
X86863347Y-67060653D03*
X85344000Y-63500000D03*
X92710000Y-54610000D03*
X96520000Y-104140000D03*
X95250000Y-54610000D03*
X96520000Y-102616000D03*
X90424000Y-59436000D03*
X96520000Y-101092000D03*
X92964000Y-59436000D03*
X95504000Y-59944000D03*
D15*
X90895000Y-99695000D02*
X89535000Y-99695000D01*
X85725000Y-103505000D02*
X82550000Y-103505000D01*
X89535000Y-99695000D02*
X85725000Y-103505000D01*
X92075000Y-101600000D02*
X89535000Y-101600000D01*
X89535000Y-101600000D02*
X85090000Y-106045000D01*
X85090000Y-106045000D02*
X82550000Y-106045000D01*
X102616000Y-53340000D02*
X86360000Y-53340000D01*
X86360000Y-53340000D02*
X86360000Y-53848000D01*
X86360000Y-53848000D02*
X84836000Y-55372000D01*
X84836000Y-55372000D02*
X84836000Y-61468000D01*
X86863347Y-67060653D02*
X86863347Y-64520653D01*
X86863347Y-64520653D02*
X85842694Y-63500000D01*
X85842694Y-63500000D02*
X85344000Y-63500000D01*
X92710000Y-54610000D02*
X89535000Y-57785000D01*
X89535000Y-57785000D02*
X89535000Y-97155000D01*
X89535000Y-97155000D02*
X96520000Y-104140000D01*
X95250000Y-54610000D02*
X90424000Y-59436000D01*
X90170000Y-59690000D02*
X90170000Y-95885000D01*
X90170000Y-95885000D02*
X90170000Y-96266000D01*
X90170000Y-96266000D02*
X96520000Y-102616000D01*
X90424000Y-59436000D02*
X90170000Y-59690000D01*
X90805000Y-63500000D02*
X90805000Y-95250000D01*
X90805000Y-95250000D02*
X90805000Y-95377000D01*
X90805000Y-95377000D02*
X96520000Y-101092000D01*
X90805000Y-63500000D02*
X90805000Y-61595000D01*
X90805000Y-61595000D02*
X92964000Y-59436000D01*
X97790000Y-90805000D02*
X105410000Y-90805000D01*
X96583600Y-89600010D02*
X96585010Y-89600010D01*
X96585010Y-89600010D02*
X97790000Y-90805000D01*
X91440000Y-84456410D02*
X96583600Y-89600010D01*
X91440000Y-65532000D02*
X91440000Y-64008000D01*
X91440000Y-65532000D02*
X91440000Y-84456410D01*
X91440000Y-65405000D02*
X91440000Y-65532000D01*
X91440000Y-64008000D02*
X95504000Y-59944000D01*
X95504000Y-59944000D02*
X95504000Y-59944000D01*
X105410000Y-90805000D02*
X107696000Y-90805000D01*
X109060999Y-122460001D02*
X107696000Y-123825000D01*
X109060999Y-119539001D02*
X109060999Y-122460001D01*
X110236000Y-118364000D02*
X109060999Y-119539001D01*
X108783001Y-117657999D02*
X107696000Y-118745000D01*
X108783001Y-114736999D02*
X108783001Y-117657999D01*
X110236000Y-113284000D02*
X108783001Y-114736999D01*
X108783001Y-112577999D02*
X107696000Y-113665000D01*
X108783001Y-109656999D02*
X108783001Y-112577999D01*
X110236000Y-108204000D02*
X108783001Y-109656999D01*
D16*
X78161000Y-45434250D02*
X78319750Y-45593000D01*
X79344000Y-45593000D01*
X79344000Y-45573000D01*
X79598000Y-45573000D01*
X79598000Y-45593000D01*
X80622250Y-45593000D01*
X80781000Y-45434250D01*
X80783572Y-43915000D01*
X83808428Y-43915000D01*
X83811000Y-45434250D01*
X83969750Y-45593000D01*
X84994000Y-45593000D01*
X84994000Y-45573000D01*
X85248000Y-45573000D01*
X85248000Y-45593000D01*
X86272250Y-45593000D01*
X86431000Y-45434250D01*
X86433572Y-43915000D01*
X112955000Y-43915000D01*
X112955001Y-137720000D01*
X74370000Y-137720000D01*
X74370000Y-137351440D01*
X74384365Y-137304085D01*
X74395000Y-137196105D01*
X74395000Y-127674000D01*
X77759928Y-127674000D01*
X77763000Y-128238250D01*
X77921750Y-128397000D01*
X79121000Y-128397000D01*
X79121000Y-127197750D01*
X78962250Y-127039000D01*
X78398000Y-127035928D01*
X78273518Y-127048188D01*
X78153820Y-127084498D01*
X78043506Y-127143463D01*
X77946815Y-127222815D01*
X77867463Y-127319506D01*
X77808498Y-127429820D01*
X77772188Y-127549518D01*
X77759928Y-127674000D01*
X74395000Y-127674000D01*
X74395000Y-116498000D01*
X77759928Y-116498000D01*
X77759928Y-118198000D01*
X77772188Y-118322482D01*
X77808498Y-118442180D01*
X77867463Y-118552494D01*
X77946815Y-118649185D01*
X78043506Y-118728537D01*
X78153820Y-118787502D01*
X78273518Y-118823812D01*
X78398000Y-118836072D01*
X80098000Y-118836072D01*
X80222482Y-118823812D01*
X80342180Y-118787502D01*
X80452494Y-118728537D01*
X80549185Y-118649185D01*
X80628537Y-118552494D01*
X80672155Y-118470893D01*
X80645000Y-118607408D01*
X80645000Y-118882592D01*
X80698686Y-119152490D01*
X80803995Y-119406727D01*
X80956880Y-119635535D01*
X81151465Y-119830120D01*
X81380273Y-119983005D01*
X81457515Y-120015000D01*
X81380273Y-120046995D01*
X81151465Y-120199880D01*
X80956880Y-120394465D01*
X80803995Y-120623273D01*
X80698686Y-120877510D01*
X80645000Y-121147408D01*
X80645000Y-121422592D01*
X80698686Y-121692490D01*
X80803995Y-121946727D01*
X80956880Y-122175535D01*
X81151465Y-122370120D01*
X81380273Y-122523005D01*
X81457515Y-122555000D01*
X81380273Y-122586995D01*
X81151465Y-122739880D01*
X80956880Y-122934465D01*
X80803995Y-123163273D01*
X80698686Y-123417510D01*
X80645000Y-123687408D01*
X80645000Y-123962592D01*
X80698686Y-124232490D01*
X80803995Y-124486727D01*
X80956880Y-124715535D01*
X81151465Y-124910120D01*
X81380273Y-125063005D01*
X81457515Y-125095000D01*
X81380273Y-125126995D01*
X81151465Y-125279880D01*
X80956880Y-125474465D01*
X80803995Y-125703273D01*
X80698686Y-125957510D01*
X80645000Y-126227408D01*
X80645000Y-126502592D01*
X80698686Y-126772490D01*
X80803995Y-127026727D01*
X80956880Y-127255535D01*
X81151465Y-127450120D01*
X81380273Y-127603005D01*
X81457515Y-127635000D01*
X81380273Y-127666995D01*
X81151465Y-127819880D01*
X80956880Y-128014465D01*
X80803995Y-128243273D01*
X80733000Y-128414669D01*
X80733000Y-128396998D01*
X80574252Y-128396998D01*
X80733000Y-128238250D01*
X80736072Y-127674000D01*
X80723812Y-127549518D01*
X80687502Y-127429820D01*
X80628537Y-127319506D01*
X80549185Y-127222815D01*
X80452494Y-127143463D01*
X80342180Y-127084498D01*
X80222482Y-127048188D01*
X80098000Y-127035928D01*
X79533750Y-127039000D01*
X79375000Y-127197750D01*
X79375000Y-128397000D01*
X79395000Y-128397000D01*
X79395000Y-128651000D01*
X79375000Y-128651000D01*
X79375000Y-128671000D01*
X79121000Y-128671000D01*
X79121000Y-128651000D01*
X77921750Y-128651000D01*
X77763000Y-128809750D01*
X77759928Y-129374000D01*
X77772188Y-129498482D01*
X77808498Y-129618180D01*
X77867463Y-129728494D01*
X77946815Y-129825185D01*
X78043506Y-129904537D01*
X78153820Y-129963502D01*
X78226380Y-129985513D01*
X78094525Y-130117368D01*
X77932010Y-130360589D01*
X77820068Y-130630842D01*
X77763000Y-130917740D01*
X77763000Y-131210260D01*
X77820068Y-131497158D01*
X77932010Y-131767411D01*
X78094525Y-132010632D01*
X78301368Y-132217475D01*
X78475760Y-132334000D01*
X78301368Y-132450525D01*
X78094525Y-132657368D01*
X77932010Y-132900589D01*
X77820068Y-133170842D01*
X77763000Y-133457740D01*
X77763000Y-133750260D01*
X77820068Y-134037158D01*
X77932010Y-134307411D01*
X78094525Y-134550632D01*
X78301368Y-134757475D01*
X78544589Y-134919990D01*
X78814842Y-135031932D01*
X79101740Y-135089000D01*
X79394260Y-135089000D01*
X79681158Y-135031932D01*
X79951411Y-134919990D01*
X80194632Y-134757475D01*
X80401475Y-134550632D01*
X80563990Y-134307411D01*
X80645000Y-134111835D01*
X80645000Y-134122592D01*
X80698686Y-134392490D01*
X80803995Y-134646727D01*
X80956880Y-134875535D01*
X81151465Y-135070120D01*
X81380273Y-135223005D01*
X81634510Y-135328314D01*
X81904408Y-135382000D01*
X82179592Y-135382000D01*
X82449490Y-135328314D01*
X82703727Y-135223005D01*
X82932535Y-135070120D01*
X83127120Y-134875535D01*
X83280005Y-134646727D01*
X83385314Y-134392490D01*
X83439000Y-134122592D01*
X83439000Y-133847408D01*
X83385314Y-133577510D01*
X83280005Y-133323273D01*
X83127120Y-133094465D01*
X82932535Y-132899880D01*
X82703727Y-132746995D01*
X82626485Y-132715000D01*
X82703727Y-132683005D01*
X82932535Y-132530120D01*
X83127120Y-132335535D01*
X83280005Y-132106727D01*
X83385314Y-131852490D01*
X83439000Y-131582592D01*
X83439000Y-131307408D01*
X83385314Y-131037510D01*
X83280005Y-130783273D01*
X83127120Y-130554465D01*
X82932535Y-130359880D01*
X82703727Y-130206995D01*
X82626485Y-130175000D01*
X82703727Y-130143005D01*
X82932535Y-129990120D01*
X83127120Y-129795535D01*
X83280005Y-129566727D01*
X83385314Y-129312490D01*
X83439000Y-129042592D01*
X83439000Y-128767408D01*
X83385314Y-128497510D01*
X83280005Y-128243273D01*
X83127120Y-128014465D01*
X82932535Y-127819880D01*
X82703727Y-127666995D01*
X82626485Y-127635000D01*
X82703727Y-127603005D01*
X82932535Y-127450120D01*
X83127120Y-127255535D01*
X83280005Y-127026727D01*
X83385314Y-126772490D01*
X83439000Y-126502592D01*
X83439000Y-126227408D01*
X83385314Y-125957510D01*
X83280005Y-125703273D01*
X83127120Y-125474465D01*
X82932535Y-125279880D01*
X82703727Y-125126995D01*
X82626485Y-125095000D01*
X82703727Y-125063005D01*
X82932535Y-124910120D01*
X83127120Y-124715535D01*
X83280005Y-124486727D01*
X83385314Y-124232490D01*
X83439000Y-123962592D01*
X83439000Y-123687408D01*
X83385314Y-123417510D01*
X83280005Y-123163273D01*
X83127120Y-122934465D01*
X82932535Y-122739880D01*
X82703727Y-122586995D01*
X82626485Y-122555000D01*
X82703727Y-122523005D01*
X82932535Y-122370120D01*
X83127120Y-122175535D01*
X83280005Y-121946727D01*
X83385314Y-121692490D01*
X83439000Y-121422592D01*
X83439000Y-121147408D01*
X83385314Y-120877510D01*
X83280005Y-120623273D01*
X83127120Y-120394465D01*
X82932535Y-120199880D01*
X82703727Y-120046995D01*
X82626485Y-120015000D01*
X82703727Y-119983005D01*
X82932535Y-119830120D01*
X83127120Y-119635535D01*
X83280005Y-119406727D01*
X83385314Y-119152490D01*
X83439000Y-118882592D01*
X83439000Y-118607408D01*
X83385314Y-118337510D01*
X83280005Y-118083273D01*
X83127120Y-117854465D01*
X82932535Y-117659880D01*
X82703727Y-117506995D01*
X82626485Y-117475000D01*
X82703727Y-117443005D01*
X82932535Y-117290120D01*
X83127120Y-117095535D01*
X83280005Y-116866727D01*
X83385314Y-116612490D01*
X83439000Y-116342592D01*
X83439000Y-116067408D01*
X83385314Y-115797510D01*
X83280005Y-115543273D01*
X83127120Y-115314465D01*
X82932535Y-115119880D01*
X82703727Y-114966995D01*
X82626485Y-114935000D01*
X82703727Y-114903005D01*
X82932535Y-114750120D01*
X83127120Y-114555535D01*
X83280005Y-114326727D01*
X83385314Y-114072490D01*
X83439000Y-113802592D01*
X83439000Y-113527408D01*
X83385314Y-113257510D01*
X83280005Y-113003273D01*
X83127120Y-112774465D01*
X82932535Y-112579880D01*
X82703727Y-112426995D01*
X82626485Y-112395000D01*
X82703727Y-112363005D01*
X82932535Y-112210120D01*
X83127120Y-112015535D01*
X83280005Y-111786727D01*
X83385314Y-111532490D01*
X83439000Y-111262592D01*
X83439000Y-110987408D01*
X83385314Y-110717510D01*
X83280005Y-110463273D01*
X83127120Y-110234465D01*
X82932535Y-110039880D01*
X82703727Y-109886995D01*
X82626485Y-109855000D01*
X82703727Y-109823005D01*
X82932535Y-109670120D01*
X83127120Y-109475535D01*
X83280005Y-109246727D01*
X83385314Y-108992490D01*
X83439000Y-108722592D01*
X83439000Y-108447408D01*
X83385314Y-108177510D01*
X83280005Y-107923273D01*
X83127120Y-107694465D01*
X82932535Y-107499880D01*
X82703727Y-107346995D01*
X82626485Y-107315000D01*
X82703727Y-107283005D01*
X82932535Y-107130120D01*
X83127120Y-106935535D01*
X83214341Y-106805000D01*
X85052678Y-106805000D01*
X85090000Y-106808676D01*
X85127322Y-106805000D01*
X85127333Y-106805000D01*
X85238986Y-106794003D01*
X85382247Y-106750546D01*
X85514276Y-106679974D01*
X85630001Y-106585001D01*
X85653804Y-106555997D01*
X89849802Y-102360000D01*
X91371289Y-102360000D01*
X91415226Y-102403937D01*
X91584744Y-102517205D01*
X91773102Y-102595226D01*
X91973061Y-102635000D01*
X92176939Y-102635000D01*
X92376898Y-102595226D01*
X92565256Y-102517205D01*
X92734774Y-102403937D01*
X92878937Y-102259774D01*
X92992205Y-102090256D01*
X93070226Y-101901898D01*
X93092934Y-101787736D01*
X95485000Y-104179802D01*
X95485000Y-104241939D01*
X95524774Y-104441898D01*
X95602795Y-104630256D01*
X95716063Y-104799774D01*
X95860226Y-104943937D01*
X96029744Y-105057205D01*
X96218102Y-105135226D01*
X96418061Y-105175000D01*
X96621939Y-105175000D01*
X96821898Y-105135226D01*
X97010256Y-105057205D01*
X97179774Y-104943937D01*
X97323937Y-104799774D01*
X97437205Y-104630256D01*
X97515226Y-104441898D01*
X97555000Y-104241939D01*
X97555000Y-104038061D01*
X97515226Y-103838102D01*
X97437205Y-103649744D01*
X97323937Y-103480226D01*
X97221711Y-103378000D01*
X97323937Y-103275774D01*
X97437205Y-103106256D01*
X97515226Y-102917898D01*
X97555000Y-102717939D01*
X97555000Y-102514061D01*
X97515226Y-102314102D01*
X97437205Y-102125744D01*
X97323937Y-101956226D01*
X97221711Y-101854000D01*
X97323937Y-101751774D01*
X97437205Y-101582256D01*
X97515226Y-101393898D01*
X97555000Y-101193939D01*
X97555000Y-100990061D01*
X97515226Y-100790102D01*
X97437205Y-100601744D01*
X97323937Y-100432226D01*
X97179774Y-100288063D01*
X97010256Y-100174795D01*
X96821898Y-100096774D01*
X96621939Y-100057000D01*
X96559802Y-100057000D01*
X91565000Y-95062199D01*
X91565000Y-85656211D01*
X96019800Y-90111012D01*
X96043599Y-90140011D01*
X96072597Y-90163809D01*
X96080466Y-90170267D01*
X97226201Y-91316003D01*
X97249999Y-91345001D01*
X97365724Y-91439974D01*
X97497753Y-91510546D01*
X97641014Y-91554003D01*
X97752667Y-91565000D01*
X97752676Y-91565000D01*
X97789999Y-91568676D01*
X97827322Y-91565000D01*
X106269659Y-91565000D01*
X106356880Y-91695535D01*
X106551465Y-91890120D01*
X106780273Y-92043005D01*
X106857515Y-92075000D01*
X106780273Y-92106995D01*
X106551465Y-92259880D01*
X106356880Y-92454465D01*
X106203995Y-92683273D01*
X106098686Y-92937510D01*
X106045000Y-93207408D01*
X106045000Y-93482592D01*
X106098686Y-93752490D01*
X106203995Y-94006727D01*
X106356880Y-94235535D01*
X106551465Y-94430120D01*
X106780273Y-94583005D01*
X106857515Y-94615000D01*
X106780273Y-94646995D01*
X106551465Y-94799880D01*
X106356880Y-94994465D01*
X106203995Y-95223273D01*
X106098686Y-95477510D01*
X106045000Y-95747408D01*
X106045000Y-96022592D01*
X106098686Y-96292490D01*
X106203995Y-96546727D01*
X106356880Y-96775535D01*
X106551465Y-96970120D01*
X106780273Y-97123005D01*
X106857515Y-97155000D01*
X106780273Y-97186995D01*
X106551465Y-97339880D01*
X106356880Y-97534465D01*
X106203995Y-97763273D01*
X106098686Y-98017510D01*
X106045000Y-98287408D01*
X106045000Y-98562592D01*
X106098686Y-98832490D01*
X106203995Y-99086727D01*
X106356880Y-99315535D01*
X106551465Y-99510120D01*
X106780273Y-99663005D01*
X106857515Y-99695000D01*
X106780273Y-99726995D01*
X106551465Y-99879880D01*
X106356880Y-100074465D01*
X106203995Y-100303273D01*
X106098686Y-100557510D01*
X106045000Y-100827408D01*
X106045000Y-101102592D01*
X106098686Y-101372490D01*
X106203995Y-101626727D01*
X106356880Y-101855535D01*
X106551465Y-102050120D01*
X106780273Y-102203005D01*
X106857515Y-102235000D01*
X106780273Y-102266995D01*
X106551465Y-102419880D01*
X106356880Y-102614465D01*
X106203995Y-102843273D01*
X106098686Y-103097510D01*
X106045000Y-103367408D01*
X106045000Y-103642592D01*
X106098686Y-103912490D01*
X106203995Y-104166727D01*
X106356880Y-104395535D01*
X106551465Y-104590120D01*
X106780273Y-104743005D01*
X106857515Y-104775000D01*
X106780273Y-104806995D01*
X106551465Y-104959880D01*
X106356880Y-105154465D01*
X106203995Y-105383273D01*
X106098686Y-105637510D01*
X106045000Y-105907408D01*
X106045000Y-106182592D01*
X106098686Y-106452490D01*
X106203995Y-106706727D01*
X106356880Y-106935535D01*
X106551465Y-107130120D01*
X106780273Y-107283005D01*
X106857515Y-107315000D01*
X106780273Y-107346995D01*
X106551465Y-107499880D01*
X106356880Y-107694465D01*
X106203995Y-107923273D01*
X106098686Y-108177510D01*
X106045000Y-108447408D01*
X106045000Y-108722592D01*
X106098686Y-108992490D01*
X106203995Y-109246727D01*
X106356880Y-109475535D01*
X106551465Y-109670120D01*
X106780273Y-109823005D01*
X106857515Y-109855000D01*
X106780273Y-109886995D01*
X106551465Y-110039880D01*
X106356880Y-110234465D01*
X106203995Y-110463273D01*
X106098686Y-110717510D01*
X106045000Y-110987408D01*
X106045000Y-111262592D01*
X106098686Y-111532490D01*
X106203995Y-111786727D01*
X106356880Y-112015535D01*
X106551465Y-112210120D01*
X106780273Y-112363005D01*
X106857515Y-112395000D01*
X106780273Y-112426995D01*
X106551465Y-112579880D01*
X106356880Y-112774465D01*
X106203995Y-113003273D01*
X106098686Y-113257510D01*
X106045000Y-113527408D01*
X106045000Y-113802592D01*
X106098686Y-114072490D01*
X106203995Y-114326727D01*
X106356880Y-114555535D01*
X106551465Y-114750120D01*
X106780273Y-114903005D01*
X106857515Y-114935000D01*
X106780273Y-114966995D01*
X106551465Y-115119880D01*
X106356880Y-115314465D01*
X106203995Y-115543273D01*
X106098686Y-115797510D01*
X106045000Y-116067408D01*
X106045000Y-116342592D01*
X106098686Y-116612490D01*
X106203995Y-116866727D01*
X106356880Y-117095535D01*
X106551465Y-117290120D01*
X106780273Y-117443005D01*
X106857515Y-117475000D01*
X106780273Y-117506995D01*
X106551465Y-117659880D01*
X106356880Y-117854465D01*
X106203995Y-118083273D01*
X106098686Y-118337510D01*
X106045000Y-118607408D01*
X106045000Y-118882592D01*
X106098686Y-119152490D01*
X106203995Y-119406727D01*
X106356880Y-119635535D01*
X106551465Y-119830120D01*
X106780273Y-119983005D01*
X106857515Y-120015000D01*
X106780273Y-120046995D01*
X106551465Y-120199880D01*
X106356880Y-120394465D01*
X106203995Y-120623273D01*
X106098686Y-120877510D01*
X106045000Y-121147408D01*
X106045000Y-121422592D01*
X106098686Y-121692490D01*
X106203995Y-121946727D01*
X106356880Y-122175535D01*
X106551465Y-122370120D01*
X106780273Y-122523005D01*
X106857515Y-122555000D01*
X106780273Y-122586995D01*
X106551465Y-122739880D01*
X106356880Y-122934465D01*
X106203995Y-123163273D01*
X106098686Y-123417510D01*
X106045000Y-123687408D01*
X106045000Y-123962592D01*
X106098686Y-124232490D01*
X106203995Y-124486727D01*
X106356880Y-124715535D01*
X106551465Y-124910120D01*
X106780273Y-125063005D01*
X106857515Y-125095000D01*
X106780273Y-125126995D01*
X106551465Y-125279880D01*
X106356880Y-125474465D01*
X106203995Y-125703273D01*
X106098686Y-125957510D01*
X106045000Y-126227408D01*
X106045000Y-126502592D01*
X106098686Y-126772490D01*
X106203995Y-127026727D01*
X106356880Y-127255535D01*
X106551465Y-127450120D01*
X106780273Y-127603005D01*
X106857515Y-127635000D01*
X106780273Y-127666995D01*
X106551465Y-127819880D01*
X106356880Y-128014465D01*
X106203995Y-128243273D01*
X106098686Y-128497510D01*
X106045000Y-128767408D01*
X106045000Y-129042592D01*
X106098686Y-129312490D01*
X106203995Y-129566727D01*
X106356880Y-129795535D01*
X106551465Y-129990120D01*
X106780273Y-130143005D01*
X106857515Y-130175000D01*
X106780273Y-130206995D01*
X106551465Y-130359880D01*
X106356880Y-130554465D01*
X106203995Y-130783273D01*
X106098686Y-131037510D01*
X106045000Y-131307408D01*
X106045000Y-131582592D01*
X106098686Y-131852490D01*
X106203995Y-132106727D01*
X106356880Y-132335535D01*
X106551465Y-132530120D01*
X106780273Y-132683005D01*
X106857515Y-132715000D01*
X106780273Y-132746995D01*
X106551465Y-132899880D01*
X106356880Y-133094465D01*
X106203995Y-133323273D01*
X106098686Y-133577510D01*
X106045000Y-133847408D01*
X106045000Y-134122592D01*
X106098686Y-134392490D01*
X106203995Y-134646727D01*
X106356880Y-134875535D01*
X106551465Y-135070120D01*
X106780273Y-135223005D01*
X107034510Y-135328314D01*
X107304408Y-135382000D01*
X107579592Y-135382000D01*
X107849490Y-135328314D01*
X108103727Y-135223005D01*
X108332535Y-135070120D01*
X108527120Y-134875535D01*
X108680005Y-134646727D01*
X108785314Y-134392490D01*
X108839000Y-134122592D01*
X108839000Y-133847408D01*
X108785314Y-133577510D01*
X108680005Y-133323273D01*
X108527120Y-133094465D01*
X108332535Y-132899880D01*
X108103727Y-132746995D01*
X108026485Y-132715000D01*
X108103727Y-132683005D01*
X108332535Y-132530120D01*
X108527120Y-132335535D01*
X108680005Y-132106727D01*
X108785314Y-131852490D01*
X108839000Y-131582592D01*
X108839000Y-131307408D01*
X108785314Y-131037510D01*
X108680005Y-130783273D01*
X108527120Y-130554465D01*
X108332535Y-130359880D01*
X108103727Y-130206995D01*
X108026485Y-130175000D01*
X108103727Y-130143005D01*
X108332535Y-129990120D01*
X108527120Y-129795535D01*
X108680005Y-129566727D01*
X108785314Y-129312490D01*
X108839000Y-129042592D01*
X108839000Y-128767408D01*
X108785314Y-128497510D01*
X108680005Y-128243273D01*
X108527120Y-128014465D01*
X108332535Y-127819880D01*
X108103727Y-127666995D01*
X108026485Y-127635000D01*
X108103727Y-127603005D01*
X108332535Y-127450120D01*
X108527120Y-127255535D01*
X108680005Y-127026727D01*
X108750215Y-126857225D01*
X108760188Y-126958482D01*
X108796498Y-127078180D01*
X108855463Y-127188494D01*
X108934815Y-127285185D01*
X109031506Y-127364537D01*
X109141820Y-127423502D01*
X109261518Y-127459812D01*
X109386000Y-127472072D01*
X111086000Y-127472072D01*
X111210482Y-127459812D01*
X111330180Y-127423502D01*
X111440494Y-127364537D01*
X111537185Y-127285185D01*
X111616537Y-127188494D01*
X111675502Y-127078180D01*
X111711812Y-126958482D01*
X111724072Y-126834000D01*
X111724072Y-125134000D01*
X111711812Y-125009518D01*
X111675502Y-124889820D01*
X111616537Y-124779506D01*
X111537185Y-124682815D01*
X111440494Y-124603463D01*
X111330180Y-124544498D01*
X111257620Y-124522487D01*
X111389475Y-124390632D01*
X111551990Y-124147411D01*
X111663932Y-123877158D01*
X111721000Y-123590260D01*
X111721000Y-123297740D01*
X111663932Y-123010842D01*
X111551990Y-122740589D01*
X111389475Y-122497368D01*
X111182632Y-122290525D01*
X111008240Y-122174000D01*
X111182632Y-122057475D01*
X111389475Y-121850632D01*
X111551990Y-121607411D01*
X111663932Y-121337158D01*
X111721000Y-121050260D01*
X111721000Y-120757740D01*
X111663932Y-120470842D01*
X111551990Y-120200589D01*
X111389475Y-119957368D01*
X111182632Y-119750525D01*
X111008240Y-119634000D01*
X111182632Y-119517475D01*
X111389475Y-119310632D01*
X111551990Y-119067411D01*
X111663932Y-118797158D01*
X111721000Y-118510260D01*
X111721000Y-118217740D01*
X111663932Y-117930842D01*
X111551990Y-117660589D01*
X111389475Y-117417368D01*
X111182632Y-117210525D01*
X111008240Y-117094000D01*
X111182632Y-116977475D01*
X111389475Y-116770632D01*
X111551990Y-116527411D01*
X111663932Y-116257158D01*
X111721000Y-115970260D01*
X111721000Y-115677740D01*
X111663932Y-115390842D01*
X111551990Y-115120589D01*
X111389475Y-114877368D01*
X111182632Y-114670525D01*
X111008240Y-114554000D01*
X111182632Y-114437475D01*
X111389475Y-114230632D01*
X111551990Y-113987411D01*
X111663932Y-113717158D01*
X111721000Y-113430260D01*
X111721000Y-113137740D01*
X111663932Y-112850842D01*
X111551990Y-112580589D01*
X111389475Y-112337368D01*
X111182632Y-112130525D01*
X111008240Y-112014000D01*
X111182632Y-111897475D01*
X111389475Y-111690632D01*
X111551990Y-111447411D01*
X111663932Y-111177158D01*
X111721000Y-110890260D01*
X111721000Y-110597740D01*
X111663932Y-110310842D01*
X111551990Y-110040589D01*
X111389475Y-109797368D01*
X111182632Y-109590525D01*
X111008240Y-109474000D01*
X111182632Y-109357475D01*
X111389475Y-109150632D01*
X111551990Y-108907411D01*
X111663932Y-108637158D01*
X111721000Y-108350260D01*
X111721000Y-108057740D01*
X111663932Y-107770842D01*
X111551990Y-107500589D01*
X111389475Y-107257368D01*
X111182632Y-107050525D01*
X111008240Y-106934000D01*
X111182632Y-106817475D01*
X111389475Y-106610632D01*
X111551990Y-106367411D01*
X111663932Y-106097158D01*
X111721000Y-105810260D01*
X111721000Y-105517740D01*
X111663932Y-105230842D01*
X111551990Y-104960589D01*
X111389475Y-104717368D01*
X111182632Y-104510525D01*
X111008240Y-104394000D01*
X111182632Y-104277475D01*
X111389475Y-104070632D01*
X111551990Y-103827411D01*
X111663932Y-103557158D01*
X111721000Y-103270260D01*
X111721000Y-102977740D01*
X111663932Y-102690842D01*
X111551990Y-102420589D01*
X111389475Y-102177368D01*
X111182632Y-101970525D01*
X111008240Y-101854000D01*
X111182632Y-101737475D01*
X111389475Y-101530632D01*
X111551990Y-101287411D01*
X111663932Y-101017158D01*
X111721000Y-100730260D01*
X111721000Y-100437740D01*
X111663932Y-100150842D01*
X111551990Y-99880589D01*
X111389475Y-99637368D01*
X111182632Y-99430525D01*
X111008240Y-99314000D01*
X111182632Y-99197475D01*
X111389475Y-98990632D01*
X111551990Y-98747411D01*
X111663932Y-98477158D01*
X111721000Y-98190260D01*
X111721000Y-97897740D01*
X111663932Y-97610842D01*
X111551990Y-97340589D01*
X111389475Y-97097368D01*
X111182632Y-96890525D01*
X110939411Y-96728010D01*
X110669158Y-96616068D01*
X110382260Y-96559000D01*
X110089740Y-96559000D01*
X109802842Y-96616068D01*
X109532589Y-96728010D01*
X109289368Y-96890525D01*
X109082525Y-97097368D01*
X108920010Y-97340589D01*
X108808068Y-97610842D01*
X108751000Y-97897740D01*
X108751000Y-97934669D01*
X108680005Y-97763273D01*
X108527120Y-97534465D01*
X108332535Y-97339880D01*
X108103727Y-97186995D01*
X108026485Y-97155000D01*
X108103727Y-97123005D01*
X108332535Y-96970120D01*
X108527120Y-96775535D01*
X108680005Y-96546727D01*
X108785314Y-96292490D01*
X108839000Y-96022592D01*
X108839000Y-95747408D01*
X108785314Y-95477510D01*
X108680005Y-95223273D01*
X108527120Y-94994465D01*
X108332535Y-94799880D01*
X108103727Y-94646995D01*
X108026485Y-94615000D01*
X108103727Y-94583005D01*
X108332535Y-94430120D01*
X108527120Y-94235535D01*
X108680005Y-94006727D01*
X108785314Y-93752490D01*
X108839000Y-93482592D01*
X108839000Y-93207408D01*
X108785314Y-92937510D01*
X108680005Y-92683273D01*
X108527120Y-92454465D01*
X108332535Y-92259880D01*
X108103727Y-92106995D01*
X108026485Y-92075000D01*
X108103727Y-92043005D01*
X108332535Y-91890120D01*
X108527120Y-91695535D01*
X108680005Y-91466727D01*
X108785314Y-91212490D01*
X108839000Y-90942592D01*
X108839000Y-90667408D01*
X108785314Y-90397510D01*
X108680005Y-90143273D01*
X108527120Y-89914465D01*
X108332535Y-89719880D01*
X108103727Y-89566995D01*
X108032057Y-89537308D01*
X108045023Y-89532636D01*
X108160980Y-89470656D01*
X108227960Y-89230565D01*
X107442000Y-88444605D01*
X106656040Y-89230565D01*
X106723020Y-89470656D01*
X106858760Y-89534485D01*
X106780273Y-89566995D01*
X106551465Y-89719880D01*
X106356880Y-89914465D01*
X106269659Y-90045000D01*
X98104802Y-90045000D01*
X97148814Y-89089013D01*
X97125011Y-89060009D01*
X97088150Y-89029758D01*
X96395409Y-88337017D01*
X106040090Y-88337017D01*
X106081078Y-88609133D01*
X106174364Y-88868023D01*
X106236344Y-88983980D01*
X106476435Y-89050960D01*
X107262395Y-88265000D01*
X107621605Y-88265000D01*
X108407565Y-89050960D01*
X108647656Y-88983980D01*
X108764756Y-88734952D01*
X108831023Y-88467865D01*
X108843910Y-88192983D01*
X108802922Y-87920867D01*
X108709636Y-87661977D01*
X108647656Y-87546020D01*
X108407565Y-87479040D01*
X107621605Y-88265000D01*
X107262395Y-88265000D01*
X106476435Y-87479040D01*
X106236344Y-87546020D01*
X106119244Y-87795048D01*
X106052977Y-88062135D01*
X106040090Y-88337017D01*
X96395409Y-88337017D01*
X95357827Y-87299435D01*
X106656040Y-87299435D01*
X107442000Y-88085395D01*
X108227960Y-87299435D01*
X108160980Y-87059344D01*
X107911952Y-86942244D01*
X107644865Y-86875977D01*
X107369983Y-86863090D01*
X107097867Y-86904078D01*
X106838977Y-86997364D01*
X106723020Y-87059344D01*
X106656040Y-87299435D01*
X95357827Y-87299435D01*
X92200000Y-84141609D01*
X92200000Y-64322801D01*
X95543802Y-60979000D01*
X95605939Y-60979000D01*
X95805898Y-60939226D01*
X95994256Y-60861205D01*
X96163774Y-60747937D01*
X96307937Y-60603774D01*
X96421205Y-60434256D01*
X96499226Y-60245898D01*
X96539000Y-60045939D01*
X96539000Y-59842061D01*
X96499226Y-59642102D01*
X96421205Y-59453744D01*
X96307937Y-59284226D01*
X96163774Y-59140063D01*
X95994256Y-59026795D01*
X95805898Y-58948774D01*
X95605939Y-58909000D01*
X95402061Y-58909000D01*
X95202102Y-58948774D01*
X95013744Y-59026795D01*
X94844226Y-59140063D01*
X94700063Y-59284226D01*
X94586795Y-59453744D01*
X94508774Y-59642102D01*
X94469000Y-59842061D01*
X94469000Y-59904198D01*
X91565000Y-62808199D01*
X91565000Y-61909801D01*
X93003802Y-60471000D01*
X93065939Y-60471000D01*
X93265898Y-60431226D01*
X93454256Y-60353205D01*
X93623774Y-60239937D01*
X93767937Y-60095774D01*
X93881205Y-59926256D01*
X93959226Y-59737898D01*
X93999000Y-59537939D01*
X93999000Y-59334061D01*
X93959226Y-59134102D01*
X93881205Y-58945744D01*
X93767937Y-58776226D01*
X93623774Y-58632063D01*
X93454256Y-58518795D01*
X93265898Y-58440774D01*
X93065939Y-58401000D01*
X92862061Y-58401000D01*
X92662102Y-58440774D01*
X92473744Y-58518795D01*
X92304226Y-58632063D01*
X92160063Y-58776226D01*
X92046795Y-58945744D01*
X91968774Y-59134102D01*
X91929000Y-59334061D01*
X91929000Y-59396198D01*
X90930000Y-60395199D01*
X90930000Y-60342685D01*
X91083774Y-60239937D01*
X91227937Y-60095774D01*
X91341205Y-59926256D01*
X91419226Y-59737898D01*
X91459000Y-59537939D01*
X91459000Y-59475801D01*
X95289802Y-55645000D01*
X95351939Y-55645000D01*
X95551898Y-55605226D01*
X95740256Y-55527205D01*
X95909774Y-55413937D01*
X96053937Y-55269774D01*
X96167205Y-55100256D01*
X96245226Y-54911898D01*
X96285000Y-54711939D01*
X96285000Y-54508061D01*
X96245226Y-54308102D01*
X96167205Y-54119744D01*
X96154013Y-54100000D01*
X101912289Y-54100000D01*
X101956226Y-54143937D01*
X102125744Y-54257205D01*
X102314102Y-54335226D01*
X102514061Y-54375000D01*
X102717939Y-54375000D01*
X102917898Y-54335226D01*
X103106256Y-54257205D01*
X103275774Y-54143937D01*
X103419937Y-53999774D01*
X103533205Y-53830256D01*
X103611226Y-53641898D01*
X103651000Y-53441939D01*
X103651000Y-53238061D01*
X103611226Y-53038102D01*
X103533205Y-52849744D01*
X103419937Y-52680226D01*
X103275774Y-52536063D01*
X103106256Y-52422795D01*
X102917898Y-52344774D01*
X102717939Y-52305000D01*
X102514061Y-52305000D01*
X102314102Y-52344774D01*
X102125744Y-52422795D01*
X101956226Y-52536063D01*
X101912289Y-52580000D01*
X86397333Y-52580000D01*
X86360000Y-52576323D01*
X86322667Y-52580000D01*
X86211014Y-52590997D01*
X86067753Y-52634454D01*
X85935724Y-52705026D01*
X85819999Y-52799999D01*
X85725026Y-52915724D01*
X85654454Y-53047753D01*
X85610997Y-53191014D01*
X85596323Y-53340000D01*
X85600000Y-53377333D01*
X85600000Y-53533197D01*
X84325002Y-54808197D01*
X84295999Y-54831999D01*
X84240871Y-54899174D01*
X84201026Y-54947724D01*
X84154763Y-55034276D01*
X84130454Y-55079754D01*
X84086997Y-55223015D01*
X84076000Y-55334668D01*
X84076000Y-55334678D01*
X84072324Y-55372000D01*
X84076000Y-55409323D01*
X84076001Y-60764288D01*
X84032063Y-60808226D01*
X83918795Y-60977744D01*
X83840774Y-61166102D01*
X83801000Y-61366061D01*
X83801000Y-61569939D01*
X83840774Y-61769898D01*
X83918795Y-61958256D01*
X84032063Y-62127774D01*
X84176226Y-62271937D01*
X84345744Y-62385205D01*
X84534102Y-62463226D01*
X84734061Y-62503000D01*
X84937939Y-62503000D01*
X85137898Y-62463226D01*
X85326256Y-62385205D01*
X85495774Y-62271937D01*
X85639937Y-62127774D01*
X85753205Y-61958256D01*
X85831226Y-61769898D01*
X85871000Y-61569939D01*
X85871000Y-61366061D01*
X85831226Y-61166102D01*
X85753205Y-60977744D01*
X85639937Y-60808226D01*
X85596000Y-60764289D01*
X85596000Y-55686801D01*
X86871008Y-54411795D01*
X86900001Y-54388001D01*
X86923795Y-54359008D01*
X86923799Y-54359004D01*
X86994973Y-54272277D01*
X86994974Y-54272276D01*
X87065546Y-54140247D01*
X87077755Y-54100000D01*
X91805987Y-54100000D01*
X91792795Y-54119744D01*
X91714774Y-54308102D01*
X91675000Y-54508061D01*
X91675000Y-54570198D01*
X89024003Y-57221196D01*
X88994999Y-57244999D01*
X88939871Y-57312174D01*
X88900026Y-57360724D01*
X88829455Y-57492753D01*
X88829454Y-57492754D01*
X88785997Y-57636015D01*
X88775000Y-57747668D01*
X88775000Y-57747678D01*
X88771324Y-57785000D01*
X88775000Y-57822322D01*
X88775001Y-97117667D01*
X88771324Y-97155000D01*
X88785998Y-97303985D01*
X88829454Y-97447246D01*
X88900026Y-97579276D01*
X88971201Y-97666002D01*
X88995000Y-97695001D01*
X89023998Y-97718799D01*
X90215744Y-98910545D01*
X90191289Y-98935000D01*
X89572325Y-98935000D01*
X89535000Y-98931324D01*
X89497675Y-98935000D01*
X89497667Y-98935000D01*
X89386014Y-98945997D01*
X89242753Y-98989454D01*
X89110724Y-99060026D01*
X88994999Y-99154999D01*
X88971201Y-99183997D01*
X85410199Y-102745000D01*
X83214341Y-102745000D01*
X83127120Y-102614465D01*
X82932535Y-102419880D01*
X82703727Y-102266995D01*
X82626485Y-102235000D01*
X82703727Y-102203005D01*
X82932535Y-102050120D01*
X83127120Y-101855535D01*
X83280005Y-101626727D01*
X83385314Y-101372490D01*
X83439000Y-101102592D01*
X83439000Y-100827408D01*
X83385314Y-100557510D01*
X83280005Y-100303273D01*
X83127120Y-100074465D01*
X82932535Y-99879880D01*
X82703727Y-99726995D01*
X82626485Y-99695000D01*
X82703727Y-99663005D01*
X82932535Y-99510120D01*
X83127120Y-99315535D01*
X83280005Y-99086727D01*
X83385314Y-98832490D01*
X83439000Y-98562592D01*
X83439000Y-98287408D01*
X83385314Y-98017510D01*
X83280005Y-97763273D01*
X83127120Y-97534465D01*
X82932535Y-97339880D01*
X82703727Y-97186995D01*
X82626485Y-97155000D01*
X82703727Y-97123005D01*
X82932535Y-96970120D01*
X83127120Y-96775535D01*
X83280005Y-96546727D01*
X83385314Y-96292490D01*
X83439000Y-96022592D01*
X83439000Y-95747408D01*
X83385314Y-95477510D01*
X83280005Y-95223273D01*
X83127120Y-94994465D01*
X82932535Y-94799880D01*
X82703727Y-94646995D01*
X82626485Y-94615000D01*
X82703727Y-94583005D01*
X82932535Y-94430120D01*
X83127120Y-94235535D01*
X83280005Y-94006727D01*
X83385314Y-93752490D01*
X83439000Y-93482592D01*
X83439000Y-93207408D01*
X83385314Y-92937510D01*
X83280005Y-92683273D01*
X83127120Y-92454465D01*
X82932535Y-92259880D01*
X82703727Y-92106995D01*
X82626485Y-92075000D01*
X82703727Y-92043005D01*
X82932535Y-91890120D01*
X83127120Y-91695535D01*
X83280005Y-91466727D01*
X83385314Y-91212490D01*
X83439000Y-90942592D01*
X83439000Y-90667408D01*
X83385314Y-90397510D01*
X83280005Y-90143273D01*
X83127120Y-89914465D01*
X82932535Y-89719880D01*
X82703727Y-89566995D01*
X82626485Y-89535000D01*
X82703727Y-89503005D01*
X82932535Y-89350120D01*
X83127120Y-89155535D01*
X83280005Y-88926727D01*
X83385314Y-88672490D01*
X83439000Y-88402592D01*
X83439000Y-88127408D01*
X83385314Y-87857510D01*
X83280005Y-87603273D01*
X83127120Y-87374465D01*
X82932535Y-87179880D01*
X82703727Y-87026995D01*
X82449490Y-86921686D01*
X82179592Y-86868000D01*
X81904408Y-86868000D01*
X81634510Y-86921686D01*
X81380273Y-87026995D01*
X81151465Y-87179880D01*
X80956880Y-87374465D01*
X80803995Y-87603273D01*
X80698686Y-87857510D01*
X80645000Y-88127408D01*
X80645000Y-88402592D01*
X80698686Y-88672490D01*
X80803995Y-88926727D01*
X80956880Y-89155535D01*
X81151465Y-89350120D01*
X81380273Y-89503005D01*
X81457515Y-89535000D01*
X81380273Y-89566995D01*
X81151465Y-89719880D01*
X80956880Y-89914465D01*
X80803995Y-90143273D01*
X80698686Y-90397510D01*
X80645000Y-90667408D01*
X80645000Y-90942592D01*
X80698686Y-91212490D01*
X80803995Y-91466727D01*
X80956880Y-91695535D01*
X81151465Y-91890120D01*
X81380273Y-92043005D01*
X81457515Y-92075000D01*
X81380273Y-92106995D01*
X81151465Y-92259880D01*
X80956880Y-92454465D01*
X80803995Y-92683273D01*
X80698686Y-92937510D01*
X80645000Y-93207408D01*
X80645000Y-93482592D01*
X80698686Y-93752490D01*
X80803995Y-94006727D01*
X80956880Y-94235535D01*
X81151465Y-94430120D01*
X81380273Y-94583005D01*
X81457515Y-94615000D01*
X81380273Y-94646995D01*
X81151465Y-94799880D01*
X80956880Y-94994465D01*
X80803995Y-95223273D01*
X80698686Y-95477510D01*
X80645000Y-95747408D01*
X80645000Y-96022592D01*
X80698686Y-96292490D01*
X80803995Y-96546727D01*
X80956880Y-96775535D01*
X81151465Y-96970120D01*
X81380273Y-97123005D01*
X81457515Y-97155000D01*
X81380273Y-97186995D01*
X81151465Y-97339880D01*
X80956880Y-97534465D01*
X80803995Y-97763273D01*
X80698686Y-98017510D01*
X80645000Y-98287408D01*
X80645000Y-98562592D01*
X80698686Y-98832490D01*
X80803995Y-99086727D01*
X80956880Y-99315535D01*
X81151465Y-99510120D01*
X81380273Y-99663005D01*
X81457515Y-99695000D01*
X81380273Y-99726995D01*
X81151465Y-99879880D01*
X80956880Y-100074465D01*
X80803995Y-100303273D01*
X80698686Y-100557510D01*
X80645000Y-100827408D01*
X80645000Y-101102592D01*
X80698686Y-101372490D01*
X80803995Y-101626727D01*
X80956880Y-101855535D01*
X81151465Y-102050120D01*
X81380273Y-102203005D01*
X81457515Y-102235000D01*
X81380273Y-102266995D01*
X81151465Y-102419880D01*
X80956880Y-102614465D01*
X80803995Y-102843273D01*
X80698686Y-103097510D01*
X80645000Y-103367408D01*
X80645000Y-103642592D01*
X80698686Y-103912490D01*
X80803995Y-104166727D01*
X80956880Y-104395535D01*
X81151465Y-104590120D01*
X81380273Y-104743005D01*
X81457515Y-104775000D01*
X81380273Y-104806995D01*
X81151465Y-104959880D01*
X80956880Y-105154465D01*
X80803995Y-105383273D01*
X80698686Y-105637510D01*
X80645000Y-105907408D01*
X80645000Y-106182592D01*
X80698686Y-106452490D01*
X80803995Y-106706727D01*
X80956880Y-106935535D01*
X81151465Y-107130120D01*
X81380273Y-107283005D01*
X81457515Y-107315000D01*
X81380273Y-107346995D01*
X81151465Y-107499880D01*
X80956880Y-107694465D01*
X80803995Y-107923273D01*
X80698686Y-108177510D01*
X80645000Y-108447408D01*
X80645000Y-108722592D01*
X80698686Y-108992490D01*
X80803995Y-109246727D01*
X80956880Y-109475535D01*
X81151465Y-109670120D01*
X81380273Y-109823005D01*
X81457515Y-109855000D01*
X81380273Y-109886995D01*
X81151465Y-110039880D01*
X80956880Y-110234465D01*
X80803995Y-110463273D01*
X80698686Y-110717510D01*
X80645000Y-110987408D01*
X80645000Y-111262592D01*
X80698686Y-111532490D01*
X80803995Y-111786727D01*
X80956880Y-112015535D01*
X81151465Y-112210120D01*
X81380273Y-112363005D01*
X81457515Y-112395000D01*
X81380273Y-112426995D01*
X81151465Y-112579880D01*
X80956880Y-112774465D01*
X80803995Y-113003273D01*
X80698686Y-113257510D01*
X80645000Y-113527408D01*
X80645000Y-113802592D01*
X80698686Y-114072490D01*
X80803995Y-114326727D01*
X80956880Y-114555535D01*
X81151465Y-114750120D01*
X81380273Y-114903005D01*
X81457515Y-114935000D01*
X81380273Y-114966995D01*
X81151465Y-115119880D01*
X80956880Y-115314465D01*
X80803995Y-115543273D01*
X80698686Y-115797510D01*
X80645000Y-116067408D01*
X80645000Y-116174306D01*
X80628537Y-116143506D01*
X80549185Y-116046815D01*
X80452494Y-115967463D01*
X80342180Y-115908498D01*
X80269620Y-115886487D01*
X80401475Y-115754632D01*
X80563990Y-115511411D01*
X80675932Y-115241158D01*
X80733000Y-114954260D01*
X80733000Y-114661740D01*
X80675932Y-114374842D01*
X80563990Y-114104589D01*
X80401475Y-113861368D01*
X80194632Y-113654525D01*
X80020240Y-113538000D01*
X80194632Y-113421475D01*
X80401475Y-113214632D01*
X80563990Y-112971411D01*
X80675932Y-112701158D01*
X80733000Y-112414260D01*
X80733000Y-112121740D01*
X80675932Y-111834842D01*
X80563990Y-111564589D01*
X80401475Y-111321368D01*
X80194632Y-111114525D01*
X80020240Y-110998000D01*
X80194632Y-110881475D01*
X80401475Y-110674632D01*
X80563990Y-110431411D01*
X80675932Y-110161158D01*
X80733000Y-109874260D01*
X80733000Y-109581740D01*
X80675932Y-109294842D01*
X80563990Y-109024589D01*
X80401475Y-108781368D01*
X80194632Y-108574525D01*
X80020240Y-108458000D01*
X80194632Y-108341475D01*
X80401475Y-108134632D01*
X80563990Y-107891411D01*
X80675932Y-107621158D01*
X80733000Y-107334260D01*
X80733000Y-107041740D01*
X80675932Y-106754842D01*
X80563990Y-106484589D01*
X80401475Y-106241368D01*
X80194632Y-106034525D01*
X80020240Y-105918000D01*
X80194632Y-105801475D01*
X80401475Y-105594632D01*
X80563990Y-105351411D01*
X80675932Y-105081158D01*
X80733000Y-104794260D01*
X80733000Y-104501740D01*
X80675932Y-104214842D01*
X80563990Y-103944589D01*
X80401475Y-103701368D01*
X80194632Y-103494525D01*
X80020240Y-103378000D01*
X80194632Y-103261475D01*
X80401475Y-103054632D01*
X80563990Y-102811411D01*
X80675932Y-102541158D01*
X80733000Y-102254260D01*
X80733000Y-101961740D01*
X80675932Y-101674842D01*
X80563990Y-101404589D01*
X80401475Y-101161368D01*
X80194632Y-100954525D01*
X80020240Y-100838000D01*
X80194632Y-100721475D01*
X80401475Y-100514632D01*
X80563990Y-100271411D01*
X80675932Y-100001158D01*
X80733000Y-99714260D01*
X80733000Y-99421740D01*
X80675932Y-99134842D01*
X80563990Y-98864589D01*
X80401475Y-98621368D01*
X80194632Y-98414525D01*
X80020240Y-98298000D01*
X80194632Y-98181475D01*
X80401475Y-97974632D01*
X80563990Y-97731411D01*
X80675932Y-97461158D01*
X80733000Y-97174260D01*
X80733000Y-96881740D01*
X80675932Y-96594842D01*
X80563990Y-96324589D01*
X80401475Y-96081368D01*
X80194632Y-95874525D01*
X80020240Y-95758000D01*
X80194632Y-95641475D01*
X80401475Y-95434632D01*
X80563990Y-95191411D01*
X80675932Y-94921158D01*
X80733000Y-94634260D01*
X80733000Y-94341740D01*
X80675932Y-94054842D01*
X80563990Y-93784589D01*
X80401475Y-93541368D01*
X80194632Y-93334525D01*
X79951411Y-93172010D01*
X79681158Y-93060068D01*
X79394260Y-93003000D01*
X79101740Y-93003000D01*
X78814842Y-93060068D01*
X78544589Y-93172010D01*
X78301368Y-93334525D01*
X78094525Y-93541368D01*
X77932010Y-93784589D01*
X77820068Y-94054842D01*
X77763000Y-94341740D01*
X77763000Y-94634260D01*
X77820068Y-94921158D01*
X77932010Y-95191411D01*
X78094525Y-95434632D01*
X78301368Y-95641475D01*
X78475760Y-95758000D01*
X78301368Y-95874525D01*
X78094525Y-96081368D01*
X77932010Y-96324589D01*
X77820068Y-96594842D01*
X77763000Y-96881740D01*
X77763000Y-97174260D01*
X77820068Y-97461158D01*
X77932010Y-97731411D01*
X78094525Y-97974632D01*
X78301368Y-98181475D01*
X78475760Y-98298000D01*
X78301368Y-98414525D01*
X78094525Y-98621368D01*
X77932010Y-98864589D01*
X77820068Y-99134842D01*
X77763000Y-99421740D01*
X77763000Y-99714260D01*
X77820068Y-100001158D01*
X77932010Y-100271411D01*
X78094525Y-100514632D01*
X78301368Y-100721475D01*
X78475760Y-100838000D01*
X78301368Y-100954525D01*
X78094525Y-101161368D01*
X77932010Y-101404589D01*
X77820068Y-101674842D01*
X77763000Y-101961740D01*
X77763000Y-102254260D01*
X77820068Y-102541158D01*
X77932010Y-102811411D01*
X78094525Y-103054632D01*
X78301368Y-103261475D01*
X78475760Y-103378000D01*
X78301368Y-103494525D01*
X78094525Y-103701368D01*
X77932010Y-103944589D01*
X77820068Y-104214842D01*
X77763000Y-104501740D01*
X77763000Y-104794260D01*
X77820068Y-105081158D01*
X77932010Y-105351411D01*
X78094525Y-105594632D01*
X78301368Y-105801475D01*
X78475760Y-105918000D01*
X78301368Y-106034525D01*
X78094525Y-106241368D01*
X77932010Y-106484589D01*
X77820068Y-106754842D01*
X77763000Y-107041740D01*
X77763000Y-107334260D01*
X77820068Y-107621158D01*
X77932010Y-107891411D01*
X78094525Y-108134632D01*
X78301368Y-108341475D01*
X78475760Y-108458000D01*
X78301368Y-108574525D01*
X78094525Y-108781368D01*
X77932010Y-109024589D01*
X77820068Y-109294842D01*
X77763000Y-109581740D01*
X77763000Y-109874260D01*
X77820068Y-110161158D01*
X77932010Y-110431411D01*
X78094525Y-110674632D01*
X78301368Y-110881475D01*
X78475760Y-110998000D01*
X78301368Y-111114525D01*
X78094525Y-111321368D01*
X77932010Y-111564589D01*
X77820068Y-111834842D01*
X77763000Y-112121740D01*
X77763000Y-112414260D01*
X77820068Y-112701158D01*
X77932010Y-112971411D01*
X78094525Y-113214632D01*
X78301368Y-113421475D01*
X78475760Y-113538000D01*
X78301368Y-113654525D01*
X78094525Y-113861368D01*
X77932010Y-114104589D01*
X77820068Y-114374842D01*
X77763000Y-114661740D01*
X77763000Y-114954260D01*
X77820068Y-115241158D01*
X77932010Y-115511411D01*
X78094525Y-115754632D01*
X78226380Y-115886487D01*
X78153820Y-115908498D01*
X78043506Y-115967463D01*
X77946815Y-116046815D01*
X77867463Y-116143506D01*
X77808498Y-116253820D01*
X77772188Y-116373518D01*
X77759928Y-116498000D01*
X74395000Y-116498000D01*
X74395000Y-63398061D01*
X84309000Y-63398061D01*
X84309000Y-63601939D01*
X84348774Y-63801898D01*
X84426795Y-63990256D01*
X84540063Y-64159774D01*
X84684226Y-64303937D01*
X84853744Y-64417205D01*
X85042102Y-64495226D01*
X85242061Y-64535000D01*
X85445939Y-64535000D01*
X85645898Y-64495226D01*
X85728785Y-64460893D01*
X86103348Y-64835456D01*
X86103347Y-66356942D01*
X86059410Y-66400879D01*
X85946142Y-66570397D01*
X85868121Y-66758755D01*
X85828347Y-66958714D01*
X85828347Y-67162592D01*
X85868121Y-67362551D01*
X85946142Y-67550909D01*
X86059410Y-67720427D01*
X86203573Y-67864590D01*
X86373091Y-67977858D01*
X86561449Y-68055879D01*
X86761408Y-68095653D01*
X86965286Y-68095653D01*
X87165245Y-68055879D01*
X87353603Y-67977858D01*
X87523121Y-67864590D01*
X87667284Y-67720427D01*
X87780552Y-67550909D01*
X87858573Y-67362551D01*
X87898347Y-67162592D01*
X87898347Y-66958714D01*
X87858573Y-66758755D01*
X87780552Y-66570397D01*
X87667284Y-66400879D01*
X87623347Y-66356942D01*
X87623347Y-64557975D01*
X87627023Y-64520652D01*
X87623347Y-64483329D01*
X87623347Y-64483320D01*
X87612350Y-64371667D01*
X87568893Y-64228406D01*
X87498321Y-64096377D01*
X87403348Y-63980652D01*
X87374350Y-63956854D01*
X86406498Y-62989002D01*
X86382695Y-62959999D01*
X86266970Y-62865026D01*
X86134941Y-62794454D01*
X86087894Y-62780183D01*
X86003774Y-62696063D01*
X85834256Y-62582795D01*
X85645898Y-62504774D01*
X85445939Y-62465000D01*
X85242061Y-62465000D01*
X85042102Y-62504774D01*
X84853744Y-62582795D01*
X84684226Y-62696063D01*
X84540063Y-62840226D01*
X84426795Y-63009744D01*
X84348774Y-63198102D01*
X84309000Y-63398061D01*
X74395000Y-63398061D01*
X74395000Y-47820000D01*
X78157928Y-47820000D01*
X78170188Y-47944482D01*
X78206498Y-48064180D01*
X78265463Y-48174494D01*
X78344815Y-48271185D01*
X78441506Y-48350537D01*
X78551820Y-48409502D01*
X78671518Y-48445812D01*
X78796000Y-48458072D01*
X79185250Y-48455000D01*
X79344000Y-48296250D01*
X79344000Y-45847000D01*
X79598000Y-45847000D01*
X79598000Y-48296250D01*
X79756750Y-48455000D01*
X80146000Y-48458072D01*
X80270482Y-48445812D01*
X80390180Y-48409502D01*
X80500494Y-48350537D01*
X80597185Y-48271185D01*
X80676537Y-48174494D01*
X80735502Y-48064180D01*
X80771812Y-47944482D01*
X80784072Y-47820000D01*
X83807928Y-47820000D01*
X83820188Y-47944482D01*
X83856498Y-48064180D01*
X83915463Y-48174494D01*
X83994815Y-48271185D01*
X84091506Y-48350537D01*
X84201820Y-48409502D01*
X84321518Y-48445812D01*
X84446000Y-48458072D01*
X84835250Y-48455000D01*
X84994000Y-48296250D01*
X84994000Y-45847000D01*
X85248000Y-45847000D01*
X85248000Y-48296250D01*
X85406750Y-48455000D01*
X85796000Y-48458072D01*
X85920482Y-48445812D01*
X86040180Y-48409502D01*
X86150494Y-48350537D01*
X86247185Y-48271185D01*
X86326537Y-48174494D01*
X86385502Y-48064180D01*
X86421812Y-47944482D01*
X86434072Y-47820000D01*
X86431000Y-46005750D01*
X86272250Y-45847000D01*
X85248000Y-45847000D01*
X84994000Y-45847000D01*
X83969750Y-45847000D01*
X83811000Y-46005750D01*
X83807928Y-47820000D01*
X80784072Y-47820000D01*
X80781000Y-46005750D01*
X80622250Y-45847000D01*
X79598000Y-45847000D01*
X79344000Y-45847000D01*
X78319750Y-45847000D01*
X78161000Y-46005750D01*
X78157928Y-47820000D01*
X74395000Y-47820000D01*
X74395000Y-44413895D01*
X74384365Y-44305915D01*
X74370000Y-44258560D01*
X74370000Y-43915000D01*
X78158428Y-43915000D01*
X78161000Y-45434250D01*
G04 #@! TA.AperFunction,Conductor*
D17*
G36*
X78161000Y-45434250D02*
G01*
X78319750Y-45593000D01*
X79344000Y-45593000D01*
X79344000Y-45573000D01*
X79598000Y-45573000D01*
X79598000Y-45593000D01*
X80622250Y-45593000D01*
X80781000Y-45434250D01*
X80783572Y-43915000D01*
X83808428Y-43915000D01*
X83811000Y-45434250D01*
X83969750Y-45593000D01*
X84994000Y-45593000D01*
X84994000Y-45573000D01*
X85248000Y-45573000D01*
X85248000Y-45593000D01*
X86272250Y-45593000D01*
X86431000Y-45434250D01*
X86433572Y-43915000D01*
X112955000Y-43915000D01*
X112955001Y-137720000D01*
X74370000Y-137720000D01*
X74370000Y-137351440D01*
X74384365Y-137304085D01*
X74395000Y-137196105D01*
X74395000Y-127674000D01*
X77759928Y-127674000D01*
X77763000Y-128238250D01*
X77921750Y-128397000D01*
X79121000Y-128397000D01*
X79121000Y-127197750D01*
X78962250Y-127039000D01*
X78398000Y-127035928D01*
X78273518Y-127048188D01*
X78153820Y-127084498D01*
X78043506Y-127143463D01*
X77946815Y-127222815D01*
X77867463Y-127319506D01*
X77808498Y-127429820D01*
X77772188Y-127549518D01*
X77759928Y-127674000D01*
X74395000Y-127674000D01*
X74395000Y-116498000D01*
X77759928Y-116498000D01*
X77759928Y-118198000D01*
X77772188Y-118322482D01*
X77808498Y-118442180D01*
X77867463Y-118552494D01*
X77946815Y-118649185D01*
X78043506Y-118728537D01*
X78153820Y-118787502D01*
X78273518Y-118823812D01*
X78398000Y-118836072D01*
X80098000Y-118836072D01*
X80222482Y-118823812D01*
X80342180Y-118787502D01*
X80452494Y-118728537D01*
X80549185Y-118649185D01*
X80628537Y-118552494D01*
X80672155Y-118470893D01*
X80645000Y-118607408D01*
X80645000Y-118882592D01*
X80698686Y-119152490D01*
X80803995Y-119406727D01*
X80956880Y-119635535D01*
X81151465Y-119830120D01*
X81380273Y-119983005D01*
X81457515Y-120015000D01*
X81380273Y-120046995D01*
X81151465Y-120199880D01*
X80956880Y-120394465D01*
X80803995Y-120623273D01*
X80698686Y-120877510D01*
X80645000Y-121147408D01*
X80645000Y-121422592D01*
X80698686Y-121692490D01*
X80803995Y-121946727D01*
X80956880Y-122175535D01*
X81151465Y-122370120D01*
X81380273Y-122523005D01*
X81457515Y-122555000D01*
X81380273Y-122586995D01*
X81151465Y-122739880D01*
X80956880Y-122934465D01*
X80803995Y-123163273D01*
X80698686Y-123417510D01*
X80645000Y-123687408D01*
X80645000Y-123962592D01*
X80698686Y-124232490D01*
X80803995Y-124486727D01*
X80956880Y-124715535D01*
X81151465Y-124910120D01*
X81380273Y-125063005D01*
X81457515Y-125095000D01*
X81380273Y-125126995D01*
X81151465Y-125279880D01*
X80956880Y-125474465D01*
X80803995Y-125703273D01*
X80698686Y-125957510D01*
X80645000Y-126227408D01*
X80645000Y-126502592D01*
X80698686Y-126772490D01*
X80803995Y-127026727D01*
X80956880Y-127255535D01*
X81151465Y-127450120D01*
X81380273Y-127603005D01*
X81457515Y-127635000D01*
X81380273Y-127666995D01*
X81151465Y-127819880D01*
X80956880Y-128014465D01*
X80803995Y-128243273D01*
X80733000Y-128414669D01*
X80733000Y-128396998D01*
X80574252Y-128396998D01*
X80733000Y-128238250D01*
X80736072Y-127674000D01*
X80723812Y-127549518D01*
X80687502Y-127429820D01*
X80628537Y-127319506D01*
X80549185Y-127222815D01*
X80452494Y-127143463D01*
X80342180Y-127084498D01*
X80222482Y-127048188D01*
X80098000Y-127035928D01*
X79533750Y-127039000D01*
X79375000Y-127197750D01*
X79375000Y-128397000D01*
X79395000Y-128397000D01*
X79395000Y-128651000D01*
X79375000Y-128651000D01*
X79375000Y-128671000D01*
X79121000Y-128671000D01*
X79121000Y-128651000D01*
X77921750Y-128651000D01*
X77763000Y-128809750D01*
X77759928Y-129374000D01*
X77772188Y-129498482D01*
X77808498Y-129618180D01*
X77867463Y-129728494D01*
X77946815Y-129825185D01*
X78043506Y-129904537D01*
X78153820Y-129963502D01*
X78226380Y-129985513D01*
X78094525Y-130117368D01*
X77932010Y-130360589D01*
X77820068Y-130630842D01*
X77763000Y-130917740D01*
X77763000Y-131210260D01*
X77820068Y-131497158D01*
X77932010Y-131767411D01*
X78094525Y-132010632D01*
X78301368Y-132217475D01*
X78475760Y-132334000D01*
X78301368Y-132450525D01*
X78094525Y-132657368D01*
X77932010Y-132900589D01*
X77820068Y-133170842D01*
X77763000Y-133457740D01*
X77763000Y-133750260D01*
X77820068Y-134037158D01*
X77932010Y-134307411D01*
X78094525Y-134550632D01*
X78301368Y-134757475D01*
X78544589Y-134919990D01*
X78814842Y-135031932D01*
X79101740Y-135089000D01*
X79394260Y-135089000D01*
X79681158Y-135031932D01*
X79951411Y-134919990D01*
X80194632Y-134757475D01*
X80401475Y-134550632D01*
X80563990Y-134307411D01*
X80645000Y-134111835D01*
X80645000Y-134122592D01*
X80698686Y-134392490D01*
X80803995Y-134646727D01*
X80956880Y-134875535D01*
X81151465Y-135070120D01*
X81380273Y-135223005D01*
X81634510Y-135328314D01*
X81904408Y-135382000D01*
X82179592Y-135382000D01*
X82449490Y-135328314D01*
X82703727Y-135223005D01*
X82932535Y-135070120D01*
X83127120Y-134875535D01*
X83280005Y-134646727D01*
X83385314Y-134392490D01*
X83439000Y-134122592D01*
X83439000Y-133847408D01*
X83385314Y-133577510D01*
X83280005Y-133323273D01*
X83127120Y-133094465D01*
X82932535Y-132899880D01*
X82703727Y-132746995D01*
X82626485Y-132715000D01*
X82703727Y-132683005D01*
X82932535Y-132530120D01*
X83127120Y-132335535D01*
X83280005Y-132106727D01*
X83385314Y-131852490D01*
X83439000Y-131582592D01*
X83439000Y-131307408D01*
X83385314Y-131037510D01*
X83280005Y-130783273D01*
X83127120Y-130554465D01*
X82932535Y-130359880D01*
X82703727Y-130206995D01*
X82626485Y-130175000D01*
X82703727Y-130143005D01*
X82932535Y-129990120D01*
X83127120Y-129795535D01*
X83280005Y-129566727D01*
X83385314Y-129312490D01*
X83439000Y-129042592D01*
X83439000Y-128767408D01*
X83385314Y-128497510D01*
X83280005Y-128243273D01*
X83127120Y-128014465D01*
X82932535Y-127819880D01*
X82703727Y-127666995D01*
X82626485Y-127635000D01*
X82703727Y-127603005D01*
X82932535Y-127450120D01*
X83127120Y-127255535D01*
X83280005Y-127026727D01*
X83385314Y-126772490D01*
X83439000Y-126502592D01*
X83439000Y-126227408D01*
X83385314Y-125957510D01*
X83280005Y-125703273D01*
X83127120Y-125474465D01*
X82932535Y-125279880D01*
X82703727Y-125126995D01*
X82626485Y-125095000D01*
X82703727Y-125063005D01*
X82932535Y-124910120D01*
X83127120Y-124715535D01*
X83280005Y-124486727D01*
X83385314Y-124232490D01*
X83439000Y-123962592D01*
X83439000Y-123687408D01*
X83385314Y-123417510D01*
X83280005Y-123163273D01*
X83127120Y-122934465D01*
X82932535Y-122739880D01*
X82703727Y-122586995D01*
X82626485Y-122555000D01*
X82703727Y-122523005D01*
X82932535Y-122370120D01*
X83127120Y-122175535D01*
X83280005Y-121946727D01*
X83385314Y-121692490D01*
X83439000Y-121422592D01*
X83439000Y-121147408D01*
X83385314Y-120877510D01*
X83280005Y-120623273D01*
X83127120Y-120394465D01*
X82932535Y-120199880D01*
X82703727Y-120046995D01*
X82626485Y-120015000D01*
X82703727Y-119983005D01*
X82932535Y-119830120D01*
X83127120Y-119635535D01*
X83280005Y-119406727D01*
X83385314Y-119152490D01*
X83439000Y-118882592D01*
X83439000Y-118607408D01*
X83385314Y-118337510D01*
X83280005Y-118083273D01*
X83127120Y-117854465D01*
X82932535Y-117659880D01*
X82703727Y-117506995D01*
X82626485Y-117475000D01*
X82703727Y-117443005D01*
X82932535Y-117290120D01*
X83127120Y-117095535D01*
X83280005Y-116866727D01*
X83385314Y-116612490D01*
X83439000Y-116342592D01*
X83439000Y-116067408D01*
X83385314Y-115797510D01*
X83280005Y-115543273D01*
X83127120Y-115314465D01*
X82932535Y-115119880D01*
X82703727Y-114966995D01*
X82626485Y-114935000D01*
X82703727Y-114903005D01*
X82932535Y-114750120D01*
X83127120Y-114555535D01*
X83280005Y-114326727D01*
X83385314Y-114072490D01*
X83439000Y-113802592D01*
X83439000Y-113527408D01*
X83385314Y-113257510D01*
X83280005Y-113003273D01*
X83127120Y-112774465D01*
X82932535Y-112579880D01*
X82703727Y-112426995D01*
X82626485Y-112395000D01*
X82703727Y-112363005D01*
X82932535Y-112210120D01*
X83127120Y-112015535D01*
X83280005Y-111786727D01*
X83385314Y-111532490D01*
X83439000Y-111262592D01*
X83439000Y-110987408D01*
X83385314Y-110717510D01*
X83280005Y-110463273D01*
X83127120Y-110234465D01*
X82932535Y-110039880D01*
X82703727Y-109886995D01*
X82626485Y-109855000D01*
X82703727Y-109823005D01*
X82932535Y-109670120D01*
X83127120Y-109475535D01*
X83280005Y-109246727D01*
X83385314Y-108992490D01*
X83439000Y-108722592D01*
X83439000Y-108447408D01*
X83385314Y-108177510D01*
X83280005Y-107923273D01*
X83127120Y-107694465D01*
X82932535Y-107499880D01*
X82703727Y-107346995D01*
X82626485Y-107315000D01*
X82703727Y-107283005D01*
X82932535Y-107130120D01*
X83127120Y-106935535D01*
X83214341Y-106805000D01*
X85052678Y-106805000D01*
X85090000Y-106808676D01*
X85127322Y-106805000D01*
X85127333Y-106805000D01*
X85238986Y-106794003D01*
X85382247Y-106750546D01*
X85514276Y-106679974D01*
X85630001Y-106585001D01*
X85653804Y-106555997D01*
X89849802Y-102360000D01*
X91371289Y-102360000D01*
X91415226Y-102403937D01*
X91584744Y-102517205D01*
X91773102Y-102595226D01*
X91973061Y-102635000D01*
X92176939Y-102635000D01*
X92376898Y-102595226D01*
X92565256Y-102517205D01*
X92734774Y-102403937D01*
X92878937Y-102259774D01*
X92992205Y-102090256D01*
X93070226Y-101901898D01*
X93092934Y-101787736D01*
X95485000Y-104179802D01*
X95485000Y-104241939D01*
X95524774Y-104441898D01*
X95602795Y-104630256D01*
X95716063Y-104799774D01*
X95860226Y-104943937D01*
X96029744Y-105057205D01*
X96218102Y-105135226D01*
X96418061Y-105175000D01*
X96621939Y-105175000D01*
X96821898Y-105135226D01*
X97010256Y-105057205D01*
X97179774Y-104943937D01*
X97323937Y-104799774D01*
X97437205Y-104630256D01*
X97515226Y-104441898D01*
X97555000Y-104241939D01*
X97555000Y-104038061D01*
X97515226Y-103838102D01*
X97437205Y-103649744D01*
X97323937Y-103480226D01*
X97221711Y-103378000D01*
X97323937Y-103275774D01*
X97437205Y-103106256D01*
X97515226Y-102917898D01*
X97555000Y-102717939D01*
X97555000Y-102514061D01*
X97515226Y-102314102D01*
X97437205Y-102125744D01*
X97323937Y-101956226D01*
X97221711Y-101854000D01*
X97323937Y-101751774D01*
X97437205Y-101582256D01*
X97515226Y-101393898D01*
X97555000Y-101193939D01*
X97555000Y-100990061D01*
X97515226Y-100790102D01*
X97437205Y-100601744D01*
X97323937Y-100432226D01*
X97179774Y-100288063D01*
X97010256Y-100174795D01*
X96821898Y-100096774D01*
X96621939Y-100057000D01*
X96559802Y-100057000D01*
X91565000Y-95062199D01*
X91565000Y-85656211D01*
X96019800Y-90111012D01*
X96043599Y-90140011D01*
X96072597Y-90163809D01*
X96080466Y-90170267D01*
X97226201Y-91316003D01*
X97249999Y-91345001D01*
X97365724Y-91439974D01*
X97497753Y-91510546D01*
X97641014Y-91554003D01*
X97752667Y-91565000D01*
X97752676Y-91565000D01*
X97789999Y-91568676D01*
X97827322Y-91565000D01*
X106269659Y-91565000D01*
X106356880Y-91695535D01*
X106551465Y-91890120D01*
X106780273Y-92043005D01*
X106857515Y-92075000D01*
X106780273Y-92106995D01*
X106551465Y-92259880D01*
X106356880Y-92454465D01*
X106203995Y-92683273D01*
X106098686Y-92937510D01*
X106045000Y-93207408D01*
X106045000Y-93482592D01*
X106098686Y-93752490D01*
X106203995Y-94006727D01*
X106356880Y-94235535D01*
X106551465Y-94430120D01*
X106780273Y-94583005D01*
X106857515Y-94615000D01*
X106780273Y-94646995D01*
X106551465Y-94799880D01*
X106356880Y-94994465D01*
X106203995Y-95223273D01*
X106098686Y-95477510D01*
X106045000Y-95747408D01*
X106045000Y-96022592D01*
X106098686Y-96292490D01*
X106203995Y-96546727D01*
X106356880Y-96775535D01*
X106551465Y-96970120D01*
X106780273Y-97123005D01*
X106857515Y-97155000D01*
X106780273Y-97186995D01*
X106551465Y-97339880D01*
X106356880Y-97534465D01*
X106203995Y-97763273D01*
X106098686Y-98017510D01*
X106045000Y-98287408D01*
X106045000Y-98562592D01*
X106098686Y-98832490D01*
X106203995Y-99086727D01*
X106356880Y-99315535D01*
X106551465Y-99510120D01*
X106780273Y-99663005D01*
X106857515Y-99695000D01*
X106780273Y-99726995D01*
X106551465Y-99879880D01*
X106356880Y-100074465D01*
X106203995Y-100303273D01*
X106098686Y-100557510D01*
X106045000Y-100827408D01*
X106045000Y-101102592D01*
X106098686Y-101372490D01*
X106203995Y-101626727D01*
X106356880Y-101855535D01*
X106551465Y-102050120D01*
X106780273Y-102203005D01*
X106857515Y-102235000D01*
X106780273Y-102266995D01*
X106551465Y-102419880D01*
X106356880Y-102614465D01*
X106203995Y-102843273D01*
X106098686Y-103097510D01*
X106045000Y-103367408D01*
X106045000Y-103642592D01*
X106098686Y-103912490D01*
X106203995Y-104166727D01*
X106356880Y-104395535D01*
X106551465Y-104590120D01*
X106780273Y-104743005D01*
X106857515Y-104775000D01*
X106780273Y-104806995D01*
X106551465Y-104959880D01*
X106356880Y-105154465D01*
X106203995Y-105383273D01*
X106098686Y-105637510D01*
X106045000Y-105907408D01*
X106045000Y-106182592D01*
X106098686Y-106452490D01*
X106203995Y-106706727D01*
X106356880Y-106935535D01*
X106551465Y-107130120D01*
X106780273Y-107283005D01*
X106857515Y-107315000D01*
X106780273Y-107346995D01*
X106551465Y-107499880D01*
X106356880Y-107694465D01*
X106203995Y-107923273D01*
X106098686Y-108177510D01*
X106045000Y-108447408D01*
X106045000Y-108722592D01*
X106098686Y-108992490D01*
X106203995Y-109246727D01*
X106356880Y-109475535D01*
X106551465Y-109670120D01*
X106780273Y-109823005D01*
X106857515Y-109855000D01*
X106780273Y-109886995D01*
X106551465Y-110039880D01*
X106356880Y-110234465D01*
X106203995Y-110463273D01*
X106098686Y-110717510D01*
X106045000Y-110987408D01*
X106045000Y-111262592D01*
X106098686Y-111532490D01*
X106203995Y-111786727D01*
X106356880Y-112015535D01*
X106551465Y-112210120D01*
X106780273Y-112363005D01*
X106857515Y-112395000D01*
X106780273Y-112426995D01*
X106551465Y-112579880D01*
X106356880Y-112774465D01*
X106203995Y-113003273D01*
X106098686Y-113257510D01*
X106045000Y-113527408D01*
X106045000Y-113802592D01*
X106098686Y-114072490D01*
X106203995Y-114326727D01*
X106356880Y-114555535D01*
X106551465Y-114750120D01*
X106780273Y-114903005D01*
X106857515Y-114935000D01*
X106780273Y-114966995D01*
X106551465Y-115119880D01*
X106356880Y-115314465D01*
X106203995Y-115543273D01*
X106098686Y-115797510D01*
X106045000Y-116067408D01*
X106045000Y-116342592D01*
X106098686Y-116612490D01*
X106203995Y-116866727D01*
X106356880Y-117095535D01*
X106551465Y-117290120D01*
X106780273Y-117443005D01*
X106857515Y-117475000D01*
X106780273Y-117506995D01*
X106551465Y-117659880D01*
X106356880Y-117854465D01*
X106203995Y-118083273D01*
X106098686Y-118337510D01*
X106045000Y-118607408D01*
X106045000Y-118882592D01*
X106098686Y-119152490D01*
X106203995Y-119406727D01*
X106356880Y-119635535D01*
X106551465Y-119830120D01*
X106780273Y-119983005D01*
X106857515Y-120015000D01*
X106780273Y-120046995D01*
X106551465Y-120199880D01*
X106356880Y-120394465D01*
X106203995Y-120623273D01*
X106098686Y-120877510D01*
X106045000Y-121147408D01*
X106045000Y-121422592D01*
X106098686Y-121692490D01*
X106203995Y-121946727D01*
X106356880Y-122175535D01*
X106551465Y-122370120D01*
X106780273Y-122523005D01*
X106857515Y-122555000D01*
X106780273Y-122586995D01*
X106551465Y-122739880D01*
X106356880Y-122934465D01*
X106203995Y-123163273D01*
X106098686Y-123417510D01*
X106045000Y-123687408D01*
X106045000Y-123962592D01*
X106098686Y-124232490D01*
X106203995Y-124486727D01*
X106356880Y-124715535D01*
X106551465Y-124910120D01*
X106780273Y-125063005D01*
X106857515Y-125095000D01*
X106780273Y-125126995D01*
X106551465Y-125279880D01*
X106356880Y-125474465D01*
X106203995Y-125703273D01*
X106098686Y-125957510D01*
X106045000Y-126227408D01*
X106045000Y-126502592D01*
X106098686Y-126772490D01*
X106203995Y-127026727D01*
X106356880Y-127255535D01*
X106551465Y-127450120D01*
X106780273Y-127603005D01*
X106857515Y-127635000D01*
X106780273Y-127666995D01*
X106551465Y-127819880D01*
X106356880Y-128014465D01*
X106203995Y-128243273D01*
X106098686Y-128497510D01*
X106045000Y-128767408D01*
X106045000Y-129042592D01*
X106098686Y-129312490D01*
X106203995Y-129566727D01*
X106356880Y-129795535D01*
X106551465Y-129990120D01*
X106780273Y-130143005D01*
X106857515Y-130175000D01*
X106780273Y-130206995D01*
X106551465Y-130359880D01*
X106356880Y-130554465D01*
X106203995Y-130783273D01*
X106098686Y-131037510D01*
X106045000Y-131307408D01*
X106045000Y-131582592D01*
X106098686Y-131852490D01*
X106203995Y-132106727D01*
X106356880Y-132335535D01*
X106551465Y-132530120D01*
X106780273Y-132683005D01*
X106857515Y-132715000D01*
X106780273Y-132746995D01*
X106551465Y-132899880D01*
X106356880Y-133094465D01*
X106203995Y-133323273D01*
X106098686Y-133577510D01*
X106045000Y-133847408D01*
X106045000Y-134122592D01*
X106098686Y-134392490D01*
X106203995Y-134646727D01*
X106356880Y-134875535D01*
X106551465Y-135070120D01*
X106780273Y-135223005D01*
X107034510Y-135328314D01*
X107304408Y-135382000D01*
X107579592Y-135382000D01*
X107849490Y-135328314D01*
X108103727Y-135223005D01*
X108332535Y-135070120D01*
X108527120Y-134875535D01*
X108680005Y-134646727D01*
X108785314Y-134392490D01*
X108839000Y-134122592D01*
X108839000Y-133847408D01*
X108785314Y-133577510D01*
X108680005Y-133323273D01*
X108527120Y-133094465D01*
X108332535Y-132899880D01*
X108103727Y-132746995D01*
X108026485Y-132715000D01*
X108103727Y-132683005D01*
X108332535Y-132530120D01*
X108527120Y-132335535D01*
X108680005Y-132106727D01*
X108785314Y-131852490D01*
X108839000Y-131582592D01*
X108839000Y-131307408D01*
X108785314Y-131037510D01*
X108680005Y-130783273D01*
X108527120Y-130554465D01*
X108332535Y-130359880D01*
X108103727Y-130206995D01*
X108026485Y-130175000D01*
X108103727Y-130143005D01*
X108332535Y-129990120D01*
X108527120Y-129795535D01*
X108680005Y-129566727D01*
X108785314Y-129312490D01*
X108839000Y-129042592D01*
X108839000Y-128767408D01*
X108785314Y-128497510D01*
X108680005Y-128243273D01*
X108527120Y-128014465D01*
X108332535Y-127819880D01*
X108103727Y-127666995D01*
X108026485Y-127635000D01*
X108103727Y-127603005D01*
X108332535Y-127450120D01*
X108527120Y-127255535D01*
X108680005Y-127026727D01*
X108750215Y-126857225D01*
X108760188Y-126958482D01*
X108796498Y-127078180D01*
X108855463Y-127188494D01*
X108934815Y-127285185D01*
X109031506Y-127364537D01*
X109141820Y-127423502D01*
X109261518Y-127459812D01*
X109386000Y-127472072D01*
X111086000Y-127472072D01*
X111210482Y-127459812D01*
X111330180Y-127423502D01*
X111440494Y-127364537D01*
X111537185Y-127285185D01*
X111616537Y-127188494D01*
X111675502Y-127078180D01*
X111711812Y-126958482D01*
X111724072Y-126834000D01*
X111724072Y-125134000D01*
X111711812Y-125009518D01*
X111675502Y-124889820D01*
X111616537Y-124779506D01*
X111537185Y-124682815D01*
X111440494Y-124603463D01*
X111330180Y-124544498D01*
X111257620Y-124522487D01*
X111389475Y-124390632D01*
X111551990Y-124147411D01*
X111663932Y-123877158D01*
X111721000Y-123590260D01*
X111721000Y-123297740D01*
X111663932Y-123010842D01*
X111551990Y-122740589D01*
X111389475Y-122497368D01*
X111182632Y-122290525D01*
X111008240Y-122174000D01*
X111182632Y-122057475D01*
X111389475Y-121850632D01*
X111551990Y-121607411D01*
X111663932Y-121337158D01*
X111721000Y-121050260D01*
X111721000Y-120757740D01*
X111663932Y-120470842D01*
X111551990Y-120200589D01*
X111389475Y-119957368D01*
X111182632Y-119750525D01*
X111008240Y-119634000D01*
X111182632Y-119517475D01*
X111389475Y-119310632D01*
X111551990Y-119067411D01*
X111663932Y-118797158D01*
X111721000Y-118510260D01*
X111721000Y-118217740D01*
X111663932Y-117930842D01*
X111551990Y-117660589D01*
X111389475Y-117417368D01*
X111182632Y-117210525D01*
X111008240Y-117094000D01*
X111182632Y-116977475D01*
X111389475Y-116770632D01*
X111551990Y-116527411D01*
X111663932Y-116257158D01*
X111721000Y-115970260D01*
X111721000Y-115677740D01*
X111663932Y-115390842D01*
X111551990Y-115120589D01*
X111389475Y-114877368D01*
X111182632Y-114670525D01*
X111008240Y-114554000D01*
X111182632Y-114437475D01*
X111389475Y-114230632D01*
X111551990Y-113987411D01*
X111663932Y-113717158D01*
X111721000Y-113430260D01*
X111721000Y-113137740D01*
X111663932Y-112850842D01*
X111551990Y-112580589D01*
X111389475Y-112337368D01*
X111182632Y-112130525D01*
X111008240Y-112014000D01*
X111182632Y-111897475D01*
X111389475Y-111690632D01*
X111551990Y-111447411D01*
X111663932Y-111177158D01*
X111721000Y-110890260D01*
X111721000Y-110597740D01*
X111663932Y-110310842D01*
X111551990Y-110040589D01*
X111389475Y-109797368D01*
X111182632Y-109590525D01*
X111008240Y-109474000D01*
X111182632Y-109357475D01*
X111389475Y-109150632D01*
X111551990Y-108907411D01*
X111663932Y-108637158D01*
X111721000Y-108350260D01*
X111721000Y-108057740D01*
X111663932Y-107770842D01*
X111551990Y-107500589D01*
X111389475Y-107257368D01*
X111182632Y-107050525D01*
X111008240Y-106934000D01*
X111182632Y-106817475D01*
X111389475Y-106610632D01*
X111551990Y-106367411D01*
X111663932Y-106097158D01*
X111721000Y-105810260D01*
X111721000Y-105517740D01*
X111663932Y-105230842D01*
X111551990Y-104960589D01*
X111389475Y-104717368D01*
X111182632Y-104510525D01*
X111008240Y-104394000D01*
X111182632Y-104277475D01*
X111389475Y-104070632D01*
X111551990Y-103827411D01*
X111663932Y-103557158D01*
X111721000Y-103270260D01*
X111721000Y-102977740D01*
X111663932Y-102690842D01*
X111551990Y-102420589D01*
X111389475Y-102177368D01*
X111182632Y-101970525D01*
X111008240Y-101854000D01*
X111182632Y-101737475D01*
X111389475Y-101530632D01*
X111551990Y-101287411D01*
X111663932Y-101017158D01*
X111721000Y-100730260D01*
X111721000Y-100437740D01*
X111663932Y-100150842D01*
X111551990Y-99880589D01*
X111389475Y-99637368D01*
X111182632Y-99430525D01*
X111008240Y-99314000D01*
X111182632Y-99197475D01*
X111389475Y-98990632D01*
X111551990Y-98747411D01*
X111663932Y-98477158D01*
X111721000Y-98190260D01*
X111721000Y-97897740D01*
X111663932Y-97610842D01*
X111551990Y-97340589D01*
X111389475Y-97097368D01*
X111182632Y-96890525D01*
X110939411Y-96728010D01*
X110669158Y-96616068D01*
X110382260Y-96559000D01*
X110089740Y-96559000D01*
X109802842Y-96616068D01*
X109532589Y-96728010D01*
X109289368Y-96890525D01*
X109082525Y-97097368D01*
X108920010Y-97340589D01*
X108808068Y-97610842D01*
X108751000Y-97897740D01*
X108751000Y-97934669D01*
X108680005Y-97763273D01*
X108527120Y-97534465D01*
X108332535Y-97339880D01*
X108103727Y-97186995D01*
X108026485Y-97155000D01*
X108103727Y-97123005D01*
X108332535Y-96970120D01*
X108527120Y-96775535D01*
X108680005Y-96546727D01*
X108785314Y-96292490D01*
X108839000Y-96022592D01*
X108839000Y-95747408D01*
X108785314Y-95477510D01*
X108680005Y-95223273D01*
X108527120Y-94994465D01*
X108332535Y-94799880D01*
X108103727Y-94646995D01*
X108026485Y-94615000D01*
X108103727Y-94583005D01*
X108332535Y-94430120D01*
X108527120Y-94235535D01*
X108680005Y-94006727D01*
X108785314Y-93752490D01*
X108839000Y-93482592D01*
X108839000Y-93207408D01*
X108785314Y-92937510D01*
X108680005Y-92683273D01*
X108527120Y-92454465D01*
X108332535Y-92259880D01*
X108103727Y-92106995D01*
X108026485Y-92075000D01*
X108103727Y-92043005D01*
X108332535Y-91890120D01*
X108527120Y-91695535D01*
X108680005Y-91466727D01*
X108785314Y-91212490D01*
X108839000Y-90942592D01*
X108839000Y-90667408D01*
X108785314Y-90397510D01*
X108680005Y-90143273D01*
X108527120Y-89914465D01*
X108332535Y-89719880D01*
X108103727Y-89566995D01*
X108032057Y-89537308D01*
X108045023Y-89532636D01*
X108160980Y-89470656D01*
X108227960Y-89230565D01*
X107442000Y-88444605D01*
X106656040Y-89230565D01*
X106723020Y-89470656D01*
X106858760Y-89534485D01*
X106780273Y-89566995D01*
X106551465Y-89719880D01*
X106356880Y-89914465D01*
X106269659Y-90045000D01*
X98104802Y-90045000D01*
X97148814Y-89089013D01*
X97125011Y-89060009D01*
X97088150Y-89029758D01*
X96395409Y-88337017D01*
X106040090Y-88337017D01*
X106081078Y-88609133D01*
X106174364Y-88868023D01*
X106236344Y-88983980D01*
X106476435Y-89050960D01*
X107262395Y-88265000D01*
X107621605Y-88265000D01*
X108407565Y-89050960D01*
X108647656Y-88983980D01*
X108764756Y-88734952D01*
X108831023Y-88467865D01*
X108843910Y-88192983D01*
X108802922Y-87920867D01*
X108709636Y-87661977D01*
X108647656Y-87546020D01*
X108407565Y-87479040D01*
X107621605Y-88265000D01*
X107262395Y-88265000D01*
X106476435Y-87479040D01*
X106236344Y-87546020D01*
X106119244Y-87795048D01*
X106052977Y-88062135D01*
X106040090Y-88337017D01*
X96395409Y-88337017D01*
X95357827Y-87299435D01*
X106656040Y-87299435D01*
X107442000Y-88085395D01*
X108227960Y-87299435D01*
X108160980Y-87059344D01*
X107911952Y-86942244D01*
X107644865Y-86875977D01*
X107369983Y-86863090D01*
X107097867Y-86904078D01*
X106838977Y-86997364D01*
X106723020Y-87059344D01*
X106656040Y-87299435D01*
X95357827Y-87299435D01*
X92200000Y-84141609D01*
X92200000Y-64322801D01*
X95543802Y-60979000D01*
X95605939Y-60979000D01*
X95805898Y-60939226D01*
X95994256Y-60861205D01*
X96163774Y-60747937D01*
X96307937Y-60603774D01*
X96421205Y-60434256D01*
X96499226Y-60245898D01*
X96539000Y-60045939D01*
X96539000Y-59842061D01*
X96499226Y-59642102D01*
X96421205Y-59453744D01*
X96307937Y-59284226D01*
X96163774Y-59140063D01*
X95994256Y-59026795D01*
X95805898Y-58948774D01*
X95605939Y-58909000D01*
X95402061Y-58909000D01*
X95202102Y-58948774D01*
X95013744Y-59026795D01*
X94844226Y-59140063D01*
X94700063Y-59284226D01*
X94586795Y-59453744D01*
X94508774Y-59642102D01*
X94469000Y-59842061D01*
X94469000Y-59904198D01*
X91565000Y-62808199D01*
X91565000Y-61909801D01*
X93003802Y-60471000D01*
X93065939Y-60471000D01*
X93265898Y-60431226D01*
X93454256Y-60353205D01*
X93623774Y-60239937D01*
X93767937Y-60095774D01*
X93881205Y-59926256D01*
X93959226Y-59737898D01*
X93999000Y-59537939D01*
X93999000Y-59334061D01*
X93959226Y-59134102D01*
X93881205Y-58945744D01*
X93767937Y-58776226D01*
X93623774Y-58632063D01*
X93454256Y-58518795D01*
X93265898Y-58440774D01*
X93065939Y-58401000D01*
X92862061Y-58401000D01*
X92662102Y-58440774D01*
X92473744Y-58518795D01*
X92304226Y-58632063D01*
X92160063Y-58776226D01*
X92046795Y-58945744D01*
X91968774Y-59134102D01*
X91929000Y-59334061D01*
X91929000Y-59396198D01*
X90930000Y-60395199D01*
X90930000Y-60342685D01*
X91083774Y-60239937D01*
X91227937Y-60095774D01*
X91341205Y-59926256D01*
X91419226Y-59737898D01*
X91459000Y-59537939D01*
X91459000Y-59475801D01*
X95289802Y-55645000D01*
X95351939Y-55645000D01*
X95551898Y-55605226D01*
X95740256Y-55527205D01*
X95909774Y-55413937D01*
X96053937Y-55269774D01*
X96167205Y-55100256D01*
X96245226Y-54911898D01*
X96285000Y-54711939D01*
X96285000Y-54508061D01*
X96245226Y-54308102D01*
X96167205Y-54119744D01*
X96154013Y-54100000D01*
X101912289Y-54100000D01*
X101956226Y-54143937D01*
X102125744Y-54257205D01*
X102314102Y-54335226D01*
X102514061Y-54375000D01*
X102717939Y-54375000D01*
X102917898Y-54335226D01*
X103106256Y-54257205D01*
X103275774Y-54143937D01*
X103419937Y-53999774D01*
X103533205Y-53830256D01*
X103611226Y-53641898D01*
X103651000Y-53441939D01*
X103651000Y-53238061D01*
X103611226Y-53038102D01*
X103533205Y-52849744D01*
X103419937Y-52680226D01*
X103275774Y-52536063D01*
X103106256Y-52422795D01*
X102917898Y-52344774D01*
X102717939Y-52305000D01*
X102514061Y-52305000D01*
X102314102Y-52344774D01*
X102125744Y-52422795D01*
X101956226Y-52536063D01*
X101912289Y-52580000D01*
X86397333Y-52580000D01*
X86360000Y-52576323D01*
X86322667Y-52580000D01*
X86211014Y-52590997D01*
X86067753Y-52634454D01*
X85935724Y-52705026D01*
X85819999Y-52799999D01*
X85725026Y-52915724D01*
X85654454Y-53047753D01*
X85610997Y-53191014D01*
X85596323Y-53340000D01*
X85600000Y-53377333D01*
X85600000Y-53533197D01*
X84325002Y-54808197D01*
X84295999Y-54831999D01*
X84240871Y-54899174D01*
X84201026Y-54947724D01*
X84154763Y-55034276D01*
X84130454Y-55079754D01*
X84086997Y-55223015D01*
X84076000Y-55334668D01*
X84076000Y-55334678D01*
X84072324Y-55372000D01*
X84076000Y-55409323D01*
X84076001Y-60764288D01*
X84032063Y-60808226D01*
X83918795Y-60977744D01*
X83840774Y-61166102D01*
X83801000Y-61366061D01*
X83801000Y-61569939D01*
X83840774Y-61769898D01*
X83918795Y-61958256D01*
X84032063Y-62127774D01*
X84176226Y-62271937D01*
X84345744Y-62385205D01*
X84534102Y-62463226D01*
X84734061Y-62503000D01*
X84937939Y-62503000D01*
X85137898Y-62463226D01*
X85326256Y-62385205D01*
X85495774Y-62271937D01*
X85639937Y-62127774D01*
X85753205Y-61958256D01*
X85831226Y-61769898D01*
X85871000Y-61569939D01*
X85871000Y-61366061D01*
X85831226Y-61166102D01*
X85753205Y-60977744D01*
X85639937Y-60808226D01*
X85596000Y-60764289D01*
X85596000Y-55686801D01*
X86871008Y-54411795D01*
X86900001Y-54388001D01*
X86923795Y-54359008D01*
X86923799Y-54359004D01*
X86994973Y-54272277D01*
X86994974Y-54272276D01*
X87065546Y-54140247D01*
X87077755Y-54100000D01*
X91805987Y-54100000D01*
X91792795Y-54119744D01*
X91714774Y-54308102D01*
X91675000Y-54508061D01*
X91675000Y-54570198D01*
X89024003Y-57221196D01*
X88994999Y-57244999D01*
X88939871Y-57312174D01*
X88900026Y-57360724D01*
X88829455Y-57492753D01*
X88829454Y-57492754D01*
X88785997Y-57636015D01*
X88775000Y-57747668D01*
X88775000Y-57747678D01*
X88771324Y-57785000D01*
X88775000Y-57822322D01*
X88775001Y-97117667D01*
X88771324Y-97155000D01*
X88785998Y-97303985D01*
X88829454Y-97447246D01*
X88900026Y-97579276D01*
X88971201Y-97666002D01*
X88995000Y-97695001D01*
X89023998Y-97718799D01*
X90215744Y-98910545D01*
X90191289Y-98935000D01*
X89572325Y-98935000D01*
X89535000Y-98931324D01*
X89497675Y-98935000D01*
X89497667Y-98935000D01*
X89386014Y-98945997D01*
X89242753Y-98989454D01*
X89110724Y-99060026D01*
X88994999Y-99154999D01*
X88971201Y-99183997D01*
X85410199Y-102745000D01*
X83214341Y-102745000D01*
X83127120Y-102614465D01*
X82932535Y-102419880D01*
X82703727Y-102266995D01*
X82626485Y-102235000D01*
X82703727Y-102203005D01*
X82932535Y-102050120D01*
X83127120Y-101855535D01*
X83280005Y-101626727D01*
X83385314Y-101372490D01*
X83439000Y-101102592D01*
X83439000Y-100827408D01*
X83385314Y-100557510D01*
X83280005Y-100303273D01*
X83127120Y-100074465D01*
X82932535Y-99879880D01*
X82703727Y-99726995D01*
X82626485Y-99695000D01*
X82703727Y-99663005D01*
X82932535Y-99510120D01*
X83127120Y-99315535D01*
X83280005Y-99086727D01*
X83385314Y-98832490D01*
X83439000Y-98562592D01*
X83439000Y-98287408D01*
X83385314Y-98017510D01*
X83280005Y-97763273D01*
X83127120Y-97534465D01*
X82932535Y-97339880D01*
X82703727Y-97186995D01*
X82626485Y-97155000D01*
X82703727Y-97123005D01*
X82932535Y-96970120D01*
X83127120Y-96775535D01*
X83280005Y-96546727D01*
X83385314Y-96292490D01*
X83439000Y-96022592D01*
X83439000Y-95747408D01*
X83385314Y-95477510D01*
X83280005Y-95223273D01*
X83127120Y-94994465D01*
X82932535Y-94799880D01*
X82703727Y-94646995D01*
X82626485Y-94615000D01*
X82703727Y-94583005D01*
X82932535Y-94430120D01*
X83127120Y-94235535D01*
X83280005Y-94006727D01*
X83385314Y-93752490D01*
X83439000Y-93482592D01*
X83439000Y-93207408D01*
X83385314Y-92937510D01*
X83280005Y-92683273D01*
X83127120Y-92454465D01*
X82932535Y-92259880D01*
X82703727Y-92106995D01*
X82626485Y-92075000D01*
X82703727Y-92043005D01*
X82932535Y-91890120D01*
X83127120Y-91695535D01*
X83280005Y-91466727D01*
X83385314Y-91212490D01*
X83439000Y-90942592D01*
X83439000Y-90667408D01*
X83385314Y-90397510D01*
X83280005Y-90143273D01*
X83127120Y-89914465D01*
X82932535Y-89719880D01*
X82703727Y-89566995D01*
X82626485Y-89535000D01*
X82703727Y-89503005D01*
X82932535Y-89350120D01*
X83127120Y-89155535D01*
X83280005Y-88926727D01*
X83385314Y-88672490D01*
X83439000Y-88402592D01*
X83439000Y-88127408D01*
X83385314Y-87857510D01*
X83280005Y-87603273D01*
X83127120Y-87374465D01*
X82932535Y-87179880D01*
X82703727Y-87026995D01*
X82449490Y-86921686D01*
X82179592Y-86868000D01*
X81904408Y-86868000D01*
X81634510Y-86921686D01*
X81380273Y-87026995D01*
X81151465Y-87179880D01*
X80956880Y-87374465D01*
X80803995Y-87603273D01*
X80698686Y-87857510D01*
X80645000Y-88127408D01*
X80645000Y-88402592D01*
X80698686Y-88672490D01*
X80803995Y-88926727D01*
X80956880Y-89155535D01*
X81151465Y-89350120D01*
X81380273Y-89503005D01*
X81457515Y-89535000D01*
X81380273Y-89566995D01*
X81151465Y-89719880D01*
X80956880Y-89914465D01*
X80803995Y-90143273D01*
X80698686Y-90397510D01*
X80645000Y-90667408D01*
X80645000Y-90942592D01*
X80698686Y-91212490D01*
X80803995Y-91466727D01*
X80956880Y-91695535D01*
X81151465Y-91890120D01*
X81380273Y-92043005D01*
X81457515Y-92075000D01*
X81380273Y-92106995D01*
X81151465Y-92259880D01*
X80956880Y-92454465D01*
X80803995Y-92683273D01*
X80698686Y-92937510D01*
X80645000Y-93207408D01*
X80645000Y-93482592D01*
X80698686Y-93752490D01*
X80803995Y-94006727D01*
X80956880Y-94235535D01*
X81151465Y-94430120D01*
X81380273Y-94583005D01*
X81457515Y-94615000D01*
X81380273Y-94646995D01*
X81151465Y-94799880D01*
X80956880Y-94994465D01*
X80803995Y-95223273D01*
X80698686Y-95477510D01*
X80645000Y-95747408D01*
X80645000Y-96022592D01*
X80698686Y-96292490D01*
X80803995Y-96546727D01*
X80956880Y-96775535D01*
X81151465Y-96970120D01*
X81380273Y-97123005D01*
X81457515Y-97155000D01*
X81380273Y-97186995D01*
X81151465Y-97339880D01*
X80956880Y-97534465D01*
X80803995Y-97763273D01*
X80698686Y-98017510D01*
X80645000Y-98287408D01*
X80645000Y-98562592D01*
X80698686Y-98832490D01*
X80803995Y-99086727D01*
X80956880Y-99315535D01*
X81151465Y-99510120D01*
X81380273Y-99663005D01*
X81457515Y-99695000D01*
X81380273Y-99726995D01*
X81151465Y-99879880D01*
X80956880Y-100074465D01*
X80803995Y-100303273D01*
X80698686Y-100557510D01*
X80645000Y-100827408D01*
X80645000Y-101102592D01*
X80698686Y-101372490D01*
X80803995Y-101626727D01*
X80956880Y-101855535D01*
X81151465Y-102050120D01*
X81380273Y-102203005D01*
X81457515Y-102235000D01*
X81380273Y-102266995D01*
X81151465Y-102419880D01*
X80956880Y-102614465D01*
X80803995Y-102843273D01*
X80698686Y-103097510D01*
X80645000Y-103367408D01*
X80645000Y-103642592D01*
X80698686Y-103912490D01*
X80803995Y-104166727D01*
X80956880Y-104395535D01*
X81151465Y-104590120D01*
X81380273Y-104743005D01*
X81457515Y-104775000D01*
X81380273Y-104806995D01*
X81151465Y-104959880D01*
X80956880Y-105154465D01*
X80803995Y-105383273D01*
X80698686Y-105637510D01*
X80645000Y-105907408D01*
X80645000Y-106182592D01*
X80698686Y-106452490D01*
X80803995Y-106706727D01*
X80956880Y-106935535D01*
X81151465Y-107130120D01*
X81380273Y-107283005D01*
X81457515Y-107315000D01*
X81380273Y-107346995D01*
X81151465Y-107499880D01*
X80956880Y-107694465D01*
X80803995Y-107923273D01*
X80698686Y-108177510D01*
X80645000Y-108447408D01*
X80645000Y-108722592D01*
X80698686Y-108992490D01*
X80803995Y-109246727D01*
X80956880Y-109475535D01*
X81151465Y-109670120D01*
X81380273Y-109823005D01*
X81457515Y-109855000D01*
X81380273Y-109886995D01*
X81151465Y-110039880D01*
X80956880Y-110234465D01*
X80803995Y-110463273D01*
X80698686Y-110717510D01*
X80645000Y-110987408D01*
X80645000Y-111262592D01*
X80698686Y-111532490D01*
X80803995Y-111786727D01*
X80956880Y-112015535D01*
X81151465Y-112210120D01*
X81380273Y-112363005D01*
X81457515Y-112395000D01*
X81380273Y-112426995D01*
X81151465Y-112579880D01*
X80956880Y-112774465D01*
X80803995Y-113003273D01*
X80698686Y-113257510D01*
X80645000Y-113527408D01*
X80645000Y-113802592D01*
X80698686Y-114072490D01*
X80803995Y-114326727D01*
X80956880Y-114555535D01*
X81151465Y-114750120D01*
X81380273Y-114903005D01*
X81457515Y-114935000D01*
X81380273Y-114966995D01*
X81151465Y-115119880D01*
X80956880Y-115314465D01*
X80803995Y-115543273D01*
X80698686Y-115797510D01*
X80645000Y-116067408D01*
X80645000Y-116174306D01*
X80628537Y-116143506D01*
X80549185Y-116046815D01*
X80452494Y-115967463D01*
X80342180Y-115908498D01*
X80269620Y-115886487D01*
X80401475Y-115754632D01*
X80563990Y-115511411D01*
X80675932Y-115241158D01*
X80733000Y-114954260D01*
X80733000Y-114661740D01*
X80675932Y-114374842D01*
X80563990Y-114104589D01*
X80401475Y-113861368D01*
X80194632Y-113654525D01*
X80020240Y-113538000D01*
X80194632Y-113421475D01*
X80401475Y-113214632D01*
X80563990Y-112971411D01*
X80675932Y-112701158D01*
X80733000Y-112414260D01*
X80733000Y-112121740D01*
X80675932Y-111834842D01*
X80563990Y-111564589D01*
X80401475Y-111321368D01*
X80194632Y-111114525D01*
X80020240Y-110998000D01*
X80194632Y-110881475D01*
X80401475Y-110674632D01*
X80563990Y-110431411D01*
X80675932Y-110161158D01*
X80733000Y-109874260D01*
X80733000Y-109581740D01*
X80675932Y-109294842D01*
X80563990Y-109024589D01*
X80401475Y-108781368D01*
X80194632Y-108574525D01*
X80020240Y-108458000D01*
X80194632Y-108341475D01*
X80401475Y-108134632D01*
X80563990Y-107891411D01*
X80675932Y-107621158D01*
X80733000Y-107334260D01*
X80733000Y-107041740D01*
X80675932Y-106754842D01*
X80563990Y-106484589D01*
X80401475Y-106241368D01*
X80194632Y-106034525D01*
X80020240Y-105918000D01*
X80194632Y-105801475D01*
X80401475Y-105594632D01*
X80563990Y-105351411D01*
X80675932Y-105081158D01*
X80733000Y-104794260D01*
X80733000Y-104501740D01*
X80675932Y-104214842D01*
X80563990Y-103944589D01*
X80401475Y-103701368D01*
X80194632Y-103494525D01*
X80020240Y-103378000D01*
X80194632Y-103261475D01*
X80401475Y-103054632D01*
X80563990Y-102811411D01*
X80675932Y-102541158D01*
X80733000Y-102254260D01*
X80733000Y-101961740D01*
X80675932Y-101674842D01*
X80563990Y-101404589D01*
X80401475Y-101161368D01*
X80194632Y-100954525D01*
X80020240Y-100838000D01*
X80194632Y-100721475D01*
X80401475Y-100514632D01*
X80563990Y-100271411D01*
X80675932Y-100001158D01*
X80733000Y-99714260D01*
X80733000Y-99421740D01*
X80675932Y-99134842D01*
X80563990Y-98864589D01*
X80401475Y-98621368D01*
X80194632Y-98414525D01*
X80020240Y-98298000D01*
X80194632Y-98181475D01*
X80401475Y-97974632D01*
X80563990Y-97731411D01*
X80675932Y-97461158D01*
X80733000Y-97174260D01*
X80733000Y-96881740D01*
X80675932Y-96594842D01*
X80563990Y-96324589D01*
X80401475Y-96081368D01*
X80194632Y-95874525D01*
X80020240Y-95758000D01*
X80194632Y-95641475D01*
X80401475Y-95434632D01*
X80563990Y-95191411D01*
X80675932Y-94921158D01*
X80733000Y-94634260D01*
X80733000Y-94341740D01*
X80675932Y-94054842D01*
X80563990Y-93784589D01*
X80401475Y-93541368D01*
X80194632Y-93334525D01*
X79951411Y-93172010D01*
X79681158Y-93060068D01*
X79394260Y-93003000D01*
X79101740Y-93003000D01*
X78814842Y-93060068D01*
X78544589Y-93172010D01*
X78301368Y-93334525D01*
X78094525Y-93541368D01*
X77932010Y-93784589D01*
X77820068Y-94054842D01*
X77763000Y-94341740D01*
X77763000Y-94634260D01*
X77820068Y-94921158D01*
X77932010Y-95191411D01*
X78094525Y-95434632D01*
X78301368Y-95641475D01*
X78475760Y-95758000D01*
X78301368Y-95874525D01*
X78094525Y-96081368D01*
X77932010Y-96324589D01*
X77820068Y-96594842D01*
X77763000Y-96881740D01*
X77763000Y-97174260D01*
X77820068Y-97461158D01*
X77932010Y-97731411D01*
X78094525Y-97974632D01*
X78301368Y-98181475D01*
X78475760Y-98298000D01*
X78301368Y-98414525D01*
X78094525Y-98621368D01*
X77932010Y-98864589D01*
X77820068Y-99134842D01*
X77763000Y-99421740D01*
X77763000Y-99714260D01*
X77820068Y-100001158D01*
X77932010Y-100271411D01*
X78094525Y-100514632D01*
X78301368Y-100721475D01*
X78475760Y-100838000D01*
X78301368Y-100954525D01*
X78094525Y-101161368D01*
X77932010Y-101404589D01*
X77820068Y-101674842D01*
X77763000Y-101961740D01*
X77763000Y-102254260D01*
X77820068Y-102541158D01*
X77932010Y-102811411D01*
X78094525Y-103054632D01*
X78301368Y-103261475D01*
X78475760Y-103378000D01*
X78301368Y-103494525D01*
X78094525Y-103701368D01*
X77932010Y-103944589D01*
X77820068Y-104214842D01*
X77763000Y-104501740D01*
X77763000Y-104794260D01*
X77820068Y-105081158D01*
X77932010Y-105351411D01*
X78094525Y-105594632D01*
X78301368Y-105801475D01*
X78475760Y-105918000D01*
X78301368Y-106034525D01*
X78094525Y-106241368D01*
X77932010Y-106484589D01*
X77820068Y-106754842D01*
X77763000Y-107041740D01*
X77763000Y-107334260D01*
X77820068Y-107621158D01*
X77932010Y-107891411D01*
X78094525Y-108134632D01*
X78301368Y-108341475D01*
X78475760Y-108458000D01*
X78301368Y-108574525D01*
X78094525Y-108781368D01*
X77932010Y-109024589D01*
X77820068Y-109294842D01*
X77763000Y-109581740D01*
X77763000Y-109874260D01*
X77820068Y-110161158D01*
X77932010Y-110431411D01*
X78094525Y-110674632D01*
X78301368Y-110881475D01*
X78475760Y-110998000D01*
X78301368Y-111114525D01*
X78094525Y-111321368D01*
X77932010Y-111564589D01*
X77820068Y-111834842D01*
X77763000Y-112121740D01*
X77763000Y-112414260D01*
X77820068Y-112701158D01*
X77932010Y-112971411D01*
X78094525Y-113214632D01*
X78301368Y-113421475D01*
X78475760Y-113538000D01*
X78301368Y-113654525D01*
X78094525Y-113861368D01*
X77932010Y-114104589D01*
X77820068Y-114374842D01*
X77763000Y-114661740D01*
X77763000Y-114954260D01*
X77820068Y-115241158D01*
X77932010Y-115511411D01*
X78094525Y-115754632D01*
X78226380Y-115886487D01*
X78153820Y-115908498D01*
X78043506Y-115967463D01*
X77946815Y-116046815D01*
X77867463Y-116143506D01*
X77808498Y-116253820D01*
X77772188Y-116373518D01*
X77759928Y-116498000D01*
X74395000Y-116498000D01*
X74395000Y-63398061D01*
X84309000Y-63398061D01*
X84309000Y-63601939D01*
X84348774Y-63801898D01*
X84426795Y-63990256D01*
X84540063Y-64159774D01*
X84684226Y-64303937D01*
X84853744Y-64417205D01*
X85042102Y-64495226D01*
X85242061Y-64535000D01*
X85445939Y-64535000D01*
X85645898Y-64495226D01*
X85728785Y-64460893D01*
X86103348Y-64835456D01*
X86103347Y-66356942D01*
X86059410Y-66400879D01*
X85946142Y-66570397D01*
X85868121Y-66758755D01*
X85828347Y-66958714D01*
X85828347Y-67162592D01*
X85868121Y-67362551D01*
X85946142Y-67550909D01*
X86059410Y-67720427D01*
X86203573Y-67864590D01*
X86373091Y-67977858D01*
X86561449Y-68055879D01*
X86761408Y-68095653D01*
X86965286Y-68095653D01*
X87165245Y-68055879D01*
X87353603Y-67977858D01*
X87523121Y-67864590D01*
X87667284Y-67720427D01*
X87780552Y-67550909D01*
X87858573Y-67362551D01*
X87898347Y-67162592D01*
X87898347Y-66958714D01*
X87858573Y-66758755D01*
X87780552Y-66570397D01*
X87667284Y-66400879D01*
X87623347Y-66356942D01*
X87623347Y-64557975D01*
X87627023Y-64520652D01*
X87623347Y-64483329D01*
X87623347Y-64483320D01*
X87612350Y-64371667D01*
X87568893Y-64228406D01*
X87498321Y-64096377D01*
X87403348Y-63980652D01*
X87374350Y-63956854D01*
X86406498Y-62989002D01*
X86382695Y-62959999D01*
X86266970Y-62865026D01*
X86134941Y-62794454D01*
X86087894Y-62780183D01*
X86003774Y-62696063D01*
X85834256Y-62582795D01*
X85645898Y-62504774D01*
X85445939Y-62465000D01*
X85242061Y-62465000D01*
X85042102Y-62504774D01*
X84853744Y-62582795D01*
X84684226Y-62696063D01*
X84540063Y-62840226D01*
X84426795Y-63009744D01*
X84348774Y-63198102D01*
X84309000Y-63398061D01*
X74395000Y-63398061D01*
X74395000Y-47820000D01*
X78157928Y-47820000D01*
X78170188Y-47944482D01*
X78206498Y-48064180D01*
X78265463Y-48174494D01*
X78344815Y-48271185D01*
X78441506Y-48350537D01*
X78551820Y-48409502D01*
X78671518Y-48445812D01*
X78796000Y-48458072D01*
X79185250Y-48455000D01*
X79344000Y-48296250D01*
X79344000Y-45847000D01*
X79598000Y-45847000D01*
X79598000Y-48296250D01*
X79756750Y-48455000D01*
X80146000Y-48458072D01*
X80270482Y-48445812D01*
X80390180Y-48409502D01*
X80500494Y-48350537D01*
X80597185Y-48271185D01*
X80676537Y-48174494D01*
X80735502Y-48064180D01*
X80771812Y-47944482D01*
X80784072Y-47820000D01*
X83807928Y-47820000D01*
X83820188Y-47944482D01*
X83856498Y-48064180D01*
X83915463Y-48174494D01*
X83994815Y-48271185D01*
X84091506Y-48350537D01*
X84201820Y-48409502D01*
X84321518Y-48445812D01*
X84446000Y-48458072D01*
X84835250Y-48455000D01*
X84994000Y-48296250D01*
X84994000Y-45847000D01*
X85248000Y-45847000D01*
X85248000Y-48296250D01*
X85406750Y-48455000D01*
X85796000Y-48458072D01*
X85920482Y-48445812D01*
X86040180Y-48409502D01*
X86150494Y-48350537D01*
X86247185Y-48271185D01*
X86326537Y-48174494D01*
X86385502Y-48064180D01*
X86421812Y-47944482D01*
X86434072Y-47820000D01*
X86431000Y-46005750D01*
X86272250Y-45847000D01*
X85248000Y-45847000D01*
X84994000Y-45847000D01*
X83969750Y-45847000D01*
X83811000Y-46005750D01*
X83807928Y-47820000D01*
X80784072Y-47820000D01*
X80781000Y-46005750D01*
X80622250Y-45847000D01*
X79598000Y-45847000D01*
X79344000Y-45847000D01*
X78319750Y-45847000D01*
X78161000Y-46005750D01*
X78157928Y-47820000D01*
X74395000Y-47820000D01*
X74395000Y-44413895D01*
X74384365Y-44305915D01*
X74370000Y-44258560D01*
X74370000Y-43915000D01*
X78158428Y-43915000D01*
X78161000Y-45434250D01*
G37*
G04 #@! TD.AperFunction*
M02*
