M48
INCH,TZ
T1C0.0157
T2C0.0300
T3C0.0394
%
G90
G05
T1
X29600Y-17600
X29600Y-18400
X29600Y-19200
X29600Y-20000
X29600Y-20800
X29600Y-21600
X29600Y-22400
X29600Y-23200
X29600Y-24000
X29600Y-24800
X29600Y-25600
X29600Y-26400
X29600Y-27200
X29600Y-28000
X29600Y-28800
X29600Y-29600
X29600Y-30400
X29600Y-31200
X29600Y-32000
X29600Y-32800
X29600Y-33600
X29600Y-34400
X29600Y-35200
X29600Y-36000
X29600Y-36800
X29600Y-37600
X29600Y-38400
X29600Y-39200
X29600Y-40000
X29600Y-40800
X29600Y-41600
X29600Y-42400
X29600Y-43200
X29600Y-44000
X29600Y-44800
X29600Y-45600
X29600Y-46400
X29600Y-47200
X29600Y-48000
X29600Y-48800
X29600Y-49600
X29600Y-50400
X29600Y-51200
X29600Y-52000
X29600Y-52800
X29600Y-53600
X30000Y-54000
X30400Y-17600
X30400Y-18400
X30400Y-19200
X30400Y-20000
X30400Y-20800
X30800Y-54000
X31000Y-31200
X31000Y-33600
X31200Y-21200
X31600Y-54000
X32400Y-54000
X32600Y-31200
X32600Y-33600
X33200Y-54000
X33400Y-21200
X33400Y-24200
X33600Y-25000
X33600Y-27200
X34000Y-31200
X34000Y-38000
X34000Y-40000
X34000Y-42000
X34000Y-50000
X34000Y-54000
X34198Y-26402
X34200Y-22200
X34200Y-23400
X34200Y-46000
X34400Y-19200
X34400Y-20000
X34600Y-17600
X34600Y-18400
X34600Y-25000
X34800Y-54000
X35400Y-17600
X35600Y-23400
X35600Y-54000
X35785Y-39250
X36000Y-41800
X36000Y-43800
X36000Y-46000
X36000Y-48000
X36000Y-52000
X36200Y-17600
X36200Y-50000
X36250Y-40000
X36400Y-54000
X36500Y-21500
X36600Y-23400
X36600Y-31200
X37000Y-17600
X37200Y-26000
X37200Y-54000
X37500Y-21500
X37600Y-23600
X37800Y-17600
X37800Y-31200
X38000Y-34000
X38000Y-36000
X38000Y-38000
X38000Y-39800
X38000Y-40400
X38000Y-41000
X38000Y-43800
X38000Y-46000
X38000Y-48000
X38000Y-50000
X38000Y-52000
X38000Y-54000
X38600Y-17600
X38800Y-54000
X39000Y-31200
X39000Y-32600
X39000Y-34000
X39400Y-17600
X39600Y-54000
X39800Y-22200
X40000Y-46000
X40000Y-48000
X40000Y-50000
X40000Y-52000
X40200Y-17600
X40400Y-21000
X40400Y-34000
X40400Y-54000
X41000Y-17600
X41000Y-25000
X41000Y-28000
X41200Y-54000
X41400Y-22200
X41400Y-23600
X41800Y-17600
X41800Y-33600
X42000Y-54000
X42400Y-32800
X42600Y-17600
X42600Y-28000
X42800Y-54000
X43200Y-30400
X43200Y-31200
X43200Y-32000
X43200Y-32800
X43400Y-17600
X43600Y-54000
X44200Y-17600
X44200Y-18400
X44200Y-19200
X44200Y-20000
X44200Y-20800
X44200Y-21600
X44200Y-22400
X44200Y-23200
X44200Y-24000
X44200Y-24800
X44200Y-25600
X44200Y-26400
X44200Y-27200
X44200Y-28000
X44200Y-28800
X44200Y-29600
X44200Y-30400
X44200Y-31200
X44200Y-32000
X44200Y-32800
X44200Y-33600
X44200Y-34400
X44200Y-35200
X44200Y-36000
X44200Y-36800
X44200Y-37600
X44200Y-38400
X44200Y-39200
X44200Y-40000
X44200Y-40800
X44200Y-41600
X44200Y-42400
X44200Y-43200
X44200Y-44000
X44200Y-44800
X44200Y-45600
X44200Y-46400
X44200Y-47200
X44200Y-48000
X44200Y-48800
X44200Y-49600
X44200Y-50400
X44200Y-51200
X44200Y-52000
X44200Y-52800
X44200Y-53600
T2
X32300Y-34750
X32300Y-35750
X32300Y-36750
X32300Y-37750
X32300Y-38750
X32300Y-39750
X32300Y-40750
X32300Y-41750
X32300Y-42750
X32300Y-43750
X32300Y-44750
X32300Y-45750
X32300Y-46750
X32300Y-47750
X32300Y-48750
X32300Y-49750
X32300Y-50750
X32300Y-51750
X32300Y-52750
X42300Y-34750
X42300Y-35750
X42300Y-36750
X42300Y-37750
X42300Y-38750
X42300Y-39750
X42300Y-40750
X42300Y-41750
X42300Y-42750
X42300Y-43750
X42300Y-44750
X42300Y-45750
X42300Y-46750
X42300Y-47750
X42300Y-48750
X42300Y-49750
X42300Y-50750
X42300Y-51750
X42300Y-52750
T3
X31200Y-37200
X31200Y-38200
X31200Y-39200
X31200Y-40200
X31200Y-41200
X31200Y-42200
X31200Y-43200
X31200Y-44200
X31200Y-45200
X31200Y-46200
X31200Y-50600
X31200Y-51600
X31200Y-52600
X43400Y-38600
X43400Y-39600
X43400Y-40600
X43400Y-41600
X43400Y-42600
X43400Y-43600
X43400Y-44600
X43400Y-45600
X43400Y-46600
X43400Y-47600
X43400Y-48600
X43400Y-49600
T0
M30
