M48
INCH,TZ
T1C0.0157
T2C0.0236
T3C0.0236
T4C0.1063
%
G90
G05
T1
X25900Y-24400
X25900Y-25500
X25900Y-29500
X25900Y-30700
X27400Y-25500
X27400Y-29400
X28300Y-22000
X28500Y-33000
X30000Y-23900
X30000Y-31100
X31000Y-31100
X32000Y-23900
X32000Y-31100
X32900Y-27600
X33400Y-32900
X33500Y-22100
X33800Y-25600
X33900Y-29700
X34800Y-27600
X34900Y-31200
X36000Y-31200
X38100Y-27200
X39000Y-24800
X39000Y-27200
X39500Y-28600
X39600Y-24000
X39800Y-27400
X39900Y-29800
X39900Y-30900
X40000Y-26200
X40200Y-24800
X40800Y-26300
X41000Y-24000
X41900Y-24000
X41900Y-31200
X42200Y-29200
X43100Y-22700
X43200Y-26200
X43400Y-32900
X44200Y-32900
X44900Y-30800
X45500Y-26900
X46400Y-24400
X46500Y-29800
X46800Y-26900
X47400Y-29800
X47400Y-30500
X48000Y-26900
X48400Y-24400
X49400Y-33000
X49600Y-31100
X50500Y-24400
X50600Y-27800
X50600Y-29100
X53500Y-32700
X54400Y-22900
X54600Y-27600
X54600Y-31200
X54700Y-29300
X55800Y-22900
X56700Y-29500
X57700Y-27000
X57900Y-22800
X58000Y-29500
X59200Y-32200
X60000Y-22700
X60400Y-29600
X60400Y-32200
X61700Y-29500
X62800Y-25300
X63600Y-25300
T2
X44000Y-27400
X53000Y-26600
X54000Y-28500
X63600Y-29800
T4
X26400Y-22600
X26400Y-32400
X63900Y-22600
X63900Y-32500
T3
G00X62986Y-25999
M15
G01X62553Y-25999
M16
G05
G00X62986Y-29401
M15
G01X62553Y-29401
M16
G05
G00X64581Y-25999
M15
G01X64266Y-25999
M16
G05
G00X64581Y-29401
M15
G01X64266Y-29401
M16
G05
T0
M30
