%TF.GenerationSoftware,KiCad,Pcbnew,6.0.11+dfsg-1*%
%TF.CreationDate,2025-12-05T11:14:30+02:00*%
%TF.ProjectId,esp32_loraprs_c3,65737033-325f-46c6-9f72-617072735f63,rev?*%
%TF.SameCoordinates,Original*%
%TF.FileFunction,Soldermask,Top*%
%TF.FilePolarity,Negative*%
%FSLAX46Y46*%
G04 Gerber Fmt 4.6, Leading zero omitted, Abs format (unit mm)*
G04 Created by KiCad (PCBNEW 6.0.11+dfsg-1) date 2025-12-05 11:14:30*
%MOMM*%
%LPD*%
G01*
G04 APERTURE LIST*
G04 Aperture macros list*
%AMRoundRect*
0 Rectangle with rounded corners*
0 $1 Rounding radius*
0 $2 $3 $4 $5 $6 $7 $8 $9 X,Y pos of 4 corners*
0 Add a 4 corners polygon primitive as box body*
4,1,4,$2,$3,$4,$5,$6,$7,$8,$9,$2,$3,0*
0 Add four circle primitives for the rounded corners*
1,1,$1+$1,$2,$3*
1,1,$1+$1,$4,$5*
1,1,$1+$1,$6,$7*
1,1,$1+$1,$8,$9*
0 Add four rect primitives between the rounded corners*
20,1,$1+$1,$2,$3,$4,$5,0*
20,1,$1+$1,$4,$5,$6,$7,0*
20,1,$1+$1,$6,$7,$8,$9,0*
20,1,$1+$1,$8,$9,$2,$3,0*%
%AMFreePoly0*
4,1,22,0.550000,-0.750000,0.000000,-0.750000,0.000000,-0.745033,-0.079941,-0.743568,-0.215256,-0.701293,-0.333266,-0.622738,-0.424486,-0.514219,-0.481581,-0.384460,-0.499164,-0.250000,-0.500000,-0.250000,-0.500000,0.250000,-0.499164,0.250000,-0.499963,0.256109,-0.478152,0.396186,-0.417904,0.524511,-0.324060,0.630769,-0.204165,0.706417,-0.067858,0.745374,0.000000,0.744959,0.000000,0.750000,
0.550000,0.750000,0.550000,-0.750000,0.550000,-0.750000,$1*%
%AMFreePoly1*
4,1,20,0.000000,0.744959,0.073905,0.744508,0.209726,0.703889,0.328688,0.626782,0.421226,0.519385,0.479903,0.390333,0.500000,0.250000,0.500000,-0.250000,0.499851,-0.262216,0.476331,-0.402017,0.414519,-0.529596,0.319384,-0.634700,0.198574,-0.708877,0.061801,-0.746166,0.000000,-0.745033,0.000000,-0.750000,-0.550000,-0.750000,-0.550000,0.750000,0.000000,0.750000,0.000000,0.744959,
0.000000,0.744959,$1*%
G04 Aperture macros list end*
%ADD10RoundRect,0.237500X-0.237500X0.287500X-0.237500X-0.287500X0.237500X-0.287500X0.237500X0.287500X0*%
%ADD11RoundRect,0.237500X0.237500X-0.287500X0.237500X0.287500X-0.237500X0.287500X-0.237500X-0.287500X0*%
%ADD12RoundRect,0.250000X0.475000X-0.337500X0.475000X0.337500X-0.475000X0.337500X-0.475000X-0.337500X0*%
%ADD13RoundRect,0.237500X-0.237500X0.300000X-0.237500X-0.300000X0.237500X-0.300000X0.237500X0.300000X0*%
%ADD14RoundRect,0.237500X-0.237500X0.250000X-0.237500X-0.250000X0.237500X-0.250000X0.237500X0.250000X0*%
%ADD15RoundRect,0.250000X-0.337500X-0.475000X0.337500X-0.475000X0.337500X0.475000X-0.337500X0.475000X0*%
%ADD16RoundRect,0.237500X-0.250000X-0.237500X0.250000X-0.237500X0.250000X0.237500X-0.250000X0.237500X0*%
%ADD17R,3.600000X1.270000*%
%ADD18R,4.200000X1.350000*%
%ADD19RoundRect,0.237500X0.250000X0.237500X-0.250000X0.237500X-0.250000X-0.237500X0.250000X-0.237500X0*%
%ADD20RoundRect,0.101600X0.850000X1.250000X-0.850000X1.250000X-0.850000X-1.250000X0.850000X-1.250000X0*%
%ADD21RoundRect,0.150000X-0.825000X-0.150000X0.825000X-0.150000X0.825000X0.150000X-0.825000X0.150000X0*%
%ADD22R,2.300000X2.300000*%
%ADD23R,1.550000X1.000000*%
%ADD24FreePoly0,90.000000*%
%ADD25R,1.500000X1.000000*%
%ADD26FreePoly1,90.000000*%
%ADD27R,1.500000X2.400000*%
%ADD28C,0.650000*%
%ADD29O,2.100000X1.000000*%
%ADD30O,1.800000X1.000000*%
G04 APERTURE END LIST*
D10*
%TO.C,D4*%
X121920000Y-83679000D03*
X121920000Y-81929000D03*
%TD*%
D11*
%TO.C,D3*%
X119380000Y-83679000D03*
X119380000Y-81929000D03*
%TD*%
D10*
%TO.C,D2*%
X116840000Y-81929000D03*
X116840000Y-83679000D03*
%TD*%
D12*
%TO.C,C5*%
X124968000Y-66315500D03*
X124968000Y-64240500D03*
%TD*%
D13*
%TO.C,C2*%
X110998000Y-77877500D03*
X110998000Y-79602500D03*
%TD*%
D14*
%TO.C,R4*%
X122428000Y-76557500D03*
X122428000Y-78382500D03*
%TD*%
D15*
%TO.C,C7*%
X134323000Y-77978000D03*
X136398000Y-77978000D03*
%TD*%
D16*
%TO.C,R1*%
X140057500Y-81788000D03*
X141882500Y-81788000D03*
%TD*%
D17*
%TO.C,J1*%
X66692500Y-69850000D03*
D18*
X66892500Y-67025000D03*
X66892500Y-72675000D03*
%TD*%
D19*
%TO.C,R5*%
X131214500Y-78232000D03*
X129389500Y-78232000D03*
%TD*%
D11*
%TO.C,D1*%
X114300000Y-83679000D03*
X114300000Y-81929000D03*
%TD*%
D12*
%TO.C,C3*%
X115824000Y-66315500D03*
X115824000Y-64240500D03*
%TD*%
%TO.C,C9*%
X135128000Y-72411500D03*
X135128000Y-70336500D03*
%TD*%
D20*
%TO.C,U1*%
X145359500Y-78359000D03*
X147899500Y-78359000D03*
X150439500Y-78359000D03*
X152939500Y-78359000D03*
X155479500Y-78359000D03*
X158019500Y-78359000D03*
X160559500Y-78359000D03*
X163099500Y-78359000D03*
X163099500Y-61849000D03*
X160559500Y-61979000D03*
X158019500Y-61849000D03*
X155479500Y-61979000D03*
X152939500Y-61979000D03*
X150439500Y-61979000D03*
X147899500Y-61979000D03*
X145359500Y-61979000D03*
%TD*%
%TO.C,U2*%
X76126000Y-82104000D03*
X78666000Y-82104000D03*
X81206000Y-82104000D03*
X88806000Y-82104000D03*
X91346000Y-82104000D03*
X93886000Y-82104000D03*
X96426000Y-82104000D03*
X98966000Y-82104000D03*
X101506000Y-82104000D03*
X104046000Y-82104000D03*
X106586000Y-82104000D03*
X106586000Y-58104000D03*
X104046000Y-58104000D03*
X101506000Y-58104000D03*
X98966000Y-58104000D03*
X96426000Y-58104000D03*
X93886000Y-58104000D03*
X91346000Y-58104000D03*
X88806000Y-58104000D03*
X81206000Y-58104000D03*
X78666000Y-58104000D03*
X76126000Y-58104000D03*
%TD*%
D21*
%TO.C,U3*%
X116651000Y-69977000D03*
X116651000Y-71247000D03*
X116651000Y-72517000D03*
X116651000Y-73787000D03*
X121601000Y-73787000D03*
X121601000Y-72517000D03*
X121601000Y-71247000D03*
X121601000Y-69977000D03*
D22*
X119126000Y-71882000D03*
%TD*%
D23*
%TO.C,SW1*%
X127677000Y-84170000D03*
X132927000Y-84170000D03*
X132927000Y-82470000D03*
X127677000Y-82470000D03*
%TD*%
D24*
%TO.C,JP1*%
X112014000Y-74930000D03*
D25*
X112014000Y-73630000D03*
D26*
X112014000Y-72330000D03*
%TD*%
D12*
%TO.C,C6*%
X120396000Y-66315500D03*
X120396000Y-64240500D03*
%TD*%
D27*
%TO.C,L1*%
X125774000Y-72390000D03*
X131274000Y-72390000D03*
%TD*%
D16*
%TO.C,R2*%
X144121500Y-81788000D03*
X145946500Y-81788000D03*
%TD*%
D12*
%TO.C,C8*%
X129540000Y-66315500D03*
X129540000Y-64240500D03*
%TD*%
D28*
%TO.C,J2*%
X159955000Y-67468000D03*
X159955000Y-73248000D03*
D29*
X159435000Y-66038000D03*
X159435000Y-74678000D03*
D30*
X163635000Y-74678000D03*
X163635000Y-66038000D03*
%TD*%
M02*
