%TF.GenerationSoftware,KiCad,Pcbnew,6.0.11+dfsg-1*%
%TF.CreationDate,2025-12-30T09:46:06+02:00*%
%TF.ProjectId,esp32_loraprs_c3,65737033-325f-46c6-9f72-617072735f63,rev?*%
%TF.SameCoordinates,Original*%
%TF.FileFunction,Copper,L2,Bot*%
%TF.FilePolarity,Positive*%
%FSLAX46Y46*%
G04 Gerber Fmt 4.6, Leading zero omitted, Abs format (unit mm)*
G04 Created by KiCad (PCBNEW 6.0.11+dfsg-1) date 2025-12-30 09:46:06*
%MOMM*%
%LPD*%
G01*
G04 APERTURE LIST*
G04 Aperture macros list*
%AMRoundRect*
0 Rectangle with rounded corners*
0 $1 Rounding radius*
0 $2 $3 $4 $5 $6 $7 $8 $9 X,Y pos of 4 corners*
0 Add a 4 corners polygon primitive as box body*
4,1,4,$2,$3,$4,$5,$6,$7,$8,$9,$2,$3,0*
0 Add four circle primitives for the rounded corners*
1,1,$1+$1,$2,$3*
1,1,$1+$1,$4,$5*
1,1,$1+$1,$6,$7*
1,1,$1+$1,$8,$9*
0 Add four rect primitives between the rounded corners*
20,1,$1+$1,$2,$3,$4,$5,0*
20,1,$1+$1,$4,$5,$6,$7,0*
20,1,$1+$1,$6,$7,$8,$9,0*
20,1,$1+$1,$8,$9,$2,$3,0*%
G04 Aperture macros list end*
%TA.AperFunction,SMDPad,CuDef*%
%ADD10R,4.200000X1.350000*%
%TD*%
%TA.AperFunction,SMDPad,CuDef*%
%ADD11RoundRect,0.250000X-0.337500X-0.475000X0.337500X-0.475000X0.337500X0.475000X-0.337500X0.475000X0*%
%TD*%
%TA.AperFunction,SMDPad,CuDef*%
%ADD12R,1.240000X0.600000*%
%TD*%
%TA.AperFunction,SMDPad,CuDef*%
%ADD13R,1.240000X0.300000*%
%TD*%
%TA.AperFunction,ComponentPad*%
%ADD14O,2.100000X1.000000*%
%TD*%
%TA.AperFunction,ComponentPad*%
%ADD15O,1.800000X1.000000*%
%TD*%
%TA.AperFunction,SMDPad,CuDef*%
%ADD16RoundRect,0.237500X-0.250000X-0.237500X0.250000X-0.237500X0.250000X0.237500X-0.250000X0.237500X0*%
%TD*%
%TA.AperFunction,SMDPad,CuDef*%
%ADD17R,7.340000X6.350000*%
%TD*%
%TA.AperFunction,SMDPad,CuDef*%
%ADD18RoundRect,0.237500X-0.300000X-0.237500X0.300000X-0.237500X0.300000X0.237500X-0.300000X0.237500X0*%
%TD*%
%TA.AperFunction,ViaPad*%
%ADD19C,1.200000*%
%TD*%
%TA.AperFunction,ViaPad*%
%ADD20C,0.800000*%
%TD*%
%TA.AperFunction,ViaPad*%
%ADD21C,4.000000*%
%TD*%
%TA.AperFunction,Conductor*%
%ADD22C,0.800000*%
%TD*%
%TA.AperFunction,Conductor*%
%ADD23C,0.200000*%
%TD*%
%TA.AperFunction,Conductor*%
%ADD24C,0.550000*%
%TD*%
G04 APERTURE END LIST*
D10*
%TO.P,J1,2,Ext*%
%TO.N,GND*%
X66892500Y-67025000D03*
X66892500Y-72675000D03*
%TD*%
D11*
%TO.P,C10,1*%
%TO.N,+5V_VIN*%
X155934500Y-57912000D03*
%TO.P,C10,2*%
%TO.N,GND*%
X158009500Y-57912000D03*
%TD*%
%TO.P,C4,1*%
%TO.N,Net-(C4-Pad1)*%
X159490500Y-61468000D03*
%TO.P,C4,2*%
%TO.N,GND*%
X161565500Y-61468000D03*
%TD*%
D12*
%TO.P,J2,A1,GND*%
%TO.N,GND*%
X158835000Y-67158000D03*
%TO.P,J2,A4,VBUS*%
%TO.N,+5V_VIN*%
X158835000Y-67958000D03*
D13*
%TO.P,J2,A5,CC1*%
%TO.N,unconnected-(J2-PadA5)*%
X158835000Y-69108000D03*
%TO.P,J2,A6,D+*%
%TO.N,unconnected-(J2-PadA6)*%
X158835000Y-70108000D03*
%TO.P,J2,A7,D-*%
%TO.N,unconnected-(J2-PadA7)*%
X158835000Y-70608000D03*
%TO.P,J2,A8,SBU1*%
%TO.N,unconnected-(J2-PadA8)*%
X158835000Y-71608000D03*
D12*
%TO.P,J2,A9,VBUS*%
%TO.N,+5V_VIN*%
X158835000Y-72758000D03*
%TO.P,J2,A12,GND*%
%TO.N,GND*%
X158835000Y-73558000D03*
%TO.P,J2,B1,GND*%
X158835000Y-73558000D03*
%TO.P,J2,B4,VBUS*%
%TO.N,+5V_VIN*%
X158835000Y-72758000D03*
D13*
%TO.P,J2,B5,CC2*%
%TO.N,unconnected-(J2-PadB5)*%
X158835000Y-72108000D03*
%TO.P,J2,B6,D+*%
%TO.N,unconnected-(J2-PadB6)*%
X158835000Y-71108000D03*
%TO.P,J2,B7,D-*%
%TO.N,unconnected-(J2-PadB7)*%
X158835000Y-69608000D03*
%TO.P,J2,B8,SBU2*%
%TO.N,unconnected-(J2-PadB8)*%
X158835000Y-68608000D03*
D12*
%TO.P,J2,B9,VBUS*%
%TO.N,+5V_VIN*%
X158835000Y-67958000D03*
%TO.P,J2,B12,GND*%
%TO.N,GND*%
X158835000Y-67158000D03*
D14*
%TO.P,J2,S1,SHIELD*%
X159435000Y-66038000D03*
X159435000Y-74678000D03*
D15*
X163635000Y-74678000D03*
X163635000Y-66038000D03*
%TD*%
D16*
%TO.P,R6,1*%
%TO.N,+5V_VIN*%
X155805500Y-61468000D03*
%TO.P,R6,2*%
%TO.N,Net-(C4-Pad1)*%
X157630500Y-61468000D03*
%TD*%
D17*
%TO.P,BT1,1,+*%
%TO.N,B+*%
X152614000Y-70061000D03*
%TO.P,BT1,2,-*%
%TO.N,GND*%
X73954000Y-70061000D03*
%TD*%
D18*
%TO.P,C1,1*%
%TO.N,+5V*%
X155601500Y-82804000D03*
%TO.P,C1,2*%
%TO.N,GND*%
X157326500Y-82804000D03*
%TD*%
D19*
%TO.N,B+*%
X137160000Y-72390000D03*
D20*
%TO.N,GND*%
X100584000Y-60960000D03*
X65786000Y-64770000D03*
X153416000Y-75184000D03*
X112268000Y-83566000D03*
X141732000Y-58166000D03*
X150368000Y-57912000D03*
X120396000Y-75692000D03*
X76200000Y-78994000D03*
X65786000Y-77978000D03*
X76200000Y-60706000D03*
X88646000Y-79248000D03*
X147320000Y-74930000D03*
X153416000Y-81788000D03*
X146558000Y-68580000D03*
X71882000Y-55880000D03*
X109474000Y-57658000D03*
X106426000Y-60960000D03*
X101346000Y-75692000D03*
D21*
X67056000Y-82296000D03*
D20*
X81280000Y-60706000D03*
X125984000Y-78994000D03*
X128524000Y-70612000D03*
X125476000Y-83820000D03*
X128524000Y-73914000D03*
D21*
X162306000Y-57404000D03*
D20*
X122936000Y-61976000D03*
X81280000Y-78994000D03*
X65786000Y-61976000D03*
X150368000Y-81788000D03*
X107188000Y-74168000D03*
X120396000Y-77470000D03*
X83566000Y-70104000D03*
X156718000Y-74930000D03*
X128270000Y-61976000D03*
D21*
X67056000Y-57404000D03*
D20*
X115570000Y-68326000D03*
D21*
X162306000Y-82550000D03*
D20*
X85852000Y-65024000D03*
X86106000Y-75438000D03*
X78740000Y-78994000D03*
X147066000Y-57912000D03*
X118110000Y-75692000D03*
X88392000Y-70104000D03*
X121920000Y-68326000D03*
X91440000Y-79248000D03*
X138938000Y-74422000D03*
X110236000Y-83566000D03*
X69596000Y-64770000D03*
X138176000Y-58166000D03*
X138684000Y-79248000D03*
X135890000Y-83058000D03*
X114046000Y-78232000D03*
X117856000Y-61976000D03*
X106426000Y-79248000D03*
X118872000Y-68326000D03*
X101346000Y-78486000D03*
X69596000Y-74676000D03*
X144018000Y-74930000D03*
X102108000Y-62992000D03*
X65786000Y-74930000D03*
X84836000Y-83566000D03*
X85090000Y-56134000D03*
X138684000Y-70104000D03*
X99060000Y-62992000D03*
X72390000Y-83820000D03*
D19*
%TO.N,+5V*%
X161544000Y-75692000D03*
X134620000Y-67564000D03*
D20*
%TO.N,RXEN*%
X99060000Y-69088000D03*
X101600000Y-66548000D03*
%TO.N,DIO1*%
X109728000Y-66548000D03*
X104140000Y-60960000D03*
%TO.N,SCK*%
X100330000Y-72644000D03*
X96774000Y-69088000D03*
%TO.N,MISO*%
X159512000Y-64262000D03*
X161544000Y-64262000D03*
%TO.N,TXEN*%
X101092000Y-69596000D03*
X103632000Y-66802000D03*
D19*
%TO.N,+5V_VIN*%
X111760000Y-69596000D03*
%TD*%
D22*
%TO.N,B+*%
X148887000Y-70061000D02*
X155711000Y-70061000D01*
X137160000Y-72390000D02*
X146558000Y-72390000D01*
X146558000Y-72390000D02*
X148887000Y-70061000D01*
%TO.N,GND*%
X158935000Y-67058000D02*
X158835000Y-67058000D01*
X159435000Y-66558000D02*
X158935000Y-67058000D01*
X159435000Y-74345000D02*
X158835000Y-73745000D01*
X158835000Y-73745000D02*
X158835000Y-73658000D01*
X159435000Y-74678000D02*
X159435000Y-74345000D01*
X159435000Y-66038000D02*
X159435000Y-66558000D01*
%TO.N,+5V*%
X155601500Y-81634500D02*
X161544000Y-75692000D01*
X134620000Y-67564000D02*
X134620000Y-78486000D01*
X139176000Y-83042000D02*
X155363500Y-83042000D01*
X155363500Y-83042000D02*
X155601500Y-82804000D01*
X155601500Y-82804000D02*
X155601500Y-81634500D01*
X134620000Y-78486000D02*
X139176000Y-83042000D01*
D23*
%TO.N,RXEN*%
X101600000Y-66548000D02*
X99060000Y-69088000D01*
%TO.N,DIO1*%
X104140000Y-60960000D02*
X109728000Y-66548000D01*
%TO.N,SCK*%
X100330000Y-72644000D02*
X96774000Y-69088000D01*
%TO.N,MISO*%
X159512000Y-64262000D02*
X161544000Y-64262000D01*
%TO.N,TXEN*%
X103632000Y-67056000D02*
X101092000Y-69596000D01*
X103632000Y-66802000D02*
X103632000Y-67056000D01*
D24*
%TO.N,Net-(C4-Pad1)*%
X157630500Y-61468000D02*
X159490500Y-61468000D01*
%TO.N,+5V_VIN*%
X157480000Y-67818000D02*
X157645000Y-67983000D01*
X157645000Y-67983000D02*
X157740000Y-67983000D01*
X155702000Y-62738000D02*
X155702000Y-61571500D01*
X114046000Y-61214000D02*
X111760000Y-63500000D01*
X155702000Y-62738000D02*
X157480000Y-64516000D01*
X157480000Y-64516000D02*
X157480000Y-67818000D01*
X155805500Y-58041000D02*
X155934500Y-57912000D01*
X115824000Y-59436000D02*
X114046000Y-61214000D01*
X155805500Y-61468000D02*
X155805500Y-58041000D01*
X158835000Y-67958000D02*
X157765000Y-67958000D01*
X157740000Y-72733000D02*
X157765000Y-72758000D01*
X152400000Y-59436000D02*
X115824000Y-59436000D01*
X111760000Y-63500000D02*
X111760000Y-69596000D01*
X157740000Y-67983000D02*
X157740000Y-72733000D01*
X155702000Y-62738000D02*
X152400000Y-59436000D01*
X157765000Y-72758000D02*
X158835000Y-72758000D01*
X157765000Y-67958000D02*
X157740000Y-67983000D01*
X155702000Y-61571500D02*
X155805500Y-61468000D01*
%TD*%
%TA.AperFunction,Conductor*%
%TO.N,GND*%
G36*
X162492542Y-55390542D02*
G01*
X162511904Y-55392043D01*
X162526788Y-55394361D01*
X162526795Y-55394361D01*
X162535663Y-55395742D01*
X162544567Y-55394578D01*
X162544569Y-55394578D01*
X162552061Y-55393599D01*
X162576561Y-55392801D01*
X162798920Y-55407247D01*
X162815114Y-55409360D01*
X163059747Y-55457572D01*
X163075533Y-55461762D01*
X163311877Y-55541213D01*
X163326979Y-55547406D01*
X163435428Y-55600331D01*
X163551063Y-55656763D01*
X163565245Y-55664862D01*
X163773292Y-55802278D01*
X163786308Y-55812143D01*
X163974841Y-55975322D01*
X163986471Y-55986788D01*
X164152309Y-56172978D01*
X164162359Y-56185853D01*
X164302718Y-56391929D01*
X164311018Y-56405995D01*
X164423545Y-56628497D01*
X164429956Y-56643519D01*
X164512758Y-56878713D01*
X164517171Y-56894438D01*
X164568853Y-57138355D01*
X164571196Y-57154517D01*
X164588236Y-57369525D01*
X164587521Y-57392943D01*
X164587527Y-57396139D01*
X164586272Y-57405033D01*
X164587563Y-57413920D01*
X164590191Y-57432012D01*
X164591500Y-57450125D01*
X164591500Y-64984829D01*
X164571498Y-65052950D01*
X164517842Y-65099443D01*
X164447568Y-65109547D01*
X164427402Y-65104931D01*
X164251462Y-65049120D01*
X164239468Y-65046570D01*
X164095239Y-65030393D01*
X164088215Y-65030000D01*
X163907115Y-65030000D01*
X163891876Y-65034475D01*
X163890671Y-65035865D01*
X163889000Y-65043548D01*
X163889000Y-67027885D01*
X163893475Y-67043124D01*
X163894865Y-67044329D01*
X163902548Y-67046000D01*
X164081657Y-67046000D01*
X164087805Y-67045699D01*
X164225603Y-67032188D01*
X164237638Y-67029805D01*
X164415079Y-66976232D01*
X164417493Y-66975237D01*
X164418848Y-66975094D01*
X164420977Y-66974451D01*
X164421099Y-66974856D01*
X164488096Y-66967776D01*
X164551526Y-66999670D01*
X164587642Y-67060794D01*
X164591500Y-67091733D01*
X164591500Y-73624829D01*
X164571498Y-73692950D01*
X164517842Y-73739443D01*
X164447568Y-73749547D01*
X164427402Y-73744931D01*
X164251462Y-73689120D01*
X164239468Y-73686570D01*
X164095239Y-73670393D01*
X164088215Y-73670000D01*
X163907115Y-73670000D01*
X163891876Y-73674475D01*
X163890671Y-73675865D01*
X163889000Y-73683548D01*
X163889000Y-75667885D01*
X163893475Y-75683124D01*
X163894865Y-75684329D01*
X163902548Y-75686000D01*
X164081657Y-75686000D01*
X164087805Y-75685699D01*
X164225603Y-75672188D01*
X164237638Y-75669805D01*
X164415079Y-75616232D01*
X164417493Y-75615237D01*
X164418848Y-75615094D01*
X164420977Y-75614451D01*
X164421099Y-75614856D01*
X164488096Y-75607776D01*
X164551526Y-75639670D01*
X164587642Y-75700794D01*
X164591500Y-75731733D01*
X164591500Y-82496114D01*
X164589711Y-82517269D01*
X164586450Y-82536416D01*
X164587487Y-82545332D01*
X164587487Y-82545335D01*
X164588360Y-82552837D01*
X164588810Y-82577349D01*
X164571205Y-82799485D01*
X164568862Y-82815647D01*
X164517180Y-83059564D01*
X164512767Y-83075289D01*
X164429964Y-83310484D01*
X164423553Y-83325506D01*
X164311026Y-83548009D01*
X164302726Y-83562075D01*
X164162363Y-83768156D01*
X164152319Y-83781024D01*
X163986470Y-83967227D01*
X163974855Y-83978678D01*
X163892330Y-84050105D01*
X163786314Y-84141864D01*
X163773298Y-84151729D01*
X163565250Y-84289146D01*
X163551068Y-84297245D01*
X163463926Y-84339772D01*
X163326984Y-84406602D01*
X163311881Y-84412795D01*
X163251837Y-84432980D01*
X163075534Y-84492247D01*
X163059748Y-84496437D01*
X162815116Y-84544649D01*
X162798922Y-84546762D01*
X162700957Y-84553127D01*
X162583775Y-84560740D01*
X162560022Y-84559674D01*
X162557081Y-84559638D01*
X162548215Y-84558258D01*
X162516587Y-84562395D01*
X162500286Y-84563458D01*
X91359252Y-84576906D01*
X67105333Y-84581491D01*
X67085923Y-84579991D01*
X67071149Y-84577690D01*
X67071144Y-84577690D01*
X67062276Y-84576309D01*
X67045077Y-84578558D01*
X67021137Y-84579391D01*
X66788120Y-84565296D01*
X66773016Y-84563462D01*
X66516542Y-84516462D01*
X66501769Y-84512821D01*
X66435745Y-84492247D01*
X66252820Y-84435245D01*
X66238602Y-84429853D01*
X66000818Y-84322835D01*
X65987362Y-84315773D01*
X65764211Y-84180873D01*
X65751690Y-84172231D01*
X65546427Y-84011417D01*
X65535039Y-84001327D01*
X65350673Y-83816961D01*
X65340583Y-83805573D01*
X65285510Y-83735278D01*
X65179768Y-83600308D01*
X65171126Y-83587788D01*
X65147079Y-83548009D01*
X65036227Y-83364638D01*
X65029165Y-83351182D01*
X64922147Y-83113398D01*
X64916753Y-83099175D01*
X64909568Y-83076115D01*
X64839179Y-82850231D01*
X64835538Y-82835458D01*
X64788538Y-82578984D01*
X64786704Y-82563880D01*
X64773269Y-82341768D01*
X64774520Y-82318216D01*
X64774334Y-82318199D01*
X64774769Y-82313350D01*
X64775576Y-82308552D01*
X64775729Y-82296000D01*
X64771773Y-82268376D01*
X64770500Y-82250514D01*
X64770500Y-73984000D01*
X64790502Y-73915879D01*
X64844158Y-73869386D01*
X64896500Y-73858000D01*
X66620385Y-73858000D01*
X66635624Y-73853525D01*
X66636829Y-73852135D01*
X66638500Y-73844452D01*
X66638500Y-73839884D01*
X67146500Y-73839884D01*
X67150975Y-73855123D01*
X67152365Y-73856328D01*
X67160048Y-73857999D01*
X69037169Y-73857999D01*
X69043990Y-73857629D01*
X69094852Y-73852105D01*
X69110104Y-73848479D01*
X69230554Y-73803324D01*
X69246149Y-73794786D01*
X69348224Y-73718285D01*
X69360785Y-73705724D01*
X69437286Y-73603649D01*
X69445824Y-73588054D01*
X69490978Y-73467606D01*
X69494605Y-73452351D01*
X69500131Y-73401486D01*
X69500500Y-73394672D01*
X69500500Y-73280669D01*
X69776001Y-73280669D01*
X69776371Y-73287490D01*
X69781895Y-73338352D01*
X69785521Y-73353604D01*
X69830676Y-73474054D01*
X69839214Y-73489649D01*
X69915715Y-73591724D01*
X69928276Y-73604285D01*
X70030351Y-73680786D01*
X70045946Y-73689324D01*
X70166394Y-73734478D01*
X70181649Y-73738105D01*
X70232514Y-73743631D01*
X70239328Y-73744000D01*
X73681885Y-73744000D01*
X73697124Y-73739525D01*
X73698329Y-73738135D01*
X73700000Y-73730452D01*
X73700000Y-73725884D01*
X74208000Y-73725884D01*
X74212475Y-73741123D01*
X74213865Y-73742328D01*
X74221548Y-73743999D01*
X77668669Y-73743999D01*
X77675490Y-73743629D01*
X77726352Y-73738105D01*
X77741604Y-73734479D01*
X77862054Y-73689324D01*
X77877649Y-73680786D01*
X77979724Y-73604285D01*
X77992285Y-73591724D01*
X78068786Y-73489649D01*
X78077324Y-73474054D01*
X78122478Y-73353606D01*
X78126105Y-73338351D01*
X78131631Y-73287486D01*
X78132000Y-73280672D01*
X78132000Y-70333115D01*
X78127525Y-70317876D01*
X78126135Y-70316671D01*
X78118452Y-70315000D01*
X74226115Y-70315000D01*
X74210876Y-70319475D01*
X74209671Y-70320865D01*
X74208000Y-70328548D01*
X74208000Y-73725884D01*
X73700000Y-73725884D01*
X73700000Y-70333115D01*
X73695525Y-70317876D01*
X73694135Y-70316671D01*
X73686452Y-70315000D01*
X69794116Y-70315000D01*
X69778877Y-70319475D01*
X69777672Y-70320865D01*
X69776001Y-70328548D01*
X69776001Y-73280669D01*
X69500500Y-73280669D01*
X69500500Y-72947115D01*
X69496025Y-72931876D01*
X69494635Y-72930671D01*
X69486952Y-72929000D01*
X67164615Y-72929000D01*
X67149376Y-72933475D01*
X67148171Y-72934865D01*
X67146500Y-72942548D01*
X67146500Y-73839884D01*
X66638500Y-73839884D01*
X66638500Y-72402885D01*
X67146500Y-72402885D01*
X67150975Y-72418124D01*
X67152365Y-72419329D01*
X67160048Y-72421000D01*
X69482384Y-72421000D01*
X69497623Y-72416525D01*
X69498828Y-72415135D01*
X69500499Y-72407452D01*
X69500499Y-71955331D01*
X69500129Y-71948510D01*
X69494605Y-71897648D01*
X69490979Y-71882396D01*
X69445824Y-71761946D01*
X69437286Y-71746351D01*
X69360785Y-71644276D01*
X69348224Y-71631715D01*
X69246149Y-71555214D01*
X69230554Y-71546676D01*
X69110106Y-71501522D01*
X69094851Y-71497895D01*
X69043986Y-71492369D01*
X69037172Y-71492000D01*
X67164615Y-71492000D01*
X67149376Y-71496475D01*
X67148171Y-71497865D01*
X67146500Y-71505548D01*
X67146500Y-72402885D01*
X66638500Y-72402885D01*
X66638500Y-71510116D01*
X66634025Y-71494877D01*
X66632635Y-71493672D01*
X66624952Y-71492001D01*
X64896500Y-71492001D01*
X64828379Y-71471999D01*
X64781886Y-71418343D01*
X64770500Y-71366001D01*
X64770500Y-69788885D01*
X69776000Y-69788885D01*
X69780475Y-69804124D01*
X69781865Y-69805329D01*
X69789548Y-69807000D01*
X73681885Y-69807000D01*
X73697124Y-69802525D01*
X73698329Y-69801135D01*
X73700000Y-69793452D01*
X73700000Y-69788885D01*
X74208000Y-69788885D01*
X74212475Y-69804124D01*
X74213865Y-69805329D01*
X74221548Y-69807000D01*
X78113884Y-69807000D01*
X78129123Y-69802525D01*
X78130328Y-69801135D01*
X78131999Y-69793452D01*
X78131999Y-69088000D01*
X95860496Y-69088000D01*
X95880458Y-69277928D01*
X95939473Y-69459556D01*
X96034960Y-69624944D01*
X96162747Y-69766866D01*
X96317248Y-69879118D01*
X96323276Y-69881802D01*
X96323278Y-69881803D01*
X96378675Y-69906467D01*
X96491712Y-69956794D01*
X96585112Y-69976647D01*
X96672056Y-69995128D01*
X96672061Y-69995128D01*
X96678513Y-69996500D01*
X96769761Y-69996500D01*
X96837882Y-70016502D01*
X96858856Y-70033405D01*
X99380281Y-72554830D01*
X99414307Y-72617142D01*
X99416841Y-72640716D01*
X99416496Y-72644000D01*
X99417186Y-72650565D01*
X99434225Y-72812678D01*
X99436458Y-72833928D01*
X99495473Y-73015556D01*
X99590960Y-73180944D01*
X99595378Y-73185851D01*
X99595379Y-73185852D01*
X99711273Y-73314565D01*
X99718747Y-73322866D01*
X99751023Y-73346316D01*
X99859581Y-73425188D01*
X99873248Y-73435118D01*
X99879276Y-73437802D01*
X99879278Y-73437803D01*
X100041681Y-73510109D01*
X100047712Y-73512794D01*
X100106233Y-73525233D01*
X100228056Y-73551128D01*
X100228061Y-73551128D01*
X100234513Y-73552500D01*
X100425487Y-73552500D01*
X100431939Y-73551128D01*
X100431944Y-73551128D01*
X100553767Y-73525233D01*
X100612288Y-73512794D01*
X100618319Y-73510109D01*
X100780722Y-73437803D01*
X100780724Y-73437802D01*
X100786752Y-73435118D01*
X100800420Y-73425188D01*
X100908977Y-73346316D01*
X100941253Y-73322866D01*
X100948727Y-73314565D01*
X101064621Y-73185852D01*
X101064622Y-73185851D01*
X101069040Y-73180944D01*
X101164527Y-73015556D01*
X101223542Y-72833928D01*
X101225776Y-72812678D01*
X101242814Y-72650565D01*
X101243504Y-72644000D01*
X101223542Y-72454072D01*
X101164527Y-72272444D01*
X101069040Y-72107056D01*
X101055947Y-72092514D01*
X100945675Y-71970045D01*
X100945674Y-71970044D01*
X100941253Y-71965134D01*
X100812525Y-71871607D01*
X100792094Y-71856763D01*
X100792093Y-71856762D01*
X100786752Y-71852882D01*
X100780724Y-71850198D01*
X100780722Y-71850197D01*
X100618319Y-71777891D01*
X100618318Y-71777891D01*
X100612288Y-71775206D01*
X100518887Y-71755353D01*
X100431944Y-71736872D01*
X100431939Y-71736872D01*
X100425487Y-71735500D01*
X100334239Y-71735500D01*
X100266118Y-71715498D01*
X100245144Y-71698595D01*
X98730063Y-70183514D01*
X98696037Y-70121202D01*
X98701102Y-70050387D01*
X98743649Y-69993551D01*
X98810169Y-69968740D01*
X98845355Y-69971172D01*
X98958056Y-69995128D01*
X98958061Y-69995128D01*
X98964513Y-69996500D01*
X99155487Y-69996500D01*
X99161939Y-69995128D01*
X99161944Y-69995128D01*
X99248888Y-69976647D01*
X99342288Y-69956794D01*
X99455325Y-69906467D01*
X99510722Y-69881803D01*
X99510724Y-69881802D01*
X99516752Y-69879118D01*
X99671253Y-69766866D01*
X99799040Y-69624944D01*
X99894527Y-69459556D01*
X99953542Y-69277928D01*
X99973504Y-69088000D01*
X99973316Y-69086214D01*
X99992816Y-69019804D01*
X100009719Y-68998830D01*
X101515144Y-67493405D01*
X101577456Y-67459379D01*
X101604239Y-67456500D01*
X101695487Y-67456500D01*
X101701939Y-67455128D01*
X101701944Y-67455128D01*
X101788888Y-67436647D01*
X101882288Y-67416794D01*
X101888319Y-67414109D01*
X102050722Y-67341803D01*
X102050724Y-67341802D01*
X102056752Y-67339118D01*
X102211253Y-67226866D01*
X102215675Y-67221955D01*
X102334621Y-67089852D01*
X102334622Y-67089851D01*
X102339040Y-67084944D01*
X102401805Y-66976232D01*
X102431223Y-66925279D01*
X102431224Y-66925278D01*
X102434527Y-66919556D01*
X102475246Y-66794238D01*
X102515318Y-66735633D01*
X102580715Y-66707996D01*
X102650672Y-66720103D01*
X102702978Y-66768109D01*
X102720388Y-66820004D01*
X102736963Y-66977702D01*
X102738458Y-66991928D01*
X102740497Y-66998204D01*
X102741831Y-67004478D01*
X102736430Y-67075269D01*
X102707680Y-67119771D01*
X101176856Y-68650595D01*
X101114544Y-68684621D01*
X101087761Y-68687500D01*
X100996513Y-68687500D01*
X100990061Y-68688872D01*
X100990056Y-68688872D01*
X100903112Y-68707353D01*
X100809712Y-68727206D01*
X100803682Y-68729891D01*
X100803681Y-68729891D01*
X100641278Y-68802197D01*
X100641276Y-68802198D01*
X100635248Y-68804882D01*
X100629907Y-68808762D01*
X100629906Y-68808763D01*
X100609422Y-68823646D01*
X100480747Y-68917134D01*
X100476326Y-68922044D01*
X100476325Y-68922045D01*
X100388303Y-69019804D01*
X100352960Y-69059056D01*
X100257473Y-69224444D01*
X100198458Y-69406072D01*
X100197768Y-69412633D01*
X100197768Y-69412635D01*
X100193497Y-69453271D01*
X100178496Y-69596000D01*
X100179186Y-69602565D01*
X100197389Y-69775753D01*
X100198458Y-69785928D01*
X100257473Y-69967556D01*
X100352960Y-70132944D01*
X100480747Y-70274866D01*
X100539945Y-70317876D01*
X100623728Y-70378748D01*
X100635248Y-70387118D01*
X100641276Y-70389802D01*
X100641278Y-70389803D01*
X100686341Y-70409866D01*
X100809712Y-70464794D01*
X100903112Y-70484647D01*
X100990056Y-70503128D01*
X100990061Y-70503128D01*
X100996513Y-70504500D01*
X101187487Y-70504500D01*
X101193939Y-70503128D01*
X101193944Y-70503128D01*
X101280888Y-70484647D01*
X101374288Y-70464794D01*
X101497659Y-70409866D01*
X101542722Y-70389803D01*
X101542724Y-70389802D01*
X101548752Y-70387118D01*
X101560273Y-70378748D01*
X101644055Y-70317876D01*
X101703253Y-70274866D01*
X101831040Y-70132944D01*
X101926527Y-69967556D01*
X101985542Y-69785928D01*
X101986612Y-69775753D01*
X102004814Y-69602565D01*
X102005504Y-69596000D01*
X102005316Y-69594214D01*
X102013348Y-69566859D01*
X110647132Y-69566859D01*
X110660457Y-69770151D01*
X110710605Y-69967610D01*
X110795898Y-70152624D01*
X110913479Y-70318997D01*
X111059410Y-70461157D01*
X111064206Y-70464362D01*
X111064209Y-70464364D01*
X111064853Y-70464794D01*
X111228803Y-70574342D01*
X111234106Y-70576620D01*
X111234109Y-70576622D01*
X111323115Y-70614862D01*
X111415987Y-70654763D01*
X111488817Y-70671243D01*
X111609055Y-70698450D01*
X111609060Y-70698451D01*
X111614692Y-70699725D01*
X111620463Y-70699952D01*
X111620465Y-70699952D01*
X111683470Y-70702427D01*
X111818263Y-70707723D01*
X112019883Y-70678490D01*
X112025347Y-70676635D01*
X112025352Y-70676634D01*
X112207327Y-70614862D01*
X112207332Y-70614860D01*
X112212799Y-70613004D01*
X112390551Y-70513458D01*
X112547186Y-70383186D01*
X112677458Y-70226551D01*
X112777004Y-70048799D01*
X112778860Y-70043332D01*
X112778862Y-70043327D01*
X112840634Y-69861352D01*
X112840635Y-69861347D01*
X112842490Y-69855883D01*
X112871723Y-69654263D01*
X112873249Y-69596000D01*
X112859692Y-69448458D01*
X112855137Y-69398880D01*
X112855136Y-69398877D01*
X112854608Y-69393126D01*
X112820267Y-69271365D01*
X112800875Y-69202606D01*
X112800874Y-69202604D01*
X112799307Y-69197047D01*
X112788680Y-69175496D01*
X112711756Y-69019510D01*
X112709201Y-69014329D01*
X112690796Y-68989681D01*
X112590758Y-68855715D01*
X112590758Y-68855714D01*
X112587305Y-68851091D01*
X112583069Y-68847175D01*
X112579197Y-68842875D01*
X112580304Y-68841879D01*
X112547526Y-68787079D01*
X112543500Y-68755484D01*
X112543500Y-63876726D01*
X112563502Y-63808605D01*
X112580405Y-63787631D01*
X116111631Y-60256405D01*
X116173943Y-60222379D01*
X116200726Y-60219500D01*
X152023274Y-60219500D01*
X152091395Y-60239502D01*
X152112369Y-60256405D01*
X155138029Y-63282065D01*
X155207949Y-63352475D01*
X155208959Y-63353116D01*
X155210138Y-63354174D01*
X156659595Y-64803631D01*
X156693621Y-64865943D01*
X156696500Y-64892726D01*
X156696500Y-66315740D01*
X156676498Y-66383861D01*
X156622842Y-66430354D01*
X156552568Y-66440458D01*
X156526271Y-66433722D01*
X156401718Y-66387029D01*
X156401712Y-66387027D01*
X156394316Y-66384255D01*
X156332134Y-66377500D01*
X148895866Y-66377500D01*
X148833684Y-66384255D01*
X148697295Y-66435385D01*
X148580739Y-66522739D01*
X148493385Y-66639295D01*
X148442255Y-66775684D01*
X148435500Y-66837866D01*
X148435500Y-69197497D01*
X148415498Y-69265618D01*
X148388800Y-69295413D01*
X148378526Y-69303733D01*
X148362237Y-69314927D01*
X148350056Y-69321960D01*
X148345150Y-69326377D01*
X148345145Y-69326381D01*
X148299221Y-69367731D01*
X148294220Y-69372003D01*
X148278259Y-69384928D01*
X148263744Y-69399443D01*
X148258959Y-69403984D01*
X148208134Y-69449747D01*
X148204255Y-69455086D01*
X148204254Y-69455087D01*
X148199860Y-69461135D01*
X148187019Y-69476168D01*
X146218592Y-71444595D01*
X146156280Y-71478621D01*
X146129497Y-71481500D01*
X137834032Y-71481500D01*
X137766797Y-71462062D01*
X137670288Y-71401169D01*
X137670283Y-71401167D01*
X137665404Y-71398088D01*
X137476180Y-71322595D01*
X137276366Y-71282849D01*
X137270592Y-71282773D01*
X137270588Y-71282773D01*
X137167452Y-71281424D01*
X137072655Y-71280183D01*
X137066958Y-71281162D01*
X137066957Y-71281162D01*
X136941520Y-71302716D01*
X136871870Y-71314684D01*
X136680734Y-71385198D01*
X136675773Y-71388150D01*
X136675772Y-71388150D01*
X136523705Y-71478621D01*
X136505649Y-71489363D01*
X136352478Y-71623690D01*
X136348911Y-71628215D01*
X136348906Y-71628220D01*
X136280102Y-71715498D01*
X136226351Y-71783681D01*
X136223662Y-71788792D01*
X136223660Y-71788795D01*
X136187901Y-71856763D01*
X136131492Y-71963978D01*
X136071078Y-72158543D01*
X136047132Y-72360859D01*
X136060457Y-72564151D01*
X136110605Y-72761610D01*
X136195898Y-72946624D01*
X136313479Y-73112997D01*
X136353491Y-73151975D01*
X136455254Y-73251108D01*
X136459410Y-73255157D01*
X136464206Y-73258362D01*
X136464209Y-73258364D01*
X136595839Y-73346316D01*
X136628803Y-73368342D01*
X136634106Y-73370620D01*
X136634109Y-73370622D01*
X136790477Y-73437803D01*
X136815987Y-73448763D01*
X136884346Y-73464231D01*
X137009055Y-73492450D01*
X137009060Y-73492451D01*
X137014692Y-73493725D01*
X137020463Y-73493952D01*
X137020465Y-73493952D01*
X137083470Y-73496427D01*
X137218263Y-73501723D01*
X137419883Y-73472490D01*
X137425347Y-73470635D01*
X137425352Y-73470634D01*
X137607327Y-73408862D01*
X137607332Y-73408860D01*
X137612799Y-73407004D01*
X137777862Y-73314564D01*
X137839425Y-73298500D01*
X146476583Y-73298500D01*
X146496292Y-73300051D01*
X146510190Y-73302252D01*
X146516777Y-73301907D01*
X146516782Y-73301907D01*
X146578480Y-73298673D01*
X146585074Y-73298500D01*
X146605610Y-73298500D01*
X146608882Y-73298156D01*
X146608884Y-73298156D01*
X146626042Y-73296353D01*
X146632616Y-73295836D01*
X146694308Y-73292603D01*
X146694312Y-73292602D01*
X146700903Y-73292257D01*
X146707284Y-73290547D01*
X146707286Y-73290547D01*
X146714491Y-73288617D01*
X146733925Y-73285015D01*
X146741354Y-73284234D01*
X146741363Y-73284232D01*
X146747928Y-73283542D01*
X146812997Y-73262400D01*
X146819299Y-73260533D01*
X146885370Y-73242829D01*
X146897908Y-73236440D01*
X146916174Y-73228875D01*
X146923272Y-73226569D01*
X146923274Y-73226568D01*
X146929556Y-73224527D01*
X146988785Y-73190331D01*
X146994579Y-73187185D01*
X146997195Y-73185852D01*
X147055530Y-73156129D01*
X147066467Y-73147273D01*
X147082763Y-73136073D01*
X147089224Y-73132343D01*
X147089228Y-73132340D01*
X147094944Y-73129040D01*
X147099850Y-73124623D01*
X147099855Y-73124619D01*
X147145769Y-73083278D01*
X147150784Y-73078994D01*
X147164177Y-73068148D01*
X147166741Y-73066072D01*
X147181256Y-73051557D01*
X147186041Y-73047016D01*
X147236866Y-73001253D01*
X147245140Y-72989865D01*
X147257981Y-72974832D01*
X148220405Y-72012408D01*
X148282717Y-71978382D01*
X148353532Y-71983447D01*
X148410368Y-72025994D01*
X148435179Y-72092514D01*
X148435500Y-72101503D01*
X148435500Y-73284134D01*
X148442255Y-73346316D01*
X148493385Y-73482705D01*
X148580739Y-73599261D01*
X148697295Y-73686615D01*
X148833684Y-73737745D01*
X148895866Y-73744500D01*
X156332134Y-73744500D01*
X156394316Y-73737745D01*
X156530705Y-73686615D01*
X156647261Y-73599261D01*
X156734615Y-73482705D01*
X156785745Y-73346316D01*
X156792500Y-73284134D01*
X156792500Y-73132960D01*
X156812502Y-73064839D01*
X156866158Y-73018346D01*
X156936432Y-73008242D01*
X157001012Y-73037736D01*
X157028603Y-73073895D01*
X157028944Y-73073682D01*
X157033560Y-73081069D01*
X157046037Y-73101037D01*
X157053377Y-73114556D01*
X157063411Y-73136073D01*
X157067011Y-73143794D01*
X157071324Y-73149354D01*
X157071325Y-73149356D01*
X157092640Y-73176835D01*
X157099929Y-73187283D01*
X157122091Y-73222749D01*
X157139056Y-73239833D01*
X157149819Y-73250672D01*
X157150373Y-73251264D01*
X157150877Y-73251913D01*
X157176069Y-73277105D01*
X157219170Y-73320508D01*
X157219788Y-73321135D01*
X157251586Y-73353606D01*
X157266671Y-73369011D01*
X157272591Y-73372826D01*
X157272597Y-73372831D01*
X157301817Y-73391662D01*
X157312170Y-73399101D01*
X157339341Y-73420791D01*
X157339345Y-73420794D01*
X157344850Y-73425188D01*
X157357363Y-73431237D01*
X157373890Y-73439227D01*
X157387302Y-73446753D01*
X157408500Y-73460414D01*
X157408505Y-73460416D01*
X157414424Y-73464231D01*
X157421040Y-73466639D01*
X157421044Y-73466641D01*
X157441413Y-73474054D01*
X157453716Y-73478532D01*
X157465460Y-73483493D01*
X157496761Y-73498625D01*
X157496764Y-73498626D01*
X157503104Y-73501691D01*
X157526742Y-73507148D01*
X157534538Y-73508948D01*
X157549290Y-73513318D01*
X157579600Y-73524350D01*
X157586590Y-73525233D01*
X157621078Y-73529590D01*
X157633629Y-73531825D01*
X157667515Y-73539648D01*
X157667517Y-73539648D01*
X157674377Y-73541232D01*
X157681417Y-73541257D01*
X157681420Y-73541257D01*
X157713704Y-73541370D01*
X157714541Y-73541398D01*
X157715354Y-73541500D01*
X157750946Y-73541500D01*
X157751387Y-73541501D01*
X157850152Y-73541846D01*
X157851320Y-73541585D01*
X157852888Y-73541500D01*
X158033174Y-73541500D01*
X158077404Y-73549518D01*
X158104684Y-73559745D01*
X158112536Y-73560598D01*
X158112540Y-73560599D01*
X158113815Y-73560737D01*
X158114741Y-73561122D01*
X158120222Y-73562425D01*
X158120011Y-73563312D01*
X158179377Y-73587979D01*
X158219804Y-73646341D01*
X158222260Y-73717296D01*
X158185965Y-73778314D01*
X158122443Y-73810023D01*
X158100208Y-73812000D01*
X157725116Y-73812000D01*
X157709877Y-73816475D01*
X157708672Y-73817865D01*
X157707001Y-73825548D01*
X157707001Y-73902669D01*
X157707371Y-73909490D01*
X157712895Y-73960352D01*
X157716521Y-73975604D01*
X157761676Y-74096054D01*
X157770214Y-74111649D01*
X157846715Y-74213724D01*
X157859277Y-74226286D01*
X157877761Y-74240139D01*
X157920276Y-74296999D01*
X157925301Y-74367817D01*
X157922561Y-74378224D01*
X157913749Y-74406692D01*
X157913543Y-74420795D01*
X157920298Y-74424000D01*
X159162885Y-74424000D01*
X159178124Y-74419525D01*
X159179329Y-74418135D01*
X159181000Y-74410452D01*
X159181000Y-73960388D01*
X159201002Y-73892267D01*
X159254658Y-73845774D01*
X159324932Y-73835670D01*
X159383529Y-73860292D01*
X159515257Y-73961006D01*
X159515261Y-73961009D01*
X159520678Y-73965150D01*
X159526858Y-73968032D01*
X159526860Y-73968033D01*
X159616250Y-74009716D01*
X159669535Y-74056633D01*
X159689000Y-74123911D01*
X159689000Y-75667885D01*
X159693475Y-75683124D01*
X159694865Y-75684329D01*
X159702548Y-75686000D01*
X159960997Y-75686000D01*
X160029118Y-75706002D01*
X160075611Y-75759658D01*
X160085715Y-75829932D01*
X160056221Y-75894512D01*
X160050092Y-75901095D01*
X155016668Y-80934519D01*
X155001635Y-80947360D01*
X154990247Y-80955634D01*
X154985827Y-80960543D01*
X154944484Y-81006459D01*
X154939943Y-81011244D01*
X154925428Y-81025759D01*
X154923352Y-81028323D01*
X154912506Y-81041716D01*
X154908222Y-81046731D01*
X154866881Y-81092645D01*
X154866877Y-81092650D01*
X154862460Y-81097556D01*
X154859160Y-81103272D01*
X154859157Y-81103276D01*
X154855427Y-81109737D01*
X154844227Y-81126033D01*
X154835371Y-81136970D01*
X154804315Y-81197921D01*
X154801169Y-81203715D01*
X154766973Y-81262944D01*
X154764932Y-81269226D01*
X154764931Y-81269228D01*
X154762625Y-81276326D01*
X154755060Y-81294592D01*
X154748671Y-81307130D01*
X154746963Y-81313503D01*
X154746963Y-81313504D01*
X154730969Y-81373195D01*
X154729100Y-81379503D01*
X154707958Y-81444572D01*
X154707268Y-81451137D01*
X154707266Y-81451146D01*
X154706485Y-81458575D01*
X154702883Y-81478009D01*
X154700953Y-81485214D01*
X154699243Y-81491597D01*
X154698898Y-81498188D01*
X154698897Y-81498192D01*
X154695664Y-81559884D01*
X154695147Y-81566458D01*
X154693344Y-81583616D01*
X154693000Y-81586890D01*
X154693000Y-81607426D01*
X154692827Y-81614020D01*
X154689248Y-81682310D01*
X154690280Y-81688825D01*
X154691449Y-81696205D01*
X154693000Y-81715917D01*
X154693000Y-82007500D01*
X154672998Y-82075621D01*
X154619342Y-82122114D01*
X154567000Y-82133500D01*
X139604503Y-82133500D01*
X139536382Y-82113498D01*
X139515408Y-82096595D01*
X135565405Y-78146592D01*
X135531379Y-78084280D01*
X135528500Y-78057497D01*
X135528500Y-74943768D01*
X157912425Y-74943768D01*
X157944138Y-75051521D01*
X157948731Y-75062889D01*
X158034607Y-75227154D01*
X158041321Y-75237415D01*
X158157468Y-75381873D01*
X158166046Y-75390632D01*
X158308039Y-75509778D01*
X158318159Y-75516708D01*
X158480585Y-75606002D01*
X158491858Y-75610834D01*
X158668538Y-75666880D01*
X158680532Y-75669430D01*
X158824761Y-75685607D01*
X158831785Y-75686000D01*
X159162885Y-75686000D01*
X159178124Y-75681525D01*
X159179329Y-75680135D01*
X159181000Y-75672452D01*
X159181000Y-74950115D01*
X159176525Y-74934876D01*
X159175135Y-74933671D01*
X159167452Y-74932000D01*
X157927076Y-74932000D01*
X157913545Y-74935973D01*
X157912425Y-74943768D01*
X135528500Y-74943768D01*
X135528500Y-68243425D01*
X135544564Y-68181862D01*
X135637004Y-68016799D01*
X135638860Y-68011332D01*
X135638862Y-68011327D01*
X135700634Y-67829352D01*
X135700635Y-67829347D01*
X135702490Y-67823883D01*
X135731723Y-67622263D01*
X135733249Y-67564000D01*
X135714608Y-67361126D01*
X135708165Y-67338280D01*
X135660875Y-67170606D01*
X135660874Y-67170604D01*
X135659307Y-67165047D01*
X135651641Y-67149500D01*
X135571756Y-66987510D01*
X135569201Y-66982329D01*
X135563799Y-66975094D01*
X135450758Y-66823715D01*
X135450758Y-66823714D01*
X135447305Y-66819091D01*
X135329748Y-66710422D01*
X135301943Y-66684719D01*
X135301940Y-66684717D01*
X135297703Y-66680800D01*
X135199177Y-66618635D01*
X135130288Y-66575169D01*
X135130283Y-66575167D01*
X135125404Y-66572088D01*
X134936180Y-66496595D01*
X134736366Y-66456849D01*
X134730592Y-66456773D01*
X134730588Y-66456773D01*
X134627452Y-66455424D01*
X134532655Y-66454183D01*
X134526958Y-66455162D01*
X134526957Y-66455162D01*
X134337567Y-66487705D01*
X134331870Y-66488684D01*
X134140734Y-66559198D01*
X134135773Y-66562150D01*
X134135772Y-66562150D01*
X133989551Y-66649143D01*
X133965649Y-66663363D01*
X133812478Y-66797690D01*
X133808911Y-66802215D01*
X133808906Y-66802220D01*
X133729770Y-66902604D01*
X133686351Y-66957681D01*
X133683662Y-66962792D01*
X133683660Y-66962795D01*
X133649415Y-67027885D01*
X133591492Y-67137978D01*
X133531078Y-67332543D01*
X133507132Y-67534859D01*
X133520457Y-67738151D01*
X133570605Y-67935610D01*
X133655898Y-68120624D01*
X133659231Y-68125340D01*
X133688397Y-68166609D01*
X133711500Y-68239329D01*
X133711500Y-78404583D01*
X133709949Y-78424292D01*
X133707748Y-78438190D01*
X133708093Y-78444777D01*
X133708093Y-78444782D01*
X133711327Y-78506480D01*
X133711500Y-78513074D01*
X133711500Y-78533610D01*
X133711844Y-78536882D01*
X133711844Y-78536884D01*
X133713647Y-78554042D01*
X133714164Y-78560616D01*
X133717743Y-78628903D01*
X133719453Y-78635284D01*
X133719453Y-78635286D01*
X133721383Y-78642491D01*
X133724985Y-78661925D01*
X133725766Y-78669354D01*
X133725768Y-78669363D01*
X133726458Y-78675928D01*
X133747600Y-78740997D01*
X133749467Y-78747299D01*
X133767171Y-78813370D01*
X133773559Y-78825907D01*
X133781125Y-78844173D01*
X133785473Y-78857556D01*
X133788776Y-78863278D01*
X133788777Y-78863279D01*
X133819667Y-78916782D01*
X133822814Y-78922577D01*
X133853871Y-78983530D01*
X133858024Y-78988658D01*
X133858025Y-78988660D01*
X133862727Y-78994466D01*
X133873927Y-79010763D01*
X133877657Y-79017224D01*
X133877660Y-79017228D01*
X133880960Y-79022944D01*
X133885377Y-79027850D01*
X133885381Y-79027855D01*
X133926722Y-79073769D01*
X133931006Y-79078784D01*
X133943928Y-79094741D01*
X133958443Y-79109256D01*
X133962984Y-79114041D01*
X134008747Y-79164866D01*
X134014086Y-79168745D01*
X134014087Y-79168746D01*
X134020135Y-79173140D01*
X134035168Y-79185981D01*
X138476019Y-83626832D01*
X138488860Y-83641865D01*
X138497134Y-83653253D01*
X138502043Y-83657673D01*
X138547959Y-83699016D01*
X138552744Y-83703557D01*
X138567259Y-83718072D01*
X138573977Y-83723512D01*
X138583216Y-83730994D01*
X138588231Y-83735278D01*
X138634145Y-83776619D01*
X138634150Y-83776623D01*
X138639056Y-83781040D01*
X138644772Y-83784340D01*
X138644776Y-83784343D01*
X138651237Y-83788073D01*
X138667533Y-83799273D01*
X138678470Y-83808129D01*
X138739421Y-83839185D01*
X138745215Y-83842331D01*
X138804444Y-83876527D01*
X138810726Y-83878568D01*
X138810728Y-83878569D01*
X138817826Y-83880875D01*
X138836092Y-83888440D01*
X138848630Y-83894829D01*
X138914701Y-83912533D01*
X138921003Y-83914400D01*
X138986072Y-83935542D01*
X138992637Y-83936232D01*
X138992646Y-83936234D01*
X139000075Y-83937015D01*
X139019509Y-83940617D01*
X139026714Y-83942547D01*
X139026716Y-83942547D01*
X139033097Y-83944257D01*
X139039688Y-83944602D01*
X139039692Y-83944603D01*
X139101384Y-83947836D01*
X139107958Y-83948353D01*
X139125116Y-83950156D01*
X139125118Y-83950156D01*
X139128390Y-83950500D01*
X139148926Y-83950500D01*
X139155520Y-83950673D01*
X139217218Y-83953907D01*
X139217223Y-83953907D01*
X139223810Y-83954252D01*
X139237708Y-83952051D01*
X139257417Y-83950500D01*
X155282083Y-83950500D01*
X155301792Y-83952051D01*
X155315690Y-83954252D01*
X155322277Y-83953907D01*
X155322282Y-83953907D01*
X155383980Y-83950673D01*
X155390574Y-83950500D01*
X155411110Y-83950500D01*
X155414382Y-83950156D01*
X155414384Y-83950156D01*
X155431542Y-83948353D01*
X155438116Y-83947836D01*
X155499808Y-83944603D01*
X155499812Y-83944602D01*
X155506403Y-83944257D01*
X155512784Y-83942547D01*
X155512786Y-83942547D01*
X155519991Y-83940617D01*
X155539425Y-83937015D01*
X155546854Y-83936234D01*
X155546863Y-83936232D01*
X155553428Y-83935542D01*
X155618497Y-83914400D01*
X155624799Y-83912533D01*
X155690870Y-83894829D01*
X155703408Y-83888440D01*
X155721674Y-83880875D01*
X155728772Y-83878569D01*
X155728774Y-83878568D01*
X155735056Y-83876527D01*
X155794285Y-83842331D01*
X155800079Y-83839185D01*
X155854283Y-83811567D01*
X155861030Y-83808129D01*
X155862081Y-83807278D01*
X155928852Y-83787500D01*
X155951072Y-83787500D01*
X155954318Y-83787163D01*
X155954322Y-83787163D01*
X156048235Y-83777419D01*
X156048239Y-83777418D01*
X156055093Y-83776707D01*
X156061629Y-83774526D01*
X156061631Y-83774526D01*
X156213159Y-83723972D01*
X156220107Y-83721654D01*
X156368031Y-83630116D01*
X156375274Y-83622861D01*
X156377038Y-83621895D01*
X156378941Y-83620387D01*
X156379199Y-83620713D01*
X156437554Y-83588781D01*
X156508375Y-83593782D01*
X156553470Y-83622708D01*
X156556131Y-83625364D01*
X156567540Y-83634375D01*
X156703063Y-83717912D01*
X156716241Y-83724056D01*
X156867766Y-83774315D01*
X156881132Y-83777181D01*
X156973770Y-83786672D01*
X156980185Y-83787000D01*
X157054385Y-83787000D01*
X157069624Y-83782525D01*
X157070829Y-83781135D01*
X157072500Y-83773452D01*
X157072500Y-83768885D01*
X157580500Y-83768885D01*
X157584975Y-83784124D01*
X157586365Y-83785329D01*
X157594048Y-83787000D01*
X157672766Y-83787000D01*
X157679282Y-83786663D01*
X157773132Y-83776925D01*
X157786528Y-83774032D01*
X157937953Y-83723512D01*
X157951115Y-83717347D01*
X158086492Y-83633574D01*
X158097890Y-83624540D01*
X158210363Y-83511871D01*
X158219375Y-83500460D01*
X158302912Y-83364937D01*
X158309056Y-83351759D01*
X158359315Y-83200234D01*
X158362181Y-83186868D01*
X158371672Y-83094230D01*
X158372000Y-83087815D01*
X158372000Y-83076115D01*
X158367525Y-83060876D01*
X158366135Y-83059671D01*
X158358452Y-83058000D01*
X157598615Y-83058000D01*
X157583376Y-83062475D01*
X157582171Y-83063865D01*
X157580500Y-83071548D01*
X157580500Y-83768885D01*
X157072500Y-83768885D01*
X157072500Y-82531885D01*
X157580500Y-82531885D01*
X157584975Y-82547124D01*
X157586365Y-82548329D01*
X157594048Y-82550000D01*
X158353885Y-82550000D01*
X158369124Y-82545525D01*
X158370329Y-82544135D01*
X158372000Y-82536452D01*
X158372000Y-82520234D01*
X158371663Y-82513718D01*
X158361925Y-82419868D01*
X158359032Y-82406472D01*
X158308512Y-82255047D01*
X158302347Y-82241885D01*
X158218574Y-82106508D01*
X158209540Y-82095110D01*
X158096871Y-81982637D01*
X158085460Y-81973625D01*
X157949937Y-81890088D01*
X157936759Y-81883944D01*
X157785234Y-81833685D01*
X157771868Y-81830819D01*
X157679230Y-81821328D01*
X157672815Y-81821000D01*
X157598615Y-81821000D01*
X157583376Y-81825475D01*
X157582171Y-81826865D01*
X157580500Y-81834548D01*
X157580500Y-82531885D01*
X157072500Y-82531885D01*
X157072500Y-81839115D01*
X157068025Y-81823876D01*
X157066635Y-81822671D01*
X157058952Y-81821000D01*
X157004003Y-81821000D01*
X156935882Y-81800998D01*
X156889389Y-81747342D01*
X156879285Y-81677068D01*
X156908779Y-81612488D01*
X156914908Y-81605905D01*
X161706966Y-76813847D01*
X161769278Y-76779821D01*
X161777979Y-76778246D01*
X161786076Y-76777072D01*
X161803883Y-76774490D01*
X161809347Y-76772635D01*
X161809352Y-76772634D01*
X161991327Y-76710862D01*
X161991332Y-76710860D01*
X161996799Y-76709004D01*
X162174551Y-76609458D01*
X162331186Y-76479186D01*
X162461458Y-76322551D01*
X162561004Y-76144799D01*
X162562860Y-76139332D01*
X162562862Y-76139327D01*
X162624634Y-75957352D01*
X162624635Y-75957347D01*
X162626490Y-75951883D01*
X162655723Y-75750263D01*
X162656537Y-75719176D01*
X162678315Y-75651603D01*
X162733170Y-75606531D01*
X162803684Y-75598270D01*
X162832134Y-75606665D01*
X162841867Y-75610837D01*
X163018538Y-75666880D01*
X163030532Y-75669430D01*
X163174761Y-75685607D01*
X163181785Y-75686000D01*
X163362885Y-75686000D01*
X163378124Y-75681525D01*
X163379329Y-75680135D01*
X163381000Y-75672452D01*
X163381000Y-74950115D01*
X163376525Y-74934876D01*
X163375135Y-74933671D01*
X163367452Y-74932000D01*
X162404296Y-74932000D01*
X162336175Y-74911998D01*
X162318767Y-74898525D01*
X162225943Y-74812719D01*
X162225940Y-74812717D01*
X162221703Y-74808800D01*
X162175675Y-74779759D01*
X162054288Y-74703169D01*
X162054283Y-74703167D01*
X162049404Y-74700088D01*
X161860180Y-74624595D01*
X161660366Y-74584849D01*
X161654592Y-74584773D01*
X161654588Y-74584773D01*
X161551452Y-74583424D01*
X161456655Y-74582183D01*
X161450958Y-74583162D01*
X161450957Y-74583162D01*
X161261567Y-74615705D01*
X161255870Y-74616684D01*
X161250444Y-74618686D01*
X161250443Y-74618686D01*
X161154407Y-74654115D01*
X161083574Y-74658927D01*
X161021384Y-74624680D01*
X160987582Y-74562246D01*
X160985316Y-74547323D01*
X160980495Y-74494345D01*
X160978197Y-74482296D01*
X160960096Y-74420795D01*
X162263544Y-74420795D01*
X162270299Y-74424000D01*
X163362885Y-74424000D01*
X163378124Y-74419525D01*
X163379329Y-74418135D01*
X163381000Y-74410452D01*
X163381000Y-73688115D01*
X163376525Y-73672876D01*
X163375135Y-73671671D01*
X163367452Y-73670000D01*
X163188343Y-73670000D01*
X163182195Y-73670301D01*
X163044397Y-73683812D01*
X163032362Y-73686195D01*
X162854924Y-73739767D01*
X162843584Y-73744441D01*
X162679923Y-73831460D01*
X162669706Y-73838249D01*
X162526067Y-73955397D01*
X162517363Y-73964041D01*
X162399216Y-74106856D01*
X162392356Y-74117027D01*
X162304196Y-74280076D01*
X162299444Y-74291381D01*
X162263750Y-74406692D01*
X162263544Y-74420795D01*
X160960096Y-74420795D01*
X160925862Y-74304479D01*
X160921269Y-74293111D01*
X160835393Y-74128846D01*
X160828679Y-74118585D01*
X160712532Y-73974127D01*
X160703954Y-73965367D01*
X160645522Y-73916337D01*
X160606195Y-73857227D01*
X160605069Y-73786239D01*
X160622301Y-73748992D01*
X160691442Y-73647255D01*
X160695277Y-73641612D01*
X160762530Y-73473466D01*
X160763644Y-73466738D01*
X160763645Y-73466734D01*
X160790993Y-73301539D01*
X160790993Y-73301536D01*
X160792108Y-73294802D01*
X160791650Y-73286050D01*
X160782987Y-73120766D01*
X160782630Y-73113953D01*
X160779073Y-73101037D01*
X160736352Y-72945941D01*
X160734539Y-72939359D01*
X160650078Y-72779164D01*
X160645673Y-72773951D01*
X160645670Y-72773947D01*
X160537594Y-72646057D01*
X160537590Y-72646053D01*
X160533187Y-72640843D01*
X160527762Y-72636695D01*
X160394743Y-72534994D01*
X160394739Y-72534991D01*
X160389322Y-72530850D01*
X160284186Y-72481825D01*
X160231369Y-72457195D01*
X160231366Y-72457194D01*
X160225192Y-72454315D01*
X160218546Y-72452829D01*
X160218533Y-72452825D01*
X160062014Y-72417839D01*
X159999897Y-72383459D01*
X159966228Y-72320953D01*
X159963500Y-72294874D01*
X159963500Y-71909866D01*
X159959344Y-71871606D01*
X159959344Y-71844393D01*
X159963131Y-71809533D01*
X159963131Y-71809529D01*
X159963500Y-71806134D01*
X159963500Y-71409866D01*
X159959344Y-71371606D01*
X159959344Y-71344393D01*
X159963131Y-71309533D01*
X159963131Y-71309529D01*
X159963500Y-71306134D01*
X159963500Y-70909866D01*
X159959344Y-70871606D01*
X159959344Y-70844393D01*
X159963131Y-70809533D01*
X159963131Y-70809529D01*
X159963500Y-70806134D01*
X159963500Y-70409866D01*
X159959344Y-70371606D01*
X159959344Y-70344393D01*
X159963131Y-70309533D01*
X159963131Y-70309529D01*
X159963500Y-70306134D01*
X159963500Y-69909866D01*
X159959344Y-69871606D01*
X159959344Y-69844393D01*
X159963131Y-69809533D01*
X159963131Y-69809529D01*
X159963500Y-69806134D01*
X159963500Y-69409866D01*
X159962622Y-69401778D01*
X159959344Y-69371607D01*
X159959344Y-69344393D01*
X159963131Y-69309533D01*
X159963131Y-69309529D01*
X159963500Y-69306134D01*
X159963500Y-68909866D01*
X159959344Y-68871606D01*
X159959344Y-68844393D01*
X159963131Y-68809533D01*
X159963131Y-68809529D01*
X159963500Y-68806134D01*
X159963500Y-68418545D01*
X159983502Y-68350424D01*
X160037158Y-68303931D01*
X160075893Y-68293282D01*
X160135037Y-68286857D01*
X160276263Y-68239329D01*
X160300204Y-68231272D01*
X160300206Y-68231271D01*
X160306675Y-68229094D01*
X160461905Y-68135823D01*
X160466862Y-68131135D01*
X160466865Y-68131133D01*
X160588527Y-68016082D01*
X160588529Y-68016080D01*
X160593485Y-68011393D01*
X160597317Y-68005755D01*
X160597320Y-68005751D01*
X160691442Y-67867255D01*
X160695277Y-67861612D01*
X160762530Y-67693466D01*
X160763644Y-67686738D01*
X160763645Y-67686734D01*
X160790993Y-67521539D01*
X160790993Y-67521536D01*
X160792108Y-67514802D01*
X160790330Y-67480866D01*
X160782987Y-67340766D01*
X160782630Y-67333953D01*
X160767494Y-67279000D01*
X160736352Y-67165941D01*
X160734539Y-67159359D01*
X160650078Y-66999164D01*
X160645673Y-66993951D01*
X160645670Y-66993947D01*
X160631386Y-66977045D01*
X160602694Y-66912104D01*
X160613667Y-66841960D01*
X160647989Y-66798074D01*
X160693928Y-66760607D01*
X160702637Y-66751959D01*
X160820784Y-66609144D01*
X160827644Y-66598973D01*
X160915804Y-66435924D01*
X160920556Y-66424619D01*
X160956250Y-66309308D01*
X160956331Y-66303768D01*
X162262425Y-66303768D01*
X162294138Y-66411521D01*
X162298731Y-66422889D01*
X162384607Y-66587154D01*
X162391321Y-66597415D01*
X162507468Y-66741873D01*
X162516046Y-66750632D01*
X162658039Y-66869778D01*
X162668159Y-66876708D01*
X162830585Y-66966002D01*
X162841858Y-66970834D01*
X163018538Y-67026880D01*
X163030532Y-67029430D01*
X163174761Y-67045607D01*
X163181785Y-67046000D01*
X163362885Y-67046000D01*
X163378124Y-67041525D01*
X163379329Y-67040135D01*
X163381000Y-67032452D01*
X163381000Y-66310115D01*
X163376525Y-66294876D01*
X163375135Y-66293671D01*
X163367452Y-66292000D01*
X162277076Y-66292000D01*
X162263545Y-66295973D01*
X162262425Y-66303768D01*
X160956331Y-66303768D01*
X160956456Y-66295205D01*
X160949701Y-66292000D01*
X159707115Y-66292000D01*
X159691876Y-66296475D01*
X159690671Y-66297865D01*
X159689000Y-66305548D01*
X159689000Y-66587550D01*
X159668998Y-66655671D01*
X159615853Y-66701929D01*
X159609792Y-66704729D01*
X159603325Y-66706906D01*
X159448095Y-66800177D01*
X159443138Y-66804865D01*
X159443135Y-66804867D01*
X159393573Y-66851736D01*
X159330335Y-66884008D01*
X159259688Y-66876968D01*
X159204063Y-66832851D01*
X159181000Y-66760188D01*
X159181000Y-65910000D01*
X159201002Y-65841879D01*
X159254658Y-65795386D01*
X159307000Y-65784000D01*
X160942924Y-65784000D01*
X160953839Y-65780795D01*
X162263544Y-65780795D01*
X162270299Y-65784000D01*
X163362885Y-65784000D01*
X163378124Y-65779525D01*
X163379329Y-65778135D01*
X163381000Y-65770452D01*
X163381000Y-65048115D01*
X163376525Y-65032876D01*
X163375135Y-65031671D01*
X163367452Y-65030000D01*
X163188343Y-65030000D01*
X163182195Y-65030301D01*
X163044397Y-65043812D01*
X163032362Y-65046195D01*
X162854924Y-65099767D01*
X162843584Y-65104441D01*
X162679923Y-65191460D01*
X162669706Y-65198249D01*
X162526067Y-65315397D01*
X162517363Y-65324041D01*
X162399216Y-65466856D01*
X162392356Y-65477027D01*
X162304196Y-65640076D01*
X162299444Y-65651381D01*
X162263750Y-65766692D01*
X162263544Y-65780795D01*
X160953839Y-65780795D01*
X160956455Y-65780027D01*
X160957575Y-65772232D01*
X160925862Y-65664479D01*
X160921269Y-65653111D01*
X160835393Y-65488846D01*
X160828679Y-65478585D01*
X160712532Y-65334127D01*
X160703954Y-65325368D01*
X160561961Y-65206222D01*
X160551841Y-65199292D01*
X160384015Y-65107029D01*
X160385385Y-65104536D01*
X160340049Y-65067046D01*
X160318481Y-64999405D01*
X160336908Y-64930841D01*
X160389477Y-64883124D01*
X160444448Y-64870500D01*
X160813290Y-64870500D01*
X160881411Y-64890502D01*
X160906926Y-64912189D01*
X160932747Y-64940866D01*
X161087248Y-65053118D01*
X161093276Y-65055802D01*
X161093278Y-65055803D01*
X161213990Y-65109547D01*
X161261712Y-65130794D01*
X161355113Y-65150647D01*
X161442056Y-65169128D01*
X161442061Y-65169128D01*
X161448513Y-65170500D01*
X161639487Y-65170500D01*
X161645939Y-65169128D01*
X161645944Y-65169128D01*
X161732887Y-65150647D01*
X161826288Y-65130794D01*
X161874010Y-65109547D01*
X161994722Y-65055803D01*
X161994724Y-65055802D01*
X162000752Y-65053118D01*
X162155253Y-64940866D01*
X162196093Y-64895509D01*
X162278621Y-64803852D01*
X162278625Y-64803847D01*
X162283040Y-64798944D01*
X162378527Y-64633556D01*
X162437542Y-64451928D01*
X162449168Y-64341318D01*
X162456814Y-64268565D01*
X162457504Y-64262000D01*
X162445518Y-64147960D01*
X162438232Y-64078635D01*
X162438232Y-64078633D01*
X162437542Y-64072072D01*
X162378527Y-63890444D01*
X162283040Y-63725056D01*
X162155253Y-63583134D01*
X162056157Y-63511136D01*
X162006094Y-63474763D01*
X162006093Y-63474762D01*
X162000752Y-63470882D01*
X161994724Y-63468198D01*
X161994722Y-63468197D01*
X161832319Y-63395891D01*
X161832318Y-63395891D01*
X161826288Y-63393206D01*
X161732888Y-63373353D01*
X161645944Y-63354872D01*
X161645939Y-63354872D01*
X161639487Y-63353500D01*
X161448513Y-63353500D01*
X161442061Y-63354872D01*
X161442056Y-63354872D01*
X161355112Y-63373353D01*
X161261712Y-63393206D01*
X161255682Y-63395891D01*
X161255681Y-63395891D01*
X161093278Y-63468197D01*
X161093276Y-63468198D01*
X161087248Y-63470882D01*
X161081907Y-63474762D01*
X161081906Y-63474763D01*
X160954329Y-63567454D01*
X160932747Y-63583134D01*
X160928334Y-63588036D01*
X160928332Y-63588037D01*
X160906926Y-63611811D01*
X160846480Y-63649050D01*
X160813290Y-63653500D01*
X160242710Y-63653500D01*
X160174589Y-63633498D01*
X160149074Y-63611811D01*
X160127668Y-63588037D01*
X160127666Y-63588036D01*
X160123253Y-63583134D01*
X160101671Y-63567454D01*
X159974094Y-63474763D01*
X159974093Y-63474762D01*
X159968752Y-63470882D01*
X159962724Y-63468198D01*
X159962722Y-63468197D01*
X159800319Y-63395891D01*
X159800318Y-63395891D01*
X159794288Y-63393206D01*
X159700888Y-63373353D01*
X159613944Y-63354872D01*
X159613939Y-63354872D01*
X159607487Y-63353500D01*
X159416513Y-63353500D01*
X159410061Y-63354872D01*
X159410056Y-63354872D01*
X159323112Y-63373353D01*
X159229712Y-63393206D01*
X159223682Y-63395891D01*
X159223681Y-63395891D01*
X159061278Y-63468197D01*
X159061276Y-63468198D01*
X159055248Y-63470882D01*
X159049907Y-63474762D01*
X159049906Y-63474763D01*
X158999843Y-63511136D01*
X158900747Y-63583134D01*
X158772960Y-63725056D01*
X158677473Y-63890444D01*
X158618458Y-64072072D01*
X158617768Y-64078633D01*
X158617768Y-64078635D01*
X158610482Y-64147960D01*
X158598496Y-64262000D01*
X158599186Y-64268565D01*
X158606833Y-64341318D01*
X158618458Y-64451928D01*
X158677473Y-64633556D01*
X158772960Y-64798944D01*
X158802276Y-64831502D01*
X158832992Y-64895509D01*
X158824227Y-64965963D01*
X158778764Y-65020493D01*
X158720933Y-65041210D01*
X158694397Y-65043812D01*
X158682362Y-65046195D01*
X158504924Y-65099767D01*
X158493584Y-65104441D01*
X158448653Y-65128331D01*
X158379116Y-65142650D01*
X158312875Y-65117102D01*
X158270962Y-65059797D01*
X158263500Y-65017079D01*
X158263500Y-64525001D01*
X158263507Y-64523681D01*
X158264193Y-64458206D01*
X158264422Y-64436322D01*
X158262934Y-64429439D01*
X158255585Y-64395445D01*
X158253525Y-64382867D01*
X158249649Y-64348312D01*
X158249648Y-64348308D01*
X158248864Y-64341318D01*
X158238257Y-64310860D01*
X158234093Y-64296046D01*
X158228764Y-64271397D01*
X158227276Y-64264514D01*
X158221425Y-64251966D01*
X158209602Y-64226610D01*
X158204806Y-64214800D01*
X158191057Y-64175319D01*
X158173959Y-64147957D01*
X158166626Y-64134451D01*
X158152989Y-64105207D01*
X158127367Y-64072175D01*
X158120074Y-64061721D01*
X158101641Y-64032223D01*
X158101640Y-64032222D01*
X158097909Y-64026251D01*
X158070181Y-63998328D01*
X158069627Y-63997736D01*
X158069123Y-63997087D01*
X158043971Y-63971935D01*
X157974051Y-63901525D01*
X157973041Y-63900884D01*
X157971862Y-63899826D01*
X156533177Y-62461141D01*
X156499151Y-62398829D01*
X156504216Y-62328014D01*
X156533098Y-62283030D01*
X156578998Y-62237050D01*
X156628747Y-62187214D01*
X156691030Y-62153135D01*
X156761850Y-62158138D01*
X156806937Y-62187059D01*
X156909812Y-62289754D01*
X156909817Y-62289758D01*
X156914997Y-62294929D01*
X156921227Y-62298769D01*
X156921228Y-62298770D01*
X156992233Y-62342538D01*
X157063080Y-62386209D01*
X157228191Y-62440974D01*
X157235027Y-62441674D01*
X157235030Y-62441675D01*
X157286526Y-62446951D01*
X157330928Y-62451500D01*
X157930072Y-62451500D01*
X157933318Y-62451163D01*
X157933322Y-62451163D01*
X158027235Y-62441419D01*
X158027239Y-62441418D01*
X158034093Y-62440707D01*
X158040629Y-62438526D01*
X158040631Y-62438526D01*
X158173395Y-62394232D01*
X158199107Y-62385654D01*
X158334783Y-62301696D01*
X158403233Y-62282859D01*
X158471003Y-62304021D01*
X158508228Y-62342538D01*
X158554522Y-62417348D01*
X158679697Y-62542305D01*
X158685927Y-62546145D01*
X158685928Y-62546146D01*
X158823288Y-62630816D01*
X158830262Y-62635115D01*
X158910005Y-62661564D01*
X158991611Y-62688632D01*
X158991613Y-62688632D01*
X158998139Y-62690797D01*
X159004975Y-62691497D01*
X159004978Y-62691498D01*
X159048031Y-62695909D01*
X159102600Y-62701500D01*
X159878400Y-62701500D01*
X159881646Y-62701163D01*
X159881650Y-62701163D01*
X159977308Y-62691238D01*
X159977312Y-62691237D01*
X159984166Y-62690526D01*
X159990702Y-62688345D01*
X159990704Y-62688345D01*
X160122806Y-62644272D01*
X160151946Y-62634550D01*
X160302348Y-62541478D01*
X160427305Y-62416303D01*
X160430102Y-62411765D01*
X160487353Y-62371176D01*
X160558276Y-62367946D01*
X160619687Y-62403572D01*
X160627062Y-62412068D01*
X160635098Y-62422207D01*
X160749829Y-62536739D01*
X160761240Y-62545751D01*
X160899243Y-62630816D01*
X160912424Y-62636963D01*
X161066710Y-62688138D01*
X161080086Y-62691005D01*
X161174438Y-62700672D01*
X161180854Y-62701000D01*
X161293385Y-62701000D01*
X161308624Y-62696525D01*
X161309829Y-62695135D01*
X161311500Y-62687452D01*
X161311500Y-62682884D01*
X161819500Y-62682884D01*
X161823975Y-62698123D01*
X161825365Y-62699328D01*
X161833048Y-62700999D01*
X161950095Y-62700999D01*
X161956614Y-62700662D01*
X162052206Y-62690743D01*
X162065600Y-62687851D01*
X162219784Y-62636412D01*
X162232962Y-62630239D01*
X162370807Y-62544937D01*
X162382208Y-62535901D01*
X162496739Y-62421171D01*
X162505751Y-62409760D01*
X162590816Y-62271757D01*
X162596963Y-62258576D01*
X162648138Y-62104290D01*
X162651005Y-62090914D01*
X162660672Y-61996562D01*
X162661000Y-61990146D01*
X162661000Y-61740115D01*
X162656525Y-61724876D01*
X162655135Y-61723671D01*
X162647452Y-61722000D01*
X161837615Y-61722000D01*
X161822376Y-61726475D01*
X161821171Y-61727865D01*
X161819500Y-61735548D01*
X161819500Y-62682884D01*
X161311500Y-62682884D01*
X161311500Y-61195885D01*
X161819500Y-61195885D01*
X161823975Y-61211124D01*
X161825365Y-61212329D01*
X161833048Y-61214000D01*
X162642884Y-61214000D01*
X162658123Y-61209525D01*
X162659328Y-61208135D01*
X162660999Y-61200452D01*
X162660999Y-60945905D01*
X162660662Y-60939386D01*
X162650743Y-60843794D01*
X162647851Y-60830400D01*
X162596412Y-60676216D01*
X162590239Y-60663038D01*
X162504937Y-60525193D01*
X162495901Y-60513792D01*
X162381171Y-60399261D01*
X162369760Y-60390249D01*
X162231757Y-60305184D01*
X162218576Y-60299037D01*
X162064290Y-60247862D01*
X162050914Y-60244995D01*
X161956562Y-60235328D01*
X161950145Y-60235000D01*
X161837615Y-60235000D01*
X161822376Y-60239475D01*
X161821171Y-60240865D01*
X161819500Y-60248548D01*
X161819500Y-61195885D01*
X161311500Y-61195885D01*
X161311500Y-60253116D01*
X161307025Y-60237877D01*
X161305635Y-60236672D01*
X161297952Y-60235001D01*
X161180905Y-60235001D01*
X161174386Y-60235338D01*
X161078794Y-60245257D01*
X161065400Y-60248149D01*
X160911216Y-60299588D01*
X160898038Y-60305761D01*
X160760193Y-60391063D01*
X160748792Y-60400099D01*
X160634262Y-60514828D01*
X160627206Y-60523762D01*
X160569288Y-60564823D01*
X160498365Y-60568053D01*
X160436954Y-60532426D01*
X160430154Y-60524593D01*
X160426478Y-60518652D01*
X160301303Y-60393695D01*
X160295072Y-60389854D01*
X160156968Y-60304725D01*
X160156966Y-60304724D01*
X160150738Y-60300885D01*
X160070995Y-60274436D01*
X159989389Y-60247368D01*
X159989387Y-60247368D01*
X159982861Y-60245203D01*
X159976025Y-60244503D01*
X159976022Y-60244502D01*
X159927219Y-60239502D01*
X159878400Y-60234500D01*
X159102600Y-60234500D01*
X159099354Y-60234837D01*
X159099350Y-60234837D01*
X159003692Y-60244762D01*
X159003688Y-60244763D01*
X158996834Y-60245474D01*
X158990298Y-60247655D01*
X158990296Y-60247655D01*
X158901587Y-60277251D01*
X158829054Y-60301450D01*
X158678652Y-60394522D01*
X158553695Y-60519697D01*
X158508408Y-60593166D01*
X158455637Y-60640658D01*
X158385566Y-60652082D01*
X158335033Y-60634309D01*
X158204150Y-60553631D01*
X158204148Y-60553630D01*
X158197920Y-60549791D01*
X158032809Y-60495026D01*
X158025973Y-60494326D01*
X158025970Y-60494325D01*
X157974474Y-60489049D01*
X157930072Y-60484500D01*
X157330928Y-60484500D01*
X157327682Y-60484837D01*
X157327678Y-60484837D01*
X157233765Y-60494581D01*
X157233761Y-60494582D01*
X157226907Y-60495293D01*
X157220371Y-60497474D01*
X157220369Y-60497474D01*
X157115606Y-60532426D01*
X157061893Y-60550346D01*
X156913969Y-60641884D01*
X156908796Y-60647066D01*
X156807253Y-60748786D01*
X156744970Y-60782865D01*
X156674150Y-60777862D01*
X156629071Y-60748950D01*
X156625991Y-60745876D01*
X156591906Y-60683597D01*
X156589000Y-60656694D01*
X156589000Y-59153051D01*
X156609002Y-59084930D01*
X156648696Y-59045907D01*
X156746348Y-58985478D01*
X156871305Y-58860303D01*
X156874102Y-58855765D01*
X156931353Y-58815176D01*
X157002276Y-58811946D01*
X157063687Y-58847572D01*
X157071062Y-58856068D01*
X157079098Y-58866207D01*
X157193829Y-58980739D01*
X157205240Y-58989751D01*
X157343243Y-59074816D01*
X157356424Y-59080963D01*
X157510710Y-59132138D01*
X157524086Y-59135005D01*
X157618438Y-59144672D01*
X157624854Y-59145000D01*
X157737385Y-59145000D01*
X157752624Y-59140525D01*
X157753829Y-59139135D01*
X157755500Y-59131452D01*
X157755500Y-59126884D01*
X158263500Y-59126884D01*
X158267975Y-59142123D01*
X158269365Y-59143328D01*
X158277048Y-59144999D01*
X158394095Y-59144999D01*
X158400614Y-59144662D01*
X158496206Y-59134743D01*
X158509600Y-59131851D01*
X158663784Y-59080412D01*
X158676962Y-59074239D01*
X158814807Y-58988937D01*
X158826208Y-58979901D01*
X158940739Y-58865171D01*
X158949751Y-58853760D01*
X159034816Y-58715757D01*
X159040963Y-58702576D01*
X159092138Y-58548290D01*
X159095005Y-58534914D01*
X159104672Y-58440562D01*
X159105000Y-58434146D01*
X159105000Y-58184115D01*
X159100525Y-58168876D01*
X159099135Y-58167671D01*
X159091452Y-58166000D01*
X158281615Y-58166000D01*
X158266376Y-58170475D01*
X158265171Y-58171865D01*
X158263500Y-58179548D01*
X158263500Y-59126884D01*
X157755500Y-59126884D01*
X157755500Y-57639885D01*
X158263500Y-57639885D01*
X158267975Y-57655124D01*
X158269365Y-57656329D01*
X158277048Y-57658000D01*
X159086884Y-57658000D01*
X159102123Y-57653525D01*
X159103328Y-57652135D01*
X159104999Y-57644452D01*
X159104999Y-57389905D01*
X159104662Y-57383386D01*
X159094743Y-57287794D01*
X159091851Y-57274400D01*
X159040412Y-57120216D01*
X159034239Y-57107038D01*
X158948937Y-56969193D01*
X158939901Y-56957792D01*
X158825171Y-56843261D01*
X158813760Y-56834249D01*
X158675757Y-56749184D01*
X158662576Y-56743037D01*
X158508290Y-56691862D01*
X158494914Y-56688995D01*
X158400562Y-56679328D01*
X158394145Y-56679000D01*
X158281615Y-56679000D01*
X158266376Y-56683475D01*
X158265171Y-56684865D01*
X158263500Y-56692548D01*
X158263500Y-57639885D01*
X157755500Y-57639885D01*
X157755500Y-56697116D01*
X157751025Y-56681877D01*
X157749635Y-56680672D01*
X157741952Y-56679001D01*
X157624905Y-56679001D01*
X157618386Y-56679338D01*
X157522794Y-56689257D01*
X157509400Y-56692149D01*
X157355216Y-56743588D01*
X157342038Y-56749761D01*
X157204193Y-56835063D01*
X157192792Y-56844099D01*
X157078262Y-56958828D01*
X157071206Y-56967762D01*
X157013288Y-57008823D01*
X156942365Y-57012053D01*
X156880954Y-56976426D01*
X156874154Y-56968593D01*
X156870478Y-56962652D01*
X156745303Y-56837695D01*
X156627267Y-56764936D01*
X156600968Y-56748725D01*
X156600966Y-56748724D01*
X156594738Y-56744885D01*
X156481778Y-56707418D01*
X156433389Y-56691368D01*
X156433387Y-56691368D01*
X156426861Y-56689203D01*
X156420025Y-56688503D01*
X156420022Y-56688502D01*
X156376969Y-56684091D01*
X156322400Y-56678500D01*
X155546600Y-56678500D01*
X155543354Y-56678837D01*
X155543350Y-56678837D01*
X155447692Y-56688762D01*
X155447688Y-56688763D01*
X155440834Y-56689474D01*
X155434298Y-56691655D01*
X155434296Y-56691655D01*
X155417928Y-56697116D01*
X155273054Y-56745450D01*
X155122652Y-56838522D01*
X154997695Y-56963697D01*
X154993855Y-56969927D01*
X154993854Y-56969928D01*
X154922055Y-57086408D01*
X154904885Y-57114262D01*
X154849203Y-57282139D01*
X154838500Y-57386600D01*
X154838500Y-58437400D01*
X154838837Y-58440646D01*
X154838837Y-58440650D01*
X154848618Y-58534914D01*
X154849474Y-58543166D01*
X154851655Y-58549702D01*
X154851655Y-58549704D01*
X154889179Y-58662175D01*
X154905450Y-58710946D01*
X154994783Y-58855306D01*
X154998522Y-58861348D01*
X154997487Y-58861988D01*
X155021383Y-58921033D01*
X155022000Y-58933483D01*
X155022000Y-60645774D01*
X155001998Y-60713895D01*
X154948342Y-60760388D01*
X154878068Y-60770492D01*
X154813488Y-60740998D01*
X154806905Y-60734869D01*
X152960419Y-58888383D01*
X152959490Y-58887445D01*
X152956885Y-58884785D01*
X152898329Y-58824989D01*
X152892407Y-58821172D01*
X152892404Y-58821170D01*
X152863178Y-58802335D01*
X152852839Y-58794907D01*
X152820150Y-58768812D01*
X152813808Y-58765746D01*
X152813803Y-58765743D01*
X152791110Y-58754773D01*
X152777698Y-58747247D01*
X152756500Y-58733586D01*
X152756495Y-58733584D01*
X152750576Y-58729769D01*
X152711281Y-58715467D01*
X152699537Y-58710506D01*
X152668244Y-58695378D01*
X152668242Y-58695377D01*
X152661895Y-58692309D01*
X152630456Y-58685051D01*
X152615720Y-58680685D01*
X152592020Y-58672059D01*
X152592016Y-58672058D01*
X152585400Y-58669650D01*
X152578414Y-58668767D01*
X152578412Y-58668767D01*
X152543921Y-58664410D01*
X152531369Y-58662175D01*
X152523745Y-58660415D01*
X152490623Y-58652768D01*
X152483583Y-58652743D01*
X152483580Y-58652743D01*
X152451296Y-58652630D01*
X152450459Y-58652602D01*
X152449646Y-58652500D01*
X152414054Y-58652500D01*
X152413614Y-58652499D01*
X152407859Y-58652479D01*
X152314847Y-58652154D01*
X152313679Y-58652415D01*
X152312111Y-58652500D01*
X115833001Y-58652500D01*
X115831681Y-58652493D01*
X115830635Y-58652482D01*
X115744322Y-58651578D01*
X115737440Y-58653066D01*
X115737439Y-58653066D01*
X115703445Y-58660415D01*
X115690867Y-58662475D01*
X115656312Y-58666351D01*
X115656308Y-58666352D01*
X115649318Y-58667136D01*
X115642672Y-58669451D01*
X115642670Y-58669451D01*
X115618860Y-58677743D01*
X115604046Y-58681907D01*
X115572514Y-58688724D01*
X115566127Y-58691702D01*
X115566128Y-58691702D01*
X115534610Y-58706398D01*
X115522801Y-58711193D01*
X115483319Y-58724943D01*
X115455960Y-58742039D01*
X115442451Y-58749374D01*
X115413207Y-58763011D01*
X115400062Y-58773207D01*
X115380176Y-58788632D01*
X115369721Y-58795926D01*
X115340223Y-58814359D01*
X115334251Y-58818091D01*
X115329257Y-58823051D01*
X115329256Y-58823051D01*
X115306328Y-58845819D01*
X115305736Y-58846373D01*
X115305087Y-58846877D01*
X115279935Y-58872029D01*
X115209525Y-58941949D01*
X115208884Y-58942959D01*
X115207826Y-58944138D01*
X111212383Y-62939581D01*
X111211445Y-62940510D01*
X111148989Y-63001671D01*
X111145172Y-63007593D01*
X111145170Y-63007596D01*
X111126335Y-63036822D01*
X111118907Y-63047161D01*
X111092812Y-63079850D01*
X111089746Y-63086192D01*
X111089743Y-63086197D01*
X111078773Y-63108890D01*
X111071247Y-63122302D01*
X111057586Y-63143500D01*
X111057584Y-63143505D01*
X111053769Y-63149424D01*
X111051360Y-63156044D01*
X111039469Y-63188715D01*
X111034506Y-63200463D01*
X111016309Y-63238105D01*
X111009051Y-63269544D01*
X111004685Y-63284280D01*
X110993650Y-63314600D01*
X110992767Y-63321586D01*
X110992767Y-63321588D01*
X110988410Y-63356079D01*
X110986175Y-63368631D01*
X110976768Y-63409377D01*
X110976743Y-63416417D01*
X110976743Y-63416420D01*
X110976630Y-63448704D01*
X110976602Y-63449541D01*
X110976500Y-63450354D01*
X110976500Y-63486100D01*
X110976154Y-63585153D01*
X110976415Y-63586321D01*
X110976500Y-63587889D01*
X110976500Y-68755525D01*
X110956498Y-68823646D01*
X110949450Y-68833531D01*
X110826351Y-68989681D01*
X110731492Y-69169978D01*
X110671078Y-69364543D01*
X110647132Y-69566859D01*
X102013348Y-69566859D01*
X102024816Y-69527804D01*
X102041719Y-69506830D01*
X103841502Y-67707047D01*
X103901617Y-67674406D01*
X103901552Y-67674206D01*
X103902631Y-67673855D01*
X103904397Y-67672896D01*
X103914288Y-67670794D01*
X104023291Y-67622263D01*
X104082722Y-67595803D01*
X104082724Y-67595802D01*
X104088752Y-67593118D01*
X104243253Y-67480866D01*
X104303361Y-67414109D01*
X104366621Y-67343852D01*
X104366622Y-67343851D01*
X104371040Y-67338944D01*
X104466527Y-67173556D01*
X104525542Y-66991928D01*
X104527312Y-66975094D01*
X104544814Y-66808565D01*
X104545504Y-66802000D01*
X104541942Y-66768109D01*
X104526232Y-66618635D01*
X104526232Y-66618633D01*
X104525542Y-66612072D01*
X104466527Y-66430444D01*
X104371040Y-66265056D01*
X104291254Y-66176444D01*
X104247675Y-66128045D01*
X104247674Y-66128044D01*
X104243253Y-66123134D01*
X104088752Y-66010882D01*
X104082724Y-66008198D01*
X104082722Y-66008197D01*
X103920319Y-65935891D01*
X103920318Y-65935891D01*
X103914288Y-65933206D01*
X103805113Y-65910000D01*
X103733944Y-65894872D01*
X103733939Y-65894872D01*
X103727487Y-65893500D01*
X103536513Y-65893500D01*
X103530061Y-65894872D01*
X103530056Y-65894872D01*
X103458887Y-65910000D01*
X103349712Y-65933206D01*
X103343682Y-65935891D01*
X103343681Y-65935891D01*
X103181278Y-66008197D01*
X103181276Y-66008198D01*
X103175248Y-66010882D01*
X103020747Y-66123134D01*
X103016326Y-66128044D01*
X103016325Y-66128045D01*
X102972747Y-66176444D01*
X102892960Y-66265056D01*
X102797473Y-66430444D01*
X102757144Y-66554565D01*
X102756755Y-66555761D01*
X102716682Y-66614367D01*
X102651285Y-66642004D01*
X102581328Y-66629897D01*
X102529022Y-66581891D01*
X102511612Y-66529996D01*
X102494232Y-66364634D01*
X102494231Y-66364631D01*
X102493542Y-66358072D01*
X102434527Y-66176444D01*
X102339040Y-66011056D01*
X102211253Y-65869134D01*
X102086004Y-65778135D01*
X102062094Y-65760763D01*
X102062093Y-65760762D01*
X102056752Y-65756882D01*
X102050724Y-65754198D01*
X102050722Y-65754197D01*
X101888319Y-65681891D01*
X101888318Y-65681891D01*
X101882288Y-65679206D01*
X101788887Y-65659353D01*
X101701944Y-65640872D01*
X101701939Y-65640872D01*
X101695487Y-65639500D01*
X101504513Y-65639500D01*
X101498061Y-65640872D01*
X101498056Y-65640872D01*
X101411113Y-65659353D01*
X101317712Y-65679206D01*
X101311682Y-65681891D01*
X101311681Y-65681891D01*
X101149278Y-65754197D01*
X101149276Y-65754198D01*
X101143248Y-65756882D01*
X101137907Y-65760762D01*
X101137906Y-65760763D01*
X101113996Y-65778135D01*
X100988747Y-65869134D01*
X100860960Y-66011056D01*
X100765473Y-66176444D01*
X100706458Y-66358072D01*
X100705768Y-66364633D01*
X100705768Y-66364635D01*
X100696084Y-66456773D01*
X100686496Y-66548000D01*
X100686684Y-66549786D01*
X100667184Y-66616196D01*
X100650281Y-66637170D01*
X99144856Y-68142595D01*
X99082544Y-68176621D01*
X99055761Y-68179500D01*
X98964513Y-68179500D01*
X98958061Y-68180872D01*
X98958056Y-68180872D01*
X98879007Y-68197675D01*
X98777712Y-68219206D01*
X98771682Y-68221891D01*
X98771681Y-68221891D01*
X98609278Y-68294197D01*
X98609276Y-68294198D01*
X98603248Y-68296882D01*
X98448747Y-68409134D01*
X98320960Y-68551056D01*
X98225473Y-68716444D01*
X98166458Y-68898072D01*
X98165768Y-68904633D01*
X98165768Y-68904635D01*
X98153664Y-69019804D01*
X98146496Y-69088000D01*
X98166458Y-69277928D01*
X98168498Y-69284206D01*
X98168499Y-69284209D01*
X98168875Y-69285368D01*
X98168895Y-69286075D01*
X98169871Y-69290666D01*
X98169031Y-69290844D01*
X98170902Y-69356336D01*
X98134239Y-69417133D01*
X98070527Y-69448458D01*
X97999993Y-69440364D01*
X97959947Y-69413398D01*
X97723719Y-69177170D01*
X97689693Y-69114858D01*
X97687159Y-69091284D01*
X97687504Y-69088000D01*
X97680336Y-69019804D01*
X97668232Y-68904635D01*
X97668232Y-68904633D01*
X97667542Y-68898072D01*
X97608527Y-68716444D01*
X97513040Y-68551056D01*
X97385253Y-68409134D01*
X97230752Y-68296882D01*
X97224724Y-68294198D01*
X97224722Y-68294197D01*
X97062319Y-68221891D01*
X97062318Y-68221891D01*
X97056288Y-68219206D01*
X96954993Y-68197675D01*
X96875944Y-68180872D01*
X96875939Y-68180872D01*
X96869487Y-68179500D01*
X96678513Y-68179500D01*
X96672061Y-68180872D01*
X96672056Y-68180872D01*
X96593007Y-68197675D01*
X96491712Y-68219206D01*
X96485682Y-68221891D01*
X96485681Y-68221891D01*
X96323278Y-68294197D01*
X96323276Y-68294198D01*
X96317248Y-68296882D01*
X96162747Y-68409134D01*
X96034960Y-68551056D01*
X95939473Y-68716444D01*
X95880458Y-68898072D01*
X95879768Y-68904633D01*
X95879768Y-68904635D01*
X95867664Y-69019804D01*
X95860496Y-69088000D01*
X78131999Y-69088000D01*
X78131999Y-66841331D01*
X78131629Y-66834510D01*
X78126105Y-66783648D01*
X78122479Y-66768396D01*
X78077324Y-66647946D01*
X78068786Y-66632351D01*
X77992285Y-66530276D01*
X77979724Y-66517715D01*
X77877649Y-66441214D01*
X77862054Y-66432676D01*
X77741606Y-66387522D01*
X77726351Y-66383895D01*
X77675486Y-66378369D01*
X77668672Y-66378000D01*
X74226115Y-66378000D01*
X74210876Y-66382475D01*
X74209671Y-66383865D01*
X74208000Y-66391548D01*
X74208000Y-69788885D01*
X73700000Y-69788885D01*
X73700000Y-66396116D01*
X73695525Y-66380877D01*
X73694135Y-66379672D01*
X73686452Y-66378001D01*
X70239331Y-66378001D01*
X70232510Y-66378371D01*
X70181648Y-66383895D01*
X70166396Y-66387521D01*
X70045946Y-66432676D01*
X70030351Y-66441214D01*
X69928276Y-66517715D01*
X69915715Y-66530276D01*
X69839214Y-66632351D01*
X69830676Y-66647946D01*
X69785522Y-66768394D01*
X69781895Y-66783649D01*
X69776369Y-66834514D01*
X69776000Y-66841328D01*
X69776000Y-69788885D01*
X64770500Y-69788885D01*
X64770500Y-68334000D01*
X64790502Y-68265879D01*
X64844158Y-68219386D01*
X64896500Y-68208000D01*
X66620385Y-68208000D01*
X66635624Y-68203525D01*
X66636829Y-68202135D01*
X66638500Y-68194452D01*
X66638500Y-68189884D01*
X67146500Y-68189884D01*
X67150975Y-68205123D01*
X67152365Y-68206328D01*
X67160048Y-68207999D01*
X69037169Y-68207999D01*
X69043990Y-68207629D01*
X69094852Y-68202105D01*
X69110104Y-68198479D01*
X69230554Y-68153324D01*
X69246149Y-68144786D01*
X69348224Y-68068285D01*
X69360785Y-68055724D01*
X69437286Y-67953649D01*
X69445824Y-67938054D01*
X69490978Y-67817606D01*
X69494605Y-67802351D01*
X69500131Y-67751486D01*
X69500500Y-67744672D01*
X69500500Y-67297115D01*
X69496025Y-67281876D01*
X69494635Y-67280671D01*
X69486952Y-67279000D01*
X67164615Y-67279000D01*
X67149376Y-67283475D01*
X67148171Y-67284865D01*
X67146500Y-67292548D01*
X67146500Y-68189884D01*
X66638500Y-68189884D01*
X66638500Y-66752885D01*
X67146500Y-66752885D01*
X67150975Y-66768124D01*
X67152365Y-66769329D01*
X67160048Y-66771000D01*
X69482384Y-66771000D01*
X69497623Y-66766525D01*
X69498828Y-66765135D01*
X69500499Y-66757452D01*
X69500499Y-66305331D01*
X69500129Y-66298510D01*
X69494605Y-66247648D01*
X69490979Y-66232396D01*
X69445824Y-66111946D01*
X69437286Y-66096351D01*
X69360785Y-65994276D01*
X69348224Y-65981715D01*
X69246149Y-65905214D01*
X69230554Y-65896676D01*
X69110106Y-65851522D01*
X69094851Y-65847895D01*
X69043986Y-65842369D01*
X69037172Y-65842000D01*
X67164615Y-65842000D01*
X67149376Y-65846475D01*
X67148171Y-65847865D01*
X67146500Y-65855548D01*
X67146500Y-66752885D01*
X66638500Y-66752885D01*
X66638500Y-65860116D01*
X66634025Y-65844877D01*
X66632635Y-65843672D01*
X66624952Y-65842001D01*
X64896500Y-65842001D01*
X64828379Y-65821999D01*
X64781886Y-65768343D01*
X64770500Y-65716001D01*
X64770500Y-60960000D01*
X103226496Y-60960000D01*
X103246458Y-61149928D01*
X103305473Y-61331556D01*
X103400960Y-61496944D01*
X103528747Y-61638866D01*
X103627843Y-61710864D01*
X103645471Y-61723671D01*
X103683248Y-61751118D01*
X103689276Y-61753802D01*
X103689278Y-61753803D01*
X103851681Y-61826109D01*
X103857712Y-61828794D01*
X103951113Y-61848647D01*
X104038056Y-61867128D01*
X104038061Y-61867128D01*
X104044513Y-61868500D01*
X104135761Y-61868500D01*
X104203882Y-61888502D01*
X104224856Y-61905405D01*
X108778281Y-66458830D01*
X108812307Y-66521142D01*
X108814841Y-66544716D01*
X108814496Y-66548000D01*
X108815186Y-66554565D01*
X108832585Y-66720103D01*
X108834458Y-66737928D01*
X108893473Y-66919556D01*
X108896776Y-66925278D01*
X108896777Y-66925279D01*
X108926195Y-66976232D01*
X108988960Y-67084944D01*
X108993378Y-67089851D01*
X108993379Y-67089852D01*
X109112325Y-67221955D01*
X109116747Y-67226866D01*
X109271248Y-67339118D01*
X109277276Y-67341802D01*
X109277278Y-67341803D01*
X109439681Y-67414109D01*
X109445712Y-67416794D01*
X109539112Y-67436647D01*
X109626056Y-67455128D01*
X109626061Y-67455128D01*
X109632513Y-67456500D01*
X109823487Y-67456500D01*
X109829939Y-67455128D01*
X109829944Y-67455128D01*
X109916888Y-67436647D01*
X110010288Y-67416794D01*
X110016319Y-67414109D01*
X110178722Y-67341803D01*
X110178724Y-67341802D01*
X110184752Y-67339118D01*
X110339253Y-67226866D01*
X110343675Y-67221955D01*
X110462621Y-67089852D01*
X110462622Y-67089851D01*
X110467040Y-67084944D01*
X110529805Y-66976232D01*
X110559223Y-66925279D01*
X110559224Y-66925278D01*
X110562527Y-66919556D01*
X110621542Y-66737928D01*
X110623416Y-66720103D01*
X110640814Y-66554565D01*
X110641504Y-66548000D01*
X110631916Y-66456773D01*
X110622232Y-66364635D01*
X110622232Y-66364633D01*
X110621542Y-66358072D01*
X110562527Y-66176444D01*
X110467040Y-66011056D01*
X110339253Y-65869134D01*
X110214004Y-65778135D01*
X110190094Y-65760763D01*
X110190093Y-65760762D01*
X110184752Y-65756882D01*
X110178724Y-65754198D01*
X110178722Y-65754197D01*
X110016319Y-65681891D01*
X110016318Y-65681891D01*
X110010288Y-65679206D01*
X109916887Y-65659353D01*
X109829944Y-65640872D01*
X109829939Y-65640872D01*
X109823487Y-65639500D01*
X109732239Y-65639500D01*
X109664118Y-65619498D01*
X109643144Y-65602595D01*
X105089719Y-61049170D01*
X105055693Y-60986858D01*
X105053159Y-60963284D01*
X105053504Y-60960000D01*
X105041399Y-60844827D01*
X105034232Y-60776635D01*
X105034232Y-60776633D01*
X105033542Y-60770072D01*
X104974527Y-60588444D01*
X104960890Y-60564823D01*
X104882341Y-60428774D01*
X104879040Y-60423056D01*
X104858370Y-60400099D01*
X104755675Y-60286045D01*
X104755674Y-60286044D01*
X104751253Y-60281134D01*
X104596752Y-60168882D01*
X104590724Y-60166198D01*
X104590722Y-60166197D01*
X104428319Y-60093891D01*
X104428318Y-60093891D01*
X104422288Y-60091206D01*
X104328888Y-60071353D01*
X104241944Y-60052872D01*
X104241939Y-60052872D01*
X104235487Y-60051500D01*
X104044513Y-60051500D01*
X104038061Y-60052872D01*
X104038056Y-60052872D01*
X103951112Y-60071353D01*
X103857712Y-60091206D01*
X103851682Y-60093891D01*
X103851681Y-60093891D01*
X103689278Y-60166197D01*
X103689276Y-60166198D01*
X103683248Y-60168882D01*
X103528747Y-60281134D01*
X103524326Y-60286044D01*
X103524325Y-60286045D01*
X103421631Y-60400099D01*
X103400960Y-60423056D01*
X103397659Y-60428774D01*
X103319111Y-60564823D01*
X103305473Y-60588444D01*
X103246458Y-60770072D01*
X103245768Y-60776633D01*
X103245768Y-60776635D01*
X103238601Y-60844827D01*
X103226496Y-60960000D01*
X64770500Y-60960000D01*
X64770500Y-57220971D01*
X64770918Y-57213517D01*
X64772517Y-57207359D01*
X64771997Y-57190234D01*
X64773572Y-57166190D01*
X64774291Y-57161773D01*
X64804429Y-56976426D01*
X64806801Y-56961839D01*
X64810224Y-56946727D01*
X64875882Y-56721995D01*
X64881134Y-56707418D01*
X64973878Y-56492446D01*
X64980879Y-56478622D01*
X65023468Y-56405995D01*
X65099313Y-56276653D01*
X65107958Y-56263795D01*
X65250283Y-56077894D01*
X65260441Y-56066193D01*
X65424514Y-55899161D01*
X65436032Y-55888796D01*
X65619351Y-55743179D01*
X65632053Y-55734305D01*
X65634397Y-55732874D01*
X65831883Y-55612275D01*
X65845568Y-55605034D01*
X66058860Y-55508458D01*
X66073334Y-55502950D01*
X66296865Y-55433284D01*
X66311911Y-55429592D01*
X66542302Y-55387890D01*
X66557680Y-55386075D01*
X66668317Y-55379872D01*
X66757349Y-55374880D01*
X66782628Y-55376194D01*
X66784027Y-55376219D01*
X66792891Y-55377649D01*
X66801793Y-55376535D01*
X66801800Y-55376535D01*
X66826173Y-55373484D01*
X66841838Y-55372508D01*
X162492542Y-55390542D01*
G37*
%TD.AperFunction*%
%TA.AperFunction,Conductor*%
G36*
X159031121Y-66330002D02*
G01*
X159077614Y-66383658D01*
X159089000Y-66436000D01*
X159089000Y-67023500D01*
X159068998Y-67091621D01*
X159015342Y-67138114D01*
X158963000Y-67149500D01*
X158603137Y-67149500D01*
X158535016Y-67129498D01*
X158488523Y-67075842D01*
X158478419Y-67005568D01*
X158507913Y-66940988D01*
X158567639Y-66902604D01*
X158578124Y-66899525D01*
X158579329Y-66898135D01*
X158581000Y-66890452D01*
X158581000Y-66436000D01*
X158601002Y-66367879D01*
X158654658Y-66321386D01*
X158707000Y-66310000D01*
X158963000Y-66310000D01*
X159031121Y-66330002D01*
G37*
%TD.AperFunction*%
%TD*%
M02*
