%TF.GenerationSoftware,KiCad,Pcbnew,6.0.11+dfsg-1*%
%TF.CreationDate,2025-12-30T15:15:41+02:00*%
%TF.ProjectId,esp32_loraprs_c3,65737033-325f-46c6-9f72-617072735f63,rev?*%
%TF.SameCoordinates,Original*%
%TF.FileFunction,Paste,Top*%
%TF.FilePolarity,Positive*%
%FSLAX46Y46*%
G04 Gerber Fmt 4.6, Leading zero omitted, Abs format (unit mm)*
G04 Created by KiCad (PCBNEW 6.0.11+dfsg-1) date 2025-12-30 15:15:41*
%MOMM*%
%LPD*%
G01*
G04 APERTURE LIST*
G04 Aperture macros list*
%AMRoundRect*
0 Rectangle with rounded corners*
0 $1 Rounding radius*
0 $2 $3 $4 $5 $6 $7 $8 $9 X,Y pos of 4 corners*
0 Add a 4 corners polygon primitive as box body*
4,1,4,$2,$3,$4,$5,$6,$7,$8,$9,$2,$3,0*
0 Add four circle primitives for the rounded corners*
1,1,$1+$1,$2,$3*
1,1,$1+$1,$4,$5*
1,1,$1+$1,$6,$7*
1,1,$1+$1,$8,$9*
0 Add four rect primitives between the rounded corners*
20,1,$1+$1,$2,$3,$4,$5,0*
20,1,$1+$1,$4,$5,$6,$7,0*
20,1,$1+$1,$6,$7,$8,$9,0*
20,1,$1+$1,$8,$9,$2,$3,0*%
G04 Aperture macros list end*
%ADD10RoundRect,0.250000X0.475000X-0.337500X0.475000X0.337500X-0.475000X0.337500X-0.475000X-0.337500X0*%
%ADD11RoundRect,0.237500X-0.237500X0.287500X-0.237500X-0.287500X0.237500X-0.287500X0.237500X0.287500X0*%
%ADD12RoundRect,0.237500X-0.237500X0.300000X-0.237500X-0.300000X0.237500X-0.300000X0.237500X0.300000X0*%
%ADD13RoundRect,0.237500X-0.237500X0.250000X-0.237500X-0.250000X0.237500X-0.250000X0.237500X0.250000X0*%
%ADD14RoundRect,0.250000X-0.337500X-0.475000X0.337500X-0.475000X0.337500X0.475000X-0.337500X0.475000X0*%
%ADD15RoundRect,0.237500X-0.250000X-0.237500X0.250000X-0.237500X0.250000X0.237500X-0.250000X0.237500X0*%
%ADD16R,3.600000X1.270000*%
%ADD17R,4.200000X1.350000*%
%ADD18RoundRect,0.237500X0.250000X0.237500X-0.250000X0.237500X-0.250000X-0.237500X0.250000X-0.237500X0*%
%ADD19RoundRect,0.237500X0.237500X-0.287500X0.237500X0.287500X-0.237500X0.287500X-0.237500X-0.287500X0*%
%ADD20R,2.500000X2.000000*%
%ADD21R,1.700000X2.500000*%
%ADD22RoundRect,0.232500X-0.232500X-0.232500X0.232500X-0.232500X0.232500X0.232500X-0.232500X0.232500X0*%
%ADD23RoundRect,0.150000X-0.825000X-0.150000X0.825000X-0.150000X0.825000X0.150000X-0.825000X0.150000X0*%
%ADD24R,1.550000X1.000000*%
%ADD25R,1.500000X2.400000*%
G04 APERTURE END LIST*
D10*
%TO.C,C5*%
X124968000Y-66315500D03*
X124968000Y-64240500D03*
%TD*%
D11*
%TO.C,D2*%
X116840000Y-81929000D03*
X116840000Y-83679000D03*
%TD*%
D12*
%TO.C,C2*%
X110998000Y-77877500D03*
X110998000Y-79602500D03*
%TD*%
D13*
%TO.C,R4*%
X122428000Y-76557500D03*
X122428000Y-78382500D03*
%TD*%
D14*
%TO.C,C7*%
X134323000Y-77978000D03*
X136398000Y-77978000D03*
%TD*%
D15*
%TO.C,R1*%
X146153500Y-81788000D03*
X147978500Y-81788000D03*
%TD*%
D16*
%TO.C,J1*%
X66692500Y-69850000D03*
D17*
X66892500Y-67025000D03*
X66892500Y-72675000D03*
%TD*%
D18*
%TO.C,R5*%
X131214500Y-78232000D03*
X129389500Y-78232000D03*
%TD*%
D19*
%TO.C,D1*%
X114300000Y-83679000D03*
X114300000Y-81929000D03*
%TD*%
D10*
%TO.C,C3*%
X115824000Y-66315500D03*
X115824000Y-64240500D03*
%TD*%
D20*
%TO.C,SW2*%
X143288000Y-83312000D03*
X137128000Y-83312000D03*
%TD*%
D10*
%TO.C,C9*%
X135128000Y-72411500D03*
X135128000Y-70336500D03*
%TD*%
D21*
%TO.C,U1*%
X145359500Y-78359000D03*
X147899500Y-78359000D03*
X150439500Y-78359000D03*
X152939500Y-78359000D03*
X155479500Y-78359000D03*
X158019500Y-78359000D03*
X160559500Y-78359000D03*
X163099500Y-78359000D03*
X163099500Y-61849000D03*
X160559500Y-61979000D03*
X158019500Y-61849000D03*
X155479500Y-61979000D03*
X152939500Y-61979000D03*
X150439500Y-61979000D03*
X147899500Y-61979000D03*
X145359500Y-61979000D03*
%TD*%
%TO.C,U2*%
X76126000Y-82104000D03*
X78666000Y-82104000D03*
X81206000Y-82104000D03*
X88806000Y-82104000D03*
X91346000Y-82104000D03*
X93886000Y-82104000D03*
X96426000Y-82104000D03*
X98966000Y-82104000D03*
X101506000Y-82104000D03*
X104046000Y-82104000D03*
X106586000Y-82104000D03*
X106586000Y-58104000D03*
X104046000Y-58104000D03*
X101506000Y-58104000D03*
X98966000Y-58104000D03*
X96426000Y-58104000D03*
X93886000Y-58104000D03*
X91346000Y-58104000D03*
X88806000Y-58104000D03*
X81206000Y-58104000D03*
X78666000Y-58104000D03*
X76126000Y-58104000D03*
%TD*%
D11*
%TO.C,D4*%
X121920000Y-81929000D03*
X121920000Y-83679000D03*
%TD*%
D22*
%TO.C,U3*%
X118551000Y-71307000D03*
X119701000Y-71307000D03*
X119701000Y-72457000D03*
X118551000Y-72457000D03*
D23*
X116651000Y-69977000D03*
X116651000Y-71247000D03*
X116651000Y-72517000D03*
X116651000Y-73787000D03*
X121601000Y-73787000D03*
X121601000Y-72517000D03*
X121601000Y-71247000D03*
X121601000Y-69977000D03*
%TD*%
D24*
%TO.C,SW1*%
X127677000Y-84170000D03*
X132927000Y-84170000D03*
X132927000Y-82470000D03*
X127677000Y-82470000D03*
%TD*%
D19*
%TO.C,D3*%
X119380000Y-83679000D03*
X119380000Y-81929000D03*
%TD*%
D10*
%TO.C,C6*%
X120396000Y-66315500D03*
X120396000Y-64240500D03*
%TD*%
D25*
%TO.C,L1*%
X125774000Y-72390000D03*
X131274000Y-72390000D03*
%TD*%
D15*
%TO.C,R2*%
X150725500Y-81788000D03*
X152550500Y-81788000D03*
%TD*%
D10*
%TO.C,C8*%
X129540000Y-66315500D03*
X129540000Y-64240500D03*
%TD*%
M02*
