%TF.GenerationSoftware,KiCad,Pcbnew,6.0.11+dfsg-1*%
%TF.CreationDate,2025-12-30T09:46:06+02:00*%
%TF.ProjectId,esp32_loraprs_c3,65737033-325f-46c6-9f72-617072735f63,rev?*%
%TF.SameCoordinates,Original*%
%TF.FileFunction,Legend,Top*%
%TF.FilePolarity,Positive*%
%FSLAX46Y46*%
G04 Gerber Fmt 4.6, Leading zero omitted, Abs format (unit mm)*
G04 Created by KiCad (PCBNEW 6.0.11+dfsg-1) date 2025-12-30 09:46:06*
%MOMM*%
%LPD*%
G01*
G04 APERTURE LIST*
%ADD10C,0.150000*%
%ADD11C,0.120000*%
%ADD12C,0.127000*%
G04 APERTURE END LIST*
D10*
%TO.C,C5*%
X123645142Y-65444666D02*
X123692761Y-65492285D01*
X123740380Y-65635142D01*
X123740380Y-65730380D01*
X123692761Y-65873238D01*
X123597523Y-65968476D01*
X123502285Y-66016095D01*
X123311809Y-66063714D01*
X123168952Y-66063714D01*
X122978476Y-66016095D01*
X122883238Y-65968476D01*
X122788000Y-65873238D01*
X122740380Y-65730380D01*
X122740380Y-65635142D01*
X122788000Y-65492285D01*
X122835619Y-65444666D01*
X122740380Y-64539904D02*
X122740380Y-65016095D01*
X123216571Y-65063714D01*
X123168952Y-65016095D01*
X123121333Y-64920857D01*
X123121333Y-64682761D01*
X123168952Y-64587523D01*
X123216571Y-64539904D01*
X123311809Y-64492285D01*
X123549904Y-64492285D01*
X123645142Y-64539904D01*
X123692761Y-64587523D01*
X123740380Y-64682761D01*
X123740380Y-64920857D01*
X123692761Y-65016095D01*
X123645142Y-65063714D01*
%TO.C,D2*%
X117292380Y-80748095D02*
X116292380Y-80748095D01*
X116292380Y-80510000D01*
X116340000Y-80367142D01*
X116435238Y-80271904D01*
X116530476Y-80224285D01*
X116720952Y-80176666D01*
X116863809Y-80176666D01*
X117054285Y-80224285D01*
X117149523Y-80271904D01*
X117244761Y-80367142D01*
X117292380Y-80510000D01*
X117292380Y-80748095D01*
X116387619Y-79795714D02*
X116340000Y-79748095D01*
X116292380Y-79652857D01*
X116292380Y-79414761D01*
X116340000Y-79319523D01*
X116387619Y-79271904D01*
X116482857Y-79224285D01*
X116578095Y-79224285D01*
X116720952Y-79271904D01*
X117292380Y-79843333D01*
X117292380Y-79224285D01*
%TO.C,C2*%
X111355142Y-81700666D02*
X111402761Y-81748285D01*
X111450380Y-81891142D01*
X111450380Y-81986380D01*
X111402761Y-82129238D01*
X111307523Y-82224476D01*
X111212285Y-82272095D01*
X111021809Y-82319714D01*
X110878952Y-82319714D01*
X110688476Y-82272095D01*
X110593238Y-82224476D01*
X110498000Y-82129238D01*
X110450380Y-81986380D01*
X110450380Y-81891142D01*
X110498000Y-81748285D01*
X110545619Y-81700666D01*
X110545619Y-81319714D02*
X110498000Y-81272095D01*
X110450380Y-81176857D01*
X110450380Y-80938761D01*
X110498000Y-80843523D01*
X110545619Y-80795904D01*
X110640857Y-80748285D01*
X110736095Y-80748285D01*
X110878952Y-80795904D01*
X111450380Y-81367333D01*
X111450380Y-80748285D01*
%TO.C,R4*%
X124310380Y-77636666D02*
X123834190Y-77970000D01*
X124310380Y-78208095D02*
X123310380Y-78208095D01*
X123310380Y-77827142D01*
X123358000Y-77731904D01*
X123405619Y-77684285D01*
X123500857Y-77636666D01*
X123643714Y-77636666D01*
X123738952Y-77684285D01*
X123786571Y-77731904D01*
X123834190Y-77827142D01*
X123834190Y-78208095D01*
X123643714Y-76779523D02*
X124310380Y-76779523D01*
X123262761Y-77017619D02*
X123977047Y-77255714D01*
X123977047Y-76636666D01*
%TO.C,C7*%
X135193833Y-76655142D02*
X135146214Y-76702761D01*
X135003357Y-76750380D01*
X134908119Y-76750380D01*
X134765261Y-76702761D01*
X134670023Y-76607523D01*
X134622404Y-76512285D01*
X134574785Y-76321809D01*
X134574785Y-76178952D01*
X134622404Y-75988476D01*
X134670023Y-75893238D01*
X134765261Y-75798000D01*
X134908119Y-75750380D01*
X135003357Y-75750380D01*
X135146214Y-75798000D01*
X135193833Y-75845619D01*
X135527166Y-75750380D02*
X136193833Y-75750380D01*
X135765261Y-76750380D01*
%TO.C,R1*%
X137755333Y-82240380D02*
X137422000Y-81764190D01*
X137183904Y-82240380D02*
X137183904Y-81240380D01*
X137564857Y-81240380D01*
X137660095Y-81288000D01*
X137707714Y-81335619D01*
X137755333Y-81430857D01*
X137755333Y-81573714D01*
X137707714Y-81668952D01*
X137660095Y-81716571D01*
X137564857Y-81764190D01*
X137183904Y-81764190D01*
X138707714Y-82240380D02*
X138136285Y-82240380D01*
X138422000Y-82240380D02*
X138422000Y-81240380D01*
X138326761Y-81383238D01*
X138231523Y-81478476D01*
X138136285Y-81526095D01*
%TO.C,J1*%
X67270380Y-64341333D02*
X67984666Y-64341333D01*
X68127523Y-64388952D01*
X68222761Y-64484190D01*
X68270380Y-64627047D01*
X68270380Y-64722285D01*
X68270380Y-63341333D02*
X68270380Y-63912761D01*
X68270380Y-63627047D02*
X67270380Y-63627047D01*
X67413238Y-63722285D01*
X67508476Y-63817523D01*
X67556095Y-63912761D01*
%TO.C,R5*%
X130135333Y-80114380D02*
X129802000Y-79638190D01*
X129563904Y-80114380D02*
X129563904Y-79114380D01*
X129944857Y-79114380D01*
X130040095Y-79162000D01*
X130087714Y-79209619D01*
X130135333Y-79304857D01*
X130135333Y-79447714D01*
X130087714Y-79542952D01*
X130040095Y-79590571D01*
X129944857Y-79638190D01*
X129563904Y-79638190D01*
X131040095Y-79114380D02*
X130563904Y-79114380D01*
X130516285Y-79590571D01*
X130563904Y-79542952D01*
X130659142Y-79495333D01*
X130897238Y-79495333D01*
X130992476Y-79542952D01*
X131040095Y-79590571D01*
X131087714Y-79685809D01*
X131087714Y-79923904D01*
X131040095Y-80019142D01*
X130992476Y-80066761D01*
X130897238Y-80114380D01*
X130659142Y-80114380D01*
X130563904Y-80066761D01*
X130516285Y-80019142D01*
%TO.C,D1*%
X114752380Y-80748095D02*
X113752380Y-80748095D01*
X113752380Y-80510000D01*
X113800000Y-80367142D01*
X113895238Y-80271904D01*
X113990476Y-80224285D01*
X114180952Y-80176666D01*
X114323809Y-80176666D01*
X114514285Y-80224285D01*
X114609523Y-80271904D01*
X114704761Y-80367142D01*
X114752380Y-80510000D01*
X114752380Y-80748095D01*
X114752380Y-79224285D02*
X114752380Y-79795714D01*
X114752380Y-79510000D02*
X113752380Y-79510000D01*
X113895238Y-79605238D01*
X113990476Y-79700476D01*
X114038095Y-79795714D01*
%TO.C,C3*%
X114501142Y-65444666D02*
X114548761Y-65492285D01*
X114596380Y-65635142D01*
X114596380Y-65730380D01*
X114548761Y-65873238D01*
X114453523Y-65968476D01*
X114358285Y-66016095D01*
X114167809Y-66063714D01*
X114024952Y-66063714D01*
X113834476Y-66016095D01*
X113739238Y-65968476D01*
X113644000Y-65873238D01*
X113596380Y-65730380D01*
X113596380Y-65635142D01*
X113644000Y-65492285D01*
X113691619Y-65444666D01*
X113596380Y-65111333D02*
X113596380Y-64492285D01*
X113977333Y-64825619D01*
X113977333Y-64682761D01*
X114024952Y-64587523D01*
X114072571Y-64539904D01*
X114167809Y-64492285D01*
X114405904Y-64492285D01*
X114501142Y-64539904D01*
X114548761Y-64587523D01*
X114596380Y-64682761D01*
X114596380Y-64968476D01*
X114548761Y-65063714D01*
X114501142Y-65111333D01*
%TO.C,C9*%
X133805142Y-71540666D02*
X133852761Y-71588285D01*
X133900380Y-71731142D01*
X133900380Y-71826380D01*
X133852761Y-71969238D01*
X133757523Y-72064476D01*
X133662285Y-72112095D01*
X133471809Y-72159714D01*
X133328952Y-72159714D01*
X133138476Y-72112095D01*
X133043238Y-72064476D01*
X132948000Y-71969238D01*
X132900380Y-71826380D01*
X132900380Y-71731142D01*
X132948000Y-71588285D01*
X132995619Y-71540666D01*
X133900380Y-71064476D02*
X133900380Y-70874000D01*
X133852761Y-70778761D01*
X133805142Y-70731142D01*
X133662285Y-70635904D01*
X133471809Y-70588285D01*
X133090857Y-70588285D01*
X132995619Y-70635904D01*
X132948000Y-70683523D01*
X132900380Y-70778761D01*
X132900380Y-70969238D01*
X132948000Y-71064476D01*
X132995619Y-71112095D01*
X133090857Y-71159714D01*
X133328952Y-71159714D01*
X133424190Y-71112095D01*
X133471809Y-71064476D01*
X133519428Y-70969238D01*
X133519428Y-70778761D01*
X133471809Y-70683523D01*
X133424190Y-70635904D01*
X133328952Y-70588285D01*
%TO.C,U1*%
X142962380Y-70611904D02*
X143771904Y-70611904D01*
X143867142Y-70564285D01*
X143914761Y-70516666D01*
X143962380Y-70421428D01*
X143962380Y-70230952D01*
X143914761Y-70135714D01*
X143867142Y-70088095D01*
X143771904Y-70040476D01*
X142962380Y-70040476D01*
X143962380Y-69040476D02*
X143962380Y-69611904D01*
X143962380Y-69326190D02*
X142962380Y-69326190D01*
X143105238Y-69421428D01*
X143200476Y-69516666D01*
X143248095Y-69611904D01*
%TO.C,D4*%
X122372380Y-80748095D02*
X121372380Y-80748095D01*
X121372380Y-80510000D01*
X121420000Y-80367142D01*
X121515238Y-80271904D01*
X121610476Y-80224285D01*
X121800952Y-80176666D01*
X121943809Y-80176666D01*
X122134285Y-80224285D01*
X122229523Y-80271904D01*
X122324761Y-80367142D01*
X122372380Y-80510000D01*
X122372380Y-80748095D01*
X121705714Y-79319523D02*
X122372380Y-79319523D01*
X121324761Y-79557619D02*
X122039047Y-79795714D01*
X122039047Y-79176666D01*
%TO.C,U3*%
X118364095Y-67934380D02*
X118364095Y-68743904D01*
X118411714Y-68839142D01*
X118459333Y-68886761D01*
X118554571Y-68934380D01*
X118745047Y-68934380D01*
X118840285Y-68886761D01*
X118887904Y-68839142D01*
X118935523Y-68743904D01*
X118935523Y-67934380D01*
X119316476Y-67934380D02*
X119935523Y-67934380D01*
X119602190Y-68315333D01*
X119745047Y-68315333D01*
X119840285Y-68362952D01*
X119887904Y-68410571D01*
X119935523Y-68505809D01*
X119935523Y-68743904D01*
X119887904Y-68839142D01*
X119840285Y-68886761D01*
X119745047Y-68934380D01*
X119459333Y-68934380D01*
X119364095Y-68886761D01*
X119316476Y-68839142D01*
%TO.C,SW1*%
X134556666Y-82954761D02*
X134699523Y-83002380D01*
X134937619Y-83002380D01*
X135032857Y-82954761D01*
X135080476Y-82907142D01*
X135128095Y-82811904D01*
X135128095Y-82716666D01*
X135080476Y-82621428D01*
X135032857Y-82573809D01*
X134937619Y-82526190D01*
X134747142Y-82478571D01*
X134651904Y-82430952D01*
X134604285Y-82383333D01*
X134556666Y-82288095D01*
X134556666Y-82192857D01*
X134604285Y-82097619D01*
X134651904Y-82050000D01*
X134747142Y-82002380D01*
X134985238Y-82002380D01*
X135128095Y-82050000D01*
X135461428Y-82002380D02*
X135699523Y-83002380D01*
X135890000Y-82288095D01*
X136080476Y-83002380D01*
X136318571Y-82002380D01*
X137223333Y-83002380D02*
X136651904Y-83002380D01*
X136937619Y-83002380D02*
X136937619Y-82002380D01*
X136842380Y-82145238D01*
X136747142Y-82240476D01*
X136651904Y-82288095D01*
%TO.C,D3*%
X119832380Y-80748095D02*
X118832380Y-80748095D01*
X118832380Y-80510000D01*
X118880000Y-80367142D01*
X118975238Y-80271904D01*
X119070476Y-80224285D01*
X119260952Y-80176666D01*
X119403809Y-80176666D01*
X119594285Y-80224285D01*
X119689523Y-80271904D01*
X119784761Y-80367142D01*
X119832380Y-80510000D01*
X119832380Y-80748095D01*
X118832380Y-79843333D02*
X118832380Y-79224285D01*
X119213333Y-79557619D01*
X119213333Y-79414761D01*
X119260952Y-79319523D01*
X119308571Y-79271904D01*
X119403809Y-79224285D01*
X119641904Y-79224285D01*
X119737142Y-79271904D01*
X119784761Y-79319523D01*
X119832380Y-79414761D01*
X119832380Y-79700476D01*
X119784761Y-79795714D01*
X119737142Y-79843333D01*
%TO.C,JP1*%
X109666380Y-74463333D02*
X110380666Y-74463333D01*
X110523523Y-74510952D01*
X110618761Y-74606190D01*
X110666380Y-74749047D01*
X110666380Y-74844285D01*
X110666380Y-73987142D02*
X109666380Y-73987142D01*
X109666380Y-73606190D01*
X109714000Y-73510952D01*
X109761619Y-73463333D01*
X109856857Y-73415714D01*
X109999714Y-73415714D01*
X110094952Y-73463333D01*
X110142571Y-73510952D01*
X110190190Y-73606190D01*
X110190190Y-73987142D01*
X110666380Y-72463333D02*
X110666380Y-73034761D01*
X110666380Y-72749047D02*
X109666380Y-72749047D01*
X109809238Y-72844285D01*
X109904476Y-72939523D01*
X109952095Y-73034761D01*
X112466380Y-75944285D02*
X112466380Y-76515714D01*
X112466380Y-76230000D02*
X111466380Y-76230000D01*
X111609238Y-76325238D01*
X111704476Y-76420476D01*
X111752095Y-76515714D01*
X111466380Y-71363333D02*
X111466380Y-70744285D01*
X111847333Y-71077619D01*
X111847333Y-70934761D01*
X111894952Y-70839523D01*
X111942571Y-70791904D01*
X112037809Y-70744285D01*
X112275904Y-70744285D01*
X112371142Y-70791904D01*
X112418761Y-70839523D01*
X112466380Y-70934761D01*
X112466380Y-71220476D01*
X112418761Y-71315714D01*
X112371142Y-71363333D01*
%TO.C,C6*%
X119073142Y-65444666D02*
X119120761Y-65492285D01*
X119168380Y-65635142D01*
X119168380Y-65730380D01*
X119120761Y-65873238D01*
X119025523Y-65968476D01*
X118930285Y-66016095D01*
X118739809Y-66063714D01*
X118596952Y-66063714D01*
X118406476Y-66016095D01*
X118311238Y-65968476D01*
X118216000Y-65873238D01*
X118168380Y-65730380D01*
X118168380Y-65635142D01*
X118216000Y-65492285D01*
X118263619Y-65444666D01*
X118168380Y-64587523D02*
X118168380Y-64778000D01*
X118216000Y-64873238D01*
X118263619Y-64920857D01*
X118406476Y-65016095D01*
X118596952Y-65063714D01*
X118977904Y-65063714D01*
X119073142Y-65016095D01*
X119120761Y-64968476D01*
X119168380Y-64873238D01*
X119168380Y-64682761D01*
X119120761Y-64587523D01*
X119073142Y-64539904D01*
X118977904Y-64492285D01*
X118739809Y-64492285D01*
X118644571Y-64539904D01*
X118596952Y-64587523D01*
X118549333Y-64682761D01*
X118549333Y-64873238D01*
X118596952Y-64968476D01*
X118644571Y-65016095D01*
X118739809Y-65063714D01*
%TO.C,L1*%
X128357333Y-68392380D02*
X127881142Y-68392380D01*
X127881142Y-67392380D01*
X129214476Y-68392380D02*
X128643047Y-68392380D01*
X128928761Y-68392380D02*
X128928761Y-67392380D01*
X128833523Y-67535238D01*
X128738285Y-67630476D01*
X128643047Y-67678095D01*
%TO.C,R2*%
X147915333Y-82240380D02*
X147582000Y-81764190D01*
X147343904Y-82240380D02*
X147343904Y-81240380D01*
X147724857Y-81240380D01*
X147820095Y-81288000D01*
X147867714Y-81335619D01*
X147915333Y-81430857D01*
X147915333Y-81573714D01*
X147867714Y-81668952D01*
X147820095Y-81716571D01*
X147724857Y-81764190D01*
X147343904Y-81764190D01*
X148296285Y-81335619D02*
X148343904Y-81288000D01*
X148439142Y-81240380D01*
X148677238Y-81240380D01*
X148772476Y-81288000D01*
X148820095Y-81335619D01*
X148867714Y-81430857D01*
X148867714Y-81526095D01*
X148820095Y-81668952D01*
X148248666Y-82240380D01*
X148867714Y-82240380D01*
%TO.C,C8*%
X128217142Y-65444666D02*
X128264761Y-65492285D01*
X128312380Y-65635142D01*
X128312380Y-65730380D01*
X128264761Y-65873238D01*
X128169523Y-65968476D01*
X128074285Y-66016095D01*
X127883809Y-66063714D01*
X127740952Y-66063714D01*
X127550476Y-66016095D01*
X127455238Y-65968476D01*
X127360000Y-65873238D01*
X127312380Y-65730380D01*
X127312380Y-65635142D01*
X127360000Y-65492285D01*
X127407619Y-65444666D01*
X127740952Y-64873238D02*
X127693333Y-64968476D01*
X127645714Y-65016095D01*
X127550476Y-65063714D01*
X127502857Y-65063714D01*
X127407619Y-65016095D01*
X127360000Y-64968476D01*
X127312380Y-64873238D01*
X127312380Y-64682761D01*
X127360000Y-64587523D01*
X127407619Y-64539904D01*
X127502857Y-64492285D01*
X127550476Y-64492285D01*
X127645714Y-64539904D01*
X127693333Y-64587523D01*
X127740952Y-64682761D01*
X127740952Y-64873238D01*
X127788571Y-64968476D01*
X127836190Y-65016095D01*
X127931428Y-65063714D01*
X128121904Y-65063714D01*
X128217142Y-65016095D01*
X128264761Y-64968476D01*
X128312380Y-64873238D01*
X128312380Y-64682761D01*
X128264761Y-64587523D01*
X128217142Y-64539904D01*
X128121904Y-64492285D01*
X127931428Y-64492285D01*
X127836190Y-64539904D01*
X127788571Y-64587523D01*
X127740952Y-64682761D01*
D11*
%TO.C,C5*%
X124233000Y-65539252D02*
X124233000Y-65016748D01*
X125703000Y-65539252D02*
X125703000Y-65016748D01*
%TO.C,D2*%
X116105000Y-81144000D02*
X116105000Y-83604000D01*
X117575000Y-83604000D02*
X117575000Y-81144000D01*
X117575000Y-81144000D02*
X116105000Y-81144000D01*
%TO.C,C2*%
X110488000Y-78593733D02*
X110488000Y-78886267D01*
X111508000Y-78593733D02*
X111508000Y-78886267D01*
%TO.C,R4*%
X122950500Y-77215276D02*
X122950500Y-77724724D01*
X121905500Y-77215276D02*
X121905500Y-77724724D01*
%TO.C,C7*%
X135099248Y-78713000D02*
X135621752Y-78713000D01*
X135099248Y-77243000D02*
X135621752Y-77243000D01*
%TO.C,R1*%
X140715276Y-82310500D02*
X141224724Y-82310500D01*
X140715276Y-81265500D02*
X141224724Y-81265500D01*
%TO.C,J1*%
X64892500Y-67900000D02*
X64892500Y-69010000D01*
X69652500Y-70100000D02*
X69652500Y-69600000D01*
X64892500Y-70690000D02*
X64892500Y-71800000D01*
X69652500Y-69600000D02*
X69152500Y-69850000D01*
X69152500Y-69850000D02*
X69652500Y-70100000D01*
X68602500Y-70690000D02*
X68602500Y-71800000D01*
X68602500Y-67900000D02*
X68602500Y-69010000D01*
%TO.C,R5*%
X130556724Y-78754500D02*
X130047276Y-78754500D01*
X130556724Y-77709500D02*
X130047276Y-77709500D01*
%TO.C,D1*%
X115035000Y-84464000D02*
X115035000Y-82004000D01*
X113565000Y-82004000D02*
X113565000Y-84464000D01*
X113565000Y-84464000D02*
X115035000Y-84464000D01*
%TO.C,C3*%
X115089000Y-65539252D02*
X115089000Y-65016748D01*
X116559000Y-65539252D02*
X116559000Y-65016748D01*
%TO.C,C9*%
X134393000Y-71635252D02*
X134393000Y-71112748D01*
X135863000Y-71635252D02*
X135863000Y-71112748D01*
D10*
%TO.C,U1*%
X142144500Y-80264000D02*
X165004500Y-80264000D01*
X165004500Y-80264000D02*
X165004500Y-59944000D01*
X165004500Y-59944000D02*
X142144500Y-59944000D01*
X142144500Y-59944000D02*
X142144500Y-80264000D01*
D12*
%TO.C,U2*%
X74816000Y-82104000D02*
X70616000Y-82104000D01*
X94916000Y-82104000D02*
X95316000Y-82104000D01*
X105116000Y-58104000D02*
X105516000Y-58104000D01*
X109216000Y-82104000D02*
X109216000Y-58104000D01*
X100016000Y-58104000D02*
X100416000Y-58104000D01*
X89816000Y-82104000D02*
X90216000Y-82104000D01*
X97516000Y-58104000D02*
X97916000Y-58104000D01*
X107916000Y-82104000D02*
X109216000Y-82104000D01*
X102616000Y-58104000D02*
X103016000Y-58104000D01*
X89816000Y-58104000D02*
X90216000Y-58104000D01*
X105116000Y-82104000D02*
X105516000Y-82104000D01*
X100016000Y-82104000D02*
X100416000Y-82104000D01*
X70616000Y-58104000D02*
X74816000Y-58104000D01*
X82516000Y-82104000D02*
X87516000Y-82104000D01*
X102516000Y-82104000D02*
X102916000Y-82104000D01*
X82516000Y-58104000D02*
X87516000Y-58104000D01*
X79716000Y-82104000D02*
X80116000Y-82104000D01*
X79716000Y-58104000D02*
X80116000Y-58104000D01*
X92416000Y-82104000D02*
X92816000Y-82104000D01*
X97516000Y-82104000D02*
X97916000Y-82104000D01*
X77216000Y-58104000D02*
X77616000Y-58104000D01*
X70616000Y-82104000D02*
X70616000Y-58104000D01*
X77216000Y-82104000D02*
X77616000Y-82104000D01*
X94916000Y-58104000D02*
X95316000Y-58104000D01*
X109216000Y-58104000D02*
X107916000Y-58104000D01*
X92416000Y-58104000D02*
X92816000Y-58104000D01*
D11*
%TO.C,D4*%
X121185000Y-81144000D02*
X121185000Y-83604000D01*
X122655000Y-83604000D02*
X122655000Y-81144000D01*
X122655000Y-81144000D02*
X121185000Y-81144000D01*
%TO.C,U3*%
X119126000Y-69322000D02*
X121076000Y-69322000D01*
X119126000Y-74442000D02*
X121076000Y-74442000D01*
X119126000Y-69322000D02*
X115676000Y-69322000D01*
X119126000Y-74442000D02*
X117176000Y-74442000D01*
%TO.C,SW1*%
X132752000Y-83045000D02*
X132752000Y-83595000D01*
X127952000Y-85170000D02*
X128877000Y-85170000D01*
X131727000Y-85170000D02*
X132652000Y-85170000D01*
X127852000Y-83045000D02*
X127852000Y-83595000D01*
X127952000Y-81470000D02*
X132652000Y-81470000D01*
%TO.C,D3*%
X120115000Y-84464000D02*
X120115000Y-82004000D01*
X118645000Y-84464000D02*
X120115000Y-84464000D01*
X118645000Y-82004000D02*
X118645000Y-84464000D01*
%TO.C,JP1*%
X112314000Y-75680000D02*
X111714000Y-75680000D01*
X111714000Y-71580000D02*
X112314000Y-71580000D01*
X113014000Y-72230000D02*
X113014000Y-75030000D01*
X111014000Y-75030000D02*
X111014000Y-72230000D01*
X112314000Y-75680000D02*
G75*
G03*
X113014000Y-74980000I1J699999D01*
G01*
X111014000Y-74980000D02*
G75*
G03*
X111714000Y-75680000I699999J-1D01*
G01*
X113014000Y-72280000D02*
G75*
G03*
X112314000Y-71580000I-700000J0D01*
G01*
X111714000Y-71580000D02*
G75*
G03*
X111014000Y-72280000I0J-700000D01*
G01*
%TO.C,C6*%
X119661000Y-65539252D02*
X119661000Y-65016748D01*
X121131000Y-65539252D02*
X121131000Y-65016748D01*
%TO.C,L1*%
X131824000Y-75590000D02*
X125224000Y-75590000D01*
X131824000Y-69190000D02*
X131824000Y-70890000D01*
X125224000Y-70890000D02*
X125224000Y-69190000D01*
X125224000Y-75590000D02*
X125224000Y-73890000D01*
X131824000Y-73890000D02*
X131824000Y-75590000D01*
X125224000Y-69190000D02*
X131824000Y-69190000D01*
%TO.C,R2*%
X144779276Y-81265500D02*
X145288724Y-81265500D01*
X144779276Y-82310500D02*
X145288724Y-82310500D01*
%TO.C,C8*%
X128805000Y-65539252D02*
X128805000Y-65016748D01*
X130275000Y-65539252D02*
X130275000Y-65016748D01*
%TD*%
M02*
