G04 #@! TF.GenerationSoftware,KiCad,Pcbnew,5.1.9+dfsg1-1+deb11u1*
G04 #@! TF.CreationDate,2023-03-18T22:01:19+02:00*
G04 #@! TF.ProjectId,lora_tracker_wide,6c6f7261-5f74-4726-9163-6b65725f7769,rev?*
G04 #@! TF.SameCoordinates,Original*
G04 #@! TF.FileFunction,Soldermask,Top*
G04 #@! TF.FilePolarity,Negative*
%FSLAX46Y46*%
G04 Gerber Fmt 4.6, Leading zero omitted, Abs format (unit mm)*
G04 Created by KiCad (PCBNEW 5.1.9+dfsg1-1+deb11u1) date 2023-03-18 22:01:19*
%MOMM*%
%LPD*%
G01*
G04 APERTURE LIST*
%ADD10O,1.802000X1.802000*%
%ADD11C,1.626000*%
%ADD12C,0.150000*%
G04 APERTURE END LIST*
G36*
G01*
X80820101Y-73450000D02*
X80820101Y-75950000D01*
G75*
G02*
X80718501Y-76051600I-101600J0D01*
G01*
X79018501Y-76051600D01*
G75*
G02*
X78916901Y-75950000I0J101600D01*
G01*
X78916901Y-73450000D01*
G75*
G02*
X79018501Y-73348400I101600J0D01*
G01*
X80718501Y-73348400D01*
G75*
G02*
X80820101Y-73450000I0J-101600D01*
G01*
G37*
G36*
G01*
X83360101Y-73450000D02*
X83360101Y-75950000D01*
G75*
G02*
X83258501Y-76051600I-101600J0D01*
G01*
X81558501Y-76051600D01*
G75*
G02*
X81456901Y-75950000I0J101600D01*
G01*
X81456901Y-73450000D01*
G75*
G02*
X81558501Y-73348400I101600J0D01*
G01*
X83258501Y-73348400D01*
G75*
G02*
X83360101Y-73450000I0J-101600D01*
G01*
G37*
G36*
G01*
X85900101Y-73450000D02*
X85900101Y-75950000D01*
G75*
G02*
X85798501Y-76051600I-101600J0D01*
G01*
X84098501Y-76051600D01*
G75*
G02*
X83996901Y-75950000I0J101600D01*
G01*
X83996901Y-73450000D01*
G75*
G02*
X84098501Y-73348400I101600J0D01*
G01*
X85798501Y-73348400D01*
G75*
G02*
X85900101Y-73450000I0J-101600D01*
G01*
G37*
G36*
G01*
X93500101Y-73450000D02*
X93500101Y-75950000D01*
G75*
G02*
X93398501Y-76051600I-101600J0D01*
G01*
X91698501Y-76051600D01*
G75*
G02*
X91596901Y-75950000I0J101600D01*
G01*
X91596901Y-73450000D01*
G75*
G02*
X91698501Y-73348400I101600J0D01*
G01*
X93398501Y-73348400D01*
G75*
G02*
X93500101Y-73450000I0J-101600D01*
G01*
G37*
G36*
G01*
X96040101Y-73450000D02*
X96040101Y-75950000D01*
G75*
G02*
X95938501Y-76051600I-101600J0D01*
G01*
X94238501Y-76051600D01*
G75*
G02*
X94136901Y-75950000I0J101600D01*
G01*
X94136901Y-73450000D01*
G75*
G02*
X94238501Y-73348400I101600J0D01*
G01*
X95938501Y-73348400D01*
G75*
G02*
X96040101Y-73450000I0J-101600D01*
G01*
G37*
G36*
G01*
X98580101Y-73450000D02*
X98580101Y-75950000D01*
G75*
G02*
X98478501Y-76051600I-101600J0D01*
G01*
X96778501Y-76051600D01*
G75*
G02*
X96676901Y-75950000I0J101600D01*
G01*
X96676901Y-73450000D01*
G75*
G02*
X96778501Y-73348400I101600J0D01*
G01*
X98478501Y-73348400D01*
G75*
G02*
X98580101Y-73450000I0J-101600D01*
G01*
G37*
G36*
G01*
X101120101Y-73450000D02*
X101120101Y-75950000D01*
G75*
G02*
X101018501Y-76051600I-101600J0D01*
G01*
X99318501Y-76051600D01*
G75*
G02*
X99216901Y-75950000I0J101600D01*
G01*
X99216901Y-73450000D01*
G75*
G02*
X99318501Y-73348400I101600J0D01*
G01*
X101018501Y-73348400D01*
G75*
G02*
X101120101Y-73450000I0J-101600D01*
G01*
G37*
G36*
G01*
X103660101Y-73450000D02*
X103660101Y-75950000D01*
G75*
G02*
X103558501Y-76051600I-101600J0D01*
G01*
X101858501Y-76051600D01*
G75*
G02*
X101756901Y-75950000I0J101600D01*
G01*
X101756901Y-73450000D01*
G75*
G02*
X101858501Y-73348400I101600J0D01*
G01*
X103558501Y-73348400D01*
G75*
G02*
X103660101Y-73450000I0J-101600D01*
G01*
G37*
G36*
G01*
X106200101Y-73450000D02*
X106200101Y-75950000D01*
G75*
G02*
X106098501Y-76051600I-101600J0D01*
G01*
X104398501Y-76051600D01*
G75*
G02*
X104296901Y-75950000I0J101600D01*
G01*
X104296901Y-73450000D01*
G75*
G02*
X104398501Y-73348400I101600J0D01*
G01*
X106098501Y-73348400D01*
G75*
G02*
X106200101Y-73450000I0J-101600D01*
G01*
G37*
G36*
G01*
X108740101Y-73450000D02*
X108740101Y-75950000D01*
G75*
G02*
X108638501Y-76051600I-101600J0D01*
G01*
X106938501Y-76051600D01*
G75*
G02*
X106836901Y-75950000I0J101600D01*
G01*
X106836901Y-73450000D01*
G75*
G02*
X106938501Y-73348400I101600J0D01*
G01*
X108638501Y-73348400D01*
G75*
G02*
X108740101Y-73450000I0J-101600D01*
G01*
G37*
G36*
G01*
X111280101Y-73450000D02*
X111280101Y-75950000D01*
G75*
G02*
X111178501Y-76051600I-101600J0D01*
G01*
X109478501Y-76051600D01*
G75*
G02*
X109376901Y-75950000I0J101600D01*
G01*
X109376901Y-73450000D01*
G75*
G02*
X109478501Y-73348400I101600J0D01*
G01*
X111178501Y-73348400D01*
G75*
G02*
X111280101Y-73450000I0J-101600D01*
G01*
G37*
G36*
G01*
X111280101Y-49450000D02*
X111280101Y-51950000D01*
G75*
G02*
X111178501Y-52051600I-101600J0D01*
G01*
X109478501Y-52051600D01*
G75*
G02*
X109376901Y-51950000I0J101600D01*
G01*
X109376901Y-49450000D01*
G75*
G02*
X109478501Y-49348400I101600J0D01*
G01*
X111178501Y-49348400D01*
G75*
G02*
X111280101Y-49450000I0J-101600D01*
G01*
G37*
G36*
G01*
X108740101Y-49450000D02*
X108740101Y-51950000D01*
G75*
G02*
X108638501Y-52051600I-101600J0D01*
G01*
X106938501Y-52051600D01*
G75*
G02*
X106836901Y-51950000I0J101600D01*
G01*
X106836901Y-49450000D01*
G75*
G02*
X106938501Y-49348400I101600J0D01*
G01*
X108638501Y-49348400D01*
G75*
G02*
X108740101Y-49450000I0J-101600D01*
G01*
G37*
G36*
G01*
X106200101Y-49450000D02*
X106200101Y-51950000D01*
G75*
G02*
X106098501Y-52051600I-101600J0D01*
G01*
X104398501Y-52051600D01*
G75*
G02*
X104296901Y-51950000I0J101600D01*
G01*
X104296901Y-49450000D01*
G75*
G02*
X104398501Y-49348400I101600J0D01*
G01*
X106098501Y-49348400D01*
G75*
G02*
X106200101Y-49450000I0J-101600D01*
G01*
G37*
G36*
G01*
X103660101Y-49450000D02*
X103660101Y-51950000D01*
G75*
G02*
X103558501Y-52051600I-101600J0D01*
G01*
X101858501Y-52051600D01*
G75*
G02*
X101756901Y-51950000I0J101600D01*
G01*
X101756901Y-49450000D01*
G75*
G02*
X101858501Y-49348400I101600J0D01*
G01*
X103558501Y-49348400D01*
G75*
G02*
X103660101Y-49450000I0J-101600D01*
G01*
G37*
G36*
G01*
X101120101Y-49450000D02*
X101120101Y-51950000D01*
G75*
G02*
X101018501Y-52051600I-101600J0D01*
G01*
X99318501Y-52051600D01*
G75*
G02*
X99216901Y-51950000I0J101600D01*
G01*
X99216901Y-49450000D01*
G75*
G02*
X99318501Y-49348400I101600J0D01*
G01*
X101018501Y-49348400D01*
G75*
G02*
X101120101Y-49450000I0J-101600D01*
G01*
G37*
G36*
G01*
X98580101Y-49450000D02*
X98580101Y-51950000D01*
G75*
G02*
X98478501Y-52051600I-101600J0D01*
G01*
X96778501Y-52051600D01*
G75*
G02*
X96676901Y-51950000I0J101600D01*
G01*
X96676901Y-49450000D01*
G75*
G02*
X96778501Y-49348400I101600J0D01*
G01*
X98478501Y-49348400D01*
G75*
G02*
X98580101Y-49450000I0J-101600D01*
G01*
G37*
G36*
G01*
X96040101Y-49450000D02*
X96040101Y-51950000D01*
G75*
G02*
X95938501Y-52051600I-101600J0D01*
G01*
X94238501Y-52051600D01*
G75*
G02*
X94136901Y-51950000I0J101600D01*
G01*
X94136901Y-49450000D01*
G75*
G02*
X94238501Y-49348400I101600J0D01*
G01*
X95938501Y-49348400D01*
G75*
G02*
X96040101Y-49450000I0J-101600D01*
G01*
G37*
G36*
G01*
X93500101Y-49450000D02*
X93500101Y-51950000D01*
G75*
G02*
X93398501Y-52051600I-101600J0D01*
G01*
X91698501Y-52051600D01*
G75*
G02*
X91596901Y-51950000I0J101600D01*
G01*
X91596901Y-49450000D01*
G75*
G02*
X91698501Y-49348400I101600J0D01*
G01*
X93398501Y-49348400D01*
G75*
G02*
X93500101Y-49450000I0J-101600D01*
G01*
G37*
G36*
G01*
X85900101Y-49450000D02*
X85900101Y-51950000D01*
G75*
G02*
X85798501Y-52051600I-101600J0D01*
G01*
X84098501Y-52051600D01*
G75*
G02*
X83996901Y-51950000I0J101600D01*
G01*
X83996901Y-49450000D01*
G75*
G02*
X84098501Y-49348400I101600J0D01*
G01*
X85798501Y-49348400D01*
G75*
G02*
X85900101Y-49450000I0J-101600D01*
G01*
G37*
G36*
G01*
X83360101Y-49450000D02*
X83360101Y-51950000D01*
G75*
G02*
X83258501Y-52051600I-101600J0D01*
G01*
X81558501Y-52051600D01*
G75*
G02*
X81456901Y-51950000I0J101600D01*
G01*
X81456901Y-49450000D01*
G75*
G02*
X81558501Y-49348400I101600J0D01*
G01*
X83258501Y-49348400D01*
G75*
G02*
X83360101Y-49450000I0J-101600D01*
G01*
G37*
G36*
G01*
X80820101Y-49450000D02*
X80820101Y-51950000D01*
G75*
G02*
X80718501Y-52051600I-101600J0D01*
G01*
X79018501Y-52051600D01*
G75*
G02*
X78916901Y-51950000I0J101600D01*
G01*
X78916901Y-49450000D01*
G75*
G02*
X79018501Y-49348400I101600J0D01*
G01*
X80718501Y-49348400D01*
G75*
G02*
X80820101Y-49450000I0J-101600D01*
G01*
G37*
G36*
G01*
X101334000Y-100343000D02*
X99834000Y-100343000D01*
G75*
G02*
X99783000Y-100292000I0J51000D01*
G01*
X99783000Y-99292000D01*
G75*
G02*
X99834000Y-99241000I51000J0D01*
G01*
X101334000Y-99241000D01*
G75*
G02*
X101385000Y-99292000I0J-51000D01*
G01*
X101385000Y-100292000D01*
G75*
G02*
X101334000Y-100343000I-51000J0D01*
G01*
G37*
G36*
G01*
X101334000Y-101643000D02*
X99834000Y-101643000D01*
G75*
G02*
X99783000Y-101592000I0J51000D01*
G01*
X99783000Y-100592000D01*
G75*
G02*
X99834000Y-100541000I51000J0D01*
G01*
X101334000Y-100541000D01*
G75*
G02*
X101385000Y-100592000I0J-51000D01*
G01*
X101385000Y-101592000D01*
G75*
G02*
X101334000Y-101643000I-51000J0D01*
G01*
G37*
G36*
G01*
X101334000Y-102943000D02*
X99834000Y-102943000D01*
G75*
G02*
X99783000Y-102892000I0J51000D01*
G01*
X99783000Y-101892000D01*
G75*
G02*
X99834000Y-101841000I51000J0D01*
G01*
X101334000Y-101841000D01*
G75*
G02*
X101385000Y-101892000I0J-51000D01*
G01*
X101385000Y-102892000D01*
G75*
G02*
X101334000Y-102943000I-51000J0D01*
G01*
G37*
G36*
G01*
X101334000Y-107769000D02*
X99834000Y-107769000D01*
G75*
G02*
X99783000Y-107718000I0J51000D01*
G01*
X99783000Y-106718000D01*
G75*
G02*
X99834000Y-106667000I51000J0D01*
G01*
X101334000Y-106667000D01*
G75*
G02*
X101385000Y-106718000I0J-51000D01*
G01*
X101385000Y-107718000D01*
G75*
G02*
X101334000Y-107769000I-51000J0D01*
G01*
G37*
G36*
G01*
X101334000Y-106469000D02*
X99834000Y-106469000D01*
G75*
G02*
X99783000Y-106418000I0J51000D01*
G01*
X99783000Y-105418000D01*
G75*
G02*
X99834000Y-105367000I51000J0D01*
G01*
X101334000Y-105367000D01*
G75*
G02*
X101385000Y-105418000I0J-51000D01*
G01*
X101385000Y-106418000D01*
G75*
G02*
X101334000Y-106469000I-51000J0D01*
G01*
G37*
G36*
G01*
X101334000Y-105169000D02*
X99834000Y-105169000D01*
G75*
G02*
X99783000Y-105118000I0J51000D01*
G01*
X99783000Y-104118000D01*
G75*
G02*
X99834000Y-104067000I51000J0D01*
G01*
X101334000Y-104067000D01*
G75*
G02*
X101385000Y-104118000I0J-51000D01*
G01*
X101385000Y-105118000D01*
G75*
G02*
X101334000Y-105169000I-51000J0D01*
G01*
G37*
G36*
G01*
X101334000Y-110249000D02*
X99834000Y-110249000D01*
G75*
G02*
X99783000Y-110198000I0J51000D01*
G01*
X99783000Y-109198000D01*
G75*
G02*
X99834000Y-109147000I51000J0D01*
G01*
X101334000Y-109147000D01*
G75*
G02*
X101385000Y-109198000I0J-51000D01*
G01*
X101385000Y-110198000D01*
G75*
G02*
X101334000Y-110249000I-51000J0D01*
G01*
G37*
G36*
G01*
X101334000Y-111549000D02*
X99834000Y-111549000D01*
G75*
G02*
X99783000Y-111498000I0J51000D01*
G01*
X99783000Y-110498000D01*
G75*
G02*
X99834000Y-110447000I51000J0D01*
G01*
X101334000Y-110447000D01*
G75*
G02*
X101385000Y-110498000I0J-51000D01*
G01*
X101385000Y-111498000D01*
G75*
G02*
X101334000Y-111549000I-51000J0D01*
G01*
G37*
G36*
G01*
X101334000Y-112849000D02*
X99834000Y-112849000D01*
G75*
G02*
X99783000Y-112798000I0J51000D01*
G01*
X99783000Y-111798000D01*
G75*
G02*
X99834000Y-111747000I51000J0D01*
G01*
X101334000Y-111747000D01*
G75*
G02*
X101385000Y-111798000I0J-51000D01*
G01*
X101385000Y-112798000D01*
G75*
G02*
X101334000Y-112849000I-51000J0D01*
G01*
G37*
G36*
G01*
X85753000Y-120154000D02*
X85753000Y-121654000D01*
G75*
G02*
X85702000Y-121705000I-51000J0D01*
G01*
X84702000Y-121705000D01*
G75*
G02*
X84651000Y-121654000I0J51000D01*
G01*
X84651000Y-120154000D01*
G75*
G02*
X84702000Y-120103000I51000J0D01*
G01*
X85702000Y-120103000D01*
G75*
G02*
X85753000Y-120154000I0J-51000D01*
G01*
G37*
G36*
G01*
X87053000Y-120154000D02*
X87053000Y-121654000D01*
G75*
G02*
X87002000Y-121705000I-51000J0D01*
G01*
X86002000Y-121705000D01*
G75*
G02*
X85951000Y-121654000I0J51000D01*
G01*
X85951000Y-120154000D01*
G75*
G02*
X86002000Y-120103000I51000J0D01*
G01*
X87002000Y-120103000D01*
G75*
G02*
X87053000Y-120154000I0J-51000D01*
G01*
G37*
G36*
G01*
X87195000Y-130314000D02*
X87195000Y-131814000D01*
G75*
G02*
X87144000Y-131865000I-51000J0D01*
G01*
X86144000Y-131865000D01*
G75*
G02*
X86093000Y-131814000I0J51000D01*
G01*
X86093000Y-130314000D01*
G75*
G02*
X86144000Y-130263000I51000J0D01*
G01*
X87144000Y-130263000D01*
G75*
G02*
X87195000Y-130314000I0J-51000D01*
G01*
G37*
G36*
G01*
X85895000Y-130314000D02*
X85895000Y-131814000D01*
G75*
G02*
X85844000Y-131865000I-51000J0D01*
G01*
X84844000Y-131865000D01*
G75*
G02*
X84793000Y-131814000I0J51000D01*
G01*
X84793000Y-130314000D01*
G75*
G02*
X84844000Y-130263000I51000J0D01*
G01*
X85844000Y-130263000D01*
G75*
G02*
X85895000Y-130314000I0J-51000D01*
G01*
G37*
G36*
G01*
X101334000Y-96929000D02*
X99834000Y-96929000D01*
G75*
G02*
X99783000Y-96878000I0J51000D01*
G01*
X99783000Y-95878000D01*
G75*
G02*
X99834000Y-95827000I51000J0D01*
G01*
X101334000Y-95827000D01*
G75*
G02*
X101385000Y-95878000I0J-51000D01*
G01*
X101385000Y-96878000D01*
G75*
G02*
X101334000Y-96929000I-51000J0D01*
G01*
G37*
G36*
G01*
X101334000Y-98229000D02*
X99834000Y-98229000D01*
G75*
G02*
X99783000Y-98178000I0J51000D01*
G01*
X99783000Y-97178000D01*
G75*
G02*
X99834000Y-97127000I51000J0D01*
G01*
X101334000Y-97127000D01*
G75*
G02*
X101385000Y-97178000I0J-51000D01*
G01*
X101385000Y-98178000D01*
G75*
G02*
X101334000Y-98229000I-51000J0D01*
G01*
G37*
G36*
G01*
X85847000Y-43620000D02*
X85847000Y-47820000D01*
G75*
G02*
X85796000Y-47871000I-51000J0D01*
G01*
X84446000Y-47871000D01*
G75*
G02*
X84395000Y-47820000I0J51000D01*
G01*
X84395000Y-43620000D01*
G75*
G02*
X84446000Y-43569000I51000J0D01*
G01*
X85796000Y-43569000D01*
G75*
G02*
X85847000Y-43620000I0J-51000D01*
G01*
G37*
G36*
G01*
X80197000Y-43620000D02*
X80197000Y-47820000D01*
G75*
G02*
X80146000Y-47871000I-51000J0D01*
G01*
X78796000Y-47871000D01*
G75*
G02*
X78745000Y-47820000I0J51000D01*
G01*
X78745000Y-43620000D01*
G75*
G02*
X78796000Y-43569000I51000J0D01*
G01*
X80146000Y-43569000D01*
G75*
G02*
X80197000Y-43620000I0J-51000D01*
G01*
G37*
G36*
G01*
X82982000Y-43720000D02*
X82982000Y-47320000D01*
G75*
G02*
X82931000Y-47371000I-51000J0D01*
G01*
X81661000Y-47371000D01*
G75*
G02*
X81610000Y-47320000I0J51000D01*
G01*
X81610000Y-43720000D01*
G75*
G02*
X81661000Y-43669000I51000J0D01*
G01*
X82931000Y-43669000D01*
G75*
G02*
X82982000Y-43720000I0J-51000D01*
G01*
G37*
G36*
G01*
X102832000Y-79137000D02*
X104432000Y-79137000D01*
G75*
G02*
X104483000Y-79188000I0J-51000D01*
G01*
X104483000Y-81388000D01*
G75*
G02*
X104432000Y-81439000I-51000J0D01*
G01*
X102832000Y-81439000D01*
G75*
G02*
X102781000Y-81388000I0J51000D01*
G01*
X102781000Y-79188000D01*
G75*
G02*
X102832000Y-79137000I51000J0D01*
G01*
G37*
G36*
G01*
X102832000Y-82137000D02*
X104432000Y-82137000D01*
G75*
G02*
X104483000Y-82188000I0J-51000D01*
G01*
X104483000Y-84388000D01*
G75*
G02*
X104432000Y-84439000I-51000J0D01*
G01*
X102832000Y-84439000D01*
G75*
G02*
X102781000Y-84388000I0J51000D01*
G01*
X102781000Y-82188000D01*
G75*
G02*
X102832000Y-82137000I51000J0D01*
G01*
G37*
G36*
G01*
X107433000Y-77797000D02*
X107959000Y-77797000D01*
G75*
G02*
X108222000Y-78060000I0J-263000D01*
G01*
X108222000Y-78686000D01*
G75*
G02*
X107959000Y-78949000I-263000J0D01*
G01*
X107433000Y-78949000D01*
G75*
G02*
X107170000Y-78686000I0J263000D01*
G01*
X107170000Y-78060000D01*
G75*
G02*
X107433000Y-77797000I263000J0D01*
G01*
G37*
G36*
G01*
X107433000Y-79547000D02*
X107959000Y-79547000D01*
G75*
G02*
X108222000Y-79810000I0J-263000D01*
G01*
X108222000Y-80436000D01*
G75*
G02*
X107959000Y-80699000I-263000J0D01*
G01*
X107433000Y-80699000D01*
G75*
G02*
X107170000Y-80436000I0J263000D01*
G01*
X107170000Y-79810000D01*
G75*
G02*
X107433000Y-79547000I263000J0D01*
G01*
G37*
G36*
G01*
X85102000Y-86175000D02*
X86602000Y-86175000D01*
G75*
G02*
X86653000Y-86226000I0J-51000D01*
G01*
X86653000Y-87226000D01*
G75*
G02*
X86602000Y-87277000I-51000J0D01*
G01*
X85102000Y-87277000D01*
G75*
G02*
X85051000Y-87226000I0J51000D01*
G01*
X85051000Y-86226000D01*
G75*
G02*
X85102000Y-86175000I51000J0D01*
G01*
G37*
G36*
G01*
X85102000Y-87475000D02*
X86602000Y-87475000D01*
G75*
G02*
X86653000Y-87526000I0J-51000D01*
G01*
X86653000Y-88526000D01*
G75*
G02*
X86602000Y-88577000I-51000J0D01*
G01*
X85102000Y-88577000D01*
G75*
G02*
X85051000Y-88526000I0J51000D01*
G01*
X85051000Y-87526000D01*
G75*
G02*
X85102000Y-87475000I51000J0D01*
G01*
G37*
G36*
G01*
X102009000Y-133362000D02*
X102009000Y-134862000D01*
G75*
G02*
X101958000Y-134913000I-51000J0D01*
G01*
X100958000Y-134913000D01*
G75*
G02*
X100907000Y-134862000I0J51000D01*
G01*
X100907000Y-133362000D01*
G75*
G02*
X100958000Y-133311000I51000J0D01*
G01*
X101958000Y-133311000D01*
G75*
G02*
X102009000Y-133362000I0J-51000D01*
G01*
G37*
G36*
G01*
X103309000Y-133362000D02*
X103309000Y-134862000D01*
G75*
G02*
X103258000Y-134913000I-51000J0D01*
G01*
X102258000Y-134913000D01*
G75*
G02*
X102207000Y-134862000I0J51000D01*
G01*
X102207000Y-133362000D01*
G75*
G02*
X102258000Y-133311000I51000J0D01*
G01*
X103258000Y-133311000D01*
G75*
G02*
X103309000Y-133362000I0J-51000D01*
G01*
G37*
G36*
G01*
X97373000Y-56234000D02*
X97373000Y-54734000D01*
G75*
G02*
X97424000Y-54683000I51000J0D01*
G01*
X99424000Y-54683000D01*
G75*
G02*
X99475000Y-54734000I0J-51000D01*
G01*
X99475000Y-56234000D01*
G75*
G02*
X99424000Y-56285000I-51000J0D01*
G01*
X97424000Y-56285000D01*
G75*
G02*
X97373000Y-56234000I0J51000D01*
G01*
G37*
G36*
G01*
X97373000Y-58234000D02*
X97373000Y-56734000D01*
G75*
G02*
X97424000Y-56683000I51000J0D01*
G01*
X99424000Y-56683000D01*
G75*
G02*
X99475000Y-56734000I0J-51000D01*
G01*
X99475000Y-58234000D01*
G75*
G02*
X99424000Y-58285000I-51000J0D01*
G01*
X97424000Y-58285000D01*
G75*
G02*
X97373000Y-58234000I0J51000D01*
G01*
G37*
G36*
G01*
X97373000Y-60234000D02*
X97373000Y-58734000D01*
G75*
G02*
X97424000Y-58683000I51000J0D01*
G01*
X99424000Y-58683000D01*
G75*
G02*
X99475000Y-58734000I0J-51000D01*
G01*
X99475000Y-60234000D01*
G75*
G02*
X99424000Y-60285000I-51000J0D01*
G01*
X97424000Y-60285000D01*
G75*
G02*
X97373000Y-60234000I0J51000D01*
G01*
G37*
G36*
G01*
X97373000Y-62234000D02*
X97373000Y-60734000D01*
G75*
G02*
X97424000Y-60683000I51000J0D01*
G01*
X99424000Y-60683000D01*
G75*
G02*
X99475000Y-60734000I0J-51000D01*
G01*
X99475000Y-62234000D01*
G75*
G02*
X99424000Y-62285000I-51000J0D01*
G01*
X97424000Y-62285000D01*
G75*
G02*
X97373000Y-62234000I0J51000D01*
G01*
G37*
G36*
G01*
X97373000Y-64234000D02*
X97373000Y-62734000D01*
G75*
G02*
X97424000Y-62683000I51000J0D01*
G01*
X99424000Y-62683000D01*
G75*
G02*
X99475000Y-62734000I0J-51000D01*
G01*
X99475000Y-64234000D01*
G75*
G02*
X99424000Y-64285000I-51000J0D01*
G01*
X97424000Y-64285000D01*
G75*
G02*
X97373000Y-64234000I0J51000D01*
G01*
G37*
G36*
G01*
X97373000Y-66234000D02*
X97373000Y-64734000D01*
G75*
G02*
X97424000Y-64683000I51000J0D01*
G01*
X99424000Y-64683000D01*
G75*
G02*
X99475000Y-64734000I0J-51000D01*
G01*
X99475000Y-66234000D01*
G75*
G02*
X99424000Y-66285000I-51000J0D01*
G01*
X97424000Y-66285000D01*
G75*
G02*
X97373000Y-66234000I0J51000D01*
G01*
G37*
G36*
G01*
X97373000Y-68234000D02*
X97373000Y-66734000D01*
G75*
G02*
X97424000Y-66683000I51000J0D01*
G01*
X99424000Y-66683000D01*
G75*
G02*
X99475000Y-66734000I0J-51000D01*
G01*
X99475000Y-68234000D01*
G75*
G02*
X99424000Y-68285000I-51000J0D01*
G01*
X97424000Y-68285000D01*
G75*
G02*
X97373000Y-68234000I0J51000D01*
G01*
G37*
G36*
G01*
X97373000Y-70234000D02*
X97373000Y-68734000D01*
G75*
G02*
X97424000Y-68683000I51000J0D01*
G01*
X99424000Y-68683000D01*
G75*
G02*
X99475000Y-68734000I0J-51000D01*
G01*
X99475000Y-70234000D01*
G75*
G02*
X99424000Y-70285000I-51000J0D01*
G01*
X97424000Y-70285000D01*
G75*
G02*
X97373000Y-70234000I0J51000D01*
G01*
G37*
G36*
G01*
X81373000Y-70234000D02*
X81373000Y-68734000D01*
G75*
G02*
X81424000Y-68683000I51000J0D01*
G01*
X83424000Y-68683000D01*
G75*
G02*
X83475000Y-68734000I0J-51000D01*
G01*
X83475000Y-70234000D01*
G75*
G02*
X83424000Y-70285000I-51000J0D01*
G01*
X81424000Y-70285000D01*
G75*
G02*
X81373000Y-70234000I0J51000D01*
G01*
G37*
G36*
G01*
X81373000Y-68234000D02*
X81373000Y-66734000D01*
G75*
G02*
X81424000Y-66683000I51000J0D01*
G01*
X83424000Y-66683000D01*
G75*
G02*
X83475000Y-66734000I0J-51000D01*
G01*
X83475000Y-68234000D01*
G75*
G02*
X83424000Y-68285000I-51000J0D01*
G01*
X81424000Y-68285000D01*
G75*
G02*
X81373000Y-68234000I0J51000D01*
G01*
G37*
G36*
G01*
X81373000Y-66234000D02*
X81373000Y-64734000D01*
G75*
G02*
X81424000Y-64683000I51000J0D01*
G01*
X83424000Y-64683000D01*
G75*
G02*
X83475000Y-64734000I0J-51000D01*
G01*
X83475000Y-66234000D01*
G75*
G02*
X83424000Y-66285000I-51000J0D01*
G01*
X81424000Y-66285000D01*
G75*
G02*
X81373000Y-66234000I0J51000D01*
G01*
G37*
G36*
G01*
X81373000Y-64234000D02*
X81373000Y-62734000D01*
G75*
G02*
X81424000Y-62683000I51000J0D01*
G01*
X83424000Y-62683000D01*
G75*
G02*
X83475000Y-62734000I0J-51000D01*
G01*
X83475000Y-64234000D01*
G75*
G02*
X83424000Y-64285000I-51000J0D01*
G01*
X81424000Y-64285000D01*
G75*
G02*
X81373000Y-64234000I0J51000D01*
G01*
G37*
G36*
G01*
X81373000Y-62234000D02*
X81373000Y-60734000D01*
G75*
G02*
X81424000Y-60683000I51000J0D01*
G01*
X83424000Y-60683000D01*
G75*
G02*
X83475000Y-60734000I0J-51000D01*
G01*
X83475000Y-62234000D01*
G75*
G02*
X83424000Y-62285000I-51000J0D01*
G01*
X81424000Y-62285000D01*
G75*
G02*
X81373000Y-62234000I0J51000D01*
G01*
G37*
G36*
G01*
X81373000Y-60234000D02*
X81373000Y-58734000D01*
G75*
G02*
X81424000Y-58683000I51000J0D01*
G01*
X83424000Y-58683000D01*
G75*
G02*
X83475000Y-58734000I0J-51000D01*
G01*
X83475000Y-60234000D01*
G75*
G02*
X83424000Y-60285000I-51000J0D01*
G01*
X81424000Y-60285000D01*
G75*
G02*
X81373000Y-60234000I0J51000D01*
G01*
G37*
G36*
G01*
X81373000Y-58234000D02*
X81373000Y-56734000D01*
G75*
G02*
X81424000Y-56683000I51000J0D01*
G01*
X83424000Y-56683000D01*
G75*
G02*
X83475000Y-56734000I0J-51000D01*
G01*
X83475000Y-58234000D01*
G75*
G02*
X83424000Y-58285000I-51000J0D01*
G01*
X81424000Y-58285000D01*
G75*
G02*
X81373000Y-58234000I0J51000D01*
G01*
G37*
G36*
G01*
X81373000Y-56234000D02*
X81373000Y-54734000D01*
G75*
G02*
X81424000Y-54683000I51000J0D01*
G01*
X83424000Y-54683000D01*
G75*
G02*
X83475000Y-54734000I0J-51000D01*
G01*
X83475000Y-56234000D01*
G75*
G02*
X83424000Y-56285000I-51000J0D01*
G01*
X81424000Y-56285000D01*
G75*
G02*
X81373000Y-56234000I0J51000D01*
G01*
G37*
G36*
G01*
X79003000Y-58347000D02*
X78477000Y-58347000D01*
G75*
G02*
X78214000Y-58084000I0J263000D01*
G01*
X78214000Y-57458000D01*
G75*
G02*
X78477000Y-57195000I263000J0D01*
G01*
X79003000Y-57195000D01*
G75*
G02*
X79266000Y-57458000I0J-263000D01*
G01*
X79266000Y-58084000D01*
G75*
G02*
X79003000Y-58347000I-263000J0D01*
G01*
G37*
G36*
G01*
X79003000Y-56597000D02*
X78477000Y-56597000D01*
G75*
G02*
X78214000Y-56334000I0J263000D01*
G01*
X78214000Y-55708000D01*
G75*
G02*
X78477000Y-55445000I263000J0D01*
G01*
X79003000Y-55445000D01*
G75*
G02*
X79266000Y-55708000I0J-263000D01*
G01*
X79266000Y-56334000D01*
G75*
G02*
X79003000Y-56597000I-263000J0D01*
G01*
G37*
G36*
G01*
X80149000Y-116498000D02*
X80149000Y-118198000D01*
G75*
G02*
X80098000Y-118249000I-51000J0D01*
G01*
X78398000Y-118249000D01*
G75*
G02*
X78347000Y-118198000I0J51000D01*
G01*
X78347000Y-116498000D01*
G75*
G02*
X78398000Y-116447000I51000J0D01*
G01*
X80098000Y-116447000D01*
G75*
G02*
X80149000Y-116498000I0J-51000D01*
G01*
G37*
D10*
X79248000Y-114808000D03*
X79248000Y-112268000D03*
X79248000Y-109728000D03*
X79248000Y-107188000D03*
X79248000Y-104648000D03*
X79248000Y-102108000D03*
X79248000Y-99568000D03*
X79248000Y-97028000D03*
X79248000Y-94488000D03*
G36*
G01*
X111137000Y-125134000D02*
X111137000Y-126834000D01*
G75*
G02*
X111086000Y-126885000I-51000J0D01*
G01*
X109386000Y-126885000D01*
G75*
G02*
X109335000Y-126834000I0J51000D01*
G01*
X109335000Y-125134000D01*
G75*
G02*
X109386000Y-125083000I51000J0D01*
G01*
X111086000Y-125083000D01*
G75*
G02*
X111137000Y-125134000I0J-51000D01*
G01*
G37*
X110236000Y-123444000D03*
X110236000Y-120904000D03*
X110236000Y-118364000D03*
X110236000Y-115824000D03*
X110236000Y-113284000D03*
X110236000Y-110744000D03*
X110236000Y-108204000D03*
X110236000Y-105664000D03*
X110236000Y-103124000D03*
X110236000Y-100584000D03*
X110236000Y-98044000D03*
G36*
G01*
X78347000Y-129374000D02*
X78347000Y-127674000D01*
G75*
G02*
X78398000Y-127623000I51000J0D01*
G01*
X80098000Y-127623000D01*
G75*
G02*
X80149000Y-127674000I0J-51000D01*
G01*
X80149000Y-129374000D01*
G75*
G02*
X80098000Y-129425000I-51000J0D01*
G01*
X78398000Y-129425000D01*
G75*
G02*
X78347000Y-129374000I0J51000D01*
G01*
G37*
X79248000Y-131064000D03*
X79248000Y-133604000D03*
D11*
X82042000Y-88265000D03*
X82042000Y-90805000D03*
X82042000Y-93345000D03*
X82042000Y-95885000D03*
X82042000Y-98425000D03*
X82042000Y-100965000D03*
X82042000Y-103505000D03*
X82042000Y-106045000D03*
X82042000Y-108585000D03*
X82042000Y-111125000D03*
X82042000Y-113665000D03*
X82042000Y-116205000D03*
X82042000Y-118745000D03*
X82042000Y-121285000D03*
X82042000Y-123825000D03*
X82042000Y-126365000D03*
X82042000Y-128905000D03*
X82042000Y-131445000D03*
X107442000Y-133985000D03*
X107442000Y-131445000D03*
X107442000Y-128905000D03*
X107442000Y-126365000D03*
X107442000Y-123825000D03*
X107442000Y-121285000D03*
X107442000Y-118745000D03*
X107442000Y-116205000D03*
X107442000Y-113665000D03*
X107442000Y-111125000D03*
X107442000Y-108585000D03*
X107442000Y-106045000D03*
X107442000Y-103505000D03*
X107442000Y-100965000D03*
X107442000Y-98425000D03*
X107442000Y-95885000D03*
X107442000Y-93345000D03*
X107442000Y-90805000D03*
X82042000Y-133985000D03*
X107442000Y-88265000D03*
D12*
G36*
X102208732Y-133310000D02*
G01*
X102209000Y-133311000D01*
X102209000Y-134913000D01*
X102208000Y-134914732D01*
X102207000Y-134915000D01*
X102009000Y-134915000D01*
X102007268Y-134914000D01*
X102007000Y-134913000D01*
X102007000Y-133311000D01*
X102008000Y-133309268D01*
X102009000Y-133309000D01*
X102207000Y-133309000D01*
X102208732Y-133310000D01*
G37*
G36*
X86094732Y-130262000D02*
G01*
X86095000Y-130263000D01*
X86095000Y-131865000D01*
X86094000Y-131866732D01*
X86093000Y-131867000D01*
X85895000Y-131867000D01*
X85893268Y-131866000D01*
X85893000Y-131865000D01*
X85893000Y-130263000D01*
X85894000Y-130261268D01*
X85895000Y-130261000D01*
X86093000Y-130261000D01*
X86094732Y-130262000D01*
G37*
G36*
X85952732Y-120102000D02*
G01*
X85953000Y-120103000D01*
X85953000Y-121705000D01*
X85952000Y-121706732D01*
X85951000Y-121707000D01*
X85753000Y-121707000D01*
X85751268Y-121706000D01*
X85751000Y-121705000D01*
X85751000Y-120103000D01*
X85752000Y-120101268D01*
X85753000Y-120101000D01*
X85951000Y-120101000D01*
X85952732Y-120102000D01*
G37*
G36*
X101386732Y-111548000D02*
G01*
X101387000Y-111549000D01*
X101387000Y-111747000D01*
X101386000Y-111748732D01*
X101385000Y-111749000D01*
X99783000Y-111749000D01*
X99781268Y-111748000D01*
X99781000Y-111747000D01*
X99781000Y-111549000D01*
X99782000Y-111547268D01*
X99783000Y-111547000D01*
X101385000Y-111547000D01*
X101386732Y-111548000D01*
G37*
G36*
X101386732Y-110248000D02*
G01*
X101387000Y-110249000D01*
X101387000Y-110447000D01*
X101386000Y-110448732D01*
X101385000Y-110449000D01*
X99783000Y-110449000D01*
X99781268Y-110448000D01*
X99781000Y-110447000D01*
X99781000Y-110249000D01*
X99782000Y-110247268D01*
X99783000Y-110247000D01*
X101385000Y-110247000D01*
X101386732Y-110248000D01*
G37*
G36*
X101386732Y-106468000D02*
G01*
X101387000Y-106469000D01*
X101387000Y-106667000D01*
X101386000Y-106668732D01*
X101385000Y-106669000D01*
X99783000Y-106669000D01*
X99781268Y-106668000D01*
X99781000Y-106667000D01*
X99781000Y-106469000D01*
X99782000Y-106467268D01*
X99783000Y-106467000D01*
X101385000Y-106467000D01*
X101386732Y-106468000D01*
G37*
G36*
X101386732Y-105168000D02*
G01*
X101387000Y-105169000D01*
X101387000Y-105367000D01*
X101386000Y-105368732D01*
X101385000Y-105369000D01*
X99783000Y-105369000D01*
X99781268Y-105368000D01*
X99781000Y-105367000D01*
X99781000Y-105169000D01*
X99782000Y-105167268D01*
X99783000Y-105167000D01*
X101385000Y-105167000D01*
X101386732Y-105168000D01*
G37*
G36*
X101386732Y-101642000D02*
G01*
X101387000Y-101643000D01*
X101387000Y-101841000D01*
X101386000Y-101842732D01*
X101385000Y-101843000D01*
X99783000Y-101843000D01*
X99781268Y-101842000D01*
X99781000Y-101841000D01*
X99781000Y-101643000D01*
X99782000Y-101641268D01*
X99783000Y-101641000D01*
X101385000Y-101641000D01*
X101386732Y-101642000D01*
G37*
G36*
X101386732Y-100342000D02*
G01*
X101387000Y-100343000D01*
X101387000Y-100541000D01*
X101386000Y-100542732D01*
X101385000Y-100543000D01*
X99783000Y-100543000D01*
X99781268Y-100542000D01*
X99781000Y-100541000D01*
X99781000Y-100343000D01*
X99782000Y-100341268D01*
X99783000Y-100341000D01*
X101385000Y-100341000D01*
X101386732Y-100342000D01*
G37*
G36*
X101386732Y-96928000D02*
G01*
X101387000Y-96929000D01*
X101387000Y-97127000D01*
X101386000Y-97128732D01*
X101385000Y-97129000D01*
X99783000Y-97129000D01*
X99781268Y-97128000D01*
X99781000Y-97127000D01*
X99781000Y-96929000D01*
X99782000Y-96927268D01*
X99783000Y-96927000D01*
X101385000Y-96927000D01*
X101386732Y-96928000D01*
G37*
G36*
X86654732Y-87276000D02*
G01*
X86655000Y-87277000D01*
X86655000Y-87475000D01*
X86654000Y-87476732D01*
X86653000Y-87477000D01*
X85051000Y-87477000D01*
X85049268Y-87476000D01*
X85049000Y-87475000D01*
X85049000Y-87277000D01*
X85050000Y-87275268D01*
X85051000Y-87275000D01*
X86653000Y-87275000D01*
X86654732Y-87276000D01*
G37*
M02*
