G04 #@! TF.GenerationSoftware,KiCad,Pcbnew,5.1.9+dfsg1-1+deb11u1*
G04 #@! TF.CreationDate,2023-03-18T22:01:19+02:00*
G04 #@! TF.ProjectId,lora_tracker_wide,6c6f7261-5f74-4726-9163-6b65725f7769,rev?*
G04 #@! TF.SameCoordinates,Original*
G04 #@! TF.FileFunction,Copper,L1,Top*
G04 #@! TF.FilePolarity,Positive*
%FSLAX46Y46*%
G04 Gerber Fmt 4.6, Leading zero omitted, Abs format (unit mm)*
G04 Created by KiCad (PCBNEW 5.1.9+dfsg1-1+deb11u1) date 2023-03-18 22:01:19*
%MOMM*%
%LPD*%
G01*
G04 APERTURE LIST*
G04 #@! TA.AperFunction,SMDPad,CuDef*
%ADD10R,1.700000X2.500000*%
G04 #@! TD*
G04 #@! TA.AperFunction,SMDPad,CuDef*
%ADD11R,1.500000X1.000000*%
G04 #@! TD*
G04 #@! TA.AperFunction,SMDPad,CuDef*
%ADD12R,1.000000X1.500000*%
G04 #@! TD*
G04 #@! TA.AperFunction,SMDPad,CuDef*
%ADD13R,1.350000X4.200000*%
G04 #@! TD*
G04 #@! TA.AperFunction,SMDPad,CuDef*
%ADD14R,1.270000X3.600000*%
G04 #@! TD*
G04 #@! TA.AperFunction,SMDPad,CuDef*
%ADD15R,1.600000X2.200000*%
G04 #@! TD*
G04 #@! TA.AperFunction,SMDPad,CuDef*
%ADD16R,2.000000X1.500000*%
G04 #@! TD*
G04 #@! TA.AperFunction,ComponentPad*
%ADD17R,1.700000X1.700000*%
G04 #@! TD*
G04 #@! TA.AperFunction,ComponentPad*
%ADD18O,1.700000X1.700000*%
G04 #@! TD*
G04 #@! TA.AperFunction,ComponentPad*
%ADD19C,1.524000*%
G04 #@! TD*
G04 #@! TA.AperFunction,ViaPad*
%ADD20C,0.800000*%
G04 #@! TD*
G04 #@! TA.AperFunction,Conductor*
%ADD21C,0.500000*%
G04 #@! TD*
G04 #@! TA.AperFunction,Conductor*
%ADD22C,0.250000*%
G04 #@! TD*
G04 #@! TA.AperFunction,Conductor*
%ADD23C,1.000000*%
G04 #@! TD*
G04 #@! TA.AperFunction,Conductor*
%ADD24C,0.254000*%
G04 #@! TD*
G04 #@! TA.AperFunction,Conductor*
%ADD25C,0.150000*%
G04 #@! TD*
G04 APERTURE END LIST*
D10*
X79868501Y-74700000D03*
X82408501Y-74700000D03*
X84948501Y-74700000D03*
X92548501Y-74700000D03*
X95088501Y-74700000D03*
X97628501Y-74700000D03*
X100168501Y-74700000D03*
X102708501Y-74700000D03*
X105248501Y-74700000D03*
X107788501Y-74700000D03*
X110328501Y-74700000D03*
X110328501Y-50700000D03*
X107788501Y-50700000D03*
X105248501Y-50700000D03*
X102708501Y-50700000D03*
X100168501Y-50700000D03*
X97628501Y-50700000D03*
X95088501Y-50700000D03*
X92548501Y-50700000D03*
X84948501Y-50700000D03*
X82408501Y-50700000D03*
X79868501Y-50700000D03*
D11*
X100584000Y-99792000D03*
X100584000Y-101092000D03*
X100584000Y-102392000D03*
X100584000Y-107218000D03*
X100584000Y-105918000D03*
X100584000Y-104618000D03*
X100584000Y-109698000D03*
X100584000Y-110998000D03*
X100584000Y-112298000D03*
D12*
X85202000Y-120904000D03*
X86502000Y-120904000D03*
X86644000Y-131064000D03*
X85344000Y-131064000D03*
D11*
X100584000Y-96378000D03*
X100584000Y-97678000D03*
D13*
X85121000Y-45720000D03*
X79471000Y-45720000D03*
D14*
X82296000Y-45520000D03*
D15*
X103632000Y-80288000D03*
X103632000Y-83288000D03*
G04 #@! TA.AperFunction,SMDPad,CuDef*
G36*
G01*
X107458500Y-77848000D02*
X107933500Y-77848000D01*
G75*
G02*
X108171000Y-78085500I0J-237500D01*
G01*
X108171000Y-78660500D01*
G75*
G02*
X107933500Y-78898000I-237500J0D01*
G01*
X107458500Y-78898000D01*
G75*
G02*
X107221000Y-78660500I0J237500D01*
G01*
X107221000Y-78085500D01*
G75*
G02*
X107458500Y-77848000I237500J0D01*
G01*
G37*
G04 #@! TD.AperFunction*
G04 #@! TA.AperFunction,SMDPad,CuDef*
G36*
G01*
X107458500Y-79598000D02*
X107933500Y-79598000D01*
G75*
G02*
X108171000Y-79835500I0J-237500D01*
G01*
X108171000Y-80410500D01*
G75*
G02*
X107933500Y-80648000I-237500J0D01*
G01*
X107458500Y-80648000D01*
G75*
G02*
X107221000Y-80410500I0J237500D01*
G01*
X107221000Y-79835500D01*
G75*
G02*
X107458500Y-79598000I237500J0D01*
G01*
G37*
G04 #@! TD.AperFunction*
D11*
X85852000Y-86726000D03*
X85852000Y-88026000D03*
D12*
X101458000Y-134112000D03*
X102758000Y-134112000D03*
D16*
X98424000Y-55484000D03*
X98424000Y-57484000D03*
X98424000Y-59484000D03*
X98424000Y-61484000D03*
X98424000Y-63484000D03*
X98424000Y-65484000D03*
X98424000Y-67484000D03*
X98424000Y-69484000D03*
X82424000Y-69484000D03*
X82424000Y-67484000D03*
X82424000Y-65484000D03*
X82424000Y-63484000D03*
X82424000Y-61484000D03*
X82424000Y-59484000D03*
X82424000Y-57484000D03*
X82424000Y-55484000D03*
G04 #@! TA.AperFunction,SMDPad,CuDef*
G36*
G01*
X78977500Y-58296000D02*
X78502500Y-58296000D01*
G75*
G02*
X78265000Y-58058500I0J237500D01*
G01*
X78265000Y-57483500D01*
G75*
G02*
X78502500Y-57246000I237500J0D01*
G01*
X78977500Y-57246000D01*
G75*
G02*
X79215000Y-57483500I0J-237500D01*
G01*
X79215000Y-58058500D01*
G75*
G02*
X78977500Y-58296000I-237500J0D01*
G01*
G37*
G04 #@! TD.AperFunction*
G04 #@! TA.AperFunction,SMDPad,CuDef*
G36*
G01*
X78977500Y-56546000D02*
X78502500Y-56546000D01*
G75*
G02*
X78265000Y-56308500I0J237500D01*
G01*
X78265000Y-55733500D01*
G75*
G02*
X78502500Y-55496000I237500J0D01*
G01*
X78977500Y-55496000D01*
G75*
G02*
X79215000Y-55733500I0J-237500D01*
G01*
X79215000Y-56308500D01*
G75*
G02*
X78977500Y-56546000I-237500J0D01*
G01*
G37*
G04 #@! TD.AperFunction*
D17*
X79248000Y-117348000D03*
D18*
X79248000Y-114808000D03*
X79248000Y-112268000D03*
X79248000Y-109728000D03*
X79248000Y-107188000D03*
X79248000Y-104648000D03*
X79248000Y-102108000D03*
X79248000Y-99568000D03*
X79248000Y-97028000D03*
X79248000Y-94488000D03*
D17*
X110236000Y-125984000D03*
D18*
X110236000Y-123444000D03*
X110236000Y-120904000D03*
X110236000Y-118364000D03*
X110236000Y-115824000D03*
X110236000Y-113284000D03*
X110236000Y-110744000D03*
X110236000Y-108204000D03*
X110236000Y-105664000D03*
X110236000Y-103124000D03*
X110236000Y-100584000D03*
X110236000Y-98044000D03*
D17*
X79248000Y-128524000D03*
D18*
X79248000Y-131064000D03*
X79248000Y-133604000D03*
D19*
X82042000Y-88265000D03*
X82042000Y-90805000D03*
X82042000Y-93345000D03*
X82042000Y-95885000D03*
X82042000Y-98425000D03*
X82042000Y-100965000D03*
X82042000Y-103505000D03*
X82042000Y-106045000D03*
X82042000Y-108585000D03*
X82042000Y-111125000D03*
X82042000Y-113665000D03*
X82042000Y-116205000D03*
X82042000Y-118745000D03*
X82042000Y-121285000D03*
X82042000Y-123825000D03*
X82042000Y-126365000D03*
X82042000Y-128905000D03*
X82042000Y-131445000D03*
X107442000Y-133985000D03*
X107442000Y-131445000D03*
X107442000Y-128905000D03*
X107442000Y-126365000D03*
X107442000Y-123825000D03*
X107442000Y-121285000D03*
X107442000Y-118745000D03*
X107442000Y-116205000D03*
X107442000Y-113665000D03*
X107442000Y-111125000D03*
X107442000Y-108585000D03*
X107442000Y-106045000D03*
X107442000Y-103505000D03*
X107442000Y-100965000D03*
X107442000Y-98425000D03*
X107442000Y-95885000D03*
X107442000Y-93345000D03*
X107442000Y-90805000D03*
X82042000Y-133985000D03*
X107442000Y-88265000D03*
D20*
X77216000Y-44704000D03*
X77216000Y-46736000D03*
X77216000Y-48768000D03*
X77216000Y-50800000D03*
X77216000Y-52832000D03*
X79248000Y-53848000D03*
X87884000Y-44704000D03*
X87884000Y-46736000D03*
X87376000Y-48768000D03*
X87376000Y-50800000D03*
X89916000Y-44704000D03*
X91948000Y-44704000D03*
X93980000Y-44704000D03*
X96012000Y-44704000D03*
X98044000Y-44704000D03*
X100076000Y-44704000D03*
X102108000Y-44704000D03*
X104140000Y-44704000D03*
X106172000Y-44704000D03*
X108204000Y-44704000D03*
X110236000Y-44704000D03*
X112268000Y-44704000D03*
X75184000Y-44704000D03*
X75184000Y-46736000D03*
X75184000Y-48768000D03*
X75184000Y-50800000D03*
X75184000Y-52832000D03*
X75184000Y-54864000D03*
X75184000Y-56896000D03*
X75184000Y-58928000D03*
X75184000Y-60960000D03*
X75184000Y-62992000D03*
X75184000Y-65024000D03*
X75184000Y-67056000D03*
X75184000Y-69088000D03*
X75184000Y-71120000D03*
X75184000Y-73152000D03*
X112268000Y-46736000D03*
X112268000Y-48768000D03*
X112268000Y-50800000D03*
X112268000Y-52832000D03*
X112268000Y-54864000D03*
X112268000Y-56896000D03*
X112268000Y-58928000D03*
X112268000Y-60960000D03*
X112268000Y-62992000D03*
X112268000Y-65024000D03*
X112268000Y-67056000D03*
X112268000Y-69088000D03*
X112268000Y-71120000D03*
X112268000Y-73152000D03*
X112268000Y-75184000D03*
X112268000Y-77216000D03*
X75184000Y-75184000D03*
X84836000Y-53848000D03*
X75184000Y-77216000D03*
X75184000Y-79248000D03*
X75184000Y-81280000D03*
X75184000Y-83312000D03*
X75184000Y-85344000D03*
X75184000Y-87376000D03*
X75184000Y-89408000D03*
X75184000Y-91440000D03*
X75184000Y-93472000D03*
X75184000Y-95504000D03*
X75184000Y-97536000D03*
X75184000Y-99568000D03*
X75184000Y-101600000D03*
X75184000Y-103632000D03*
X75184000Y-105664000D03*
X75184000Y-107696000D03*
X75184000Y-109728000D03*
X75184000Y-111760000D03*
X75184000Y-113792000D03*
X75184000Y-115824000D03*
X75184000Y-117856000D03*
X75184000Y-119888000D03*
X75184000Y-121920000D03*
X75184000Y-123952000D03*
X75184000Y-125984000D03*
X75184000Y-128016000D03*
X75184000Y-130048000D03*
X75184000Y-132080000D03*
X75184000Y-134112000D03*
X75184000Y-136144000D03*
X112268000Y-79248000D03*
X112268000Y-81280000D03*
X112268000Y-83312000D03*
X112268000Y-85344000D03*
X112268000Y-87376000D03*
X112268000Y-89408000D03*
X112268000Y-91440000D03*
X112268000Y-93472000D03*
X112268000Y-95504000D03*
X112268000Y-97536000D03*
X112268000Y-99568000D03*
X112268000Y-101600000D03*
X112268000Y-103632000D03*
X112268000Y-105664000D03*
X112268000Y-107696000D03*
X112268000Y-109728000D03*
X112268000Y-111760000D03*
X112268000Y-113792000D03*
X112268000Y-115824000D03*
X112268000Y-117856000D03*
X112268000Y-119888000D03*
X112268000Y-121920000D03*
X112268000Y-123952000D03*
X112268000Y-125984000D03*
X112268000Y-128016000D03*
X112268000Y-130048000D03*
X112268000Y-132080000D03*
X112268000Y-134112000D03*
X112268000Y-136144000D03*
X110744000Y-137160000D03*
X108712000Y-137160000D03*
X106680000Y-137160000D03*
X104648000Y-137160000D03*
X102616000Y-137160000D03*
X100584000Y-137160000D03*
X98552000Y-137160000D03*
X96520000Y-137160000D03*
X94488000Y-137160000D03*
X92456000Y-137160000D03*
X90424000Y-137160000D03*
X88392000Y-137160000D03*
X86360000Y-137160000D03*
X84328000Y-137160000D03*
X82296000Y-137160000D03*
X80264000Y-137160000D03*
X78232000Y-137160000D03*
X76200000Y-137160000D03*
X108204000Y-71120000D03*
X104140000Y-71120000D03*
X104140000Y-63500000D03*
X94488000Y-66040000D03*
X86868000Y-56388000D03*
X86868000Y-59436000D03*
X87884000Y-63500000D03*
X85344000Y-69088000D03*
X105156000Y-56388000D03*
X105156000Y-59944000D03*
X78740000Y-79248000D03*
X82804000Y-79248000D03*
X86360000Y-79248000D03*
X92964000Y-79248000D03*
X96012000Y-79248000D03*
X99060000Y-79248000D03*
X109728000Y-79248000D03*
X99060000Y-82804000D03*
X99060000Y-86360000D03*
X102616000Y-86360000D03*
X106172000Y-85344000D03*
X107696000Y-83312000D03*
X109728000Y-83312000D03*
X109728000Y-81280000D03*
X109728000Y-77216000D03*
X96520000Y-116840000D03*
X101600000Y-116840000D03*
X101600000Y-121920000D03*
X96520000Y-121920000D03*
X96520000Y-127000000D03*
X101600000Y-127000000D03*
X91948000Y-127000000D03*
X91440000Y-121920000D03*
X91440000Y-116840000D03*
X91440000Y-111252000D03*
X91440000Y-106172000D03*
X86868000Y-116840000D03*
X86360000Y-127000000D03*
X91440000Y-132080000D03*
X96520000Y-132080000D03*
X101600000Y-132080000D03*
X96520000Y-111252000D03*
X86360000Y-106680000D03*
X86360000Y-101600000D03*
X86360000Y-96520000D03*
X96520000Y-91440000D03*
X96520000Y-96520000D03*
X96520000Y-86360000D03*
X78740000Y-85344000D03*
X82804000Y-85344000D03*
X101092000Y-56388000D03*
X90895000Y-99695000D03*
X92075000Y-101600000D03*
X102616000Y-53340000D03*
X84836000Y-61468000D03*
X86863347Y-67060653D03*
X85344000Y-63500000D03*
X92710000Y-54610000D03*
X96520000Y-104140000D03*
X95250000Y-54610000D03*
X96520000Y-102616000D03*
X90424000Y-59436000D03*
X96520000Y-101092000D03*
X92964000Y-59436000D03*
X95504000Y-59944000D03*
D21*
X105248501Y-77631499D02*
X105248501Y-74700000D01*
X105248501Y-77631499D02*
X107153501Y-77631499D01*
X105248501Y-77631499D02*
X102073501Y-77631499D01*
X102073501Y-77631499D02*
X93980000Y-85725000D01*
X93980000Y-85725000D02*
X93980000Y-128270000D01*
X88265000Y-133985000D02*
X82550000Y-133985000D01*
X93980000Y-128270000D02*
X88265000Y-133985000D01*
D22*
X107246002Y-77724000D02*
X107153501Y-77631499D01*
X107788501Y-77631499D02*
X107696000Y-77724000D01*
D21*
X107788501Y-74700000D02*
X107788501Y-77631499D01*
X107696000Y-78928000D02*
X107696000Y-77631499D01*
X107153501Y-77631499D02*
X107696000Y-77631499D01*
X107696000Y-77631499D02*
X107788501Y-77631499D01*
X103632000Y-80288000D02*
X103632000Y-77724000D01*
D22*
X79629000Y-133985000D02*
X79248000Y-133604000D01*
D21*
X82550000Y-133985000D02*
X79629000Y-133985000D01*
D22*
X97628501Y-74700000D02*
X97628501Y-75100000D01*
X97628501Y-75100000D02*
X97790000Y-75261499D01*
X97790000Y-75261499D02*
X97790000Y-75655000D01*
X97790000Y-75655000D02*
X90895000Y-82550000D01*
X90895000Y-82550000D02*
X90895000Y-99695000D01*
X100168501Y-74700000D02*
X100168501Y-75100000D01*
X100168501Y-75100000D02*
X100330000Y-75261499D01*
X100330000Y-76200000D02*
X92075000Y-84455000D01*
X100330000Y-75261499D02*
X100330000Y-76200000D01*
X92075000Y-84455000D02*
X92075000Y-101600000D01*
X89269980Y-71385020D02*
X89269980Y-106945020D01*
X89269980Y-106945020D02*
X82550000Y-113665000D01*
X89269980Y-71385020D02*
X80529020Y-71385020D01*
X80529020Y-71385020D02*
X79248000Y-70104000D01*
X79248000Y-70104000D02*
X79248000Y-62992000D01*
X80756000Y-61484000D02*
X82424000Y-61484000D01*
X79248000Y-62992000D02*
X80756000Y-61484000D01*
X102708501Y-50700000D02*
X102708501Y-51100000D01*
X102708501Y-50700000D02*
X102708501Y-53247499D01*
X102708501Y-53247499D02*
X102616000Y-53340000D01*
X82440000Y-61468000D02*
X82424000Y-61484000D01*
X84836000Y-61468000D02*
X82440000Y-61468000D01*
X89719990Y-109035010D02*
X82550000Y-116205000D01*
X89719990Y-72205010D02*
X89719990Y-109035010D01*
X105248501Y-47844501D02*
X105248501Y-50700000D01*
X90932000Y-47752000D02*
X105156000Y-47752000D01*
X82674000Y-63484000D02*
X82690000Y-63500000D01*
X105156000Y-47752000D02*
X105248501Y-47844501D01*
X82424000Y-63484000D02*
X82674000Y-63484000D01*
X82690000Y-63500000D02*
X85344000Y-63500000D01*
X88392000Y-50292000D02*
X90932000Y-47752000D01*
X85344000Y-63500000D02*
X88392000Y-60452000D01*
X88392000Y-60452000D02*
X88392000Y-50292000D01*
X89719990Y-72205010D02*
X89719990Y-69917296D01*
X89719990Y-69917296D02*
X86863347Y-67060653D01*
X82722000Y-65532000D02*
X82674000Y-65484000D01*
X86360000Y-65532000D02*
X82722000Y-65532000D01*
X90170000Y-69342000D02*
X86360000Y-65532000D01*
X82550000Y-118745000D02*
X90170000Y-111125000D01*
X82674000Y-65484000D02*
X82424000Y-65484000D01*
X90170000Y-111125000D02*
X90170000Y-69342000D01*
X90170000Y-69342000D02*
X94742000Y-69342000D01*
X94742000Y-69342000D02*
X97536000Y-72136000D01*
X97536000Y-72136000D02*
X100584000Y-72136000D01*
X107788501Y-64931499D02*
X107788501Y-50700000D01*
X100584000Y-72136000D02*
X107788501Y-64931499D01*
X92710000Y-50861499D02*
X92548501Y-50700000D01*
X92710000Y-54610000D02*
X92710000Y-50861499D01*
X95584000Y-57484000D02*
X92710000Y-54610000D01*
X98424000Y-57484000D02*
X95584000Y-57484000D01*
X98806000Y-110998000D02*
X100584000Y-110998000D01*
X96520000Y-108712000D02*
X98806000Y-110998000D01*
X96520000Y-104140000D02*
X96520000Y-108712000D01*
X95250000Y-50861499D02*
X95088501Y-50700000D01*
X95250000Y-54610000D02*
X95250000Y-50861499D01*
X96520000Y-102616000D02*
X98044000Y-104140000D01*
X98044000Y-104140000D02*
X98044000Y-105664000D01*
X90424000Y-59436000D02*
X91440000Y-59436000D01*
X95488000Y-63484000D02*
X98424000Y-63484000D01*
X91440000Y-59436000D02*
X95488000Y-63484000D01*
X100330000Y-105664000D02*
X100584000Y-105918000D01*
X98044000Y-105664000D02*
X100330000Y-105664000D01*
X100330000Y-50861499D02*
X100168501Y-50700000D01*
X96520000Y-101092000D02*
X100584000Y-101092000D01*
X100168501Y-52200000D02*
X103124000Y-55155499D01*
X100168501Y-50700000D02*
X100168501Y-52200000D01*
X103124000Y-55155499D02*
X103124000Y-59944000D01*
X101584000Y-61484000D02*
X98424000Y-61484000D01*
X103124000Y-59944000D02*
X101584000Y-61484000D01*
X95012000Y-61484000D02*
X98424000Y-61484000D01*
X92964000Y-59436000D02*
X95012000Y-61484000D01*
X97790000Y-50861499D02*
X97628501Y-50700000D01*
X95504000Y-59944000D02*
X96012000Y-59436000D01*
X96060000Y-59484000D02*
X98424000Y-59484000D01*
X96012000Y-59436000D02*
X96060000Y-59484000D01*
X97628501Y-52739499D02*
X97628501Y-50700000D01*
X99674000Y-59484000D02*
X100230000Y-58928000D01*
X98424000Y-59484000D02*
X99674000Y-59484000D01*
X100076000Y-52832000D02*
X97536000Y-52832000D01*
X102616000Y-55372000D02*
X100076000Y-52832000D01*
X97536000Y-52832000D02*
X97628501Y-52739499D01*
X100230000Y-58928000D02*
X102108000Y-58928000D01*
X102108000Y-58928000D02*
X102616000Y-58420000D01*
X102616000Y-58420000D02*
X102616000Y-55372000D01*
X82296000Y-50587499D02*
X82408501Y-50700000D01*
D23*
X82296000Y-45520000D02*
X82296000Y-50587499D01*
D22*
X82555001Y-50846500D02*
X82408501Y-50700000D01*
X82424000Y-50715499D02*
X82408501Y-50700000D01*
D23*
X82424000Y-55484000D02*
X82424000Y-50715499D01*
D22*
X101697000Y-99792000D02*
X105410000Y-103505000D01*
X100584000Y-99792000D02*
X101697000Y-99792000D01*
X100584000Y-97678000D02*
X100584000Y-99792000D01*
X107440590Y-103505000D02*
X107568295Y-103632705D01*
X105410000Y-103505000D02*
X107440590Y-103505000D01*
X100584000Y-102392000D02*
X100584000Y-104618000D01*
X104521000Y-106045000D02*
X103094000Y-104618000D01*
X103094000Y-104618000D02*
X100584000Y-104618000D01*
X107696000Y-106045000D02*
X104521000Y-106045000D01*
X100584000Y-107218000D02*
X100584000Y-109698000D01*
X103408000Y-109698000D02*
X100584000Y-109698000D01*
X104521000Y-108585000D02*
X103408000Y-109698000D01*
X107696000Y-108585000D02*
X104521000Y-108585000D01*
X103348000Y-112298000D02*
X100584000Y-112298000D01*
X104521000Y-111125000D02*
X103348000Y-112298000D01*
X107696000Y-111125000D02*
X104521000Y-111125000D01*
X84821000Y-121285000D02*
X85202000Y-120904000D01*
D21*
X82550000Y-121285000D02*
X84821000Y-121285000D01*
D22*
X84963000Y-131445000D02*
X85344000Y-131064000D01*
D21*
X82550000Y-131445000D02*
X84963000Y-131445000D01*
X90932000Y-134112000D02*
X88900000Y-136144000D01*
X101458000Y-134112000D02*
X90932000Y-134112000D01*
X88900000Y-136144000D02*
X81280000Y-136144000D01*
X85852000Y-86726000D02*
X85852000Y-84328000D01*
X85852000Y-84328000D02*
X82804000Y-81280000D01*
X82804000Y-81280000D02*
X81788000Y-80264000D01*
X81280000Y-136144000D02*
X80264000Y-136144000D01*
X78692000Y-59484000D02*
X82424000Y-59484000D01*
X77724000Y-60452000D02*
X78692000Y-59484000D01*
X81788000Y-80264000D02*
X77724000Y-76200000D01*
X78740000Y-59436000D02*
X78740000Y-57771000D01*
D22*
X78692000Y-59484000D02*
X78740000Y-59436000D01*
D21*
X80264000Y-136144000D02*
X78232000Y-136144000D01*
X78232000Y-136144000D02*
X76708000Y-134620000D01*
X76708000Y-77216000D02*
X77724000Y-76200000D01*
X77724000Y-76200000D02*
X77724000Y-60452000D01*
X79248000Y-131064000D02*
X76708000Y-131064000D01*
X76708000Y-134620000D02*
X76708000Y-131064000D01*
X76708000Y-131064000D02*
X76708000Y-77216000D01*
D22*
X85613000Y-88265000D02*
X85852000Y-88026000D01*
X82550000Y-88265000D02*
X85613000Y-88265000D01*
X105283000Y-134112000D02*
X105410000Y-133985000D01*
X102758000Y-134112000D02*
X105283000Y-134112000D01*
X107696000Y-133985000D02*
X105410000Y-133985000D01*
X79248000Y-125603000D02*
X79248000Y-117348000D01*
X82550000Y-128905000D02*
X79248000Y-125603000D01*
X80423001Y-119728999D02*
X79756000Y-120396000D01*
X79248000Y-114808000D02*
X80423001Y-115983001D01*
X80423001Y-115983001D02*
X80423001Y-119728999D01*
X82550000Y-126365000D02*
X79756000Y-123571000D01*
X79756000Y-123571000D02*
X79756000Y-120396000D01*
X80873011Y-113893011D02*
X80873011Y-122834989D01*
X79248000Y-112268000D02*
X80873011Y-113893011D01*
X80873011Y-122834989D02*
X81788000Y-123749978D01*
X82474978Y-123749978D02*
X82550000Y-123825000D01*
X81788000Y-123749978D02*
X82474978Y-123749978D01*
X79248000Y-109728000D02*
X81280000Y-109728000D01*
X81280000Y-109855000D02*
X82550000Y-111125000D01*
X81280000Y-109728000D02*
X81280000Y-109855000D01*
X81153000Y-107188000D02*
X82550000Y-108585000D01*
X79248000Y-107188000D02*
X81153000Y-107188000D01*
X79248000Y-104648000D02*
X80772000Y-103124000D01*
X80772000Y-103124000D02*
X80772000Y-101600000D01*
X81407000Y-100965000D02*
X82550000Y-100965000D01*
X80772000Y-101600000D02*
X81407000Y-100965000D01*
X79248000Y-102108000D02*
X80772000Y-100584000D01*
X80772000Y-100584000D02*
X80772000Y-99060000D01*
X81407000Y-98425000D02*
X82550000Y-98425000D01*
X80772000Y-99060000D02*
X81407000Y-98425000D01*
X81407000Y-95885000D02*
X82550000Y-95885000D01*
X80772000Y-96520000D02*
X81407000Y-95885000D01*
X79248000Y-99568000D02*
X80772000Y-98044000D01*
X80772000Y-98044000D02*
X80772000Y-96520000D01*
X81407000Y-93345000D02*
X82550000Y-93345000D01*
X80772000Y-93980000D02*
X81407000Y-93345000D01*
X79248000Y-97028000D02*
X80772000Y-95504000D01*
X80772000Y-95504000D02*
X80772000Y-93980000D01*
X80391000Y-90805000D02*
X82550000Y-90805000D01*
X79248000Y-94488000D02*
X79248000Y-91948000D01*
X79248000Y-91948000D02*
X80391000Y-90805000D01*
X110236000Y-125984000D02*
X110236000Y-130048000D01*
X110236000Y-130048000D02*
X109982000Y-130048000D01*
X108585000Y-131445000D02*
X107696000Y-131445000D01*
X109982000Y-130048000D02*
X108585000Y-131445000D01*
X108204000Y-128524000D02*
X107823000Y-128905000D01*
X108783001Y-127817999D02*
X107696000Y-128905000D01*
X108783001Y-124896999D02*
X108783001Y-127817999D01*
X110236000Y-123444000D02*
X108783001Y-124896999D01*
X107696000Y-125984000D02*
X107315000Y-126365000D01*
X106807000Y-126365000D02*
X107696000Y-126365000D01*
X108767999Y-122372001D02*
X106735999Y-122372001D01*
X110236000Y-120904000D02*
X108767999Y-122372001D01*
X106735999Y-122372001D02*
X105918000Y-123190000D01*
X105918000Y-124841000D02*
X107442000Y-126365000D01*
X105918000Y-123190000D02*
X105918000Y-124841000D01*
X107188000Y-123952000D02*
X107061000Y-123825000D01*
X110236000Y-115824000D02*
X108458000Y-117602000D01*
X108458000Y-117602000D02*
X106426000Y-117602000D01*
X106426000Y-117602000D02*
X105918000Y-118110000D01*
X105918000Y-118110000D02*
X105918000Y-120650000D01*
X106553000Y-121285000D02*
X107442000Y-121285000D01*
X105918000Y-120650000D02*
X106553000Y-121285000D01*
X109060999Y-114840001D02*
X107696000Y-116205000D01*
X109060999Y-111919001D02*
X109060999Y-114840001D01*
X110236000Y-110744000D02*
X109060999Y-111919001D01*
X107696000Y-101600000D02*
X107061000Y-100965000D01*
X110236000Y-105664000D02*
X108966000Y-104394000D01*
X107696000Y-101220410D02*
X107696000Y-100965000D01*
X108966000Y-102490410D02*
X107696000Y-101220410D01*
X108966000Y-104394000D02*
X108966000Y-102490410D01*
X110236000Y-103124000D02*
X108966000Y-101854000D01*
X107696000Y-98680410D02*
X107696000Y-98425000D01*
X108966000Y-99950410D02*
X107696000Y-98680410D01*
X108966000Y-101854000D02*
X108966000Y-99950410D01*
X109060999Y-97249999D02*
X107696000Y-95885000D01*
X109060999Y-99408999D02*
X109060999Y-97249999D01*
X110236000Y-100584000D02*
X109060999Y-99408999D01*
X110236000Y-98044000D02*
X110236000Y-94488000D01*
X110236000Y-94488000D02*
X109093000Y-93345000D01*
X109093000Y-93345000D02*
X107696000Y-93345000D01*
D24*
X78161000Y-45434250D02*
X78319750Y-45593000D01*
X79344000Y-45593000D01*
X79344000Y-45573000D01*
X79598000Y-45573000D01*
X79598000Y-45593000D01*
X80622250Y-45593000D01*
X80781000Y-45434250D01*
X80783572Y-43915000D01*
X81022928Y-43915000D01*
X81022928Y-47320000D01*
X81035188Y-47444482D01*
X81071498Y-47564180D01*
X81130463Y-47674494D01*
X81161000Y-47711704D01*
X81161001Y-48954757D01*
X81138501Y-48973222D01*
X81072995Y-48919463D01*
X80962681Y-48860498D01*
X80842983Y-48824188D01*
X80718501Y-48811928D01*
X80154251Y-48815000D01*
X79995501Y-48973750D01*
X79995501Y-50573000D01*
X80015501Y-50573000D01*
X80015501Y-50827000D01*
X79995501Y-50827000D01*
X79995501Y-52426250D01*
X80154251Y-52585000D01*
X80718501Y-52588072D01*
X80842983Y-52575812D01*
X80962681Y-52539502D01*
X81072995Y-52480537D01*
X81138501Y-52426778D01*
X81204007Y-52480537D01*
X81289001Y-52525968D01*
X81289000Y-54111379D01*
X81179820Y-54144498D01*
X81069506Y-54203463D01*
X80972815Y-54282815D01*
X80893463Y-54379506D01*
X80834498Y-54489820D01*
X80798188Y-54609518D01*
X80785928Y-54734000D01*
X80785928Y-56234000D01*
X80798188Y-56358482D01*
X80834498Y-56478180D01*
X80837609Y-56484000D01*
X80834498Y-56489820D01*
X80798188Y-56609518D01*
X80785928Y-56734000D01*
X80789000Y-57198250D01*
X80947750Y-57357000D01*
X82297000Y-57357000D01*
X82297000Y-57337000D01*
X82551000Y-57337000D01*
X82551000Y-57357000D01*
X83900250Y-57357000D01*
X84059000Y-57198250D01*
X84062072Y-56734000D01*
X84049812Y-56609518D01*
X84013502Y-56489820D01*
X84010391Y-56484000D01*
X84013502Y-56478180D01*
X84049812Y-56358482D01*
X84062072Y-56234000D01*
X84062072Y-54734000D01*
X84049812Y-54609518D01*
X84013502Y-54489820D01*
X83954537Y-54379506D01*
X83875185Y-54282815D01*
X83778494Y-54203463D01*
X83668180Y-54144498D01*
X83559000Y-54111379D01*
X83559000Y-52509398D01*
X83612995Y-52480537D01*
X83678501Y-52426778D01*
X83744007Y-52480537D01*
X83854321Y-52539502D01*
X83974019Y-52575812D01*
X84098501Y-52588072D01*
X84662751Y-52585000D01*
X84821501Y-52426250D01*
X84821501Y-50827000D01*
X85075501Y-50827000D01*
X85075501Y-52426250D01*
X85234251Y-52585000D01*
X85798501Y-52588072D01*
X85922983Y-52575812D01*
X86042681Y-52539502D01*
X86152995Y-52480537D01*
X86249686Y-52401185D01*
X86329038Y-52304494D01*
X86388003Y-52194180D01*
X86424313Y-52074482D01*
X86436573Y-51950000D01*
X86433501Y-50985750D01*
X86274751Y-50827000D01*
X85075501Y-50827000D01*
X84821501Y-50827000D01*
X84801501Y-50827000D01*
X84801501Y-50573000D01*
X84821501Y-50573000D01*
X84821501Y-48973750D01*
X85075501Y-48973750D01*
X85075501Y-50573000D01*
X86274751Y-50573000D01*
X86433501Y-50414250D01*
X86436573Y-49450000D01*
X86424313Y-49325518D01*
X86388003Y-49205820D01*
X86329038Y-49095506D01*
X86249686Y-48998815D01*
X86152995Y-48919463D01*
X86042681Y-48860498D01*
X85922983Y-48824188D01*
X85798501Y-48811928D01*
X85234251Y-48815000D01*
X85075501Y-48973750D01*
X84821501Y-48973750D01*
X84662751Y-48815000D01*
X84098501Y-48811928D01*
X83974019Y-48824188D01*
X83854321Y-48860498D01*
X83744007Y-48919463D01*
X83678501Y-48973222D01*
X83612995Y-48919463D01*
X83502681Y-48860498D01*
X83431000Y-48838754D01*
X83431000Y-47820000D01*
X83807928Y-47820000D01*
X83820188Y-47944482D01*
X83856498Y-48064180D01*
X83915463Y-48174494D01*
X83994815Y-48271185D01*
X84091506Y-48350537D01*
X84201820Y-48409502D01*
X84321518Y-48445812D01*
X84446000Y-48458072D01*
X84835250Y-48455000D01*
X84994000Y-48296250D01*
X84994000Y-45847000D01*
X85248000Y-45847000D01*
X85248000Y-48296250D01*
X85406750Y-48455000D01*
X85796000Y-48458072D01*
X85920482Y-48445812D01*
X86040180Y-48409502D01*
X86150494Y-48350537D01*
X86247185Y-48271185D01*
X86326537Y-48174494D01*
X86385502Y-48064180D01*
X86421812Y-47944482D01*
X86434072Y-47820000D01*
X86431000Y-46005750D01*
X86272250Y-45847000D01*
X85248000Y-45847000D01*
X84994000Y-45847000D01*
X83969750Y-45847000D01*
X83811000Y-46005750D01*
X83807928Y-47820000D01*
X83431000Y-47820000D01*
X83431000Y-47711704D01*
X83461537Y-47674494D01*
X83520502Y-47564180D01*
X83556812Y-47444482D01*
X83569072Y-47320000D01*
X83569072Y-43915000D01*
X83808428Y-43915000D01*
X83811000Y-45434250D01*
X83969750Y-45593000D01*
X84994000Y-45593000D01*
X84994000Y-45573000D01*
X85248000Y-45573000D01*
X85248000Y-45593000D01*
X86272250Y-45593000D01*
X86431000Y-45434250D01*
X86433572Y-43915000D01*
X112955000Y-43915000D01*
X112955001Y-137720000D01*
X74370000Y-137720000D01*
X74370000Y-137351440D01*
X74384365Y-137304085D01*
X74395000Y-137196105D01*
X74395000Y-131064000D01*
X75818718Y-131064000D01*
X75823001Y-131107486D01*
X75823000Y-134576531D01*
X75818719Y-134620000D01*
X75823000Y-134663469D01*
X75823000Y-134663476D01*
X75832258Y-134757475D01*
X75835805Y-134793490D01*
X75839779Y-134806589D01*
X75886411Y-134960312D01*
X75968589Y-135114058D01*
X76079183Y-135248817D01*
X76112956Y-135276534D01*
X77575470Y-136739049D01*
X77603183Y-136772817D01*
X77636951Y-136800530D01*
X77636953Y-136800532D01*
X77708452Y-136859210D01*
X77737941Y-136883411D01*
X77891687Y-136965589D01*
X78058510Y-137016195D01*
X78188523Y-137029000D01*
X78188533Y-137029000D01*
X78231999Y-137033281D01*
X78275465Y-137029000D01*
X88856531Y-137029000D01*
X88900000Y-137033281D01*
X88943469Y-137029000D01*
X88943477Y-137029000D01*
X89073490Y-137016195D01*
X89240313Y-136965589D01*
X89394059Y-136883411D01*
X89528817Y-136772817D01*
X89556534Y-136739044D01*
X91298579Y-134997000D01*
X100335379Y-134997000D01*
X100368498Y-135106180D01*
X100427463Y-135216494D01*
X100506815Y-135313185D01*
X100603506Y-135392537D01*
X100713820Y-135451502D01*
X100833518Y-135487812D01*
X100958000Y-135500072D01*
X101958000Y-135500072D01*
X102082482Y-135487812D01*
X102108000Y-135480071D01*
X102133518Y-135487812D01*
X102258000Y-135500072D01*
X103258000Y-135500072D01*
X103382482Y-135487812D01*
X103502180Y-135451502D01*
X103612494Y-135392537D01*
X103709185Y-135313185D01*
X103788537Y-135216494D01*
X103847502Y-135106180D01*
X103883812Y-134986482D01*
X103895087Y-134872000D01*
X105245678Y-134872000D01*
X105283000Y-134875676D01*
X105320322Y-134872000D01*
X105320333Y-134872000D01*
X105431986Y-134861003D01*
X105575247Y-134817546D01*
X105707276Y-134746974D01*
X105709681Y-134745000D01*
X106269659Y-134745000D01*
X106356880Y-134875535D01*
X106551465Y-135070120D01*
X106780273Y-135223005D01*
X107034510Y-135328314D01*
X107304408Y-135382000D01*
X107579592Y-135382000D01*
X107849490Y-135328314D01*
X108103727Y-135223005D01*
X108332535Y-135070120D01*
X108527120Y-134875535D01*
X108680005Y-134646727D01*
X108785314Y-134392490D01*
X108839000Y-134122592D01*
X108839000Y-133847408D01*
X108785314Y-133577510D01*
X108680005Y-133323273D01*
X108527120Y-133094465D01*
X108332535Y-132899880D01*
X108103727Y-132746995D01*
X108026485Y-132715000D01*
X108103727Y-132683005D01*
X108332535Y-132530120D01*
X108527120Y-132335535D01*
X108613779Y-132205842D01*
X108622322Y-132205000D01*
X108622333Y-132205000D01*
X108733986Y-132194003D01*
X108877247Y-132150546D01*
X109009276Y-132079974D01*
X109125001Y-131985001D01*
X109148804Y-131955997D01*
X110299366Y-130805436D01*
X110384986Y-130797003D01*
X110528247Y-130753546D01*
X110660276Y-130682974D01*
X110776001Y-130588001D01*
X110870974Y-130472276D01*
X110941546Y-130340247D01*
X110985003Y-130196986D01*
X110996000Y-130085333D01*
X110999677Y-130048000D01*
X110996000Y-130010667D01*
X110996000Y-127472072D01*
X111086000Y-127472072D01*
X111210482Y-127459812D01*
X111330180Y-127423502D01*
X111440494Y-127364537D01*
X111537185Y-127285185D01*
X111616537Y-127188494D01*
X111675502Y-127078180D01*
X111711812Y-126958482D01*
X111724072Y-126834000D01*
X111724072Y-125134000D01*
X111711812Y-125009518D01*
X111675502Y-124889820D01*
X111616537Y-124779506D01*
X111537185Y-124682815D01*
X111440494Y-124603463D01*
X111330180Y-124544498D01*
X111257620Y-124522487D01*
X111389475Y-124390632D01*
X111551990Y-124147411D01*
X111663932Y-123877158D01*
X111721000Y-123590260D01*
X111721000Y-123297740D01*
X111663932Y-123010842D01*
X111551990Y-122740589D01*
X111389475Y-122497368D01*
X111182632Y-122290525D01*
X111008240Y-122174000D01*
X111182632Y-122057475D01*
X111389475Y-121850632D01*
X111551990Y-121607411D01*
X111663932Y-121337158D01*
X111721000Y-121050260D01*
X111721000Y-120757740D01*
X111663932Y-120470842D01*
X111551990Y-120200589D01*
X111389475Y-119957368D01*
X111182632Y-119750525D01*
X111008240Y-119634000D01*
X111182632Y-119517475D01*
X111389475Y-119310632D01*
X111551990Y-119067411D01*
X111663932Y-118797158D01*
X111721000Y-118510260D01*
X111721000Y-118217740D01*
X111663932Y-117930842D01*
X111551990Y-117660589D01*
X111389475Y-117417368D01*
X111182632Y-117210525D01*
X111008240Y-117094000D01*
X111182632Y-116977475D01*
X111389475Y-116770632D01*
X111551990Y-116527411D01*
X111663932Y-116257158D01*
X111721000Y-115970260D01*
X111721000Y-115677740D01*
X111663932Y-115390842D01*
X111551990Y-115120589D01*
X111389475Y-114877368D01*
X111182632Y-114670525D01*
X111008240Y-114554000D01*
X111182632Y-114437475D01*
X111389475Y-114230632D01*
X111551990Y-113987411D01*
X111663932Y-113717158D01*
X111721000Y-113430260D01*
X111721000Y-113137740D01*
X111663932Y-112850842D01*
X111551990Y-112580589D01*
X111389475Y-112337368D01*
X111182632Y-112130525D01*
X111008240Y-112014000D01*
X111182632Y-111897475D01*
X111389475Y-111690632D01*
X111551990Y-111447411D01*
X111663932Y-111177158D01*
X111721000Y-110890260D01*
X111721000Y-110597740D01*
X111663932Y-110310842D01*
X111551990Y-110040589D01*
X111389475Y-109797368D01*
X111182632Y-109590525D01*
X111008240Y-109474000D01*
X111182632Y-109357475D01*
X111389475Y-109150632D01*
X111551990Y-108907411D01*
X111663932Y-108637158D01*
X111721000Y-108350260D01*
X111721000Y-108057740D01*
X111663932Y-107770842D01*
X111551990Y-107500589D01*
X111389475Y-107257368D01*
X111182632Y-107050525D01*
X111008240Y-106934000D01*
X111182632Y-106817475D01*
X111389475Y-106610632D01*
X111551990Y-106367411D01*
X111663932Y-106097158D01*
X111721000Y-105810260D01*
X111721000Y-105517740D01*
X111663932Y-105230842D01*
X111551990Y-104960589D01*
X111389475Y-104717368D01*
X111182632Y-104510525D01*
X111008240Y-104394000D01*
X111182632Y-104277475D01*
X111389475Y-104070632D01*
X111551990Y-103827411D01*
X111663932Y-103557158D01*
X111721000Y-103270260D01*
X111721000Y-102977740D01*
X111663932Y-102690842D01*
X111551990Y-102420589D01*
X111389475Y-102177368D01*
X111182632Y-101970525D01*
X111008240Y-101854000D01*
X111182632Y-101737475D01*
X111389475Y-101530632D01*
X111551990Y-101287411D01*
X111663932Y-101017158D01*
X111721000Y-100730260D01*
X111721000Y-100437740D01*
X111663932Y-100150842D01*
X111551990Y-99880589D01*
X111389475Y-99637368D01*
X111182632Y-99430525D01*
X111008240Y-99314000D01*
X111182632Y-99197475D01*
X111389475Y-98990632D01*
X111551990Y-98747411D01*
X111663932Y-98477158D01*
X111721000Y-98190260D01*
X111721000Y-97897740D01*
X111663932Y-97610842D01*
X111551990Y-97340589D01*
X111389475Y-97097368D01*
X111182632Y-96890525D01*
X110996000Y-96765822D01*
X110996000Y-94525322D01*
X110999676Y-94487999D01*
X110996000Y-94450676D01*
X110996000Y-94450667D01*
X110985003Y-94339014D01*
X110941546Y-94195753D01*
X110870974Y-94063723D01*
X110799799Y-93976997D01*
X110776001Y-93947999D01*
X110747003Y-93924201D01*
X109656804Y-92834002D01*
X109633001Y-92804999D01*
X109517276Y-92710026D01*
X109385247Y-92639454D01*
X109241986Y-92595997D01*
X109130333Y-92585000D01*
X109130322Y-92585000D01*
X109093000Y-92581324D01*
X109055678Y-92585000D01*
X108614341Y-92585000D01*
X108527120Y-92454465D01*
X108332535Y-92259880D01*
X108103727Y-92106995D01*
X108026485Y-92075000D01*
X108103727Y-92043005D01*
X108332535Y-91890120D01*
X108527120Y-91695535D01*
X108680005Y-91466727D01*
X108785314Y-91212490D01*
X108839000Y-90942592D01*
X108839000Y-90667408D01*
X108785314Y-90397510D01*
X108680005Y-90143273D01*
X108527120Y-89914465D01*
X108332535Y-89719880D01*
X108103727Y-89566995D01*
X108032057Y-89537308D01*
X108045023Y-89532636D01*
X108160980Y-89470656D01*
X108227960Y-89230565D01*
X107442000Y-88444605D01*
X106656040Y-89230565D01*
X106723020Y-89470656D01*
X106858760Y-89534485D01*
X106780273Y-89566995D01*
X106551465Y-89719880D01*
X106356880Y-89914465D01*
X106203995Y-90143273D01*
X106098686Y-90397510D01*
X106045000Y-90667408D01*
X106045000Y-90942592D01*
X106098686Y-91212490D01*
X106203995Y-91466727D01*
X106356880Y-91695535D01*
X106551465Y-91890120D01*
X106780273Y-92043005D01*
X106857515Y-92075000D01*
X106780273Y-92106995D01*
X106551465Y-92259880D01*
X106356880Y-92454465D01*
X106203995Y-92683273D01*
X106098686Y-92937510D01*
X106045000Y-93207408D01*
X106045000Y-93482592D01*
X106098686Y-93752490D01*
X106203995Y-94006727D01*
X106356880Y-94235535D01*
X106551465Y-94430120D01*
X106780273Y-94583005D01*
X106857515Y-94615000D01*
X106780273Y-94646995D01*
X106551465Y-94799880D01*
X106356880Y-94994465D01*
X106203995Y-95223273D01*
X106098686Y-95477510D01*
X106045000Y-95747408D01*
X106045000Y-96022592D01*
X106098686Y-96292490D01*
X106203995Y-96546727D01*
X106356880Y-96775535D01*
X106551465Y-96970120D01*
X106780273Y-97123005D01*
X106857515Y-97155000D01*
X106780273Y-97186995D01*
X106551465Y-97339880D01*
X106356880Y-97534465D01*
X106203995Y-97763273D01*
X106098686Y-98017510D01*
X106045000Y-98287408D01*
X106045000Y-98562592D01*
X106098686Y-98832490D01*
X106203995Y-99086727D01*
X106356880Y-99315535D01*
X106551465Y-99510120D01*
X106780273Y-99663005D01*
X106857515Y-99695000D01*
X106780273Y-99726995D01*
X106551465Y-99879880D01*
X106356880Y-100074465D01*
X106203995Y-100303273D01*
X106098686Y-100557510D01*
X106045000Y-100827408D01*
X106045000Y-101102592D01*
X106098686Y-101372490D01*
X106203995Y-101626727D01*
X106356880Y-101855535D01*
X106551465Y-102050120D01*
X106780273Y-102203005D01*
X106857515Y-102235000D01*
X106780273Y-102266995D01*
X106551465Y-102419880D01*
X106356880Y-102614465D01*
X106269659Y-102745000D01*
X105724802Y-102745000D01*
X102260804Y-99281003D01*
X102237001Y-99251999D01*
X102121276Y-99157026D01*
X101989247Y-99086454D01*
X101929746Y-99068405D01*
X101923502Y-99047820D01*
X101864537Y-98937506D01*
X101785185Y-98840815D01*
X101688494Y-98761463D01*
X101638986Y-98735000D01*
X101688494Y-98708537D01*
X101785185Y-98629185D01*
X101864537Y-98532494D01*
X101923502Y-98422180D01*
X101959812Y-98302482D01*
X101972072Y-98178000D01*
X101972072Y-97178000D01*
X101959812Y-97053518D01*
X101952071Y-97028000D01*
X101959812Y-97002482D01*
X101972072Y-96878000D01*
X101969000Y-96663750D01*
X101810250Y-96505000D01*
X100711000Y-96505000D01*
X100711000Y-96525000D01*
X100457000Y-96525000D01*
X100457000Y-96505000D01*
X99357750Y-96505000D01*
X99199000Y-96663750D01*
X99195928Y-96878000D01*
X99208188Y-97002482D01*
X99215929Y-97028000D01*
X99208188Y-97053518D01*
X99195928Y-97178000D01*
X99195928Y-98178000D01*
X99208188Y-98302482D01*
X99244498Y-98422180D01*
X99303463Y-98532494D01*
X99382815Y-98629185D01*
X99479506Y-98708537D01*
X99529014Y-98735000D01*
X99479506Y-98761463D01*
X99382815Y-98840815D01*
X99303463Y-98937506D01*
X99244498Y-99047820D01*
X99208188Y-99167518D01*
X99195928Y-99292000D01*
X99195928Y-100292000D01*
X99199868Y-100332000D01*
X97223711Y-100332000D01*
X97179774Y-100288063D01*
X97010256Y-100174795D01*
X96821898Y-100096774D01*
X96621939Y-100057000D01*
X96418061Y-100057000D01*
X96218102Y-100096774D01*
X96029744Y-100174795D01*
X95860226Y-100288063D01*
X95716063Y-100432226D01*
X95602795Y-100601744D01*
X95524774Y-100790102D01*
X95485000Y-100990061D01*
X95485000Y-101193939D01*
X95524774Y-101393898D01*
X95602795Y-101582256D01*
X95716063Y-101751774D01*
X95818289Y-101854000D01*
X95716063Y-101956226D01*
X95602795Y-102125744D01*
X95524774Y-102314102D01*
X95485000Y-102514061D01*
X95485000Y-102717939D01*
X95524774Y-102917898D01*
X95602795Y-103106256D01*
X95716063Y-103275774D01*
X95818289Y-103378000D01*
X95716063Y-103480226D01*
X95602795Y-103649744D01*
X95524774Y-103838102D01*
X95485000Y-104038061D01*
X95485000Y-104241939D01*
X95524774Y-104441898D01*
X95602795Y-104630256D01*
X95716063Y-104799774D01*
X95760000Y-104843711D01*
X95760001Y-108674668D01*
X95756324Y-108712000D01*
X95760001Y-108749333D01*
X95770998Y-108860986D01*
X95775931Y-108877247D01*
X95814454Y-109004246D01*
X95885026Y-109136276D01*
X95953715Y-109219973D01*
X95980000Y-109252001D01*
X96008998Y-109275799D01*
X98242201Y-111509003D01*
X98265999Y-111538001D01*
X98381724Y-111632974D01*
X98513753Y-111703546D01*
X98657014Y-111747003D01*
X98768667Y-111758000D01*
X98768676Y-111758000D01*
X98805999Y-111761676D01*
X98843322Y-111758000D01*
X99199868Y-111758000D01*
X99195928Y-111798000D01*
X99195928Y-112798000D01*
X99208188Y-112922482D01*
X99244498Y-113042180D01*
X99303463Y-113152494D01*
X99382815Y-113249185D01*
X99479506Y-113328537D01*
X99589820Y-113387502D01*
X99709518Y-113423812D01*
X99834000Y-113436072D01*
X101334000Y-113436072D01*
X101458482Y-113423812D01*
X101578180Y-113387502D01*
X101688494Y-113328537D01*
X101785185Y-113249185D01*
X101864537Y-113152494D01*
X101915046Y-113058000D01*
X103310678Y-113058000D01*
X103348000Y-113061676D01*
X103385322Y-113058000D01*
X103385333Y-113058000D01*
X103496986Y-113047003D01*
X103640247Y-113003546D01*
X103772276Y-112932974D01*
X103888001Y-112838001D01*
X103911804Y-112808997D01*
X104835802Y-111885000D01*
X106269659Y-111885000D01*
X106356880Y-112015535D01*
X106551465Y-112210120D01*
X106780273Y-112363005D01*
X106857515Y-112395000D01*
X106780273Y-112426995D01*
X106551465Y-112579880D01*
X106356880Y-112774465D01*
X106203995Y-113003273D01*
X106098686Y-113257510D01*
X106045000Y-113527408D01*
X106045000Y-113802592D01*
X106098686Y-114072490D01*
X106203995Y-114326727D01*
X106356880Y-114555535D01*
X106551465Y-114750120D01*
X106780273Y-114903005D01*
X106857515Y-114935000D01*
X106780273Y-114966995D01*
X106551465Y-115119880D01*
X106356880Y-115314465D01*
X106203995Y-115543273D01*
X106098686Y-115797510D01*
X106045000Y-116067408D01*
X106045000Y-116342592D01*
X106098686Y-116612490D01*
X106203995Y-116866727D01*
X106208673Y-116873728D01*
X106133753Y-116896454D01*
X106001724Y-116967026D01*
X105885999Y-117061999D01*
X105862200Y-117090998D01*
X105407002Y-117546197D01*
X105377999Y-117569999D01*
X105351737Y-117602000D01*
X105283026Y-117685724D01*
X105248142Y-117750987D01*
X105212454Y-117817754D01*
X105168997Y-117961015D01*
X105158000Y-118072668D01*
X105158000Y-118072678D01*
X105154324Y-118110000D01*
X105158000Y-118147323D01*
X105158001Y-120612668D01*
X105154324Y-120650000D01*
X105168998Y-120798985D01*
X105212454Y-120942246D01*
X105283026Y-121074276D01*
X105341070Y-121145002D01*
X105378000Y-121190001D01*
X105406998Y-121213799D01*
X105989200Y-121796002D01*
X106012999Y-121825001D01*
X106056863Y-121860999D01*
X106120211Y-121912987D01*
X105407002Y-122626197D01*
X105377999Y-122649999D01*
X105351737Y-122682000D01*
X105283026Y-122765724D01*
X105252947Y-122821998D01*
X105212454Y-122897754D01*
X105168997Y-123041015D01*
X105158000Y-123152668D01*
X105158000Y-123152678D01*
X105154324Y-123190000D01*
X105158000Y-123227323D01*
X105158001Y-124803668D01*
X105154324Y-124841000D01*
X105158001Y-124878333D01*
X105159840Y-124896999D01*
X105168998Y-124989985D01*
X105212454Y-125133246D01*
X105283026Y-125265276D01*
X105354201Y-125352002D01*
X105378000Y-125381001D01*
X105406998Y-125404799D01*
X106075628Y-126073430D01*
X106045000Y-126227408D01*
X106045000Y-126347973D01*
X106043323Y-126365000D01*
X106045000Y-126382027D01*
X106045000Y-126502592D01*
X106098686Y-126772490D01*
X106203995Y-127026727D01*
X106356880Y-127255535D01*
X106551465Y-127450120D01*
X106780273Y-127603005D01*
X106857515Y-127635000D01*
X106780273Y-127666995D01*
X106551465Y-127819880D01*
X106356880Y-128014465D01*
X106203995Y-128243273D01*
X106098686Y-128497510D01*
X106045000Y-128767408D01*
X106045000Y-129042592D01*
X106098686Y-129312490D01*
X106203995Y-129566727D01*
X106356880Y-129795535D01*
X106551465Y-129990120D01*
X106780273Y-130143005D01*
X106857515Y-130175000D01*
X106780273Y-130206995D01*
X106551465Y-130359880D01*
X106356880Y-130554465D01*
X106203995Y-130783273D01*
X106098686Y-131037510D01*
X106045000Y-131307408D01*
X106045000Y-131582592D01*
X106098686Y-131852490D01*
X106203995Y-132106727D01*
X106356880Y-132335535D01*
X106551465Y-132530120D01*
X106780273Y-132683005D01*
X106857515Y-132715000D01*
X106780273Y-132746995D01*
X106551465Y-132899880D01*
X106356880Y-133094465D01*
X106269659Y-133225000D01*
X105447322Y-133225000D01*
X105409999Y-133221324D01*
X105372677Y-133225000D01*
X105372667Y-133225000D01*
X105261014Y-133235997D01*
X105117753Y-133279454D01*
X104985724Y-133350026D01*
X104983319Y-133352000D01*
X103895087Y-133352000D01*
X103883812Y-133237518D01*
X103847502Y-133117820D01*
X103788537Y-133007506D01*
X103709185Y-132910815D01*
X103612494Y-132831463D01*
X103502180Y-132772498D01*
X103382482Y-132736188D01*
X103258000Y-132723928D01*
X102258000Y-132723928D01*
X102133518Y-132736188D01*
X102108000Y-132743929D01*
X102082482Y-132736188D01*
X101958000Y-132723928D01*
X100958000Y-132723928D01*
X100833518Y-132736188D01*
X100713820Y-132772498D01*
X100603506Y-132831463D01*
X100506815Y-132910815D01*
X100427463Y-133007506D01*
X100368498Y-133117820D01*
X100335379Y-133227000D01*
X90975469Y-133227000D01*
X90932000Y-133222719D01*
X90888531Y-133227000D01*
X90888523Y-133227000D01*
X90781731Y-133237518D01*
X90758509Y-133239805D01*
X90707903Y-133255157D01*
X90591687Y-133290411D01*
X90437941Y-133372589D01*
X90437939Y-133372590D01*
X90437940Y-133372590D01*
X90336953Y-133455468D01*
X90336951Y-133455470D01*
X90303183Y-133483183D01*
X90275470Y-133516951D01*
X88533422Y-135259000D01*
X82616828Y-135259000D01*
X82703727Y-135223005D01*
X82932535Y-135070120D01*
X83127120Y-134875535D01*
X83130818Y-134870000D01*
X88221531Y-134870000D01*
X88265000Y-134874281D01*
X88308469Y-134870000D01*
X88308477Y-134870000D01*
X88438490Y-134857195D01*
X88605313Y-134806589D01*
X88759059Y-134724411D01*
X88893817Y-134613817D01*
X88921534Y-134580044D01*
X94575049Y-128926530D01*
X94608817Y-128898817D01*
X94719411Y-128764059D01*
X94723712Y-128756013D01*
X94801589Y-128610314D01*
X94852195Y-128443490D01*
X94857069Y-128393998D01*
X94865000Y-128313477D01*
X94865000Y-128313469D01*
X94869281Y-128270000D01*
X94865000Y-128226531D01*
X94865000Y-95878000D01*
X99195928Y-95878000D01*
X99199000Y-96092250D01*
X99357750Y-96251000D01*
X100457000Y-96251000D01*
X100457000Y-95401750D01*
X100711000Y-95401750D01*
X100711000Y-96251000D01*
X101810250Y-96251000D01*
X101969000Y-96092250D01*
X101972072Y-95878000D01*
X101959812Y-95753518D01*
X101923502Y-95633820D01*
X101864537Y-95523506D01*
X101785185Y-95426815D01*
X101688494Y-95347463D01*
X101578180Y-95288498D01*
X101458482Y-95252188D01*
X101334000Y-95239928D01*
X100869750Y-95243000D01*
X100711000Y-95401750D01*
X100457000Y-95401750D01*
X100298250Y-95243000D01*
X99834000Y-95239928D01*
X99709518Y-95252188D01*
X99589820Y-95288498D01*
X99479506Y-95347463D01*
X99382815Y-95426815D01*
X99303463Y-95523506D01*
X99244498Y-95633820D01*
X99208188Y-95753518D01*
X99195928Y-95878000D01*
X94865000Y-95878000D01*
X94865000Y-88337017D01*
X106040090Y-88337017D01*
X106081078Y-88609133D01*
X106174364Y-88868023D01*
X106236344Y-88983980D01*
X106476435Y-89050960D01*
X107262395Y-88265000D01*
X107621605Y-88265000D01*
X108407565Y-89050960D01*
X108647656Y-88983980D01*
X108764756Y-88734952D01*
X108831023Y-88467865D01*
X108843910Y-88192983D01*
X108802922Y-87920867D01*
X108709636Y-87661977D01*
X108647656Y-87546020D01*
X108407565Y-87479040D01*
X107621605Y-88265000D01*
X107262395Y-88265000D01*
X106476435Y-87479040D01*
X106236344Y-87546020D01*
X106119244Y-87795048D01*
X106052977Y-88062135D01*
X106040090Y-88337017D01*
X94865000Y-88337017D01*
X94865000Y-87299435D01*
X106656040Y-87299435D01*
X107442000Y-88085395D01*
X108227960Y-87299435D01*
X108160980Y-87059344D01*
X107911952Y-86942244D01*
X107644865Y-86875977D01*
X107369983Y-86863090D01*
X107097867Y-86904078D01*
X106838977Y-86997364D01*
X106723020Y-87059344D01*
X106656040Y-87299435D01*
X94865000Y-87299435D01*
X94865000Y-86091578D01*
X96568578Y-84388000D01*
X102193928Y-84388000D01*
X102206188Y-84512482D01*
X102242498Y-84632180D01*
X102301463Y-84742494D01*
X102380815Y-84839185D01*
X102477506Y-84918537D01*
X102587820Y-84977502D01*
X102707518Y-85013812D01*
X102832000Y-85026072D01*
X103346250Y-85023000D01*
X103505000Y-84864250D01*
X103505000Y-83415000D01*
X103759000Y-83415000D01*
X103759000Y-84864250D01*
X103917750Y-85023000D01*
X104432000Y-85026072D01*
X104556482Y-85013812D01*
X104676180Y-84977502D01*
X104786494Y-84918537D01*
X104883185Y-84839185D01*
X104962537Y-84742494D01*
X105021502Y-84632180D01*
X105057812Y-84512482D01*
X105070072Y-84388000D01*
X105067000Y-83573750D01*
X104908250Y-83415000D01*
X103759000Y-83415000D01*
X103505000Y-83415000D01*
X102355750Y-83415000D01*
X102197000Y-83573750D01*
X102193928Y-84388000D01*
X96568578Y-84388000D01*
X102440080Y-78516499D01*
X102747001Y-78516499D01*
X102747001Y-78558299D01*
X102707518Y-78562188D01*
X102587820Y-78598498D01*
X102477506Y-78657463D01*
X102380815Y-78736815D01*
X102301463Y-78833506D01*
X102242498Y-78943820D01*
X102206188Y-79063518D01*
X102193928Y-79188000D01*
X102193928Y-81388000D01*
X102206188Y-81512482D01*
X102242498Y-81632180D01*
X102301463Y-81742494D01*
X102338809Y-81788000D01*
X102301463Y-81833506D01*
X102242498Y-81943820D01*
X102206188Y-82063518D01*
X102193928Y-82188000D01*
X102197000Y-83002250D01*
X102355750Y-83161000D01*
X103505000Y-83161000D01*
X103505000Y-83141000D01*
X103759000Y-83141000D01*
X103759000Y-83161000D01*
X104908250Y-83161000D01*
X105067000Y-83002250D01*
X105070072Y-82188000D01*
X105057812Y-82063518D01*
X105021502Y-81943820D01*
X104962537Y-81833506D01*
X104925191Y-81788000D01*
X104962537Y-81742494D01*
X105021502Y-81632180D01*
X105057812Y-81512482D01*
X105070072Y-81388000D01*
X105070072Y-80648000D01*
X106582928Y-80648000D01*
X106595188Y-80772482D01*
X106631498Y-80892180D01*
X106690463Y-81002494D01*
X106769815Y-81099185D01*
X106866506Y-81178537D01*
X106976820Y-81237502D01*
X107096518Y-81273812D01*
X107221000Y-81286072D01*
X107410250Y-81283000D01*
X107569000Y-81124250D01*
X107569000Y-80250000D01*
X107823000Y-80250000D01*
X107823000Y-81124250D01*
X107981750Y-81283000D01*
X108171000Y-81286072D01*
X108295482Y-81273812D01*
X108415180Y-81237502D01*
X108525494Y-81178537D01*
X108622185Y-81099185D01*
X108701537Y-81002494D01*
X108760502Y-80892180D01*
X108796812Y-80772482D01*
X108809072Y-80648000D01*
X108806000Y-80408750D01*
X108647250Y-80250000D01*
X107823000Y-80250000D01*
X107569000Y-80250000D01*
X106744750Y-80250000D01*
X106586000Y-80408750D01*
X106582928Y-80648000D01*
X105070072Y-80648000D01*
X105070072Y-79188000D01*
X105057812Y-79063518D01*
X105021502Y-78943820D01*
X104962537Y-78833506D01*
X104883185Y-78736815D01*
X104786494Y-78657463D01*
X104676180Y-78598498D01*
X104556482Y-78562188D01*
X104517000Y-78558299D01*
X104517000Y-78516499D01*
X105205024Y-78516499D01*
X105248501Y-78520781D01*
X105291977Y-78516499D01*
X106582928Y-78516499D01*
X106582928Y-78660500D01*
X106599752Y-78831316D01*
X106649577Y-78995567D01*
X106730488Y-79146942D01*
X106750099Y-79170839D01*
X106690463Y-79243506D01*
X106631498Y-79353820D01*
X106595188Y-79473518D01*
X106582928Y-79598000D01*
X106586000Y-79837250D01*
X106744750Y-79996000D01*
X107569000Y-79996000D01*
X107569000Y-79976000D01*
X107823000Y-79976000D01*
X107823000Y-79996000D01*
X108647250Y-79996000D01*
X108806000Y-79837250D01*
X108809072Y-79598000D01*
X108796812Y-79473518D01*
X108760502Y-79353820D01*
X108701537Y-79243506D01*
X108641901Y-79170839D01*
X108661512Y-79146942D01*
X108742423Y-78995567D01*
X108792248Y-78831316D01*
X108809072Y-78660500D01*
X108809072Y-78085500D01*
X108792248Y-77914684D01*
X108742423Y-77750433D01*
X108677542Y-77629047D01*
X108673501Y-77588022D01*
X108673501Y-76584625D01*
X108762983Y-76575812D01*
X108882681Y-76539502D01*
X108992995Y-76480537D01*
X109058501Y-76426778D01*
X109124007Y-76480537D01*
X109234321Y-76539502D01*
X109354019Y-76575812D01*
X109478501Y-76588072D01*
X110042751Y-76585000D01*
X110201501Y-76426250D01*
X110201501Y-74827000D01*
X110455501Y-74827000D01*
X110455501Y-76426250D01*
X110614251Y-76585000D01*
X111178501Y-76588072D01*
X111302983Y-76575812D01*
X111422681Y-76539502D01*
X111532995Y-76480537D01*
X111629686Y-76401185D01*
X111709038Y-76304494D01*
X111768003Y-76194180D01*
X111804313Y-76074482D01*
X111816573Y-75950000D01*
X111813501Y-74985750D01*
X111654751Y-74827000D01*
X110455501Y-74827000D01*
X110201501Y-74827000D01*
X110181501Y-74827000D01*
X110181501Y-74573000D01*
X110201501Y-74573000D01*
X110201501Y-72973750D01*
X110455501Y-72973750D01*
X110455501Y-74573000D01*
X111654751Y-74573000D01*
X111813501Y-74414250D01*
X111816573Y-73450000D01*
X111804313Y-73325518D01*
X111768003Y-73205820D01*
X111709038Y-73095506D01*
X111629686Y-72998815D01*
X111532995Y-72919463D01*
X111422681Y-72860498D01*
X111302983Y-72824188D01*
X111178501Y-72811928D01*
X110614251Y-72815000D01*
X110455501Y-72973750D01*
X110201501Y-72973750D01*
X110042751Y-72815000D01*
X109478501Y-72811928D01*
X109354019Y-72824188D01*
X109234321Y-72860498D01*
X109124007Y-72919463D01*
X109058501Y-72973222D01*
X108992995Y-72919463D01*
X108882681Y-72860498D01*
X108762983Y-72824188D01*
X108638501Y-72811928D01*
X106938501Y-72811928D01*
X106814019Y-72824188D01*
X106694321Y-72860498D01*
X106584007Y-72919463D01*
X106518501Y-72973222D01*
X106452995Y-72919463D01*
X106342681Y-72860498D01*
X106222983Y-72824188D01*
X106098501Y-72811928D01*
X104398501Y-72811928D01*
X104274019Y-72824188D01*
X104154321Y-72860498D01*
X104044007Y-72919463D01*
X103978501Y-72973222D01*
X103912995Y-72919463D01*
X103802681Y-72860498D01*
X103682983Y-72824188D01*
X103558501Y-72811928D01*
X101858501Y-72811928D01*
X101734019Y-72824188D01*
X101614321Y-72860498D01*
X101504007Y-72919463D01*
X101438501Y-72973222D01*
X101372995Y-72919463D01*
X101262681Y-72860498D01*
X101142983Y-72824188D01*
X101018501Y-72811928D01*
X100931658Y-72811928D01*
X101008276Y-72770974D01*
X101124001Y-72676001D01*
X101147804Y-72646997D01*
X108299505Y-65495297D01*
X108328502Y-65471500D01*
X108401121Y-65383014D01*
X108423475Y-65355776D01*
X108494047Y-65223746D01*
X108529241Y-65107724D01*
X108537504Y-65080485D01*
X108548501Y-64968832D01*
X108548501Y-64968823D01*
X108552177Y-64931500D01*
X108548501Y-64894177D01*
X108548501Y-52588072D01*
X108638501Y-52588072D01*
X108762983Y-52575812D01*
X108882681Y-52539502D01*
X108992995Y-52480537D01*
X109058501Y-52426778D01*
X109124007Y-52480537D01*
X109234321Y-52539502D01*
X109354019Y-52575812D01*
X109478501Y-52588072D01*
X110042751Y-52585000D01*
X110201501Y-52426250D01*
X110201501Y-50827000D01*
X110455501Y-50827000D01*
X110455501Y-52426250D01*
X110614251Y-52585000D01*
X111178501Y-52588072D01*
X111302983Y-52575812D01*
X111422681Y-52539502D01*
X111532995Y-52480537D01*
X111629686Y-52401185D01*
X111709038Y-52304494D01*
X111768003Y-52194180D01*
X111804313Y-52074482D01*
X111816573Y-51950000D01*
X111813501Y-50985750D01*
X111654751Y-50827000D01*
X110455501Y-50827000D01*
X110201501Y-50827000D01*
X110181501Y-50827000D01*
X110181501Y-50573000D01*
X110201501Y-50573000D01*
X110201501Y-48973750D01*
X110455501Y-48973750D01*
X110455501Y-50573000D01*
X111654751Y-50573000D01*
X111813501Y-50414250D01*
X111816573Y-49450000D01*
X111804313Y-49325518D01*
X111768003Y-49205820D01*
X111709038Y-49095506D01*
X111629686Y-48998815D01*
X111532995Y-48919463D01*
X111422681Y-48860498D01*
X111302983Y-48824188D01*
X111178501Y-48811928D01*
X110614251Y-48815000D01*
X110455501Y-48973750D01*
X110201501Y-48973750D01*
X110042751Y-48815000D01*
X109478501Y-48811928D01*
X109354019Y-48824188D01*
X109234321Y-48860498D01*
X109124007Y-48919463D01*
X109058501Y-48973222D01*
X108992995Y-48919463D01*
X108882681Y-48860498D01*
X108762983Y-48824188D01*
X108638501Y-48811928D01*
X106938501Y-48811928D01*
X106814019Y-48824188D01*
X106694321Y-48860498D01*
X106584007Y-48919463D01*
X106518501Y-48973222D01*
X106452995Y-48919463D01*
X106342681Y-48860498D01*
X106222983Y-48824188D01*
X106098501Y-48811928D01*
X106008501Y-48811928D01*
X106008501Y-47881823D01*
X106012177Y-47844500D01*
X106008501Y-47807178D01*
X106008501Y-47807168D01*
X105997504Y-47695515D01*
X105954047Y-47552254D01*
X105883475Y-47420225D01*
X105788502Y-47304500D01*
X105759499Y-47280698D01*
X105719804Y-47241003D01*
X105696001Y-47211999D01*
X105580276Y-47117026D01*
X105448247Y-47046454D01*
X105304986Y-47002997D01*
X105193333Y-46992000D01*
X105193322Y-46992000D01*
X105156000Y-46988324D01*
X105118678Y-46992000D01*
X90969322Y-46992000D01*
X90931999Y-46988324D01*
X90894676Y-46992000D01*
X90894667Y-46992000D01*
X90783014Y-47002997D01*
X90639753Y-47046454D01*
X90507724Y-47117026D01*
X90507722Y-47117027D01*
X90507723Y-47117027D01*
X90420996Y-47188201D01*
X90420992Y-47188205D01*
X90391999Y-47211999D01*
X90368205Y-47240992D01*
X87880998Y-49728201D01*
X87852000Y-49751999D01*
X87828202Y-49780997D01*
X87828201Y-49780998D01*
X87757026Y-49867724D01*
X87686454Y-49999754D01*
X87642998Y-50143015D01*
X87628324Y-50292000D01*
X87632001Y-50329332D01*
X87632000Y-60137198D01*
X85304199Y-62465000D01*
X85242061Y-62465000D01*
X85042102Y-62504774D01*
X84853744Y-62582795D01*
X84684226Y-62696063D01*
X84640289Y-62740000D01*
X84062072Y-62740000D01*
X84062072Y-62734000D01*
X84049812Y-62609518D01*
X84013502Y-62489820D01*
X84010391Y-62484000D01*
X84013502Y-62478180D01*
X84049812Y-62358482D01*
X84062072Y-62234000D01*
X84062072Y-62228000D01*
X84132289Y-62228000D01*
X84176226Y-62271937D01*
X84345744Y-62385205D01*
X84534102Y-62463226D01*
X84734061Y-62503000D01*
X84937939Y-62503000D01*
X85137898Y-62463226D01*
X85326256Y-62385205D01*
X85495774Y-62271937D01*
X85639937Y-62127774D01*
X85753205Y-61958256D01*
X85831226Y-61769898D01*
X85871000Y-61569939D01*
X85871000Y-61366061D01*
X85831226Y-61166102D01*
X85753205Y-60977744D01*
X85639937Y-60808226D01*
X85495774Y-60664063D01*
X85326256Y-60550795D01*
X85137898Y-60472774D01*
X84937939Y-60433000D01*
X84734061Y-60433000D01*
X84534102Y-60472774D01*
X84345744Y-60550795D01*
X84176226Y-60664063D01*
X84132289Y-60708000D01*
X84059511Y-60708000D01*
X84049812Y-60609518D01*
X84013502Y-60489820D01*
X84010391Y-60484000D01*
X84013502Y-60478180D01*
X84049812Y-60358482D01*
X84062072Y-60234000D01*
X84062072Y-58734000D01*
X84049812Y-58609518D01*
X84013502Y-58489820D01*
X84010391Y-58484000D01*
X84013502Y-58478180D01*
X84049812Y-58358482D01*
X84062072Y-58234000D01*
X84059000Y-57769750D01*
X83900250Y-57611000D01*
X82551000Y-57611000D01*
X82551000Y-57631000D01*
X82297000Y-57631000D01*
X82297000Y-57611000D01*
X80947750Y-57611000D01*
X80789000Y-57769750D01*
X80785928Y-58234000D01*
X80798188Y-58358482D01*
X80834498Y-58478180D01*
X80837609Y-58484000D01*
X80834498Y-58489820D01*
X80801379Y-58599000D01*
X79661148Y-58599000D01*
X79705512Y-58544942D01*
X79786423Y-58393567D01*
X79836248Y-58229316D01*
X79853072Y-58058500D01*
X79853072Y-57483500D01*
X79836248Y-57312684D01*
X79786423Y-57148433D01*
X79705512Y-56997058D01*
X79685901Y-56973161D01*
X79745537Y-56900494D01*
X79804502Y-56790180D01*
X79840812Y-56670482D01*
X79853072Y-56546000D01*
X79850000Y-56306750D01*
X79691250Y-56148000D01*
X78867000Y-56148000D01*
X78867000Y-56168000D01*
X78613000Y-56168000D01*
X78613000Y-56148000D01*
X77788750Y-56148000D01*
X77630000Y-56306750D01*
X77626928Y-56546000D01*
X77639188Y-56670482D01*
X77675498Y-56790180D01*
X77734463Y-56900494D01*
X77794099Y-56973161D01*
X77774488Y-56997058D01*
X77693577Y-57148433D01*
X77643752Y-57312684D01*
X77626928Y-57483500D01*
X77626928Y-58058500D01*
X77643752Y-58229316D01*
X77693577Y-58393567D01*
X77774488Y-58544942D01*
X77855000Y-58643046D01*
X77855000Y-59069421D01*
X77128951Y-59795471D01*
X77095184Y-59823183D01*
X77067471Y-59856951D01*
X77067468Y-59856954D01*
X76984590Y-59957941D01*
X76902412Y-60111687D01*
X76851805Y-60278510D01*
X76834719Y-60452000D01*
X76839001Y-60495479D01*
X76839000Y-75833421D01*
X76112951Y-76559471D01*
X76079184Y-76587183D01*
X76051471Y-76620951D01*
X76051468Y-76620954D01*
X75968590Y-76721941D01*
X75886412Y-76875687D01*
X75835805Y-77042510D01*
X75818719Y-77216000D01*
X75823001Y-77259479D01*
X75823000Y-131020523D01*
X75818718Y-131064000D01*
X74395000Y-131064000D01*
X74395000Y-55496000D01*
X77626928Y-55496000D01*
X77630000Y-55735250D01*
X77788750Y-55894000D01*
X78613000Y-55894000D01*
X78613000Y-55019750D01*
X78867000Y-55019750D01*
X78867000Y-55894000D01*
X79691250Y-55894000D01*
X79850000Y-55735250D01*
X79853072Y-55496000D01*
X79840812Y-55371518D01*
X79804502Y-55251820D01*
X79745537Y-55141506D01*
X79666185Y-55044815D01*
X79569494Y-54965463D01*
X79459180Y-54906498D01*
X79339482Y-54870188D01*
X79215000Y-54857928D01*
X79025750Y-54861000D01*
X78867000Y-55019750D01*
X78613000Y-55019750D01*
X78454250Y-54861000D01*
X78265000Y-54857928D01*
X78140518Y-54870188D01*
X78020820Y-54906498D01*
X77910506Y-54965463D01*
X77813815Y-55044815D01*
X77734463Y-55141506D01*
X77675498Y-55251820D01*
X77639188Y-55371518D01*
X77626928Y-55496000D01*
X74395000Y-55496000D01*
X74395000Y-51950000D01*
X78380429Y-51950000D01*
X78392689Y-52074482D01*
X78428999Y-52194180D01*
X78487964Y-52304494D01*
X78567316Y-52401185D01*
X78664007Y-52480537D01*
X78774321Y-52539502D01*
X78894019Y-52575812D01*
X79018501Y-52588072D01*
X79582751Y-52585000D01*
X79741501Y-52426250D01*
X79741501Y-50827000D01*
X78542251Y-50827000D01*
X78383501Y-50985750D01*
X78380429Y-51950000D01*
X74395000Y-51950000D01*
X74395000Y-49450000D01*
X78380429Y-49450000D01*
X78383501Y-50414250D01*
X78542251Y-50573000D01*
X79741501Y-50573000D01*
X79741501Y-48973750D01*
X79582751Y-48815000D01*
X79018501Y-48811928D01*
X78894019Y-48824188D01*
X78774321Y-48860498D01*
X78664007Y-48919463D01*
X78567316Y-48998815D01*
X78487964Y-49095506D01*
X78428999Y-49205820D01*
X78392689Y-49325518D01*
X78380429Y-49450000D01*
X74395000Y-49450000D01*
X74395000Y-47820000D01*
X78157928Y-47820000D01*
X78170188Y-47944482D01*
X78206498Y-48064180D01*
X78265463Y-48174494D01*
X78344815Y-48271185D01*
X78441506Y-48350537D01*
X78551820Y-48409502D01*
X78671518Y-48445812D01*
X78796000Y-48458072D01*
X79185250Y-48455000D01*
X79344000Y-48296250D01*
X79344000Y-45847000D01*
X79598000Y-45847000D01*
X79598000Y-48296250D01*
X79756750Y-48455000D01*
X80146000Y-48458072D01*
X80270482Y-48445812D01*
X80390180Y-48409502D01*
X80500494Y-48350537D01*
X80597185Y-48271185D01*
X80676537Y-48174494D01*
X80735502Y-48064180D01*
X80771812Y-47944482D01*
X80784072Y-47820000D01*
X80781000Y-46005750D01*
X80622250Y-45847000D01*
X79598000Y-45847000D01*
X79344000Y-45847000D01*
X78319750Y-45847000D01*
X78161000Y-46005750D01*
X78157928Y-47820000D01*
X74395000Y-47820000D01*
X74395000Y-44413895D01*
X74384365Y-44305915D01*
X74370000Y-44258560D01*
X74370000Y-43915000D01*
X78158428Y-43915000D01*
X78161000Y-45434250D01*
G04 #@! TA.AperFunction,Conductor*
D25*
G36*
X78161000Y-45434250D02*
G01*
X78319750Y-45593000D01*
X79344000Y-45593000D01*
X79344000Y-45573000D01*
X79598000Y-45573000D01*
X79598000Y-45593000D01*
X80622250Y-45593000D01*
X80781000Y-45434250D01*
X80783572Y-43915000D01*
X81022928Y-43915000D01*
X81022928Y-47320000D01*
X81035188Y-47444482D01*
X81071498Y-47564180D01*
X81130463Y-47674494D01*
X81161000Y-47711704D01*
X81161001Y-48954757D01*
X81138501Y-48973222D01*
X81072995Y-48919463D01*
X80962681Y-48860498D01*
X80842983Y-48824188D01*
X80718501Y-48811928D01*
X80154251Y-48815000D01*
X79995501Y-48973750D01*
X79995501Y-50573000D01*
X80015501Y-50573000D01*
X80015501Y-50827000D01*
X79995501Y-50827000D01*
X79995501Y-52426250D01*
X80154251Y-52585000D01*
X80718501Y-52588072D01*
X80842983Y-52575812D01*
X80962681Y-52539502D01*
X81072995Y-52480537D01*
X81138501Y-52426778D01*
X81204007Y-52480537D01*
X81289001Y-52525968D01*
X81289000Y-54111379D01*
X81179820Y-54144498D01*
X81069506Y-54203463D01*
X80972815Y-54282815D01*
X80893463Y-54379506D01*
X80834498Y-54489820D01*
X80798188Y-54609518D01*
X80785928Y-54734000D01*
X80785928Y-56234000D01*
X80798188Y-56358482D01*
X80834498Y-56478180D01*
X80837609Y-56484000D01*
X80834498Y-56489820D01*
X80798188Y-56609518D01*
X80785928Y-56734000D01*
X80789000Y-57198250D01*
X80947750Y-57357000D01*
X82297000Y-57357000D01*
X82297000Y-57337000D01*
X82551000Y-57337000D01*
X82551000Y-57357000D01*
X83900250Y-57357000D01*
X84059000Y-57198250D01*
X84062072Y-56734000D01*
X84049812Y-56609518D01*
X84013502Y-56489820D01*
X84010391Y-56484000D01*
X84013502Y-56478180D01*
X84049812Y-56358482D01*
X84062072Y-56234000D01*
X84062072Y-54734000D01*
X84049812Y-54609518D01*
X84013502Y-54489820D01*
X83954537Y-54379506D01*
X83875185Y-54282815D01*
X83778494Y-54203463D01*
X83668180Y-54144498D01*
X83559000Y-54111379D01*
X83559000Y-52509398D01*
X83612995Y-52480537D01*
X83678501Y-52426778D01*
X83744007Y-52480537D01*
X83854321Y-52539502D01*
X83974019Y-52575812D01*
X84098501Y-52588072D01*
X84662751Y-52585000D01*
X84821501Y-52426250D01*
X84821501Y-50827000D01*
X85075501Y-50827000D01*
X85075501Y-52426250D01*
X85234251Y-52585000D01*
X85798501Y-52588072D01*
X85922983Y-52575812D01*
X86042681Y-52539502D01*
X86152995Y-52480537D01*
X86249686Y-52401185D01*
X86329038Y-52304494D01*
X86388003Y-52194180D01*
X86424313Y-52074482D01*
X86436573Y-51950000D01*
X86433501Y-50985750D01*
X86274751Y-50827000D01*
X85075501Y-50827000D01*
X84821501Y-50827000D01*
X84801501Y-50827000D01*
X84801501Y-50573000D01*
X84821501Y-50573000D01*
X84821501Y-48973750D01*
X85075501Y-48973750D01*
X85075501Y-50573000D01*
X86274751Y-50573000D01*
X86433501Y-50414250D01*
X86436573Y-49450000D01*
X86424313Y-49325518D01*
X86388003Y-49205820D01*
X86329038Y-49095506D01*
X86249686Y-48998815D01*
X86152995Y-48919463D01*
X86042681Y-48860498D01*
X85922983Y-48824188D01*
X85798501Y-48811928D01*
X85234251Y-48815000D01*
X85075501Y-48973750D01*
X84821501Y-48973750D01*
X84662751Y-48815000D01*
X84098501Y-48811928D01*
X83974019Y-48824188D01*
X83854321Y-48860498D01*
X83744007Y-48919463D01*
X83678501Y-48973222D01*
X83612995Y-48919463D01*
X83502681Y-48860498D01*
X83431000Y-48838754D01*
X83431000Y-47820000D01*
X83807928Y-47820000D01*
X83820188Y-47944482D01*
X83856498Y-48064180D01*
X83915463Y-48174494D01*
X83994815Y-48271185D01*
X84091506Y-48350537D01*
X84201820Y-48409502D01*
X84321518Y-48445812D01*
X84446000Y-48458072D01*
X84835250Y-48455000D01*
X84994000Y-48296250D01*
X84994000Y-45847000D01*
X85248000Y-45847000D01*
X85248000Y-48296250D01*
X85406750Y-48455000D01*
X85796000Y-48458072D01*
X85920482Y-48445812D01*
X86040180Y-48409502D01*
X86150494Y-48350537D01*
X86247185Y-48271185D01*
X86326537Y-48174494D01*
X86385502Y-48064180D01*
X86421812Y-47944482D01*
X86434072Y-47820000D01*
X86431000Y-46005750D01*
X86272250Y-45847000D01*
X85248000Y-45847000D01*
X84994000Y-45847000D01*
X83969750Y-45847000D01*
X83811000Y-46005750D01*
X83807928Y-47820000D01*
X83431000Y-47820000D01*
X83431000Y-47711704D01*
X83461537Y-47674494D01*
X83520502Y-47564180D01*
X83556812Y-47444482D01*
X83569072Y-47320000D01*
X83569072Y-43915000D01*
X83808428Y-43915000D01*
X83811000Y-45434250D01*
X83969750Y-45593000D01*
X84994000Y-45593000D01*
X84994000Y-45573000D01*
X85248000Y-45573000D01*
X85248000Y-45593000D01*
X86272250Y-45593000D01*
X86431000Y-45434250D01*
X86433572Y-43915000D01*
X112955000Y-43915000D01*
X112955001Y-137720000D01*
X74370000Y-137720000D01*
X74370000Y-137351440D01*
X74384365Y-137304085D01*
X74395000Y-137196105D01*
X74395000Y-131064000D01*
X75818718Y-131064000D01*
X75823001Y-131107486D01*
X75823000Y-134576531D01*
X75818719Y-134620000D01*
X75823000Y-134663469D01*
X75823000Y-134663476D01*
X75832258Y-134757475D01*
X75835805Y-134793490D01*
X75839779Y-134806589D01*
X75886411Y-134960312D01*
X75968589Y-135114058D01*
X76079183Y-135248817D01*
X76112956Y-135276534D01*
X77575470Y-136739049D01*
X77603183Y-136772817D01*
X77636951Y-136800530D01*
X77636953Y-136800532D01*
X77708452Y-136859210D01*
X77737941Y-136883411D01*
X77891687Y-136965589D01*
X78058510Y-137016195D01*
X78188523Y-137029000D01*
X78188533Y-137029000D01*
X78231999Y-137033281D01*
X78275465Y-137029000D01*
X88856531Y-137029000D01*
X88900000Y-137033281D01*
X88943469Y-137029000D01*
X88943477Y-137029000D01*
X89073490Y-137016195D01*
X89240313Y-136965589D01*
X89394059Y-136883411D01*
X89528817Y-136772817D01*
X89556534Y-136739044D01*
X91298579Y-134997000D01*
X100335379Y-134997000D01*
X100368498Y-135106180D01*
X100427463Y-135216494D01*
X100506815Y-135313185D01*
X100603506Y-135392537D01*
X100713820Y-135451502D01*
X100833518Y-135487812D01*
X100958000Y-135500072D01*
X101958000Y-135500072D01*
X102082482Y-135487812D01*
X102108000Y-135480071D01*
X102133518Y-135487812D01*
X102258000Y-135500072D01*
X103258000Y-135500072D01*
X103382482Y-135487812D01*
X103502180Y-135451502D01*
X103612494Y-135392537D01*
X103709185Y-135313185D01*
X103788537Y-135216494D01*
X103847502Y-135106180D01*
X103883812Y-134986482D01*
X103895087Y-134872000D01*
X105245678Y-134872000D01*
X105283000Y-134875676D01*
X105320322Y-134872000D01*
X105320333Y-134872000D01*
X105431986Y-134861003D01*
X105575247Y-134817546D01*
X105707276Y-134746974D01*
X105709681Y-134745000D01*
X106269659Y-134745000D01*
X106356880Y-134875535D01*
X106551465Y-135070120D01*
X106780273Y-135223005D01*
X107034510Y-135328314D01*
X107304408Y-135382000D01*
X107579592Y-135382000D01*
X107849490Y-135328314D01*
X108103727Y-135223005D01*
X108332535Y-135070120D01*
X108527120Y-134875535D01*
X108680005Y-134646727D01*
X108785314Y-134392490D01*
X108839000Y-134122592D01*
X108839000Y-133847408D01*
X108785314Y-133577510D01*
X108680005Y-133323273D01*
X108527120Y-133094465D01*
X108332535Y-132899880D01*
X108103727Y-132746995D01*
X108026485Y-132715000D01*
X108103727Y-132683005D01*
X108332535Y-132530120D01*
X108527120Y-132335535D01*
X108613779Y-132205842D01*
X108622322Y-132205000D01*
X108622333Y-132205000D01*
X108733986Y-132194003D01*
X108877247Y-132150546D01*
X109009276Y-132079974D01*
X109125001Y-131985001D01*
X109148804Y-131955997D01*
X110299366Y-130805436D01*
X110384986Y-130797003D01*
X110528247Y-130753546D01*
X110660276Y-130682974D01*
X110776001Y-130588001D01*
X110870974Y-130472276D01*
X110941546Y-130340247D01*
X110985003Y-130196986D01*
X110996000Y-130085333D01*
X110999677Y-130048000D01*
X110996000Y-130010667D01*
X110996000Y-127472072D01*
X111086000Y-127472072D01*
X111210482Y-127459812D01*
X111330180Y-127423502D01*
X111440494Y-127364537D01*
X111537185Y-127285185D01*
X111616537Y-127188494D01*
X111675502Y-127078180D01*
X111711812Y-126958482D01*
X111724072Y-126834000D01*
X111724072Y-125134000D01*
X111711812Y-125009518D01*
X111675502Y-124889820D01*
X111616537Y-124779506D01*
X111537185Y-124682815D01*
X111440494Y-124603463D01*
X111330180Y-124544498D01*
X111257620Y-124522487D01*
X111389475Y-124390632D01*
X111551990Y-124147411D01*
X111663932Y-123877158D01*
X111721000Y-123590260D01*
X111721000Y-123297740D01*
X111663932Y-123010842D01*
X111551990Y-122740589D01*
X111389475Y-122497368D01*
X111182632Y-122290525D01*
X111008240Y-122174000D01*
X111182632Y-122057475D01*
X111389475Y-121850632D01*
X111551990Y-121607411D01*
X111663932Y-121337158D01*
X111721000Y-121050260D01*
X111721000Y-120757740D01*
X111663932Y-120470842D01*
X111551990Y-120200589D01*
X111389475Y-119957368D01*
X111182632Y-119750525D01*
X111008240Y-119634000D01*
X111182632Y-119517475D01*
X111389475Y-119310632D01*
X111551990Y-119067411D01*
X111663932Y-118797158D01*
X111721000Y-118510260D01*
X111721000Y-118217740D01*
X111663932Y-117930842D01*
X111551990Y-117660589D01*
X111389475Y-117417368D01*
X111182632Y-117210525D01*
X111008240Y-117094000D01*
X111182632Y-116977475D01*
X111389475Y-116770632D01*
X111551990Y-116527411D01*
X111663932Y-116257158D01*
X111721000Y-115970260D01*
X111721000Y-115677740D01*
X111663932Y-115390842D01*
X111551990Y-115120589D01*
X111389475Y-114877368D01*
X111182632Y-114670525D01*
X111008240Y-114554000D01*
X111182632Y-114437475D01*
X111389475Y-114230632D01*
X111551990Y-113987411D01*
X111663932Y-113717158D01*
X111721000Y-113430260D01*
X111721000Y-113137740D01*
X111663932Y-112850842D01*
X111551990Y-112580589D01*
X111389475Y-112337368D01*
X111182632Y-112130525D01*
X111008240Y-112014000D01*
X111182632Y-111897475D01*
X111389475Y-111690632D01*
X111551990Y-111447411D01*
X111663932Y-111177158D01*
X111721000Y-110890260D01*
X111721000Y-110597740D01*
X111663932Y-110310842D01*
X111551990Y-110040589D01*
X111389475Y-109797368D01*
X111182632Y-109590525D01*
X111008240Y-109474000D01*
X111182632Y-109357475D01*
X111389475Y-109150632D01*
X111551990Y-108907411D01*
X111663932Y-108637158D01*
X111721000Y-108350260D01*
X111721000Y-108057740D01*
X111663932Y-107770842D01*
X111551990Y-107500589D01*
X111389475Y-107257368D01*
X111182632Y-107050525D01*
X111008240Y-106934000D01*
X111182632Y-106817475D01*
X111389475Y-106610632D01*
X111551990Y-106367411D01*
X111663932Y-106097158D01*
X111721000Y-105810260D01*
X111721000Y-105517740D01*
X111663932Y-105230842D01*
X111551990Y-104960589D01*
X111389475Y-104717368D01*
X111182632Y-104510525D01*
X111008240Y-104394000D01*
X111182632Y-104277475D01*
X111389475Y-104070632D01*
X111551990Y-103827411D01*
X111663932Y-103557158D01*
X111721000Y-103270260D01*
X111721000Y-102977740D01*
X111663932Y-102690842D01*
X111551990Y-102420589D01*
X111389475Y-102177368D01*
X111182632Y-101970525D01*
X111008240Y-101854000D01*
X111182632Y-101737475D01*
X111389475Y-101530632D01*
X111551990Y-101287411D01*
X111663932Y-101017158D01*
X111721000Y-100730260D01*
X111721000Y-100437740D01*
X111663932Y-100150842D01*
X111551990Y-99880589D01*
X111389475Y-99637368D01*
X111182632Y-99430525D01*
X111008240Y-99314000D01*
X111182632Y-99197475D01*
X111389475Y-98990632D01*
X111551990Y-98747411D01*
X111663932Y-98477158D01*
X111721000Y-98190260D01*
X111721000Y-97897740D01*
X111663932Y-97610842D01*
X111551990Y-97340589D01*
X111389475Y-97097368D01*
X111182632Y-96890525D01*
X110996000Y-96765822D01*
X110996000Y-94525322D01*
X110999676Y-94487999D01*
X110996000Y-94450676D01*
X110996000Y-94450667D01*
X110985003Y-94339014D01*
X110941546Y-94195753D01*
X110870974Y-94063723D01*
X110799799Y-93976997D01*
X110776001Y-93947999D01*
X110747003Y-93924201D01*
X109656804Y-92834002D01*
X109633001Y-92804999D01*
X109517276Y-92710026D01*
X109385247Y-92639454D01*
X109241986Y-92595997D01*
X109130333Y-92585000D01*
X109130322Y-92585000D01*
X109093000Y-92581324D01*
X109055678Y-92585000D01*
X108614341Y-92585000D01*
X108527120Y-92454465D01*
X108332535Y-92259880D01*
X108103727Y-92106995D01*
X108026485Y-92075000D01*
X108103727Y-92043005D01*
X108332535Y-91890120D01*
X108527120Y-91695535D01*
X108680005Y-91466727D01*
X108785314Y-91212490D01*
X108839000Y-90942592D01*
X108839000Y-90667408D01*
X108785314Y-90397510D01*
X108680005Y-90143273D01*
X108527120Y-89914465D01*
X108332535Y-89719880D01*
X108103727Y-89566995D01*
X108032057Y-89537308D01*
X108045023Y-89532636D01*
X108160980Y-89470656D01*
X108227960Y-89230565D01*
X107442000Y-88444605D01*
X106656040Y-89230565D01*
X106723020Y-89470656D01*
X106858760Y-89534485D01*
X106780273Y-89566995D01*
X106551465Y-89719880D01*
X106356880Y-89914465D01*
X106203995Y-90143273D01*
X106098686Y-90397510D01*
X106045000Y-90667408D01*
X106045000Y-90942592D01*
X106098686Y-91212490D01*
X106203995Y-91466727D01*
X106356880Y-91695535D01*
X106551465Y-91890120D01*
X106780273Y-92043005D01*
X106857515Y-92075000D01*
X106780273Y-92106995D01*
X106551465Y-92259880D01*
X106356880Y-92454465D01*
X106203995Y-92683273D01*
X106098686Y-92937510D01*
X106045000Y-93207408D01*
X106045000Y-93482592D01*
X106098686Y-93752490D01*
X106203995Y-94006727D01*
X106356880Y-94235535D01*
X106551465Y-94430120D01*
X106780273Y-94583005D01*
X106857515Y-94615000D01*
X106780273Y-94646995D01*
X106551465Y-94799880D01*
X106356880Y-94994465D01*
X106203995Y-95223273D01*
X106098686Y-95477510D01*
X106045000Y-95747408D01*
X106045000Y-96022592D01*
X106098686Y-96292490D01*
X106203995Y-96546727D01*
X106356880Y-96775535D01*
X106551465Y-96970120D01*
X106780273Y-97123005D01*
X106857515Y-97155000D01*
X106780273Y-97186995D01*
X106551465Y-97339880D01*
X106356880Y-97534465D01*
X106203995Y-97763273D01*
X106098686Y-98017510D01*
X106045000Y-98287408D01*
X106045000Y-98562592D01*
X106098686Y-98832490D01*
X106203995Y-99086727D01*
X106356880Y-99315535D01*
X106551465Y-99510120D01*
X106780273Y-99663005D01*
X106857515Y-99695000D01*
X106780273Y-99726995D01*
X106551465Y-99879880D01*
X106356880Y-100074465D01*
X106203995Y-100303273D01*
X106098686Y-100557510D01*
X106045000Y-100827408D01*
X106045000Y-101102592D01*
X106098686Y-101372490D01*
X106203995Y-101626727D01*
X106356880Y-101855535D01*
X106551465Y-102050120D01*
X106780273Y-102203005D01*
X106857515Y-102235000D01*
X106780273Y-102266995D01*
X106551465Y-102419880D01*
X106356880Y-102614465D01*
X106269659Y-102745000D01*
X105724802Y-102745000D01*
X102260804Y-99281003D01*
X102237001Y-99251999D01*
X102121276Y-99157026D01*
X101989247Y-99086454D01*
X101929746Y-99068405D01*
X101923502Y-99047820D01*
X101864537Y-98937506D01*
X101785185Y-98840815D01*
X101688494Y-98761463D01*
X101638986Y-98735000D01*
X101688494Y-98708537D01*
X101785185Y-98629185D01*
X101864537Y-98532494D01*
X101923502Y-98422180D01*
X101959812Y-98302482D01*
X101972072Y-98178000D01*
X101972072Y-97178000D01*
X101959812Y-97053518D01*
X101952071Y-97028000D01*
X101959812Y-97002482D01*
X101972072Y-96878000D01*
X101969000Y-96663750D01*
X101810250Y-96505000D01*
X100711000Y-96505000D01*
X100711000Y-96525000D01*
X100457000Y-96525000D01*
X100457000Y-96505000D01*
X99357750Y-96505000D01*
X99199000Y-96663750D01*
X99195928Y-96878000D01*
X99208188Y-97002482D01*
X99215929Y-97028000D01*
X99208188Y-97053518D01*
X99195928Y-97178000D01*
X99195928Y-98178000D01*
X99208188Y-98302482D01*
X99244498Y-98422180D01*
X99303463Y-98532494D01*
X99382815Y-98629185D01*
X99479506Y-98708537D01*
X99529014Y-98735000D01*
X99479506Y-98761463D01*
X99382815Y-98840815D01*
X99303463Y-98937506D01*
X99244498Y-99047820D01*
X99208188Y-99167518D01*
X99195928Y-99292000D01*
X99195928Y-100292000D01*
X99199868Y-100332000D01*
X97223711Y-100332000D01*
X97179774Y-100288063D01*
X97010256Y-100174795D01*
X96821898Y-100096774D01*
X96621939Y-100057000D01*
X96418061Y-100057000D01*
X96218102Y-100096774D01*
X96029744Y-100174795D01*
X95860226Y-100288063D01*
X95716063Y-100432226D01*
X95602795Y-100601744D01*
X95524774Y-100790102D01*
X95485000Y-100990061D01*
X95485000Y-101193939D01*
X95524774Y-101393898D01*
X95602795Y-101582256D01*
X95716063Y-101751774D01*
X95818289Y-101854000D01*
X95716063Y-101956226D01*
X95602795Y-102125744D01*
X95524774Y-102314102D01*
X95485000Y-102514061D01*
X95485000Y-102717939D01*
X95524774Y-102917898D01*
X95602795Y-103106256D01*
X95716063Y-103275774D01*
X95818289Y-103378000D01*
X95716063Y-103480226D01*
X95602795Y-103649744D01*
X95524774Y-103838102D01*
X95485000Y-104038061D01*
X95485000Y-104241939D01*
X95524774Y-104441898D01*
X95602795Y-104630256D01*
X95716063Y-104799774D01*
X95760000Y-104843711D01*
X95760001Y-108674668D01*
X95756324Y-108712000D01*
X95760001Y-108749333D01*
X95770998Y-108860986D01*
X95775931Y-108877247D01*
X95814454Y-109004246D01*
X95885026Y-109136276D01*
X95953715Y-109219973D01*
X95980000Y-109252001D01*
X96008998Y-109275799D01*
X98242201Y-111509003D01*
X98265999Y-111538001D01*
X98381724Y-111632974D01*
X98513753Y-111703546D01*
X98657014Y-111747003D01*
X98768667Y-111758000D01*
X98768676Y-111758000D01*
X98805999Y-111761676D01*
X98843322Y-111758000D01*
X99199868Y-111758000D01*
X99195928Y-111798000D01*
X99195928Y-112798000D01*
X99208188Y-112922482D01*
X99244498Y-113042180D01*
X99303463Y-113152494D01*
X99382815Y-113249185D01*
X99479506Y-113328537D01*
X99589820Y-113387502D01*
X99709518Y-113423812D01*
X99834000Y-113436072D01*
X101334000Y-113436072D01*
X101458482Y-113423812D01*
X101578180Y-113387502D01*
X101688494Y-113328537D01*
X101785185Y-113249185D01*
X101864537Y-113152494D01*
X101915046Y-113058000D01*
X103310678Y-113058000D01*
X103348000Y-113061676D01*
X103385322Y-113058000D01*
X103385333Y-113058000D01*
X103496986Y-113047003D01*
X103640247Y-113003546D01*
X103772276Y-112932974D01*
X103888001Y-112838001D01*
X103911804Y-112808997D01*
X104835802Y-111885000D01*
X106269659Y-111885000D01*
X106356880Y-112015535D01*
X106551465Y-112210120D01*
X106780273Y-112363005D01*
X106857515Y-112395000D01*
X106780273Y-112426995D01*
X106551465Y-112579880D01*
X106356880Y-112774465D01*
X106203995Y-113003273D01*
X106098686Y-113257510D01*
X106045000Y-113527408D01*
X106045000Y-113802592D01*
X106098686Y-114072490D01*
X106203995Y-114326727D01*
X106356880Y-114555535D01*
X106551465Y-114750120D01*
X106780273Y-114903005D01*
X106857515Y-114935000D01*
X106780273Y-114966995D01*
X106551465Y-115119880D01*
X106356880Y-115314465D01*
X106203995Y-115543273D01*
X106098686Y-115797510D01*
X106045000Y-116067408D01*
X106045000Y-116342592D01*
X106098686Y-116612490D01*
X106203995Y-116866727D01*
X106208673Y-116873728D01*
X106133753Y-116896454D01*
X106001724Y-116967026D01*
X105885999Y-117061999D01*
X105862200Y-117090998D01*
X105407002Y-117546197D01*
X105377999Y-117569999D01*
X105351737Y-117602000D01*
X105283026Y-117685724D01*
X105248142Y-117750987D01*
X105212454Y-117817754D01*
X105168997Y-117961015D01*
X105158000Y-118072668D01*
X105158000Y-118072678D01*
X105154324Y-118110000D01*
X105158000Y-118147323D01*
X105158001Y-120612668D01*
X105154324Y-120650000D01*
X105168998Y-120798985D01*
X105212454Y-120942246D01*
X105283026Y-121074276D01*
X105341070Y-121145002D01*
X105378000Y-121190001D01*
X105406998Y-121213799D01*
X105989200Y-121796002D01*
X106012999Y-121825001D01*
X106056863Y-121860999D01*
X106120211Y-121912987D01*
X105407002Y-122626197D01*
X105377999Y-122649999D01*
X105351737Y-122682000D01*
X105283026Y-122765724D01*
X105252947Y-122821998D01*
X105212454Y-122897754D01*
X105168997Y-123041015D01*
X105158000Y-123152668D01*
X105158000Y-123152678D01*
X105154324Y-123190000D01*
X105158000Y-123227323D01*
X105158001Y-124803668D01*
X105154324Y-124841000D01*
X105158001Y-124878333D01*
X105159840Y-124896999D01*
X105168998Y-124989985D01*
X105212454Y-125133246D01*
X105283026Y-125265276D01*
X105354201Y-125352002D01*
X105378000Y-125381001D01*
X105406998Y-125404799D01*
X106075628Y-126073430D01*
X106045000Y-126227408D01*
X106045000Y-126347973D01*
X106043323Y-126365000D01*
X106045000Y-126382027D01*
X106045000Y-126502592D01*
X106098686Y-126772490D01*
X106203995Y-127026727D01*
X106356880Y-127255535D01*
X106551465Y-127450120D01*
X106780273Y-127603005D01*
X106857515Y-127635000D01*
X106780273Y-127666995D01*
X106551465Y-127819880D01*
X106356880Y-128014465D01*
X106203995Y-128243273D01*
X106098686Y-128497510D01*
X106045000Y-128767408D01*
X106045000Y-129042592D01*
X106098686Y-129312490D01*
X106203995Y-129566727D01*
X106356880Y-129795535D01*
X106551465Y-129990120D01*
X106780273Y-130143005D01*
X106857515Y-130175000D01*
X106780273Y-130206995D01*
X106551465Y-130359880D01*
X106356880Y-130554465D01*
X106203995Y-130783273D01*
X106098686Y-131037510D01*
X106045000Y-131307408D01*
X106045000Y-131582592D01*
X106098686Y-131852490D01*
X106203995Y-132106727D01*
X106356880Y-132335535D01*
X106551465Y-132530120D01*
X106780273Y-132683005D01*
X106857515Y-132715000D01*
X106780273Y-132746995D01*
X106551465Y-132899880D01*
X106356880Y-133094465D01*
X106269659Y-133225000D01*
X105447322Y-133225000D01*
X105409999Y-133221324D01*
X105372677Y-133225000D01*
X105372667Y-133225000D01*
X105261014Y-133235997D01*
X105117753Y-133279454D01*
X104985724Y-133350026D01*
X104983319Y-133352000D01*
X103895087Y-133352000D01*
X103883812Y-133237518D01*
X103847502Y-133117820D01*
X103788537Y-133007506D01*
X103709185Y-132910815D01*
X103612494Y-132831463D01*
X103502180Y-132772498D01*
X103382482Y-132736188D01*
X103258000Y-132723928D01*
X102258000Y-132723928D01*
X102133518Y-132736188D01*
X102108000Y-132743929D01*
X102082482Y-132736188D01*
X101958000Y-132723928D01*
X100958000Y-132723928D01*
X100833518Y-132736188D01*
X100713820Y-132772498D01*
X100603506Y-132831463D01*
X100506815Y-132910815D01*
X100427463Y-133007506D01*
X100368498Y-133117820D01*
X100335379Y-133227000D01*
X90975469Y-133227000D01*
X90932000Y-133222719D01*
X90888531Y-133227000D01*
X90888523Y-133227000D01*
X90781731Y-133237518D01*
X90758509Y-133239805D01*
X90707903Y-133255157D01*
X90591687Y-133290411D01*
X90437941Y-133372589D01*
X90437939Y-133372590D01*
X90437940Y-133372590D01*
X90336953Y-133455468D01*
X90336951Y-133455470D01*
X90303183Y-133483183D01*
X90275470Y-133516951D01*
X88533422Y-135259000D01*
X82616828Y-135259000D01*
X82703727Y-135223005D01*
X82932535Y-135070120D01*
X83127120Y-134875535D01*
X83130818Y-134870000D01*
X88221531Y-134870000D01*
X88265000Y-134874281D01*
X88308469Y-134870000D01*
X88308477Y-134870000D01*
X88438490Y-134857195D01*
X88605313Y-134806589D01*
X88759059Y-134724411D01*
X88893817Y-134613817D01*
X88921534Y-134580044D01*
X94575049Y-128926530D01*
X94608817Y-128898817D01*
X94719411Y-128764059D01*
X94723712Y-128756013D01*
X94801589Y-128610314D01*
X94852195Y-128443490D01*
X94857069Y-128393998D01*
X94865000Y-128313477D01*
X94865000Y-128313469D01*
X94869281Y-128270000D01*
X94865000Y-128226531D01*
X94865000Y-95878000D01*
X99195928Y-95878000D01*
X99199000Y-96092250D01*
X99357750Y-96251000D01*
X100457000Y-96251000D01*
X100457000Y-95401750D01*
X100711000Y-95401750D01*
X100711000Y-96251000D01*
X101810250Y-96251000D01*
X101969000Y-96092250D01*
X101972072Y-95878000D01*
X101959812Y-95753518D01*
X101923502Y-95633820D01*
X101864537Y-95523506D01*
X101785185Y-95426815D01*
X101688494Y-95347463D01*
X101578180Y-95288498D01*
X101458482Y-95252188D01*
X101334000Y-95239928D01*
X100869750Y-95243000D01*
X100711000Y-95401750D01*
X100457000Y-95401750D01*
X100298250Y-95243000D01*
X99834000Y-95239928D01*
X99709518Y-95252188D01*
X99589820Y-95288498D01*
X99479506Y-95347463D01*
X99382815Y-95426815D01*
X99303463Y-95523506D01*
X99244498Y-95633820D01*
X99208188Y-95753518D01*
X99195928Y-95878000D01*
X94865000Y-95878000D01*
X94865000Y-88337017D01*
X106040090Y-88337017D01*
X106081078Y-88609133D01*
X106174364Y-88868023D01*
X106236344Y-88983980D01*
X106476435Y-89050960D01*
X107262395Y-88265000D01*
X107621605Y-88265000D01*
X108407565Y-89050960D01*
X108647656Y-88983980D01*
X108764756Y-88734952D01*
X108831023Y-88467865D01*
X108843910Y-88192983D01*
X108802922Y-87920867D01*
X108709636Y-87661977D01*
X108647656Y-87546020D01*
X108407565Y-87479040D01*
X107621605Y-88265000D01*
X107262395Y-88265000D01*
X106476435Y-87479040D01*
X106236344Y-87546020D01*
X106119244Y-87795048D01*
X106052977Y-88062135D01*
X106040090Y-88337017D01*
X94865000Y-88337017D01*
X94865000Y-87299435D01*
X106656040Y-87299435D01*
X107442000Y-88085395D01*
X108227960Y-87299435D01*
X108160980Y-87059344D01*
X107911952Y-86942244D01*
X107644865Y-86875977D01*
X107369983Y-86863090D01*
X107097867Y-86904078D01*
X106838977Y-86997364D01*
X106723020Y-87059344D01*
X106656040Y-87299435D01*
X94865000Y-87299435D01*
X94865000Y-86091578D01*
X96568578Y-84388000D01*
X102193928Y-84388000D01*
X102206188Y-84512482D01*
X102242498Y-84632180D01*
X102301463Y-84742494D01*
X102380815Y-84839185D01*
X102477506Y-84918537D01*
X102587820Y-84977502D01*
X102707518Y-85013812D01*
X102832000Y-85026072D01*
X103346250Y-85023000D01*
X103505000Y-84864250D01*
X103505000Y-83415000D01*
X103759000Y-83415000D01*
X103759000Y-84864250D01*
X103917750Y-85023000D01*
X104432000Y-85026072D01*
X104556482Y-85013812D01*
X104676180Y-84977502D01*
X104786494Y-84918537D01*
X104883185Y-84839185D01*
X104962537Y-84742494D01*
X105021502Y-84632180D01*
X105057812Y-84512482D01*
X105070072Y-84388000D01*
X105067000Y-83573750D01*
X104908250Y-83415000D01*
X103759000Y-83415000D01*
X103505000Y-83415000D01*
X102355750Y-83415000D01*
X102197000Y-83573750D01*
X102193928Y-84388000D01*
X96568578Y-84388000D01*
X102440080Y-78516499D01*
X102747001Y-78516499D01*
X102747001Y-78558299D01*
X102707518Y-78562188D01*
X102587820Y-78598498D01*
X102477506Y-78657463D01*
X102380815Y-78736815D01*
X102301463Y-78833506D01*
X102242498Y-78943820D01*
X102206188Y-79063518D01*
X102193928Y-79188000D01*
X102193928Y-81388000D01*
X102206188Y-81512482D01*
X102242498Y-81632180D01*
X102301463Y-81742494D01*
X102338809Y-81788000D01*
X102301463Y-81833506D01*
X102242498Y-81943820D01*
X102206188Y-82063518D01*
X102193928Y-82188000D01*
X102197000Y-83002250D01*
X102355750Y-83161000D01*
X103505000Y-83161000D01*
X103505000Y-83141000D01*
X103759000Y-83141000D01*
X103759000Y-83161000D01*
X104908250Y-83161000D01*
X105067000Y-83002250D01*
X105070072Y-82188000D01*
X105057812Y-82063518D01*
X105021502Y-81943820D01*
X104962537Y-81833506D01*
X104925191Y-81788000D01*
X104962537Y-81742494D01*
X105021502Y-81632180D01*
X105057812Y-81512482D01*
X105070072Y-81388000D01*
X105070072Y-80648000D01*
X106582928Y-80648000D01*
X106595188Y-80772482D01*
X106631498Y-80892180D01*
X106690463Y-81002494D01*
X106769815Y-81099185D01*
X106866506Y-81178537D01*
X106976820Y-81237502D01*
X107096518Y-81273812D01*
X107221000Y-81286072D01*
X107410250Y-81283000D01*
X107569000Y-81124250D01*
X107569000Y-80250000D01*
X107823000Y-80250000D01*
X107823000Y-81124250D01*
X107981750Y-81283000D01*
X108171000Y-81286072D01*
X108295482Y-81273812D01*
X108415180Y-81237502D01*
X108525494Y-81178537D01*
X108622185Y-81099185D01*
X108701537Y-81002494D01*
X108760502Y-80892180D01*
X108796812Y-80772482D01*
X108809072Y-80648000D01*
X108806000Y-80408750D01*
X108647250Y-80250000D01*
X107823000Y-80250000D01*
X107569000Y-80250000D01*
X106744750Y-80250000D01*
X106586000Y-80408750D01*
X106582928Y-80648000D01*
X105070072Y-80648000D01*
X105070072Y-79188000D01*
X105057812Y-79063518D01*
X105021502Y-78943820D01*
X104962537Y-78833506D01*
X104883185Y-78736815D01*
X104786494Y-78657463D01*
X104676180Y-78598498D01*
X104556482Y-78562188D01*
X104517000Y-78558299D01*
X104517000Y-78516499D01*
X105205024Y-78516499D01*
X105248501Y-78520781D01*
X105291977Y-78516499D01*
X106582928Y-78516499D01*
X106582928Y-78660500D01*
X106599752Y-78831316D01*
X106649577Y-78995567D01*
X106730488Y-79146942D01*
X106750099Y-79170839D01*
X106690463Y-79243506D01*
X106631498Y-79353820D01*
X106595188Y-79473518D01*
X106582928Y-79598000D01*
X106586000Y-79837250D01*
X106744750Y-79996000D01*
X107569000Y-79996000D01*
X107569000Y-79976000D01*
X107823000Y-79976000D01*
X107823000Y-79996000D01*
X108647250Y-79996000D01*
X108806000Y-79837250D01*
X108809072Y-79598000D01*
X108796812Y-79473518D01*
X108760502Y-79353820D01*
X108701537Y-79243506D01*
X108641901Y-79170839D01*
X108661512Y-79146942D01*
X108742423Y-78995567D01*
X108792248Y-78831316D01*
X108809072Y-78660500D01*
X108809072Y-78085500D01*
X108792248Y-77914684D01*
X108742423Y-77750433D01*
X108677542Y-77629047D01*
X108673501Y-77588022D01*
X108673501Y-76584625D01*
X108762983Y-76575812D01*
X108882681Y-76539502D01*
X108992995Y-76480537D01*
X109058501Y-76426778D01*
X109124007Y-76480537D01*
X109234321Y-76539502D01*
X109354019Y-76575812D01*
X109478501Y-76588072D01*
X110042751Y-76585000D01*
X110201501Y-76426250D01*
X110201501Y-74827000D01*
X110455501Y-74827000D01*
X110455501Y-76426250D01*
X110614251Y-76585000D01*
X111178501Y-76588072D01*
X111302983Y-76575812D01*
X111422681Y-76539502D01*
X111532995Y-76480537D01*
X111629686Y-76401185D01*
X111709038Y-76304494D01*
X111768003Y-76194180D01*
X111804313Y-76074482D01*
X111816573Y-75950000D01*
X111813501Y-74985750D01*
X111654751Y-74827000D01*
X110455501Y-74827000D01*
X110201501Y-74827000D01*
X110181501Y-74827000D01*
X110181501Y-74573000D01*
X110201501Y-74573000D01*
X110201501Y-72973750D01*
X110455501Y-72973750D01*
X110455501Y-74573000D01*
X111654751Y-74573000D01*
X111813501Y-74414250D01*
X111816573Y-73450000D01*
X111804313Y-73325518D01*
X111768003Y-73205820D01*
X111709038Y-73095506D01*
X111629686Y-72998815D01*
X111532995Y-72919463D01*
X111422681Y-72860498D01*
X111302983Y-72824188D01*
X111178501Y-72811928D01*
X110614251Y-72815000D01*
X110455501Y-72973750D01*
X110201501Y-72973750D01*
X110042751Y-72815000D01*
X109478501Y-72811928D01*
X109354019Y-72824188D01*
X109234321Y-72860498D01*
X109124007Y-72919463D01*
X109058501Y-72973222D01*
X108992995Y-72919463D01*
X108882681Y-72860498D01*
X108762983Y-72824188D01*
X108638501Y-72811928D01*
X106938501Y-72811928D01*
X106814019Y-72824188D01*
X106694321Y-72860498D01*
X106584007Y-72919463D01*
X106518501Y-72973222D01*
X106452995Y-72919463D01*
X106342681Y-72860498D01*
X106222983Y-72824188D01*
X106098501Y-72811928D01*
X104398501Y-72811928D01*
X104274019Y-72824188D01*
X104154321Y-72860498D01*
X104044007Y-72919463D01*
X103978501Y-72973222D01*
X103912995Y-72919463D01*
X103802681Y-72860498D01*
X103682983Y-72824188D01*
X103558501Y-72811928D01*
X101858501Y-72811928D01*
X101734019Y-72824188D01*
X101614321Y-72860498D01*
X101504007Y-72919463D01*
X101438501Y-72973222D01*
X101372995Y-72919463D01*
X101262681Y-72860498D01*
X101142983Y-72824188D01*
X101018501Y-72811928D01*
X100931658Y-72811928D01*
X101008276Y-72770974D01*
X101124001Y-72676001D01*
X101147804Y-72646997D01*
X108299505Y-65495297D01*
X108328502Y-65471500D01*
X108401121Y-65383014D01*
X108423475Y-65355776D01*
X108494047Y-65223746D01*
X108529241Y-65107724D01*
X108537504Y-65080485D01*
X108548501Y-64968832D01*
X108548501Y-64968823D01*
X108552177Y-64931500D01*
X108548501Y-64894177D01*
X108548501Y-52588072D01*
X108638501Y-52588072D01*
X108762983Y-52575812D01*
X108882681Y-52539502D01*
X108992995Y-52480537D01*
X109058501Y-52426778D01*
X109124007Y-52480537D01*
X109234321Y-52539502D01*
X109354019Y-52575812D01*
X109478501Y-52588072D01*
X110042751Y-52585000D01*
X110201501Y-52426250D01*
X110201501Y-50827000D01*
X110455501Y-50827000D01*
X110455501Y-52426250D01*
X110614251Y-52585000D01*
X111178501Y-52588072D01*
X111302983Y-52575812D01*
X111422681Y-52539502D01*
X111532995Y-52480537D01*
X111629686Y-52401185D01*
X111709038Y-52304494D01*
X111768003Y-52194180D01*
X111804313Y-52074482D01*
X111816573Y-51950000D01*
X111813501Y-50985750D01*
X111654751Y-50827000D01*
X110455501Y-50827000D01*
X110201501Y-50827000D01*
X110181501Y-50827000D01*
X110181501Y-50573000D01*
X110201501Y-50573000D01*
X110201501Y-48973750D01*
X110455501Y-48973750D01*
X110455501Y-50573000D01*
X111654751Y-50573000D01*
X111813501Y-50414250D01*
X111816573Y-49450000D01*
X111804313Y-49325518D01*
X111768003Y-49205820D01*
X111709038Y-49095506D01*
X111629686Y-48998815D01*
X111532995Y-48919463D01*
X111422681Y-48860498D01*
X111302983Y-48824188D01*
X111178501Y-48811928D01*
X110614251Y-48815000D01*
X110455501Y-48973750D01*
X110201501Y-48973750D01*
X110042751Y-48815000D01*
X109478501Y-48811928D01*
X109354019Y-48824188D01*
X109234321Y-48860498D01*
X109124007Y-48919463D01*
X109058501Y-48973222D01*
X108992995Y-48919463D01*
X108882681Y-48860498D01*
X108762983Y-48824188D01*
X108638501Y-48811928D01*
X106938501Y-48811928D01*
X106814019Y-48824188D01*
X106694321Y-48860498D01*
X106584007Y-48919463D01*
X106518501Y-48973222D01*
X106452995Y-48919463D01*
X106342681Y-48860498D01*
X106222983Y-48824188D01*
X106098501Y-48811928D01*
X106008501Y-48811928D01*
X106008501Y-47881823D01*
X106012177Y-47844500D01*
X106008501Y-47807178D01*
X106008501Y-47807168D01*
X105997504Y-47695515D01*
X105954047Y-47552254D01*
X105883475Y-47420225D01*
X105788502Y-47304500D01*
X105759499Y-47280698D01*
X105719804Y-47241003D01*
X105696001Y-47211999D01*
X105580276Y-47117026D01*
X105448247Y-47046454D01*
X105304986Y-47002997D01*
X105193333Y-46992000D01*
X105193322Y-46992000D01*
X105156000Y-46988324D01*
X105118678Y-46992000D01*
X90969322Y-46992000D01*
X90931999Y-46988324D01*
X90894676Y-46992000D01*
X90894667Y-46992000D01*
X90783014Y-47002997D01*
X90639753Y-47046454D01*
X90507724Y-47117026D01*
X90507722Y-47117027D01*
X90507723Y-47117027D01*
X90420996Y-47188201D01*
X90420992Y-47188205D01*
X90391999Y-47211999D01*
X90368205Y-47240992D01*
X87880998Y-49728201D01*
X87852000Y-49751999D01*
X87828202Y-49780997D01*
X87828201Y-49780998D01*
X87757026Y-49867724D01*
X87686454Y-49999754D01*
X87642998Y-50143015D01*
X87628324Y-50292000D01*
X87632001Y-50329332D01*
X87632000Y-60137198D01*
X85304199Y-62465000D01*
X85242061Y-62465000D01*
X85042102Y-62504774D01*
X84853744Y-62582795D01*
X84684226Y-62696063D01*
X84640289Y-62740000D01*
X84062072Y-62740000D01*
X84062072Y-62734000D01*
X84049812Y-62609518D01*
X84013502Y-62489820D01*
X84010391Y-62484000D01*
X84013502Y-62478180D01*
X84049812Y-62358482D01*
X84062072Y-62234000D01*
X84062072Y-62228000D01*
X84132289Y-62228000D01*
X84176226Y-62271937D01*
X84345744Y-62385205D01*
X84534102Y-62463226D01*
X84734061Y-62503000D01*
X84937939Y-62503000D01*
X85137898Y-62463226D01*
X85326256Y-62385205D01*
X85495774Y-62271937D01*
X85639937Y-62127774D01*
X85753205Y-61958256D01*
X85831226Y-61769898D01*
X85871000Y-61569939D01*
X85871000Y-61366061D01*
X85831226Y-61166102D01*
X85753205Y-60977744D01*
X85639937Y-60808226D01*
X85495774Y-60664063D01*
X85326256Y-60550795D01*
X85137898Y-60472774D01*
X84937939Y-60433000D01*
X84734061Y-60433000D01*
X84534102Y-60472774D01*
X84345744Y-60550795D01*
X84176226Y-60664063D01*
X84132289Y-60708000D01*
X84059511Y-60708000D01*
X84049812Y-60609518D01*
X84013502Y-60489820D01*
X84010391Y-60484000D01*
X84013502Y-60478180D01*
X84049812Y-60358482D01*
X84062072Y-60234000D01*
X84062072Y-58734000D01*
X84049812Y-58609518D01*
X84013502Y-58489820D01*
X84010391Y-58484000D01*
X84013502Y-58478180D01*
X84049812Y-58358482D01*
X84062072Y-58234000D01*
X84059000Y-57769750D01*
X83900250Y-57611000D01*
X82551000Y-57611000D01*
X82551000Y-57631000D01*
X82297000Y-57631000D01*
X82297000Y-57611000D01*
X80947750Y-57611000D01*
X80789000Y-57769750D01*
X80785928Y-58234000D01*
X80798188Y-58358482D01*
X80834498Y-58478180D01*
X80837609Y-58484000D01*
X80834498Y-58489820D01*
X80801379Y-58599000D01*
X79661148Y-58599000D01*
X79705512Y-58544942D01*
X79786423Y-58393567D01*
X79836248Y-58229316D01*
X79853072Y-58058500D01*
X79853072Y-57483500D01*
X79836248Y-57312684D01*
X79786423Y-57148433D01*
X79705512Y-56997058D01*
X79685901Y-56973161D01*
X79745537Y-56900494D01*
X79804502Y-56790180D01*
X79840812Y-56670482D01*
X79853072Y-56546000D01*
X79850000Y-56306750D01*
X79691250Y-56148000D01*
X78867000Y-56148000D01*
X78867000Y-56168000D01*
X78613000Y-56168000D01*
X78613000Y-56148000D01*
X77788750Y-56148000D01*
X77630000Y-56306750D01*
X77626928Y-56546000D01*
X77639188Y-56670482D01*
X77675498Y-56790180D01*
X77734463Y-56900494D01*
X77794099Y-56973161D01*
X77774488Y-56997058D01*
X77693577Y-57148433D01*
X77643752Y-57312684D01*
X77626928Y-57483500D01*
X77626928Y-58058500D01*
X77643752Y-58229316D01*
X77693577Y-58393567D01*
X77774488Y-58544942D01*
X77855000Y-58643046D01*
X77855000Y-59069421D01*
X77128951Y-59795471D01*
X77095184Y-59823183D01*
X77067471Y-59856951D01*
X77067468Y-59856954D01*
X76984590Y-59957941D01*
X76902412Y-60111687D01*
X76851805Y-60278510D01*
X76834719Y-60452000D01*
X76839001Y-60495479D01*
X76839000Y-75833421D01*
X76112951Y-76559471D01*
X76079184Y-76587183D01*
X76051471Y-76620951D01*
X76051468Y-76620954D01*
X75968590Y-76721941D01*
X75886412Y-76875687D01*
X75835805Y-77042510D01*
X75818719Y-77216000D01*
X75823001Y-77259479D01*
X75823000Y-131020523D01*
X75818718Y-131064000D01*
X74395000Y-131064000D01*
X74395000Y-55496000D01*
X77626928Y-55496000D01*
X77630000Y-55735250D01*
X77788750Y-55894000D01*
X78613000Y-55894000D01*
X78613000Y-55019750D01*
X78867000Y-55019750D01*
X78867000Y-55894000D01*
X79691250Y-55894000D01*
X79850000Y-55735250D01*
X79853072Y-55496000D01*
X79840812Y-55371518D01*
X79804502Y-55251820D01*
X79745537Y-55141506D01*
X79666185Y-55044815D01*
X79569494Y-54965463D01*
X79459180Y-54906498D01*
X79339482Y-54870188D01*
X79215000Y-54857928D01*
X79025750Y-54861000D01*
X78867000Y-55019750D01*
X78613000Y-55019750D01*
X78454250Y-54861000D01*
X78265000Y-54857928D01*
X78140518Y-54870188D01*
X78020820Y-54906498D01*
X77910506Y-54965463D01*
X77813815Y-55044815D01*
X77734463Y-55141506D01*
X77675498Y-55251820D01*
X77639188Y-55371518D01*
X77626928Y-55496000D01*
X74395000Y-55496000D01*
X74395000Y-51950000D01*
X78380429Y-51950000D01*
X78392689Y-52074482D01*
X78428999Y-52194180D01*
X78487964Y-52304494D01*
X78567316Y-52401185D01*
X78664007Y-52480537D01*
X78774321Y-52539502D01*
X78894019Y-52575812D01*
X79018501Y-52588072D01*
X79582751Y-52585000D01*
X79741501Y-52426250D01*
X79741501Y-50827000D01*
X78542251Y-50827000D01*
X78383501Y-50985750D01*
X78380429Y-51950000D01*
X74395000Y-51950000D01*
X74395000Y-49450000D01*
X78380429Y-49450000D01*
X78383501Y-50414250D01*
X78542251Y-50573000D01*
X79741501Y-50573000D01*
X79741501Y-48973750D01*
X79582751Y-48815000D01*
X79018501Y-48811928D01*
X78894019Y-48824188D01*
X78774321Y-48860498D01*
X78664007Y-48919463D01*
X78567316Y-48998815D01*
X78487964Y-49095506D01*
X78428999Y-49205820D01*
X78392689Y-49325518D01*
X78380429Y-49450000D01*
X74395000Y-49450000D01*
X74395000Y-47820000D01*
X78157928Y-47820000D01*
X78170188Y-47944482D01*
X78206498Y-48064180D01*
X78265463Y-48174494D01*
X78344815Y-48271185D01*
X78441506Y-48350537D01*
X78551820Y-48409502D01*
X78671518Y-48445812D01*
X78796000Y-48458072D01*
X79185250Y-48455000D01*
X79344000Y-48296250D01*
X79344000Y-45847000D01*
X79598000Y-45847000D01*
X79598000Y-48296250D01*
X79756750Y-48455000D01*
X80146000Y-48458072D01*
X80270482Y-48445812D01*
X80390180Y-48409502D01*
X80500494Y-48350537D01*
X80597185Y-48271185D01*
X80676537Y-48174494D01*
X80735502Y-48064180D01*
X80771812Y-47944482D01*
X80784072Y-47820000D01*
X80781000Y-46005750D01*
X80622250Y-45847000D01*
X79598000Y-45847000D01*
X79344000Y-45847000D01*
X78319750Y-45847000D01*
X78161000Y-46005750D01*
X78157928Y-47820000D01*
X74395000Y-47820000D01*
X74395000Y-44413895D01*
X74384365Y-44305915D01*
X74370000Y-44258560D01*
X74370000Y-43915000D01*
X78158428Y-43915000D01*
X78161000Y-45434250D01*
G37*
G04 #@! TD.AperFunction*
D24*
X91315001Y-100896288D02*
X91271063Y-100940226D01*
X91157795Y-101109744D01*
X91079774Y-101298102D01*
X91040000Y-101498061D01*
X91040000Y-101701939D01*
X91079774Y-101901898D01*
X91157795Y-102090256D01*
X91271063Y-102259774D01*
X91415226Y-102403937D01*
X91584744Y-102517205D01*
X91773102Y-102595226D01*
X91973061Y-102635000D01*
X92176939Y-102635000D01*
X92376898Y-102595226D01*
X92565256Y-102517205D01*
X92734774Y-102403937D01*
X92878937Y-102259774D01*
X92992205Y-102090256D01*
X93070226Y-101901898D01*
X93095000Y-101777348D01*
X93095001Y-127903420D01*
X87898422Y-133100000D01*
X83130818Y-133100000D01*
X83127120Y-133094465D01*
X82932535Y-132899880D01*
X82703727Y-132746995D01*
X82626485Y-132715000D01*
X82703727Y-132683005D01*
X82932535Y-132530120D01*
X83127120Y-132335535D01*
X83130818Y-132330000D01*
X84471793Y-132330000D01*
X84489506Y-132344537D01*
X84599820Y-132403502D01*
X84719518Y-132439812D01*
X84844000Y-132452072D01*
X85844000Y-132452072D01*
X85968482Y-132439812D01*
X85994000Y-132432071D01*
X86019518Y-132439812D01*
X86144000Y-132452072D01*
X86358250Y-132449000D01*
X86517000Y-132290250D01*
X86517000Y-131191000D01*
X86771000Y-131191000D01*
X86771000Y-132290250D01*
X86929750Y-132449000D01*
X87144000Y-132452072D01*
X87268482Y-132439812D01*
X87388180Y-132403502D01*
X87498494Y-132344537D01*
X87595185Y-132265185D01*
X87674537Y-132168494D01*
X87733502Y-132058180D01*
X87769812Y-131938482D01*
X87782072Y-131814000D01*
X87779000Y-131349750D01*
X87620250Y-131191000D01*
X86771000Y-131191000D01*
X86517000Y-131191000D01*
X86497000Y-131191000D01*
X86497000Y-130937000D01*
X86517000Y-130937000D01*
X86517000Y-129837750D01*
X86771000Y-129837750D01*
X86771000Y-130937000D01*
X87620250Y-130937000D01*
X87779000Y-130778250D01*
X87782072Y-130314000D01*
X87769812Y-130189518D01*
X87733502Y-130069820D01*
X87674537Y-129959506D01*
X87595185Y-129862815D01*
X87498494Y-129783463D01*
X87388180Y-129724498D01*
X87268482Y-129688188D01*
X87144000Y-129675928D01*
X86929750Y-129679000D01*
X86771000Y-129837750D01*
X86517000Y-129837750D01*
X86358250Y-129679000D01*
X86144000Y-129675928D01*
X86019518Y-129688188D01*
X85994000Y-129695929D01*
X85968482Y-129688188D01*
X85844000Y-129675928D01*
X84844000Y-129675928D01*
X84719518Y-129688188D01*
X84599820Y-129724498D01*
X84489506Y-129783463D01*
X84392815Y-129862815D01*
X84313463Y-129959506D01*
X84254498Y-130069820D01*
X84218188Y-130189518D01*
X84205928Y-130314000D01*
X84205928Y-130560000D01*
X83130818Y-130560000D01*
X83127120Y-130554465D01*
X82932535Y-130359880D01*
X82703727Y-130206995D01*
X82626485Y-130175000D01*
X82703727Y-130143005D01*
X82932535Y-129990120D01*
X83127120Y-129795535D01*
X83280005Y-129566727D01*
X83385314Y-129312490D01*
X83439000Y-129042592D01*
X83439000Y-128767408D01*
X83385314Y-128497510D01*
X83280005Y-128243273D01*
X83127120Y-128014465D01*
X82932535Y-127819880D01*
X82703727Y-127666995D01*
X82626485Y-127635000D01*
X82703727Y-127603005D01*
X82932535Y-127450120D01*
X83127120Y-127255535D01*
X83280005Y-127026727D01*
X83385314Y-126772490D01*
X83439000Y-126502592D01*
X83439000Y-126227408D01*
X83385314Y-125957510D01*
X83280005Y-125703273D01*
X83127120Y-125474465D01*
X82932535Y-125279880D01*
X82703727Y-125126995D01*
X82626485Y-125095000D01*
X82703727Y-125063005D01*
X82932535Y-124910120D01*
X83127120Y-124715535D01*
X83280005Y-124486727D01*
X83385314Y-124232490D01*
X83439000Y-123962592D01*
X83439000Y-123687408D01*
X83385314Y-123417510D01*
X83280005Y-123163273D01*
X83127120Y-122934465D01*
X82932535Y-122739880D01*
X82703727Y-122586995D01*
X82626485Y-122555000D01*
X82703727Y-122523005D01*
X82932535Y-122370120D01*
X83127120Y-122175535D01*
X83130818Y-122170000D01*
X84329793Y-122170000D01*
X84347506Y-122184537D01*
X84457820Y-122243502D01*
X84577518Y-122279812D01*
X84702000Y-122292072D01*
X85702000Y-122292072D01*
X85826482Y-122279812D01*
X85852000Y-122272071D01*
X85877518Y-122279812D01*
X86002000Y-122292072D01*
X86216250Y-122289000D01*
X86375000Y-122130250D01*
X86375000Y-121031000D01*
X86629000Y-121031000D01*
X86629000Y-122130250D01*
X86787750Y-122289000D01*
X87002000Y-122292072D01*
X87126482Y-122279812D01*
X87246180Y-122243502D01*
X87356494Y-122184537D01*
X87453185Y-122105185D01*
X87532537Y-122008494D01*
X87591502Y-121898180D01*
X87627812Y-121778482D01*
X87640072Y-121654000D01*
X87637000Y-121189750D01*
X87478250Y-121031000D01*
X86629000Y-121031000D01*
X86375000Y-121031000D01*
X86355000Y-121031000D01*
X86355000Y-120777000D01*
X86375000Y-120777000D01*
X86375000Y-119677750D01*
X86629000Y-119677750D01*
X86629000Y-120777000D01*
X87478250Y-120777000D01*
X87637000Y-120618250D01*
X87640072Y-120154000D01*
X87627812Y-120029518D01*
X87591502Y-119909820D01*
X87532537Y-119799506D01*
X87453185Y-119702815D01*
X87356494Y-119623463D01*
X87246180Y-119564498D01*
X87126482Y-119528188D01*
X87002000Y-119515928D01*
X86787750Y-119519000D01*
X86629000Y-119677750D01*
X86375000Y-119677750D01*
X86216250Y-119519000D01*
X86002000Y-119515928D01*
X85877518Y-119528188D01*
X85852000Y-119535929D01*
X85826482Y-119528188D01*
X85702000Y-119515928D01*
X84702000Y-119515928D01*
X84577518Y-119528188D01*
X84457820Y-119564498D01*
X84347506Y-119623463D01*
X84250815Y-119702815D01*
X84171463Y-119799506D01*
X84112498Y-119909820D01*
X84076188Y-120029518D01*
X84063928Y-120154000D01*
X84063928Y-120400000D01*
X83130818Y-120400000D01*
X83127120Y-120394465D01*
X82932535Y-120199880D01*
X82703727Y-120046995D01*
X82626485Y-120015000D01*
X82703727Y-119983005D01*
X82932535Y-119830120D01*
X83127120Y-119635535D01*
X83280005Y-119406727D01*
X83385314Y-119152490D01*
X83427030Y-118942771D01*
X90681004Y-111688798D01*
X90710001Y-111665001D01*
X90804974Y-111549276D01*
X90875546Y-111417247D01*
X90919003Y-111273986D01*
X90930000Y-111162333D01*
X90930000Y-111162324D01*
X90933676Y-111125001D01*
X90930000Y-111087678D01*
X90930000Y-100730000D01*
X90996939Y-100730000D01*
X91196898Y-100690226D01*
X91315001Y-100641306D01*
X91315001Y-100896288D01*
G04 #@! TA.AperFunction,Conductor*
D25*
G36*
X91315001Y-100896288D02*
G01*
X91271063Y-100940226D01*
X91157795Y-101109744D01*
X91079774Y-101298102D01*
X91040000Y-101498061D01*
X91040000Y-101701939D01*
X91079774Y-101901898D01*
X91157795Y-102090256D01*
X91271063Y-102259774D01*
X91415226Y-102403937D01*
X91584744Y-102517205D01*
X91773102Y-102595226D01*
X91973061Y-102635000D01*
X92176939Y-102635000D01*
X92376898Y-102595226D01*
X92565256Y-102517205D01*
X92734774Y-102403937D01*
X92878937Y-102259774D01*
X92992205Y-102090256D01*
X93070226Y-101901898D01*
X93095000Y-101777348D01*
X93095001Y-127903420D01*
X87898422Y-133100000D01*
X83130818Y-133100000D01*
X83127120Y-133094465D01*
X82932535Y-132899880D01*
X82703727Y-132746995D01*
X82626485Y-132715000D01*
X82703727Y-132683005D01*
X82932535Y-132530120D01*
X83127120Y-132335535D01*
X83130818Y-132330000D01*
X84471793Y-132330000D01*
X84489506Y-132344537D01*
X84599820Y-132403502D01*
X84719518Y-132439812D01*
X84844000Y-132452072D01*
X85844000Y-132452072D01*
X85968482Y-132439812D01*
X85994000Y-132432071D01*
X86019518Y-132439812D01*
X86144000Y-132452072D01*
X86358250Y-132449000D01*
X86517000Y-132290250D01*
X86517000Y-131191000D01*
X86771000Y-131191000D01*
X86771000Y-132290250D01*
X86929750Y-132449000D01*
X87144000Y-132452072D01*
X87268482Y-132439812D01*
X87388180Y-132403502D01*
X87498494Y-132344537D01*
X87595185Y-132265185D01*
X87674537Y-132168494D01*
X87733502Y-132058180D01*
X87769812Y-131938482D01*
X87782072Y-131814000D01*
X87779000Y-131349750D01*
X87620250Y-131191000D01*
X86771000Y-131191000D01*
X86517000Y-131191000D01*
X86497000Y-131191000D01*
X86497000Y-130937000D01*
X86517000Y-130937000D01*
X86517000Y-129837750D01*
X86771000Y-129837750D01*
X86771000Y-130937000D01*
X87620250Y-130937000D01*
X87779000Y-130778250D01*
X87782072Y-130314000D01*
X87769812Y-130189518D01*
X87733502Y-130069820D01*
X87674537Y-129959506D01*
X87595185Y-129862815D01*
X87498494Y-129783463D01*
X87388180Y-129724498D01*
X87268482Y-129688188D01*
X87144000Y-129675928D01*
X86929750Y-129679000D01*
X86771000Y-129837750D01*
X86517000Y-129837750D01*
X86358250Y-129679000D01*
X86144000Y-129675928D01*
X86019518Y-129688188D01*
X85994000Y-129695929D01*
X85968482Y-129688188D01*
X85844000Y-129675928D01*
X84844000Y-129675928D01*
X84719518Y-129688188D01*
X84599820Y-129724498D01*
X84489506Y-129783463D01*
X84392815Y-129862815D01*
X84313463Y-129959506D01*
X84254498Y-130069820D01*
X84218188Y-130189518D01*
X84205928Y-130314000D01*
X84205928Y-130560000D01*
X83130818Y-130560000D01*
X83127120Y-130554465D01*
X82932535Y-130359880D01*
X82703727Y-130206995D01*
X82626485Y-130175000D01*
X82703727Y-130143005D01*
X82932535Y-129990120D01*
X83127120Y-129795535D01*
X83280005Y-129566727D01*
X83385314Y-129312490D01*
X83439000Y-129042592D01*
X83439000Y-128767408D01*
X83385314Y-128497510D01*
X83280005Y-128243273D01*
X83127120Y-128014465D01*
X82932535Y-127819880D01*
X82703727Y-127666995D01*
X82626485Y-127635000D01*
X82703727Y-127603005D01*
X82932535Y-127450120D01*
X83127120Y-127255535D01*
X83280005Y-127026727D01*
X83385314Y-126772490D01*
X83439000Y-126502592D01*
X83439000Y-126227408D01*
X83385314Y-125957510D01*
X83280005Y-125703273D01*
X83127120Y-125474465D01*
X82932535Y-125279880D01*
X82703727Y-125126995D01*
X82626485Y-125095000D01*
X82703727Y-125063005D01*
X82932535Y-124910120D01*
X83127120Y-124715535D01*
X83280005Y-124486727D01*
X83385314Y-124232490D01*
X83439000Y-123962592D01*
X83439000Y-123687408D01*
X83385314Y-123417510D01*
X83280005Y-123163273D01*
X83127120Y-122934465D01*
X82932535Y-122739880D01*
X82703727Y-122586995D01*
X82626485Y-122555000D01*
X82703727Y-122523005D01*
X82932535Y-122370120D01*
X83127120Y-122175535D01*
X83130818Y-122170000D01*
X84329793Y-122170000D01*
X84347506Y-122184537D01*
X84457820Y-122243502D01*
X84577518Y-122279812D01*
X84702000Y-122292072D01*
X85702000Y-122292072D01*
X85826482Y-122279812D01*
X85852000Y-122272071D01*
X85877518Y-122279812D01*
X86002000Y-122292072D01*
X86216250Y-122289000D01*
X86375000Y-122130250D01*
X86375000Y-121031000D01*
X86629000Y-121031000D01*
X86629000Y-122130250D01*
X86787750Y-122289000D01*
X87002000Y-122292072D01*
X87126482Y-122279812D01*
X87246180Y-122243502D01*
X87356494Y-122184537D01*
X87453185Y-122105185D01*
X87532537Y-122008494D01*
X87591502Y-121898180D01*
X87627812Y-121778482D01*
X87640072Y-121654000D01*
X87637000Y-121189750D01*
X87478250Y-121031000D01*
X86629000Y-121031000D01*
X86375000Y-121031000D01*
X86355000Y-121031000D01*
X86355000Y-120777000D01*
X86375000Y-120777000D01*
X86375000Y-119677750D01*
X86629000Y-119677750D01*
X86629000Y-120777000D01*
X87478250Y-120777000D01*
X87637000Y-120618250D01*
X87640072Y-120154000D01*
X87627812Y-120029518D01*
X87591502Y-119909820D01*
X87532537Y-119799506D01*
X87453185Y-119702815D01*
X87356494Y-119623463D01*
X87246180Y-119564498D01*
X87126482Y-119528188D01*
X87002000Y-119515928D01*
X86787750Y-119519000D01*
X86629000Y-119677750D01*
X86375000Y-119677750D01*
X86216250Y-119519000D01*
X86002000Y-119515928D01*
X85877518Y-119528188D01*
X85852000Y-119535929D01*
X85826482Y-119528188D01*
X85702000Y-119515928D01*
X84702000Y-119515928D01*
X84577518Y-119528188D01*
X84457820Y-119564498D01*
X84347506Y-119623463D01*
X84250815Y-119702815D01*
X84171463Y-119799506D01*
X84112498Y-119909820D01*
X84076188Y-120029518D01*
X84063928Y-120154000D01*
X84063928Y-120400000D01*
X83130818Y-120400000D01*
X83127120Y-120394465D01*
X82932535Y-120199880D01*
X82703727Y-120046995D01*
X82626485Y-120015000D01*
X82703727Y-119983005D01*
X82932535Y-119830120D01*
X83127120Y-119635535D01*
X83280005Y-119406727D01*
X83385314Y-119152490D01*
X83427030Y-118942771D01*
X90681004Y-111688798D01*
X90710001Y-111665001D01*
X90804974Y-111549276D01*
X90875546Y-111417247D01*
X90919003Y-111273986D01*
X90930000Y-111162333D01*
X90930000Y-111162324D01*
X90933676Y-111125001D01*
X90930000Y-111087678D01*
X90930000Y-100730000D01*
X90996939Y-100730000D01*
X91196898Y-100690226D01*
X91315001Y-100641306D01*
X91315001Y-100896288D01*
G37*
G04 #@! TD.AperFunction*
D24*
X81192953Y-80920532D02*
X81192958Y-80920536D01*
X82208953Y-81936532D01*
X82208958Y-81936536D01*
X84967001Y-84694580D01*
X84967000Y-85603378D01*
X84857820Y-85636498D01*
X84747506Y-85695463D01*
X84650815Y-85774815D01*
X84571463Y-85871506D01*
X84512498Y-85981820D01*
X84476188Y-86101518D01*
X84463928Y-86226000D01*
X84463928Y-87226000D01*
X84476188Y-87350482D01*
X84483929Y-87376000D01*
X84476188Y-87401518D01*
X84465996Y-87505000D01*
X83214341Y-87505000D01*
X83127120Y-87374465D01*
X82932535Y-87179880D01*
X82703727Y-87026995D01*
X82449490Y-86921686D01*
X82179592Y-86868000D01*
X81904408Y-86868000D01*
X81634510Y-86921686D01*
X81380273Y-87026995D01*
X81151465Y-87179880D01*
X80956880Y-87374465D01*
X80803995Y-87603273D01*
X80698686Y-87857510D01*
X80645000Y-88127408D01*
X80645000Y-88402592D01*
X80698686Y-88672490D01*
X80803995Y-88926727D01*
X80956880Y-89155535D01*
X81151465Y-89350120D01*
X81380273Y-89503005D01*
X81457515Y-89535000D01*
X81380273Y-89566995D01*
X81151465Y-89719880D01*
X80956880Y-89914465D01*
X80869659Y-90045000D01*
X80428322Y-90045000D01*
X80390999Y-90041324D01*
X80353676Y-90045000D01*
X80353667Y-90045000D01*
X80242014Y-90055997D01*
X80098753Y-90099454D01*
X79966723Y-90170026D01*
X79883083Y-90238668D01*
X79850999Y-90264999D01*
X79827201Y-90293997D01*
X78736998Y-91384201D01*
X78708000Y-91407999D01*
X78684202Y-91436997D01*
X78684201Y-91436998D01*
X78613026Y-91523724D01*
X78542454Y-91655754D01*
X78498998Y-91799015D01*
X78484324Y-91948000D01*
X78488001Y-91985332D01*
X78488001Y-93209821D01*
X78301368Y-93334525D01*
X78094525Y-93541368D01*
X77932010Y-93784589D01*
X77820068Y-94054842D01*
X77763000Y-94341740D01*
X77763000Y-94634260D01*
X77820068Y-94921158D01*
X77932010Y-95191411D01*
X78094525Y-95434632D01*
X78301368Y-95641475D01*
X78475760Y-95758000D01*
X78301368Y-95874525D01*
X78094525Y-96081368D01*
X77932010Y-96324589D01*
X77820068Y-96594842D01*
X77763000Y-96881740D01*
X77763000Y-97174260D01*
X77820068Y-97461158D01*
X77932010Y-97731411D01*
X78094525Y-97974632D01*
X78301368Y-98181475D01*
X78475760Y-98298000D01*
X78301368Y-98414525D01*
X78094525Y-98621368D01*
X77932010Y-98864589D01*
X77820068Y-99134842D01*
X77763000Y-99421740D01*
X77763000Y-99714260D01*
X77820068Y-100001158D01*
X77932010Y-100271411D01*
X78094525Y-100514632D01*
X78301368Y-100721475D01*
X78475760Y-100838000D01*
X78301368Y-100954525D01*
X78094525Y-101161368D01*
X77932010Y-101404589D01*
X77820068Y-101674842D01*
X77763000Y-101961740D01*
X77763000Y-102254260D01*
X77820068Y-102541158D01*
X77932010Y-102811411D01*
X78094525Y-103054632D01*
X78301368Y-103261475D01*
X78475760Y-103378000D01*
X78301368Y-103494525D01*
X78094525Y-103701368D01*
X77932010Y-103944589D01*
X77820068Y-104214842D01*
X77763000Y-104501740D01*
X77763000Y-104794260D01*
X77820068Y-105081158D01*
X77932010Y-105351411D01*
X78094525Y-105594632D01*
X78301368Y-105801475D01*
X78475760Y-105918000D01*
X78301368Y-106034525D01*
X78094525Y-106241368D01*
X77932010Y-106484589D01*
X77820068Y-106754842D01*
X77763000Y-107041740D01*
X77763000Y-107334260D01*
X77820068Y-107621158D01*
X77932010Y-107891411D01*
X78094525Y-108134632D01*
X78301368Y-108341475D01*
X78475760Y-108458000D01*
X78301368Y-108574525D01*
X78094525Y-108781368D01*
X77932010Y-109024589D01*
X77820068Y-109294842D01*
X77763000Y-109581740D01*
X77763000Y-109874260D01*
X77820068Y-110161158D01*
X77932010Y-110431411D01*
X78094525Y-110674632D01*
X78301368Y-110881475D01*
X78475760Y-110998000D01*
X78301368Y-111114525D01*
X78094525Y-111321368D01*
X77932010Y-111564589D01*
X77820068Y-111834842D01*
X77763000Y-112121740D01*
X77763000Y-112414260D01*
X77820068Y-112701158D01*
X77932010Y-112971411D01*
X78094525Y-113214632D01*
X78301368Y-113421475D01*
X78475760Y-113538000D01*
X78301368Y-113654525D01*
X78094525Y-113861368D01*
X77932010Y-114104589D01*
X77820068Y-114374842D01*
X77763000Y-114661740D01*
X77763000Y-114954260D01*
X77820068Y-115241158D01*
X77932010Y-115511411D01*
X78094525Y-115754632D01*
X78226380Y-115886487D01*
X78153820Y-115908498D01*
X78043506Y-115967463D01*
X77946815Y-116046815D01*
X77867463Y-116143506D01*
X77808498Y-116253820D01*
X77772188Y-116373518D01*
X77759928Y-116498000D01*
X77759928Y-118198000D01*
X77772188Y-118322482D01*
X77808498Y-118442180D01*
X77867463Y-118552494D01*
X77946815Y-118649185D01*
X78043506Y-118728537D01*
X78153820Y-118787502D01*
X78273518Y-118823812D01*
X78398000Y-118836072D01*
X78488001Y-118836072D01*
X78488000Y-125565678D01*
X78484324Y-125603000D01*
X78488000Y-125640322D01*
X78488000Y-125640332D01*
X78498997Y-125751985D01*
X78529942Y-125853998D01*
X78542454Y-125895246D01*
X78613026Y-126027276D01*
X78650348Y-126072753D01*
X78707999Y-126143001D01*
X78737003Y-126166804D01*
X79608790Y-127038591D01*
X79533750Y-127039000D01*
X79375000Y-127197750D01*
X79375000Y-128397000D01*
X79395000Y-128397000D01*
X79395000Y-128651000D01*
X79375000Y-128651000D01*
X79375000Y-128671000D01*
X79121000Y-128671000D01*
X79121000Y-128651000D01*
X77921750Y-128651000D01*
X77763000Y-128809750D01*
X77759928Y-129374000D01*
X77772188Y-129498482D01*
X77808498Y-129618180D01*
X77867463Y-129728494D01*
X77946815Y-129825185D01*
X78043506Y-129904537D01*
X78153820Y-129963502D01*
X78226380Y-129985513D01*
X78094525Y-130117368D01*
X78053344Y-130179000D01*
X77593000Y-130179000D01*
X77593000Y-127674000D01*
X77759928Y-127674000D01*
X77763000Y-128238250D01*
X77921750Y-128397000D01*
X79121000Y-128397000D01*
X79121000Y-127197750D01*
X78962250Y-127039000D01*
X78398000Y-127035928D01*
X78273518Y-127048188D01*
X78153820Y-127084498D01*
X78043506Y-127143463D01*
X77946815Y-127222815D01*
X77867463Y-127319506D01*
X77808498Y-127429820D01*
X77772188Y-127549518D01*
X77759928Y-127674000D01*
X77593000Y-127674000D01*
X77593000Y-77582578D01*
X77724000Y-77451578D01*
X81192953Y-80920532D01*
G04 #@! TA.AperFunction,Conductor*
D25*
G36*
X81192953Y-80920532D02*
G01*
X81192958Y-80920536D01*
X82208953Y-81936532D01*
X82208958Y-81936536D01*
X84967001Y-84694580D01*
X84967000Y-85603378D01*
X84857820Y-85636498D01*
X84747506Y-85695463D01*
X84650815Y-85774815D01*
X84571463Y-85871506D01*
X84512498Y-85981820D01*
X84476188Y-86101518D01*
X84463928Y-86226000D01*
X84463928Y-87226000D01*
X84476188Y-87350482D01*
X84483929Y-87376000D01*
X84476188Y-87401518D01*
X84465996Y-87505000D01*
X83214341Y-87505000D01*
X83127120Y-87374465D01*
X82932535Y-87179880D01*
X82703727Y-87026995D01*
X82449490Y-86921686D01*
X82179592Y-86868000D01*
X81904408Y-86868000D01*
X81634510Y-86921686D01*
X81380273Y-87026995D01*
X81151465Y-87179880D01*
X80956880Y-87374465D01*
X80803995Y-87603273D01*
X80698686Y-87857510D01*
X80645000Y-88127408D01*
X80645000Y-88402592D01*
X80698686Y-88672490D01*
X80803995Y-88926727D01*
X80956880Y-89155535D01*
X81151465Y-89350120D01*
X81380273Y-89503005D01*
X81457515Y-89535000D01*
X81380273Y-89566995D01*
X81151465Y-89719880D01*
X80956880Y-89914465D01*
X80869659Y-90045000D01*
X80428322Y-90045000D01*
X80390999Y-90041324D01*
X80353676Y-90045000D01*
X80353667Y-90045000D01*
X80242014Y-90055997D01*
X80098753Y-90099454D01*
X79966723Y-90170026D01*
X79883083Y-90238668D01*
X79850999Y-90264999D01*
X79827201Y-90293997D01*
X78736998Y-91384201D01*
X78708000Y-91407999D01*
X78684202Y-91436997D01*
X78684201Y-91436998D01*
X78613026Y-91523724D01*
X78542454Y-91655754D01*
X78498998Y-91799015D01*
X78484324Y-91948000D01*
X78488001Y-91985332D01*
X78488001Y-93209821D01*
X78301368Y-93334525D01*
X78094525Y-93541368D01*
X77932010Y-93784589D01*
X77820068Y-94054842D01*
X77763000Y-94341740D01*
X77763000Y-94634260D01*
X77820068Y-94921158D01*
X77932010Y-95191411D01*
X78094525Y-95434632D01*
X78301368Y-95641475D01*
X78475760Y-95758000D01*
X78301368Y-95874525D01*
X78094525Y-96081368D01*
X77932010Y-96324589D01*
X77820068Y-96594842D01*
X77763000Y-96881740D01*
X77763000Y-97174260D01*
X77820068Y-97461158D01*
X77932010Y-97731411D01*
X78094525Y-97974632D01*
X78301368Y-98181475D01*
X78475760Y-98298000D01*
X78301368Y-98414525D01*
X78094525Y-98621368D01*
X77932010Y-98864589D01*
X77820068Y-99134842D01*
X77763000Y-99421740D01*
X77763000Y-99714260D01*
X77820068Y-100001158D01*
X77932010Y-100271411D01*
X78094525Y-100514632D01*
X78301368Y-100721475D01*
X78475760Y-100838000D01*
X78301368Y-100954525D01*
X78094525Y-101161368D01*
X77932010Y-101404589D01*
X77820068Y-101674842D01*
X77763000Y-101961740D01*
X77763000Y-102254260D01*
X77820068Y-102541158D01*
X77932010Y-102811411D01*
X78094525Y-103054632D01*
X78301368Y-103261475D01*
X78475760Y-103378000D01*
X78301368Y-103494525D01*
X78094525Y-103701368D01*
X77932010Y-103944589D01*
X77820068Y-104214842D01*
X77763000Y-104501740D01*
X77763000Y-104794260D01*
X77820068Y-105081158D01*
X77932010Y-105351411D01*
X78094525Y-105594632D01*
X78301368Y-105801475D01*
X78475760Y-105918000D01*
X78301368Y-106034525D01*
X78094525Y-106241368D01*
X77932010Y-106484589D01*
X77820068Y-106754842D01*
X77763000Y-107041740D01*
X77763000Y-107334260D01*
X77820068Y-107621158D01*
X77932010Y-107891411D01*
X78094525Y-108134632D01*
X78301368Y-108341475D01*
X78475760Y-108458000D01*
X78301368Y-108574525D01*
X78094525Y-108781368D01*
X77932010Y-109024589D01*
X77820068Y-109294842D01*
X77763000Y-109581740D01*
X77763000Y-109874260D01*
X77820068Y-110161158D01*
X77932010Y-110431411D01*
X78094525Y-110674632D01*
X78301368Y-110881475D01*
X78475760Y-110998000D01*
X78301368Y-111114525D01*
X78094525Y-111321368D01*
X77932010Y-111564589D01*
X77820068Y-111834842D01*
X77763000Y-112121740D01*
X77763000Y-112414260D01*
X77820068Y-112701158D01*
X77932010Y-112971411D01*
X78094525Y-113214632D01*
X78301368Y-113421475D01*
X78475760Y-113538000D01*
X78301368Y-113654525D01*
X78094525Y-113861368D01*
X77932010Y-114104589D01*
X77820068Y-114374842D01*
X77763000Y-114661740D01*
X77763000Y-114954260D01*
X77820068Y-115241158D01*
X77932010Y-115511411D01*
X78094525Y-115754632D01*
X78226380Y-115886487D01*
X78153820Y-115908498D01*
X78043506Y-115967463D01*
X77946815Y-116046815D01*
X77867463Y-116143506D01*
X77808498Y-116253820D01*
X77772188Y-116373518D01*
X77759928Y-116498000D01*
X77759928Y-118198000D01*
X77772188Y-118322482D01*
X77808498Y-118442180D01*
X77867463Y-118552494D01*
X77946815Y-118649185D01*
X78043506Y-118728537D01*
X78153820Y-118787502D01*
X78273518Y-118823812D01*
X78398000Y-118836072D01*
X78488001Y-118836072D01*
X78488000Y-125565678D01*
X78484324Y-125603000D01*
X78488000Y-125640322D01*
X78488000Y-125640332D01*
X78498997Y-125751985D01*
X78529942Y-125853998D01*
X78542454Y-125895246D01*
X78613026Y-126027276D01*
X78650348Y-126072753D01*
X78707999Y-126143001D01*
X78737003Y-126166804D01*
X79608790Y-127038591D01*
X79533750Y-127039000D01*
X79375000Y-127197750D01*
X79375000Y-128397000D01*
X79395000Y-128397000D01*
X79395000Y-128651000D01*
X79375000Y-128651000D01*
X79375000Y-128671000D01*
X79121000Y-128671000D01*
X79121000Y-128651000D01*
X77921750Y-128651000D01*
X77763000Y-128809750D01*
X77759928Y-129374000D01*
X77772188Y-129498482D01*
X77808498Y-129618180D01*
X77867463Y-129728494D01*
X77946815Y-129825185D01*
X78043506Y-129904537D01*
X78153820Y-129963502D01*
X78226380Y-129985513D01*
X78094525Y-130117368D01*
X78053344Y-130179000D01*
X77593000Y-130179000D01*
X77593000Y-127674000D01*
X77759928Y-127674000D01*
X77763000Y-128238250D01*
X77921750Y-128397000D01*
X79121000Y-128397000D01*
X79121000Y-127197750D01*
X78962250Y-127039000D01*
X78398000Y-127035928D01*
X78273518Y-127048188D01*
X78153820Y-127084498D01*
X78043506Y-127143463D01*
X77946815Y-127222815D01*
X77867463Y-127319506D01*
X77808498Y-127429820D01*
X77772188Y-127549518D01*
X77759928Y-127674000D01*
X77593000Y-127674000D01*
X77593000Y-77582578D01*
X77724000Y-77451578D01*
X81192953Y-80920532D01*
G37*
G04 #@! TD.AperFunction*
D24*
X78613026Y-70528276D02*
X78632717Y-70552269D01*
X78707999Y-70644001D01*
X78737003Y-70667804D01*
X79965221Y-71896023D01*
X79989019Y-71925021D01*
X80104744Y-72019994D01*
X80236773Y-72090566D01*
X80380034Y-72134023D01*
X80491687Y-72145020D01*
X80491697Y-72145020D01*
X80529020Y-72148696D01*
X80566343Y-72145020D01*
X88509980Y-72145020D01*
X88509981Y-106630217D01*
X83132066Y-112008133D01*
X83280005Y-111786727D01*
X83385314Y-111532490D01*
X83439000Y-111262592D01*
X83439000Y-110987408D01*
X83385314Y-110717510D01*
X83280005Y-110463273D01*
X83127120Y-110234465D01*
X82932535Y-110039880D01*
X82703727Y-109886995D01*
X82626485Y-109855000D01*
X82703727Y-109823005D01*
X82932535Y-109670120D01*
X83127120Y-109475535D01*
X83280005Y-109246727D01*
X83385314Y-108992490D01*
X83439000Y-108722592D01*
X83439000Y-108447408D01*
X83385314Y-108177510D01*
X83280005Y-107923273D01*
X83127120Y-107694465D01*
X82932535Y-107499880D01*
X82703727Y-107346995D01*
X82626485Y-107315000D01*
X82703727Y-107283005D01*
X82932535Y-107130120D01*
X83127120Y-106935535D01*
X83280005Y-106706727D01*
X83385314Y-106452490D01*
X83439000Y-106182592D01*
X83439000Y-105907408D01*
X83385314Y-105637510D01*
X83280005Y-105383273D01*
X83127120Y-105154465D01*
X82932535Y-104959880D01*
X82703727Y-104806995D01*
X82626485Y-104775000D01*
X82703727Y-104743005D01*
X82932535Y-104590120D01*
X83127120Y-104395535D01*
X83280005Y-104166727D01*
X83385314Y-103912490D01*
X83439000Y-103642592D01*
X83439000Y-103367408D01*
X83385314Y-103097510D01*
X83280005Y-102843273D01*
X83127120Y-102614465D01*
X82932535Y-102419880D01*
X82703727Y-102266995D01*
X82626485Y-102235000D01*
X82703727Y-102203005D01*
X82932535Y-102050120D01*
X83127120Y-101855535D01*
X83280005Y-101626727D01*
X83385314Y-101372490D01*
X83439000Y-101102592D01*
X83439000Y-100827408D01*
X83385314Y-100557510D01*
X83280005Y-100303273D01*
X83127120Y-100074465D01*
X82932535Y-99879880D01*
X82703727Y-99726995D01*
X82626485Y-99695000D01*
X82703727Y-99663005D01*
X82932535Y-99510120D01*
X83127120Y-99315535D01*
X83280005Y-99086727D01*
X83385314Y-98832490D01*
X83439000Y-98562592D01*
X83439000Y-98287408D01*
X83385314Y-98017510D01*
X83280005Y-97763273D01*
X83127120Y-97534465D01*
X82932535Y-97339880D01*
X82703727Y-97186995D01*
X82626485Y-97155000D01*
X82703727Y-97123005D01*
X82932535Y-96970120D01*
X83127120Y-96775535D01*
X83280005Y-96546727D01*
X83385314Y-96292490D01*
X83439000Y-96022592D01*
X83439000Y-95747408D01*
X83385314Y-95477510D01*
X83280005Y-95223273D01*
X83127120Y-94994465D01*
X82932535Y-94799880D01*
X82703727Y-94646995D01*
X82626485Y-94615000D01*
X82703727Y-94583005D01*
X82932535Y-94430120D01*
X83127120Y-94235535D01*
X83280005Y-94006727D01*
X83385314Y-93752490D01*
X83439000Y-93482592D01*
X83439000Y-93207408D01*
X83385314Y-92937510D01*
X83280005Y-92683273D01*
X83127120Y-92454465D01*
X82932535Y-92259880D01*
X82703727Y-92106995D01*
X82626485Y-92075000D01*
X82703727Y-92043005D01*
X82932535Y-91890120D01*
X83127120Y-91695535D01*
X83280005Y-91466727D01*
X83385314Y-91212490D01*
X83439000Y-90942592D01*
X83439000Y-90667408D01*
X83385314Y-90397510D01*
X83280005Y-90143273D01*
X83127120Y-89914465D01*
X82932535Y-89719880D01*
X82703727Y-89566995D01*
X82626485Y-89535000D01*
X82703727Y-89503005D01*
X82932535Y-89350120D01*
X83127120Y-89155535D01*
X83214341Y-89025000D01*
X84709078Y-89025000D01*
X84747506Y-89056537D01*
X84857820Y-89115502D01*
X84977518Y-89151812D01*
X85102000Y-89164072D01*
X86602000Y-89164072D01*
X86726482Y-89151812D01*
X86846180Y-89115502D01*
X86956494Y-89056537D01*
X87053185Y-88977185D01*
X87132537Y-88880494D01*
X87191502Y-88770180D01*
X87227812Y-88650482D01*
X87240072Y-88526000D01*
X87240072Y-87526000D01*
X87227812Y-87401518D01*
X87220071Y-87376000D01*
X87227812Y-87350482D01*
X87240072Y-87226000D01*
X87240072Y-86226000D01*
X87227812Y-86101518D01*
X87191502Y-85981820D01*
X87132537Y-85871506D01*
X87053185Y-85774815D01*
X86956494Y-85695463D01*
X86846180Y-85636498D01*
X86737000Y-85603379D01*
X86737000Y-84371469D01*
X86741281Y-84328000D01*
X86737000Y-84284531D01*
X86737000Y-84284523D01*
X86724195Y-84154510D01*
X86673589Y-83987687D01*
X86591411Y-83833941D01*
X86480817Y-83699183D01*
X86447049Y-83671470D01*
X83460536Y-80684958D01*
X83460532Y-80684953D01*
X82444536Y-79668958D01*
X82444532Y-79668953D01*
X79361781Y-76586203D01*
X79582751Y-76585000D01*
X79741501Y-76426250D01*
X79741501Y-74827000D01*
X79995501Y-74827000D01*
X79995501Y-76426250D01*
X80154251Y-76585000D01*
X80718501Y-76588072D01*
X80842983Y-76575812D01*
X80962681Y-76539502D01*
X81072995Y-76480537D01*
X81138501Y-76426778D01*
X81204007Y-76480537D01*
X81314321Y-76539502D01*
X81434019Y-76575812D01*
X81558501Y-76588072D01*
X82122751Y-76585000D01*
X82281501Y-76426250D01*
X82281501Y-74827000D01*
X82535501Y-74827000D01*
X82535501Y-76426250D01*
X82694251Y-76585000D01*
X83258501Y-76588072D01*
X83382983Y-76575812D01*
X83502681Y-76539502D01*
X83612995Y-76480537D01*
X83678501Y-76426778D01*
X83744007Y-76480537D01*
X83854321Y-76539502D01*
X83974019Y-76575812D01*
X84098501Y-76588072D01*
X84662751Y-76585000D01*
X84821501Y-76426250D01*
X84821501Y-74827000D01*
X85075501Y-74827000D01*
X85075501Y-76426250D01*
X85234251Y-76585000D01*
X85798501Y-76588072D01*
X85922983Y-76575812D01*
X86042681Y-76539502D01*
X86152995Y-76480537D01*
X86249686Y-76401185D01*
X86329038Y-76304494D01*
X86388003Y-76194180D01*
X86424313Y-76074482D01*
X86436573Y-75950000D01*
X86433501Y-74985750D01*
X86274751Y-74827000D01*
X85075501Y-74827000D01*
X84821501Y-74827000D01*
X82535501Y-74827000D01*
X82281501Y-74827000D01*
X79995501Y-74827000D01*
X79741501Y-74827000D01*
X79721501Y-74827000D01*
X79721501Y-74573000D01*
X79741501Y-74573000D01*
X79741501Y-72973750D01*
X79995501Y-72973750D01*
X79995501Y-74573000D01*
X82281501Y-74573000D01*
X82281501Y-72973750D01*
X82535501Y-72973750D01*
X82535501Y-74573000D01*
X84821501Y-74573000D01*
X84821501Y-72973750D01*
X85075501Y-72973750D01*
X85075501Y-74573000D01*
X86274751Y-74573000D01*
X86433501Y-74414250D01*
X86436573Y-73450000D01*
X86424313Y-73325518D01*
X86388003Y-73205820D01*
X86329038Y-73095506D01*
X86249686Y-72998815D01*
X86152995Y-72919463D01*
X86042681Y-72860498D01*
X85922983Y-72824188D01*
X85798501Y-72811928D01*
X85234251Y-72815000D01*
X85075501Y-72973750D01*
X84821501Y-72973750D01*
X84662751Y-72815000D01*
X84098501Y-72811928D01*
X83974019Y-72824188D01*
X83854321Y-72860498D01*
X83744007Y-72919463D01*
X83678501Y-72973222D01*
X83612995Y-72919463D01*
X83502681Y-72860498D01*
X83382983Y-72824188D01*
X83258501Y-72811928D01*
X82694251Y-72815000D01*
X82535501Y-72973750D01*
X82281501Y-72973750D01*
X82122751Y-72815000D01*
X81558501Y-72811928D01*
X81434019Y-72824188D01*
X81314321Y-72860498D01*
X81204007Y-72919463D01*
X81138501Y-72973222D01*
X81072995Y-72919463D01*
X80962681Y-72860498D01*
X80842983Y-72824188D01*
X80718501Y-72811928D01*
X80154251Y-72815000D01*
X79995501Y-72973750D01*
X79741501Y-72973750D01*
X79582751Y-72815000D01*
X79018501Y-72811928D01*
X78894019Y-72824188D01*
X78774321Y-72860498D01*
X78664007Y-72919463D01*
X78609000Y-72964606D01*
X78609000Y-70520744D01*
X78613026Y-70528276D01*
G04 #@! TA.AperFunction,Conductor*
D25*
G36*
X78613026Y-70528276D02*
G01*
X78632717Y-70552269D01*
X78707999Y-70644001D01*
X78737003Y-70667804D01*
X79965221Y-71896023D01*
X79989019Y-71925021D01*
X80104744Y-72019994D01*
X80236773Y-72090566D01*
X80380034Y-72134023D01*
X80491687Y-72145020D01*
X80491697Y-72145020D01*
X80529020Y-72148696D01*
X80566343Y-72145020D01*
X88509980Y-72145020D01*
X88509981Y-106630217D01*
X83132066Y-112008133D01*
X83280005Y-111786727D01*
X83385314Y-111532490D01*
X83439000Y-111262592D01*
X83439000Y-110987408D01*
X83385314Y-110717510D01*
X83280005Y-110463273D01*
X83127120Y-110234465D01*
X82932535Y-110039880D01*
X82703727Y-109886995D01*
X82626485Y-109855000D01*
X82703727Y-109823005D01*
X82932535Y-109670120D01*
X83127120Y-109475535D01*
X83280005Y-109246727D01*
X83385314Y-108992490D01*
X83439000Y-108722592D01*
X83439000Y-108447408D01*
X83385314Y-108177510D01*
X83280005Y-107923273D01*
X83127120Y-107694465D01*
X82932535Y-107499880D01*
X82703727Y-107346995D01*
X82626485Y-107315000D01*
X82703727Y-107283005D01*
X82932535Y-107130120D01*
X83127120Y-106935535D01*
X83280005Y-106706727D01*
X83385314Y-106452490D01*
X83439000Y-106182592D01*
X83439000Y-105907408D01*
X83385314Y-105637510D01*
X83280005Y-105383273D01*
X83127120Y-105154465D01*
X82932535Y-104959880D01*
X82703727Y-104806995D01*
X82626485Y-104775000D01*
X82703727Y-104743005D01*
X82932535Y-104590120D01*
X83127120Y-104395535D01*
X83280005Y-104166727D01*
X83385314Y-103912490D01*
X83439000Y-103642592D01*
X83439000Y-103367408D01*
X83385314Y-103097510D01*
X83280005Y-102843273D01*
X83127120Y-102614465D01*
X82932535Y-102419880D01*
X82703727Y-102266995D01*
X82626485Y-102235000D01*
X82703727Y-102203005D01*
X82932535Y-102050120D01*
X83127120Y-101855535D01*
X83280005Y-101626727D01*
X83385314Y-101372490D01*
X83439000Y-101102592D01*
X83439000Y-100827408D01*
X83385314Y-100557510D01*
X83280005Y-100303273D01*
X83127120Y-100074465D01*
X82932535Y-99879880D01*
X82703727Y-99726995D01*
X82626485Y-99695000D01*
X82703727Y-99663005D01*
X82932535Y-99510120D01*
X83127120Y-99315535D01*
X83280005Y-99086727D01*
X83385314Y-98832490D01*
X83439000Y-98562592D01*
X83439000Y-98287408D01*
X83385314Y-98017510D01*
X83280005Y-97763273D01*
X83127120Y-97534465D01*
X82932535Y-97339880D01*
X82703727Y-97186995D01*
X82626485Y-97155000D01*
X82703727Y-97123005D01*
X82932535Y-96970120D01*
X83127120Y-96775535D01*
X83280005Y-96546727D01*
X83385314Y-96292490D01*
X83439000Y-96022592D01*
X83439000Y-95747408D01*
X83385314Y-95477510D01*
X83280005Y-95223273D01*
X83127120Y-94994465D01*
X82932535Y-94799880D01*
X82703727Y-94646995D01*
X82626485Y-94615000D01*
X82703727Y-94583005D01*
X82932535Y-94430120D01*
X83127120Y-94235535D01*
X83280005Y-94006727D01*
X83385314Y-93752490D01*
X83439000Y-93482592D01*
X83439000Y-93207408D01*
X83385314Y-92937510D01*
X83280005Y-92683273D01*
X83127120Y-92454465D01*
X82932535Y-92259880D01*
X82703727Y-92106995D01*
X82626485Y-92075000D01*
X82703727Y-92043005D01*
X82932535Y-91890120D01*
X83127120Y-91695535D01*
X83280005Y-91466727D01*
X83385314Y-91212490D01*
X83439000Y-90942592D01*
X83439000Y-90667408D01*
X83385314Y-90397510D01*
X83280005Y-90143273D01*
X83127120Y-89914465D01*
X82932535Y-89719880D01*
X82703727Y-89566995D01*
X82626485Y-89535000D01*
X82703727Y-89503005D01*
X82932535Y-89350120D01*
X83127120Y-89155535D01*
X83214341Y-89025000D01*
X84709078Y-89025000D01*
X84747506Y-89056537D01*
X84857820Y-89115502D01*
X84977518Y-89151812D01*
X85102000Y-89164072D01*
X86602000Y-89164072D01*
X86726482Y-89151812D01*
X86846180Y-89115502D01*
X86956494Y-89056537D01*
X87053185Y-88977185D01*
X87132537Y-88880494D01*
X87191502Y-88770180D01*
X87227812Y-88650482D01*
X87240072Y-88526000D01*
X87240072Y-87526000D01*
X87227812Y-87401518D01*
X87220071Y-87376000D01*
X87227812Y-87350482D01*
X87240072Y-87226000D01*
X87240072Y-86226000D01*
X87227812Y-86101518D01*
X87191502Y-85981820D01*
X87132537Y-85871506D01*
X87053185Y-85774815D01*
X86956494Y-85695463D01*
X86846180Y-85636498D01*
X86737000Y-85603379D01*
X86737000Y-84371469D01*
X86741281Y-84328000D01*
X86737000Y-84284531D01*
X86737000Y-84284523D01*
X86724195Y-84154510D01*
X86673589Y-83987687D01*
X86591411Y-83833941D01*
X86480817Y-83699183D01*
X86447049Y-83671470D01*
X83460536Y-80684958D01*
X83460532Y-80684953D01*
X82444536Y-79668958D01*
X82444532Y-79668953D01*
X79361781Y-76586203D01*
X79582751Y-76585000D01*
X79741501Y-76426250D01*
X79741501Y-74827000D01*
X79995501Y-74827000D01*
X79995501Y-76426250D01*
X80154251Y-76585000D01*
X80718501Y-76588072D01*
X80842983Y-76575812D01*
X80962681Y-76539502D01*
X81072995Y-76480537D01*
X81138501Y-76426778D01*
X81204007Y-76480537D01*
X81314321Y-76539502D01*
X81434019Y-76575812D01*
X81558501Y-76588072D01*
X82122751Y-76585000D01*
X82281501Y-76426250D01*
X82281501Y-74827000D01*
X82535501Y-74827000D01*
X82535501Y-76426250D01*
X82694251Y-76585000D01*
X83258501Y-76588072D01*
X83382983Y-76575812D01*
X83502681Y-76539502D01*
X83612995Y-76480537D01*
X83678501Y-76426778D01*
X83744007Y-76480537D01*
X83854321Y-76539502D01*
X83974019Y-76575812D01*
X84098501Y-76588072D01*
X84662751Y-76585000D01*
X84821501Y-76426250D01*
X84821501Y-74827000D01*
X85075501Y-74827000D01*
X85075501Y-76426250D01*
X85234251Y-76585000D01*
X85798501Y-76588072D01*
X85922983Y-76575812D01*
X86042681Y-76539502D01*
X86152995Y-76480537D01*
X86249686Y-76401185D01*
X86329038Y-76304494D01*
X86388003Y-76194180D01*
X86424313Y-76074482D01*
X86436573Y-75950000D01*
X86433501Y-74985750D01*
X86274751Y-74827000D01*
X85075501Y-74827000D01*
X84821501Y-74827000D01*
X82535501Y-74827000D01*
X82281501Y-74827000D01*
X79995501Y-74827000D01*
X79741501Y-74827000D01*
X79721501Y-74827000D01*
X79721501Y-74573000D01*
X79741501Y-74573000D01*
X79741501Y-72973750D01*
X79995501Y-72973750D01*
X79995501Y-74573000D01*
X82281501Y-74573000D01*
X82281501Y-72973750D01*
X82535501Y-72973750D01*
X82535501Y-74573000D01*
X84821501Y-74573000D01*
X84821501Y-72973750D01*
X85075501Y-72973750D01*
X85075501Y-74573000D01*
X86274751Y-74573000D01*
X86433501Y-74414250D01*
X86436573Y-73450000D01*
X86424313Y-73325518D01*
X86388003Y-73205820D01*
X86329038Y-73095506D01*
X86249686Y-72998815D01*
X86152995Y-72919463D01*
X86042681Y-72860498D01*
X85922983Y-72824188D01*
X85798501Y-72811928D01*
X85234251Y-72815000D01*
X85075501Y-72973750D01*
X84821501Y-72973750D01*
X84662751Y-72815000D01*
X84098501Y-72811928D01*
X83974019Y-72824188D01*
X83854321Y-72860498D01*
X83744007Y-72919463D01*
X83678501Y-72973222D01*
X83612995Y-72919463D01*
X83502681Y-72860498D01*
X83382983Y-72824188D01*
X83258501Y-72811928D01*
X82694251Y-72815000D01*
X82535501Y-72973750D01*
X82281501Y-72973750D01*
X82122751Y-72815000D01*
X81558501Y-72811928D01*
X81434019Y-72824188D01*
X81314321Y-72860498D01*
X81204007Y-72919463D01*
X81138501Y-72973222D01*
X81072995Y-72919463D01*
X80962681Y-72860498D01*
X80842983Y-72824188D01*
X80718501Y-72811928D01*
X80154251Y-72815000D01*
X79995501Y-72973750D01*
X79741501Y-72973750D01*
X79582751Y-72815000D01*
X79018501Y-72811928D01*
X78894019Y-72824188D01*
X78774321Y-72860498D01*
X78664007Y-72919463D01*
X78609000Y-72964606D01*
X78609000Y-70520744D01*
X78613026Y-70528276D01*
G37*
G04 #@! TD.AperFunction*
D24*
X104044007Y-76480537D02*
X104154321Y-76539502D01*
X104274019Y-76575812D01*
X104363501Y-76584625D01*
X104363501Y-76746499D01*
X102116970Y-76746499D01*
X102073501Y-76742218D01*
X102030032Y-76746499D01*
X102030024Y-76746499D01*
X101900011Y-76759304D01*
X101733188Y-76809910D01*
X101597386Y-76882497D01*
X101579442Y-76892088D01*
X101478454Y-76974967D01*
X101478452Y-76974969D01*
X101444684Y-77002682D01*
X101416971Y-77036450D01*
X93384956Y-85068466D01*
X93351183Y-85096183D01*
X93240589Y-85230942D01*
X93158411Y-85384688D01*
X93107805Y-85551511D01*
X93095000Y-85681524D01*
X93095000Y-85681531D01*
X93090719Y-85725000D01*
X93095000Y-85768469D01*
X93095000Y-101422652D01*
X93070226Y-101298102D01*
X92992205Y-101109744D01*
X92878937Y-100940226D01*
X92835000Y-100896289D01*
X92835000Y-84769801D01*
X100841003Y-76763799D01*
X100870001Y-76740001D01*
X100907705Y-76694059D01*
X100964974Y-76624277D01*
X100984326Y-76588072D01*
X101018501Y-76588072D01*
X101142983Y-76575812D01*
X101262681Y-76539502D01*
X101372995Y-76480537D01*
X101438501Y-76426778D01*
X101504007Y-76480537D01*
X101614321Y-76539502D01*
X101734019Y-76575812D01*
X101858501Y-76588072D01*
X103558501Y-76588072D01*
X103682983Y-76575812D01*
X103802681Y-76539502D01*
X103912995Y-76480537D01*
X103978501Y-76426778D01*
X104044007Y-76480537D01*
G04 #@! TA.AperFunction,Conductor*
D25*
G36*
X104044007Y-76480537D02*
G01*
X104154321Y-76539502D01*
X104274019Y-76575812D01*
X104363501Y-76584625D01*
X104363501Y-76746499D01*
X102116970Y-76746499D01*
X102073501Y-76742218D01*
X102030032Y-76746499D01*
X102030024Y-76746499D01*
X101900011Y-76759304D01*
X101733188Y-76809910D01*
X101597386Y-76882497D01*
X101579442Y-76892088D01*
X101478454Y-76974967D01*
X101478452Y-76974969D01*
X101444684Y-77002682D01*
X101416971Y-77036450D01*
X93384956Y-85068466D01*
X93351183Y-85096183D01*
X93240589Y-85230942D01*
X93158411Y-85384688D01*
X93107805Y-85551511D01*
X93095000Y-85681524D01*
X93095000Y-85681531D01*
X93090719Y-85725000D01*
X93095000Y-85768469D01*
X93095000Y-101422652D01*
X93070226Y-101298102D01*
X92992205Y-101109744D01*
X92878937Y-100940226D01*
X92835000Y-100896289D01*
X92835000Y-84769801D01*
X100841003Y-76763799D01*
X100870001Y-76740001D01*
X100907705Y-76694059D01*
X100964974Y-76624277D01*
X100984326Y-76588072D01*
X101018501Y-76588072D01*
X101142983Y-76575812D01*
X101262681Y-76539502D01*
X101372995Y-76480537D01*
X101438501Y-76426778D01*
X101504007Y-76480537D01*
X101614321Y-76539502D01*
X101734019Y-76575812D01*
X101858501Y-76588072D01*
X103558501Y-76588072D01*
X103682983Y-76575812D01*
X103802681Y-76539502D01*
X103912995Y-76480537D01*
X103978501Y-76426778D01*
X104044007Y-76480537D01*
G37*
G04 #@! TD.AperFunction*
D24*
X98964007Y-76480537D02*
X98970950Y-76484248D01*
X91655000Y-83800199D01*
X91655000Y-82864801D01*
X97931730Y-76588072D01*
X98478501Y-76588072D01*
X98602983Y-76575812D01*
X98722681Y-76539502D01*
X98832995Y-76480537D01*
X98898501Y-76426778D01*
X98964007Y-76480537D01*
G04 #@! TA.AperFunction,Conductor*
D25*
G36*
X98964007Y-76480537D02*
G01*
X98970950Y-76484248D01*
X91655000Y-83800199D01*
X91655000Y-82864801D01*
X97931730Y-76588072D01*
X98478501Y-76588072D01*
X98602983Y-76575812D01*
X98722681Y-76539502D01*
X98832995Y-76480537D01*
X98898501Y-76426778D01*
X98964007Y-76480537D01*
G37*
G04 #@! TD.AperFunction*
D24*
X96972201Y-72647003D02*
X96995999Y-72676001D01*
X97111724Y-72770974D01*
X97188342Y-72811928D01*
X96778501Y-72811928D01*
X96654019Y-72824188D01*
X96534321Y-72860498D01*
X96424007Y-72919463D01*
X96358501Y-72973222D01*
X96292995Y-72919463D01*
X96182681Y-72860498D01*
X96062983Y-72824188D01*
X95938501Y-72811928D01*
X95374251Y-72815000D01*
X95215501Y-72973750D01*
X95215501Y-74573000D01*
X95235501Y-74573000D01*
X95235501Y-74827000D01*
X95215501Y-74827000D01*
X95215501Y-76426250D01*
X95374251Y-76585000D01*
X95782973Y-76587225D01*
X90930000Y-81440199D01*
X90930000Y-75950000D01*
X91060429Y-75950000D01*
X91072689Y-76074482D01*
X91108999Y-76194180D01*
X91167964Y-76304494D01*
X91247316Y-76401185D01*
X91344007Y-76480537D01*
X91454321Y-76539502D01*
X91574019Y-76575812D01*
X91698501Y-76588072D01*
X92262751Y-76585000D01*
X92421501Y-76426250D01*
X92421501Y-74827000D01*
X92675501Y-74827000D01*
X92675501Y-76426250D01*
X92834251Y-76585000D01*
X93398501Y-76588072D01*
X93522983Y-76575812D01*
X93642681Y-76539502D01*
X93752995Y-76480537D01*
X93818501Y-76426778D01*
X93884007Y-76480537D01*
X93994321Y-76539502D01*
X94114019Y-76575812D01*
X94238501Y-76588072D01*
X94802751Y-76585000D01*
X94961501Y-76426250D01*
X94961501Y-74827000D01*
X92675501Y-74827000D01*
X92421501Y-74827000D01*
X91222251Y-74827000D01*
X91063501Y-74985750D01*
X91060429Y-75950000D01*
X90930000Y-75950000D01*
X90930000Y-73450000D01*
X91060429Y-73450000D01*
X91063501Y-74414250D01*
X91222251Y-74573000D01*
X92421501Y-74573000D01*
X92421501Y-72973750D01*
X92675501Y-72973750D01*
X92675501Y-74573000D01*
X94961501Y-74573000D01*
X94961501Y-72973750D01*
X94802751Y-72815000D01*
X94238501Y-72811928D01*
X94114019Y-72824188D01*
X93994321Y-72860498D01*
X93884007Y-72919463D01*
X93818501Y-72973222D01*
X93752995Y-72919463D01*
X93642681Y-72860498D01*
X93522983Y-72824188D01*
X93398501Y-72811928D01*
X92834251Y-72815000D01*
X92675501Y-72973750D01*
X92421501Y-72973750D01*
X92262751Y-72815000D01*
X91698501Y-72811928D01*
X91574019Y-72824188D01*
X91454321Y-72860498D01*
X91344007Y-72919463D01*
X91247316Y-72998815D01*
X91167964Y-73095506D01*
X91108999Y-73205820D01*
X91072689Y-73325518D01*
X91060429Y-73450000D01*
X90930000Y-73450000D01*
X90930000Y-70102000D01*
X94427199Y-70102000D01*
X96972201Y-72647003D01*
G04 #@! TA.AperFunction,Conductor*
D25*
G36*
X96972201Y-72647003D02*
G01*
X96995999Y-72676001D01*
X97111724Y-72770974D01*
X97188342Y-72811928D01*
X96778501Y-72811928D01*
X96654019Y-72824188D01*
X96534321Y-72860498D01*
X96424007Y-72919463D01*
X96358501Y-72973222D01*
X96292995Y-72919463D01*
X96182681Y-72860498D01*
X96062983Y-72824188D01*
X95938501Y-72811928D01*
X95374251Y-72815000D01*
X95215501Y-72973750D01*
X95215501Y-74573000D01*
X95235501Y-74573000D01*
X95235501Y-74827000D01*
X95215501Y-74827000D01*
X95215501Y-76426250D01*
X95374251Y-76585000D01*
X95782973Y-76587225D01*
X90930000Y-81440199D01*
X90930000Y-75950000D01*
X91060429Y-75950000D01*
X91072689Y-76074482D01*
X91108999Y-76194180D01*
X91167964Y-76304494D01*
X91247316Y-76401185D01*
X91344007Y-76480537D01*
X91454321Y-76539502D01*
X91574019Y-76575812D01*
X91698501Y-76588072D01*
X92262751Y-76585000D01*
X92421501Y-76426250D01*
X92421501Y-74827000D01*
X92675501Y-74827000D01*
X92675501Y-76426250D01*
X92834251Y-76585000D01*
X93398501Y-76588072D01*
X93522983Y-76575812D01*
X93642681Y-76539502D01*
X93752995Y-76480537D01*
X93818501Y-76426778D01*
X93884007Y-76480537D01*
X93994321Y-76539502D01*
X94114019Y-76575812D01*
X94238501Y-76588072D01*
X94802751Y-76585000D01*
X94961501Y-76426250D01*
X94961501Y-74827000D01*
X92675501Y-74827000D01*
X92421501Y-74827000D01*
X91222251Y-74827000D01*
X91063501Y-74985750D01*
X91060429Y-75950000D01*
X90930000Y-75950000D01*
X90930000Y-73450000D01*
X91060429Y-73450000D01*
X91063501Y-74414250D01*
X91222251Y-74573000D01*
X92421501Y-74573000D01*
X92421501Y-72973750D01*
X92675501Y-72973750D01*
X92675501Y-74573000D01*
X94961501Y-74573000D01*
X94961501Y-72973750D01*
X94802751Y-72815000D01*
X94238501Y-72811928D01*
X94114019Y-72824188D01*
X93994321Y-72860498D01*
X93884007Y-72919463D01*
X93818501Y-72973222D01*
X93752995Y-72919463D01*
X93642681Y-72860498D01*
X93522983Y-72824188D01*
X93398501Y-72811928D01*
X92834251Y-72815000D01*
X92675501Y-72973750D01*
X92421501Y-72973750D01*
X92262751Y-72815000D01*
X91698501Y-72811928D01*
X91574019Y-72824188D01*
X91454321Y-72860498D01*
X91344007Y-72919463D01*
X91247316Y-72998815D01*
X91167964Y-73095506D01*
X91108999Y-73205820D01*
X91072689Y-73325518D01*
X91060429Y-73450000D01*
X90930000Y-73450000D01*
X90930000Y-70102000D01*
X94427199Y-70102000D01*
X96972201Y-72647003D01*
G37*
G04 #@! TD.AperFunction*
D24*
X104488501Y-48811928D02*
X104398501Y-48811928D01*
X104274019Y-48824188D01*
X104154321Y-48860498D01*
X104044007Y-48919463D01*
X103978501Y-48973222D01*
X103912995Y-48919463D01*
X103802681Y-48860498D01*
X103682983Y-48824188D01*
X103558501Y-48811928D01*
X101858501Y-48811928D01*
X101734019Y-48824188D01*
X101614321Y-48860498D01*
X101504007Y-48919463D01*
X101438501Y-48973222D01*
X101372995Y-48919463D01*
X101262681Y-48860498D01*
X101142983Y-48824188D01*
X101018501Y-48811928D01*
X99318501Y-48811928D01*
X99194019Y-48824188D01*
X99074321Y-48860498D01*
X98964007Y-48919463D01*
X98898501Y-48973222D01*
X98832995Y-48919463D01*
X98722681Y-48860498D01*
X98602983Y-48824188D01*
X98478501Y-48811928D01*
X96778501Y-48811928D01*
X96654019Y-48824188D01*
X96534321Y-48860498D01*
X96424007Y-48919463D01*
X96358501Y-48973222D01*
X96292995Y-48919463D01*
X96182681Y-48860498D01*
X96062983Y-48824188D01*
X95938501Y-48811928D01*
X94238501Y-48811928D01*
X94114019Y-48824188D01*
X93994321Y-48860498D01*
X93884007Y-48919463D01*
X93818501Y-48973222D01*
X93752995Y-48919463D01*
X93642681Y-48860498D01*
X93522983Y-48824188D01*
X93398501Y-48811928D01*
X91698501Y-48811928D01*
X91574019Y-48824188D01*
X91454321Y-48860498D01*
X91344007Y-48919463D01*
X91247316Y-48998815D01*
X91167964Y-49095506D01*
X91108999Y-49205820D01*
X91072689Y-49325518D01*
X91060429Y-49450000D01*
X91060429Y-51950000D01*
X91072689Y-52074482D01*
X91108999Y-52194180D01*
X91167964Y-52304494D01*
X91247316Y-52401185D01*
X91344007Y-52480537D01*
X91454321Y-52539502D01*
X91574019Y-52575812D01*
X91698501Y-52588072D01*
X91950001Y-52588072D01*
X91950000Y-53906289D01*
X91906063Y-53950226D01*
X91792795Y-54119744D01*
X91714774Y-54308102D01*
X91675000Y-54508061D01*
X91675000Y-54711939D01*
X91714774Y-54911898D01*
X91792795Y-55100256D01*
X91906063Y-55269774D01*
X92050226Y-55413937D01*
X92219744Y-55527205D01*
X92408102Y-55605226D01*
X92608061Y-55645000D01*
X92670199Y-55645000D01*
X95020201Y-57995003D01*
X95043999Y-58024001D01*
X95159724Y-58118974D01*
X95291753Y-58189546D01*
X95435014Y-58233003D01*
X95546667Y-58244000D01*
X95546675Y-58244000D01*
X95584000Y-58247676D01*
X95621325Y-58244000D01*
X96786913Y-58244000D01*
X96798188Y-58358482D01*
X96834498Y-58478180D01*
X96837609Y-58484000D01*
X96834498Y-58489820D01*
X96798188Y-58609518D01*
X96786913Y-58724000D01*
X96282969Y-58724000D01*
X96160985Y-58686998D01*
X96012000Y-58672324D01*
X96011999Y-58672324D01*
X95863013Y-58686998D01*
X95796329Y-58707226D01*
X95719754Y-58730454D01*
X95587724Y-58801026D01*
X95471999Y-58895999D01*
X95461329Y-58909000D01*
X95402061Y-58909000D01*
X95202102Y-58948774D01*
X95013744Y-59026795D01*
X94844226Y-59140063D01*
X94700063Y-59284226D01*
X94586795Y-59453744D01*
X94508774Y-59642102D01*
X94469000Y-59842061D01*
X94469000Y-59866198D01*
X93999000Y-59396199D01*
X93999000Y-59334061D01*
X93959226Y-59134102D01*
X93881205Y-58945744D01*
X93767937Y-58776226D01*
X93623774Y-58632063D01*
X93454256Y-58518795D01*
X93265898Y-58440774D01*
X93065939Y-58401000D01*
X92862061Y-58401000D01*
X92662102Y-58440774D01*
X92473744Y-58518795D01*
X92304226Y-58632063D01*
X92160063Y-58776226D01*
X92046795Y-58945744D01*
X92040278Y-58961477D01*
X92003804Y-58925003D01*
X91980001Y-58895999D01*
X91864276Y-58801026D01*
X91732247Y-58730454D01*
X91588986Y-58686997D01*
X91477333Y-58676000D01*
X91477322Y-58676000D01*
X91440000Y-58672324D01*
X91402678Y-58676000D01*
X91127711Y-58676000D01*
X91083774Y-58632063D01*
X90914256Y-58518795D01*
X90725898Y-58440774D01*
X90525939Y-58401000D01*
X90322061Y-58401000D01*
X90122102Y-58440774D01*
X89933744Y-58518795D01*
X89764226Y-58632063D01*
X89620063Y-58776226D01*
X89506795Y-58945744D01*
X89428774Y-59134102D01*
X89389000Y-59334061D01*
X89389000Y-59537939D01*
X89428774Y-59737898D01*
X89506795Y-59926256D01*
X89620063Y-60095774D01*
X89764226Y-60239937D01*
X89933744Y-60353205D01*
X90122102Y-60431226D01*
X90322061Y-60471000D01*
X90525939Y-60471000D01*
X90725898Y-60431226D01*
X90914256Y-60353205D01*
X91083774Y-60239937D01*
X91126455Y-60197256D01*
X94924200Y-63995002D01*
X94947999Y-64024001D01*
X94976997Y-64047799D01*
X95063724Y-64118974D01*
X95195753Y-64189546D01*
X95339014Y-64233003D01*
X95488000Y-64247677D01*
X95525333Y-64244000D01*
X96786913Y-64244000D01*
X96798188Y-64358482D01*
X96834498Y-64478180D01*
X96837609Y-64484000D01*
X96834498Y-64489820D01*
X96798188Y-64609518D01*
X96785928Y-64734000D01*
X96785928Y-66234000D01*
X96798188Y-66358482D01*
X96834498Y-66478180D01*
X96837609Y-66484000D01*
X96834498Y-66489820D01*
X96798188Y-66609518D01*
X96785928Y-66734000D01*
X96785928Y-68234000D01*
X96798188Y-68358482D01*
X96834498Y-68478180D01*
X96837609Y-68484000D01*
X96834498Y-68489820D01*
X96798188Y-68609518D01*
X96785928Y-68734000D01*
X96789000Y-69198250D01*
X96947750Y-69357000D01*
X98297000Y-69357000D01*
X98297000Y-69337000D01*
X98551000Y-69337000D01*
X98551000Y-69357000D01*
X99900250Y-69357000D01*
X100059000Y-69198250D01*
X100062072Y-68734000D01*
X100049812Y-68609518D01*
X100013502Y-68489820D01*
X100010391Y-68484000D01*
X100013502Y-68478180D01*
X100049812Y-68358482D01*
X100062072Y-68234000D01*
X100062072Y-66734000D01*
X100049812Y-66609518D01*
X100013502Y-66489820D01*
X100010391Y-66484000D01*
X100013502Y-66478180D01*
X100049812Y-66358482D01*
X100062072Y-66234000D01*
X100062072Y-64734000D01*
X100049812Y-64609518D01*
X100013502Y-64489820D01*
X100010391Y-64484000D01*
X100013502Y-64478180D01*
X100049812Y-64358482D01*
X100062072Y-64234000D01*
X100062072Y-62734000D01*
X100049812Y-62609518D01*
X100013502Y-62489820D01*
X100010391Y-62484000D01*
X100013502Y-62478180D01*
X100049812Y-62358482D01*
X100061087Y-62244000D01*
X101546678Y-62244000D01*
X101584000Y-62247676D01*
X101621322Y-62244000D01*
X101621333Y-62244000D01*
X101732986Y-62233003D01*
X101876247Y-62189546D01*
X102008276Y-62118974D01*
X102124001Y-62024001D01*
X102147804Y-61994997D01*
X103635003Y-60507799D01*
X103664001Y-60484001D01*
X103704826Y-60434256D01*
X103758974Y-60368277D01*
X103829546Y-60236247D01*
X103839491Y-60203463D01*
X103873003Y-60092986D01*
X103884000Y-59981333D01*
X103884000Y-59981323D01*
X103887676Y-59944000D01*
X103884000Y-59906677D01*
X103884000Y-55192824D01*
X103887676Y-55155499D01*
X103884000Y-55118174D01*
X103884000Y-55118166D01*
X103873003Y-55006513D01*
X103829546Y-54863252D01*
X103758974Y-54731223D01*
X103664001Y-54615498D01*
X103635004Y-54591701D01*
X103222702Y-54179399D01*
X103275774Y-54143937D01*
X103419937Y-53999774D01*
X103533205Y-53830256D01*
X103611226Y-53641898D01*
X103651000Y-53441939D01*
X103651000Y-53238061D01*
X103611226Y-53038102D01*
X103533205Y-52849744D01*
X103468501Y-52752907D01*
X103468501Y-52588072D01*
X103558501Y-52588072D01*
X103682983Y-52575812D01*
X103802681Y-52539502D01*
X103912995Y-52480537D01*
X103978501Y-52426778D01*
X104044007Y-52480537D01*
X104154321Y-52539502D01*
X104274019Y-52575812D01*
X104398501Y-52588072D01*
X106098501Y-52588072D01*
X106222983Y-52575812D01*
X106342681Y-52539502D01*
X106452995Y-52480537D01*
X106518501Y-52426778D01*
X106584007Y-52480537D01*
X106694321Y-52539502D01*
X106814019Y-52575812D01*
X106938501Y-52588072D01*
X107028502Y-52588072D01*
X107028501Y-64616697D01*
X100269199Y-71376000D01*
X97850802Y-71376000D01*
X97338448Y-70863646D01*
X97424000Y-70872072D01*
X98138250Y-70869000D01*
X98297000Y-70710250D01*
X98297000Y-69611000D01*
X98551000Y-69611000D01*
X98551000Y-70710250D01*
X98709750Y-70869000D01*
X99424000Y-70872072D01*
X99548482Y-70859812D01*
X99668180Y-70823502D01*
X99778494Y-70764537D01*
X99875185Y-70685185D01*
X99954537Y-70588494D01*
X100013502Y-70478180D01*
X100049812Y-70358482D01*
X100062072Y-70234000D01*
X100059000Y-69769750D01*
X99900250Y-69611000D01*
X98551000Y-69611000D01*
X98297000Y-69611000D01*
X96947750Y-69611000D01*
X96789000Y-69769750D01*
X96785928Y-70234000D01*
X96794354Y-70319552D01*
X95305804Y-68831003D01*
X95282001Y-68801999D01*
X95166276Y-68707026D01*
X95034247Y-68636454D01*
X94890986Y-68592997D01*
X94779333Y-68582000D01*
X94779322Y-68582000D01*
X94742000Y-68578324D01*
X94704678Y-68582000D01*
X90484802Y-68582000D01*
X86923804Y-65021003D01*
X86900001Y-64991999D01*
X86784276Y-64897026D01*
X86652247Y-64826454D01*
X86508986Y-64782997D01*
X86397333Y-64772000D01*
X86397322Y-64772000D01*
X86360000Y-64768324D01*
X86322678Y-64772000D01*
X84062072Y-64772000D01*
X84062072Y-64734000D01*
X84049812Y-64609518D01*
X84013502Y-64489820D01*
X84010391Y-64484000D01*
X84013502Y-64478180D01*
X84049812Y-64358482D01*
X84059511Y-64260000D01*
X84640289Y-64260000D01*
X84684226Y-64303937D01*
X84853744Y-64417205D01*
X85042102Y-64495226D01*
X85242061Y-64535000D01*
X85445939Y-64535000D01*
X85645898Y-64495226D01*
X85834256Y-64417205D01*
X86003774Y-64303937D01*
X86147937Y-64159774D01*
X86261205Y-63990256D01*
X86339226Y-63801898D01*
X86379000Y-63601939D01*
X86379000Y-63539801D01*
X88903004Y-61015798D01*
X88932001Y-60992001D01*
X88971395Y-60943999D01*
X89026974Y-60876277D01*
X89097546Y-60744247D01*
X89108639Y-60707677D01*
X89141003Y-60600986D01*
X89152000Y-60489333D01*
X89152000Y-60489323D01*
X89155676Y-60452000D01*
X89152000Y-60414677D01*
X89152000Y-50606801D01*
X91246803Y-48512000D01*
X104488501Y-48512000D01*
X104488501Y-48811928D01*
G04 #@! TA.AperFunction,Conductor*
D25*
G36*
X104488501Y-48811928D02*
G01*
X104398501Y-48811928D01*
X104274019Y-48824188D01*
X104154321Y-48860498D01*
X104044007Y-48919463D01*
X103978501Y-48973222D01*
X103912995Y-48919463D01*
X103802681Y-48860498D01*
X103682983Y-48824188D01*
X103558501Y-48811928D01*
X101858501Y-48811928D01*
X101734019Y-48824188D01*
X101614321Y-48860498D01*
X101504007Y-48919463D01*
X101438501Y-48973222D01*
X101372995Y-48919463D01*
X101262681Y-48860498D01*
X101142983Y-48824188D01*
X101018501Y-48811928D01*
X99318501Y-48811928D01*
X99194019Y-48824188D01*
X99074321Y-48860498D01*
X98964007Y-48919463D01*
X98898501Y-48973222D01*
X98832995Y-48919463D01*
X98722681Y-48860498D01*
X98602983Y-48824188D01*
X98478501Y-48811928D01*
X96778501Y-48811928D01*
X96654019Y-48824188D01*
X96534321Y-48860498D01*
X96424007Y-48919463D01*
X96358501Y-48973222D01*
X96292995Y-48919463D01*
X96182681Y-48860498D01*
X96062983Y-48824188D01*
X95938501Y-48811928D01*
X94238501Y-48811928D01*
X94114019Y-48824188D01*
X93994321Y-48860498D01*
X93884007Y-48919463D01*
X93818501Y-48973222D01*
X93752995Y-48919463D01*
X93642681Y-48860498D01*
X93522983Y-48824188D01*
X93398501Y-48811928D01*
X91698501Y-48811928D01*
X91574019Y-48824188D01*
X91454321Y-48860498D01*
X91344007Y-48919463D01*
X91247316Y-48998815D01*
X91167964Y-49095506D01*
X91108999Y-49205820D01*
X91072689Y-49325518D01*
X91060429Y-49450000D01*
X91060429Y-51950000D01*
X91072689Y-52074482D01*
X91108999Y-52194180D01*
X91167964Y-52304494D01*
X91247316Y-52401185D01*
X91344007Y-52480537D01*
X91454321Y-52539502D01*
X91574019Y-52575812D01*
X91698501Y-52588072D01*
X91950001Y-52588072D01*
X91950000Y-53906289D01*
X91906063Y-53950226D01*
X91792795Y-54119744D01*
X91714774Y-54308102D01*
X91675000Y-54508061D01*
X91675000Y-54711939D01*
X91714774Y-54911898D01*
X91792795Y-55100256D01*
X91906063Y-55269774D01*
X92050226Y-55413937D01*
X92219744Y-55527205D01*
X92408102Y-55605226D01*
X92608061Y-55645000D01*
X92670199Y-55645000D01*
X95020201Y-57995003D01*
X95043999Y-58024001D01*
X95159724Y-58118974D01*
X95291753Y-58189546D01*
X95435014Y-58233003D01*
X95546667Y-58244000D01*
X95546675Y-58244000D01*
X95584000Y-58247676D01*
X95621325Y-58244000D01*
X96786913Y-58244000D01*
X96798188Y-58358482D01*
X96834498Y-58478180D01*
X96837609Y-58484000D01*
X96834498Y-58489820D01*
X96798188Y-58609518D01*
X96786913Y-58724000D01*
X96282969Y-58724000D01*
X96160985Y-58686998D01*
X96012000Y-58672324D01*
X96011999Y-58672324D01*
X95863013Y-58686998D01*
X95796329Y-58707226D01*
X95719754Y-58730454D01*
X95587724Y-58801026D01*
X95471999Y-58895999D01*
X95461329Y-58909000D01*
X95402061Y-58909000D01*
X95202102Y-58948774D01*
X95013744Y-59026795D01*
X94844226Y-59140063D01*
X94700063Y-59284226D01*
X94586795Y-59453744D01*
X94508774Y-59642102D01*
X94469000Y-59842061D01*
X94469000Y-59866198D01*
X93999000Y-59396199D01*
X93999000Y-59334061D01*
X93959226Y-59134102D01*
X93881205Y-58945744D01*
X93767937Y-58776226D01*
X93623774Y-58632063D01*
X93454256Y-58518795D01*
X93265898Y-58440774D01*
X93065939Y-58401000D01*
X92862061Y-58401000D01*
X92662102Y-58440774D01*
X92473744Y-58518795D01*
X92304226Y-58632063D01*
X92160063Y-58776226D01*
X92046795Y-58945744D01*
X92040278Y-58961477D01*
X92003804Y-58925003D01*
X91980001Y-58895999D01*
X91864276Y-58801026D01*
X91732247Y-58730454D01*
X91588986Y-58686997D01*
X91477333Y-58676000D01*
X91477322Y-58676000D01*
X91440000Y-58672324D01*
X91402678Y-58676000D01*
X91127711Y-58676000D01*
X91083774Y-58632063D01*
X90914256Y-58518795D01*
X90725898Y-58440774D01*
X90525939Y-58401000D01*
X90322061Y-58401000D01*
X90122102Y-58440774D01*
X89933744Y-58518795D01*
X89764226Y-58632063D01*
X89620063Y-58776226D01*
X89506795Y-58945744D01*
X89428774Y-59134102D01*
X89389000Y-59334061D01*
X89389000Y-59537939D01*
X89428774Y-59737898D01*
X89506795Y-59926256D01*
X89620063Y-60095774D01*
X89764226Y-60239937D01*
X89933744Y-60353205D01*
X90122102Y-60431226D01*
X90322061Y-60471000D01*
X90525939Y-60471000D01*
X90725898Y-60431226D01*
X90914256Y-60353205D01*
X91083774Y-60239937D01*
X91126455Y-60197256D01*
X94924200Y-63995002D01*
X94947999Y-64024001D01*
X94976997Y-64047799D01*
X95063724Y-64118974D01*
X95195753Y-64189546D01*
X95339014Y-64233003D01*
X95488000Y-64247677D01*
X95525333Y-64244000D01*
X96786913Y-64244000D01*
X96798188Y-64358482D01*
X96834498Y-64478180D01*
X96837609Y-64484000D01*
X96834498Y-64489820D01*
X96798188Y-64609518D01*
X96785928Y-64734000D01*
X96785928Y-66234000D01*
X96798188Y-66358482D01*
X96834498Y-66478180D01*
X96837609Y-66484000D01*
X96834498Y-66489820D01*
X96798188Y-66609518D01*
X96785928Y-66734000D01*
X96785928Y-68234000D01*
X96798188Y-68358482D01*
X96834498Y-68478180D01*
X96837609Y-68484000D01*
X96834498Y-68489820D01*
X96798188Y-68609518D01*
X96785928Y-68734000D01*
X96789000Y-69198250D01*
X96947750Y-69357000D01*
X98297000Y-69357000D01*
X98297000Y-69337000D01*
X98551000Y-69337000D01*
X98551000Y-69357000D01*
X99900250Y-69357000D01*
X100059000Y-69198250D01*
X100062072Y-68734000D01*
X100049812Y-68609518D01*
X100013502Y-68489820D01*
X100010391Y-68484000D01*
X100013502Y-68478180D01*
X100049812Y-68358482D01*
X100062072Y-68234000D01*
X100062072Y-66734000D01*
X100049812Y-66609518D01*
X100013502Y-66489820D01*
X100010391Y-66484000D01*
X100013502Y-66478180D01*
X100049812Y-66358482D01*
X100062072Y-66234000D01*
X100062072Y-64734000D01*
X100049812Y-64609518D01*
X100013502Y-64489820D01*
X100010391Y-64484000D01*
X100013502Y-64478180D01*
X100049812Y-64358482D01*
X100062072Y-64234000D01*
X100062072Y-62734000D01*
X100049812Y-62609518D01*
X100013502Y-62489820D01*
X100010391Y-62484000D01*
X100013502Y-62478180D01*
X100049812Y-62358482D01*
X100061087Y-62244000D01*
X101546678Y-62244000D01*
X101584000Y-62247676D01*
X101621322Y-62244000D01*
X101621333Y-62244000D01*
X101732986Y-62233003D01*
X101876247Y-62189546D01*
X102008276Y-62118974D01*
X102124001Y-62024001D01*
X102147804Y-61994997D01*
X103635003Y-60507799D01*
X103664001Y-60484001D01*
X103704826Y-60434256D01*
X103758974Y-60368277D01*
X103829546Y-60236247D01*
X103839491Y-60203463D01*
X103873003Y-60092986D01*
X103884000Y-59981333D01*
X103884000Y-59981323D01*
X103887676Y-59944000D01*
X103884000Y-59906677D01*
X103884000Y-55192824D01*
X103887676Y-55155499D01*
X103884000Y-55118174D01*
X103884000Y-55118166D01*
X103873003Y-55006513D01*
X103829546Y-54863252D01*
X103758974Y-54731223D01*
X103664001Y-54615498D01*
X103635004Y-54591701D01*
X103222702Y-54179399D01*
X103275774Y-54143937D01*
X103419937Y-53999774D01*
X103533205Y-53830256D01*
X103611226Y-53641898D01*
X103651000Y-53441939D01*
X103651000Y-53238061D01*
X103611226Y-53038102D01*
X103533205Y-52849744D01*
X103468501Y-52752907D01*
X103468501Y-52588072D01*
X103558501Y-52588072D01*
X103682983Y-52575812D01*
X103802681Y-52539502D01*
X103912995Y-52480537D01*
X103978501Y-52426778D01*
X104044007Y-52480537D01*
X104154321Y-52539502D01*
X104274019Y-52575812D01*
X104398501Y-52588072D01*
X106098501Y-52588072D01*
X106222983Y-52575812D01*
X106342681Y-52539502D01*
X106452995Y-52480537D01*
X106518501Y-52426778D01*
X106584007Y-52480537D01*
X106694321Y-52539502D01*
X106814019Y-52575812D01*
X106938501Y-52588072D01*
X107028502Y-52588072D01*
X107028501Y-64616697D01*
X100269199Y-71376000D01*
X97850802Y-71376000D01*
X97338448Y-70863646D01*
X97424000Y-70872072D01*
X98138250Y-70869000D01*
X98297000Y-70710250D01*
X98297000Y-69611000D01*
X98551000Y-69611000D01*
X98551000Y-70710250D01*
X98709750Y-70869000D01*
X99424000Y-70872072D01*
X99548482Y-70859812D01*
X99668180Y-70823502D01*
X99778494Y-70764537D01*
X99875185Y-70685185D01*
X99954537Y-70588494D01*
X100013502Y-70478180D01*
X100049812Y-70358482D01*
X100062072Y-70234000D01*
X100059000Y-69769750D01*
X99900250Y-69611000D01*
X98551000Y-69611000D01*
X98297000Y-69611000D01*
X96947750Y-69611000D01*
X96789000Y-69769750D01*
X96785928Y-70234000D01*
X96794354Y-70319552D01*
X95305804Y-68831003D01*
X95282001Y-68801999D01*
X95166276Y-68707026D01*
X95034247Y-68636454D01*
X94890986Y-68592997D01*
X94779333Y-68582000D01*
X94779322Y-68582000D01*
X94742000Y-68578324D01*
X94704678Y-68582000D01*
X90484802Y-68582000D01*
X86923804Y-65021003D01*
X86900001Y-64991999D01*
X86784276Y-64897026D01*
X86652247Y-64826454D01*
X86508986Y-64782997D01*
X86397333Y-64772000D01*
X86397322Y-64772000D01*
X86360000Y-64768324D01*
X86322678Y-64772000D01*
X84062072Y-64772000D01*
X84062072Y-64734000D01*
X84049812Y-64609518D01*
X84013502Y-64489820D01*
X84010391Y-64484000D01*
X84013502Y-64478180D01*
X84049812Y-64358482D01*
X84059511Y-64260000D01*
X84640289Y-64260000D01*
X84684226Y-64303937D01*
X84853744Y-64417205D01*
X85042102Y-64495226D01*
X85242061Y-64535000D01*
X85445939Y-64535000D01*
X85645898Y-64495226D01*
X85834256Y-64417205D01*
X86003774Y-64303937D01*
X86147937Y-64159774D01*
X86261205Y-63990256D01*
X86339226Y-63801898D01*
X86379000Y-63601939D01*
X86379000Y-63539801D01*
X88903004Y-61015798D01*
X88932001Y-60992001D01*
X88971395Y-60943999D01*
X89026974Y-60876277D01*
X89097546Y-60744247D01*
X89108639Y-60707677D01*
X89141003Y-60600986D01*
X89152000Y-60489333D01*
X89152000Y-60489323D01*
X89155676Y-60452000D01*
X89152000Y-60414677D01*
X89152000Y-50606801D01*
X91246803Y-48512000D01*
X104488501Y-48512000D01*
X104488501Y-48811928D01*
G37*
G04 #@! TD.AperFunction*
D24*
X86106744Y-66353545D02*
X86059410Y-66400879D01*
X85946142Y-66570397D01*
X85868121Y-66758755D01*
X85828347Y-66958714D01*
X85828347Y-67162592D01*
X85868121Y-67362551D01*
X85946142Y-67550909D01*
X86059410Y-67720427D01*
X86203573Y-67864590D01*
X86373091Y-67977858D01*
X86561449Y-68055879D01*
X86761408Y-68095653D01*
X86823546Y-68095653D01*
X88959991Y-70232099D01*
X88959991Y-70625020D01*
X83924561Y-70625020D01*
X83954537Y-70588494D01*
X84013502Y-70478180D01*
X84049812Y-70358482D01*
X84062072Y-70234000D01*
X84062072Y-68734000D01*
X84049812Y-68609518D01*
X84013502Y-68489820D01*
X84010391Y-68484000D01*
X84013502Y-68478180D01*
X84049812Y-68358482D01*
X84062072Y-68234000D01*
X84062072Y-66734000D01*
X84049812Y-66609518D01*
X84013502Y-66489820D01*
X84010391Y-66484000D01*
X84013502Y-66478180D01*
X84049812Y-66358482D01*
X84056360Y-66292000D01*
X86045199Y-66292000D01*
X86106744Y-66353545D01*
G04 #@! TA.AperFunction,Conductor*
D25*
G36*
X86106744Y-66353545D02*
G01*
X86059410Y-66400879D01*
X85946142Y-66570397D01*
X85868121Y-66758755D01*
X85828347Y-66958714D01*
X85828347Y-67162592D01*
X85868121Y-67362551D01*
X85946142Y-67550909D01*
X86059410Y-67720427D01*
X86203573Y-67864590D01*
X86373091Y-67977858D01*
X86561449Y-68055879D01*
X86761408Y-68095653D01*
X86823546Y-68095653D01*
X88959991Y-70232099D01*
X88959991Y-70625020D01*
X83924561Y-70625020D01*
X83954537Y-70588494D01*
X84013502Y-70478180D01*
X84049812Y-70358482D01*
X84062072Y-70234000D01*
X84062072Y-68734000D01*
X84049812Y-68609518D01*
X84013502Y-68489820D01*
X84010391Y-68484000D01*
X84013502Y-68478180D01*
X84049812Y-68358482D01*
X84062072Y-68234000D01*
X84062072Y-66734000D01*
X84049812Y-66609518D01*
X84013502Y-66489820D01*
X84010391Y-66484000D01*
X84013502Y-66478180D01*
X84049812Y-66358482D01*
X84056360Y-66292000D01*
X86045199Y-66292000D01*
X86106744Y-66353545D01*
G37*
G04 #@! TD.AperFunction*
D24*
X96424007Y-52480537D02*
X96534321Y-52539502D01*
X96654019Y-52575812D01*
X96778501Y-52588072D01*
X96815797Y-52588072D01*
X96786997Y-52683014D01*
X96772323Y-52832000D01*
X96786997Y-52980986D01*
X96830454Y-53124247D01*
X96901026Y-53256276D01*
X96995999Y-53372001D01*
X97111724Y-53466974D01*
X97243753Y-53537546D01*
X97387014Y-53581003D01*
X97498667Y-53592000D01*
X97498678Y-53592000D01*
X97536000Y-53595676D01*
X97573322Y-53592000D01*
X99761199Y-53592000D01*
X101856001Y-55686804D01*
X101856000Y-58105198D01*
X101793199Y-58168000D01*
X100267325Y-58168000D01*
X100230000Y-58164324D01*
X100192675Y-58168000D01*
X100192667Y-58168000D01*
X100081014Y-58178997D01*
X100062072Y-58184743D01*
X100062072Y-56734000D01*
X100049812Y-56609518D01*
X100013502Y-56489820D01*
X100010391Y-56484000D01*
X100013502Y-56478180D01*
X100049812Y-56358482D01*
X100062072Y-56234000D01*
X100059000Y-55769750D01*
X99900250Y-55611000D01*
X98551000Y-55611000D01*
X98551000Y-55631000D01*
X98297000Y-55631000D01*
X98297000Y-55611000D01*
X96947750Y-55611000D01*
X96789000Y-55769750D01*
X96785928Y-56234000D01*
X96798188Y-56358482D01*
X96834498Y-56478180D01*
X96837609Y-56484000D01*
X96834498Y-56489820D01*
X96798188Y-56609518D01*
X96786913Y-56724000D01*
X95898802Y-56724000D01*
X93745000Y-54570199D01*
X93745000Y-54508061D01*
X93705226Y-54308102D01*
X93627205Y-54119744D01*
X93513937Y-53950226D01*
X93470000Y-53906289D01*
X93470000Y-52581030D01*
X93522983Y-52575812D01*
X93642681Y-52539502D01*
X93752995Y-52480537D01*
X93818501Y-52426778D01*
X93884007Y-52480537D01*
X93994321Y-52539502D01*
X94114019Y-52575812D01*
X94238501Y-52588072D01*
X94490001Y-52588072D01*
X94490000Y-53906289D01*
X94446063Y-53950226D01*
X94332795Y-54119744D01*
X94254774Y-54308102D01*
X94215000Y-54508061D01*
X94215000Y-54711939D01*
X94254774Y-54911898D01*
X94332795Y-55100256D01*
X94446063Y-55269774D01*
X94590226Y-55413937D01*
X94759744Y-55527205D01*
X94948102Y-55605226D01*
X95148061Y-55645000D01*
X95351939Y-55645000D01*
X95551898Y-55605226D01*
X95740256Y-55527205D01*
X95909774Y-55413937D01*
X96053937Y-55269774D01*
X96167205Y-55100256D01*
X96245226Y-54911898D01*
X96280611Y-54734000D01*
X96785928Y-54734000D01*
X96789000Y-55198250D01*
X96947750Y-55357000D01*
X98297000Y-55357000D01*
X98297000Y-54257750D01*
X98551000Y-54257750D01*
X98551000Y-55357000D01*
X99900250Y-55357000D01*
X100059000Y-55198250D01*
X100062072Y-54734000D01*
X100049812Y-54609518D01*
X100013502Y-54489820D01*
X99954537Y-54379506D01*
X99875185Y-54282815D01*
X99778494Y-54203463D01*
X99668180Y-54144498D01*
X99548482Y-54108188D01*
X99424000Y-54095928D01*
X98709750Y-54099000D01*
X98551000Y-54257750D01*
X98297000Y-54257750D01*
X98138250Y-54099000D01*
X97424000Y-54095928D01*
X97299518Y-54108188D01*
X97179820Y-54144498D01*
X97069506Y-54203463D01*
X96972815Y-54282815D01*
X96893463Y-54379506D01*
X96834498Y-54489820D01*
X96798188Y-54609518D01*
X96785928Y-54734000D01*
X96280611Y-54734000D01*
X96285000Y-54711939D01*
X96285000Y-54508061D01*
X96245226Y-54308102D01*
X96167205Y-54119744D01*
X96053937Y-53950226D01*
X96010000Y-53906289D01*
X96010000Y-52581030D01*
X96062983Y-52575812D01*
X96182681Y-52539502D01*
X96292995Y-52480537D01*
X96358501Y-52426778D01*
X96424007Y-52480537D01*
G04 #@! TA.AperFunction,Conductor*
D25*
G36*
X96424007Y-52480537D02*
G01*
X96534321Y-52539502D01*
X96654019Y-52575812D01*
X96778501Y-52588072D01*
X96815797Y-52588072D01*
X96786997Y-52683014D01*
X96772323Y-52832000D01*
X96786997Y-52980986D01*
X96830454Y-53124247D01*
X96901026Y-53256276D01*
X96995999Y-53372001D01*
X97111724Y-53466974D01*
X97243753Y-53537546D01*
X97387014Y-53581003D01*
X97498667Y-53592000D01*
X97498678Y-53592000D01*
X97536000Y-53595676D01*
X97573322Y-53592000D01*
X99761199Y-53592000D01*
X101856001Y-55686804D01*
X101856000Y-58105198D01*
X101793199Y-58168000D01*
X100267325Y-58168000D01*
X100230000Y-58164324D01*
X100192675Y-58168000D01*
X100192667Y-58168000D01*
X100081014Y-58178997D01*
X100062072Y-58184743D01*
X100062072Y-56734000D01*
X100049812Y-56609518D01*
X100013502Y-56489820D01*
X100010391Y-56484000D01*
X100013502Y-56478180D01*
X100049812Y-56358482D01*
X100062072Y-56234000D01*
X100059000Y-55769750D01*
X99900250Y-55611000D01*
X98551000Y-55611000D01*
X98551000Y-55631000D01*
X98297000Y-55631000D01*
X98297000Y-55611000D01*
X96947750Y-55611000D01*
X96789000Y-55769750D01*
X96785928Y-56234000D01*
X96798188Y-56358482D01*
X96834498Y-56478180D01*
X96837609Y-56484000D01*
X96834498Y-56489820D01*
X96798188Y-56609518D01*
X96786913Y-56724000D01*
X95898802Y-56724000D01*
X93745000Y-54570199D01*
X93745000Y-54508061D01*
X93705226Y-54308102D01*
X93627205Y-54119744D01*
X93513937Y-53950226D01*
X93470000Y-53906289D01*
X93470000Y-52581030D01*
X93522983Y-52575812D01*
X93642681Y-52539502D01*
X93752995Y-52480537D01*
X93818501Y-52426778D01*
X93884007Y-52480537D01*
X93994321Y-52539502D01*
X94114019Y-52575812D01*
X94238501Y-52588072D01*
X94490001Y-52588072D01*
X94490000Y-53906289D01*
X94446063Y-53950226D01*
X94332795Y-54119744D01*
X94254774Y-54308102D01*
X94215000Y-54508061D01*
X94215000Y-54711939D01*
X94254774Y-54911898D01*
X94332795Y-55100256D01*
X94446063Y-55269774D01*
X94590226Y-55413937D01*
X94759744Y-55527205D01*
X94948102Y-55605226D01*
X95148061Y-55645000D01*
X95351939Y-55645000D01*
X95551898Y-55605226D01*
X95740256Y-55527205D01*
X95909774Y-55413937D01*
X96053937Y-55269774D01*
X96167205Y-55100256D01*
X96245226Y-54911898D01*
X96280611Y-54734000D01*
X96785928Y-54734000D01*
X96789000Y-55198250D01*
X96947750Y-55357000D01*
X98297000Y-55357000D01*
X98297000Y-54257750D01*
X98551000Y-54257750D01*
X98551000Y-55357000D01*
X99900250Y-55357000D01*
X100059000Y-55198250D01*
X100062072Y-54734000D01*
X100049812Y-54609518D01*
X100013502Y-54489820D01*
X99954537Y-54379506D01*
X99875185Y-54282815D01*
X99778494Y-54203463D01*
X99668180Y-54144498D01*
X99548482Y-54108188D01*
X99424000Y-54095928D01*
X98709750Y-54099000D01*
X98551000Y-54257750D01*
X98297000Y-54257750D01*
X98138250Y-54099000D01*
X97424000Y-54095928D01*
X97299518Y-54108188D01*
X97179820Y-54144498D01*
X97069506Y-54203463D01*
X96972815Y-54282815D01*
X96893463Y-54379506D01*
X96834498Y-54489820D01*
X96798188Y-54609518D01*
X96785928Y-54734000D01*
X96280611Y-54734000D01*
X96285000Y-54711939D01*
X96285000Y-54508061D01*
X96245226Y-54308102D01*
X96167205Y-54119744D01*
X96053937Y-53950226D01*
X96010000Y-53906289D01*
X96010000Y-52581030D01*
X96062983Y-52575812D01*
X96182681Y-52539502D01*
X96292995Y-52480537D01*
X96358501Y-52426778D01*
X96424007Y-52480537D01*
G37*
G04 #@! TD.AperFunction*
M02*
