G04 #@! TF.GenerationSoftware,KiCad,Pcbnew,5.1.9+dfsg1-1+deb11u1*
G04 #@! TF.CreationDate,2023-03-18T22:01:19+02:00*
G04 #@! TF.ProjectId,lora_tracker_wide,6c6f7261-5f74-4726-9163-6b65725f7769,rev?*
G04 #@! TF.SameCoordinates,Original*
G04 #@! TF.FileFunction,Legend,Top*
G04 #@! TF.FilePolarity,Positive*
%FSLAX46Y46*%
G04 Gerber Fmt 4.6, Leading zero omitted, Abs format (unit mm)*
G04 Created by KiCad (PCBNEW 5.1.9+dfsg1-1+deb11u1) date 2023-03-18 22:01:19*
%MOMM*%
%LPD*%
G01*
G04 APERTURE LIST*
%ADD10C,0.127000*%
%ADD11C,0.120000*%
%ADD12C,0.150000*%
G04 APERTURE END LIST*
D10*
X112958501Y-50700000D02*
X111658501Y-50700000D01*
X112958501Y-74700000D02*
X112958501Y-50700000D01*
X111658501Y-74700000D02*
X112958501Y-74700000D01*
X86258501Y-50700000D02*
X91258501Y-50700000D01*
X86258501Y-74700000D02*
X91258501Y-74700000D01*
X80958501Y-74700000D02*
X81358501Y-74700000D01*
X83458501Y-74700000D02*
X83858501Y-74700000D01*
X93558501Y-74700000D02*
X93958501Y-74700000D01*
X96158501Y-74700000D02*
X96558501Y-74700000D01*
X98658501Y-74700000D02*
X99058501Y-74700000D01*
X101258501Y-74700000D02*
X101658501Y-74700000D01*
X103758501Y-74700000D02*
X104158501Y-74700000D01*
X106258501Y-74700000D02*
X106658501Y-74700000D01*
X108858501Y-74700000D02*
X109258501Y-74700000D01*
X108858501Y-50700000D02*
X109258501Y-50700000D01*
X106358501Y-50700000D02*
X106758501Y-50700000D01*
X103758501Y-50700000D02*
X104158501Y-50700000D01*
X101258501Y-50700000D02*
X101658501Y-50700000D01*
X98658501Y-50700000D02*
X99058501Y-50700000D01*
X96158501Y-50700000D02*
X96558501Y-50700000D01*
X93558501Y-50700000D02*
X93958501Y-50700000D01*
X83458501Y-50700000D02*
X83858501Y-50700000D01*
X80958501Y-50700000D02*
X81358501Y-50700000D01*
X74358501Y-50700000D02*
X78558501Y-50700000D01*
X74358501Y-74700000D02*
X74358501Y-50700000D01*
X78558501Y-74700000D02*
X74358501Y-74700000D01*
D11*
X99584000Y-103142000D02*
X99584000Y-99042000D01*
X99584000Y-99042000D02*
X101584000Y-99042000D01*
X101584000Y-99042000D02*
X101584000Y-103142000D01*
X101584000Y-103142000D02*
X99584000Y-103142000D01*
X101784000Y-102392000D02*
X102084000Y-102692000D01*
X102084000Y-102692000D02*
X102084000Y-102092000D01*
X101784000Y-102392000D02*
X102084000Y-102092000D01*
X101784000Y-107218000D02*
X102084000Y-106918000D01*
X102084000Y-107518000D02*
X102084000Y-106918000D01*
X101784000Y-107218000D02*
X102084000Y-107518000D01*
X101584000Y-107968000D02*
X99584000Y-107968000D01*
X101584000Y-103868000D02*
X101584000Y-107968000D01*
X99584000Y-103868000D02*
X101584000Y-103868000D01*
X99584000Y-107968000D02*
X99584000Y-103868000D01*
X99584000Y-113048000D02*
X99584000Y-108948000D01*
X99584000Y-108948000D02*
X101584000Y-108948000D01*
X101584000Y-108948000D02*
X101584000Y-113048000D01*
X101584000Y-113048000D02*
X99584000Y-113048000D01*
X101784000Y-112298000D02*
X102084000Y-112598000D01*
X102084000Y-112598000D02*
X102084000Y-111998000D01*
X101784000Y-112298000D02*
X102084000Y-111998000D01*
X87252000Y-121904000D02*
X84452000Y-121904000D01*
X84452000Y-121904000D02*
X84452000Y-119904000D01*
X84452000Y-119904000D02*
X87252000Y-119904000D01*
X87252000Y-119904000D02*
X87252000Y-121904000D01*
X87394000Y-130064000D02*
X87394000Y-132064000D01*
X84594000Y-130064000D02*
X87394000Y-130064000D01*
X84594000Y-132064000D02*
X84594000Y-130064000D01*
X87394000Y-132064000D02*
X84594000Y-132064000D01*
X99584000Y-98428000D02*
X99584000Y-95628000D01*
X99584000Y-95628000D02*
X101584000Y-95628000D01*
X101584000Y-95628000D02*
X101584000Y-98428000D01*
X101584000Y-98428000D02*
X99584000Y-98428000D01*
X82296000Y-47980000D02*
X82046000Y-48480000D01*
X82046000Y-48480000D02*
X82546000Y-48480000D01*
X82546000Y-48480000D02*
X82296000Y-47980000D01*
X105254500Y-79600500D02*
X104879500Y-79600500D01*
X105067000Y-79413000D02*
X105067000Y-79788000D01*
X102572000Y-80217437D02*
X101872000Y-80917437D01*
X104692000Y-80217437D02*
X105392000Y-80917437D01*
X101872000Y-80917437D02*
X101872000Y-83548000D01*
X105392000Y-80917437D02*
X105392000Y-83548000D01*
X105392000Y-83548000D02*
X104692000Y-83548000D01*
X101872000Y-83548000D02*
X102572000Y-83548000D01*
X107186000Y-79076733D02*
X107186000Y-79419267D01*
X108206000Y-79076733D02*
X108206000Y-79419267D01*
X84852000Y-85976000D02*
X86852000Y-85976000D01*
X84852000Y-88776000D02*
X84852000Y-85976000D01*
X86852000Y-88776000D02*
X84852000Y-88776000D01*
X86852000Y-85976000D02*
X86852000Y-88776000D01*
X103508000Y-135112000D02*
X100708000Y-135112000D01*
X100708000Y-135112000D02*
X100708000Y-133112000D01*
X100708000Y-133112000D02*
X103508000Y-133112000D01*
X103508000Y-133112000D02*
X103508000Y-135112000D01*
D12*
X82174000Y-70484000D02*
X82174000Y-71234000D01*
X82174000Y-71234000D02*
X98674000Y-71234000D01*
X98674000Y-71234000D02*
X98674000Y-70484000D01*
X82174000Y-54484000D02*
X82174000Y-53734000D01*
X82174000Y-53734000D02*
X98674000Y-53734000D01*
X98674000Y-53734000D02*
X98674000Y-54484000D01*
D11*
X79250000Y-57067267D02*
X79250000Y-56724733D01*
X78230000Y-57067267D02*
X78230000Y-56724733D01*
X79248000Y-118678000D02*
X77918000Y-118678000D01*
X77918000Y-118678000D02*
X77918000Y-117348000D01*
X77918000Y-116078000D02*
X77918000Y-93158000D01*
X80578000Y-93158000D02*
X77918000Y-93158000D01*
X80578000Y-116078000D02*
X80578000Y-93158000D01*
X80578000Y-116078000D02*
X77918000Y-116078000D01*
X110236000Y-127314000D02*
X108906000Y-127314000D01*
X108906000Y-127314000D02*
X108906000Y-125984000D01*
X108906000Y-124714000D02*
X108906000Y-96714000D01*
X111566000Y-96714000D02*
X108906000Y-96714000D01*
X111566000Y-124714000D02*
X111566000Y-96714000D01*
X111566000Y-124714000D02*
X108906000Y-124714000D01*
X79248000Y-127194000D02*
X80578000Y-127194000D01*
X80578000Y-127194000D02*
X80578000Y-128524000D01*
X80578000Y-129794000D02*
X80578000Y-134934000D01*
X77918000Y-134934000D02*
X80578000Y-134934000D01*
X77918000Y-129794000D02*
X77918000Y-134934000D01*
X77918000Y-129794000D02*
X80578000Y-129794000D01*
D12*
X103632000Y-135255000D02*
X106172000Y-135255000D01*
X106172000Y-85725000D02*
X106172000Y-135255000D01*
X103632000Y-85725000D02*
X106172000Y-85725000D01*
X83312000Y-85725000D02*
X83312000Y-132715000D01*
X103632000Y-85725000D02*
X83312000Y-85725000D01*
X83312000Y-132715000D02*
X83312000Y-135255000D01*
X83312000Y-135255000D02*
X103632000Y-135255000D01*
X98236380Y-101925333D02*
X98950666Y-101925333D01*
X99093523Y-101972952D01*
X99188761Y-102068190D01*
X99236380Y-102211047D01*
X99236380Y-102306285D01*
X99236380Y-101449142D02*
X98236380Y-101449142D01*
X98236380Y-101068190D01*
X98284000Y-100972952D01*
X98331619Y-100925333D01*
X98426857Y-100877714D01*
X98569714Y-100877714D01*
X98664952Y-100925333D01*
X98712571Y-100972952D01*
X98760190Y-101068190D01*
X98760190Y-101449142D01*
X99236380Y-99925333D02*
X99236380Y-100496761D01*
X99236380Y-100211047D02*
X98236380Y-100211047D01*
X98379238Y-100306285D01*
X98474476Y-100401523D01*
X98522095Y-100496761D01*
X98236380Y-106751333D02*
X98950666Y-106751333D01*
X99093523Y-106798952D01*
X99188761Y-106894190D01*
X99236380Y-107037047D01*
X99236380Y-107132285D01*
X99236380Y-106275142D02*
X98236380Y-106275142D01*
X98236380Y-105894190D01*
X98284000Y-105798952D01*
X98331619Y-105751333D01*
X98426857Y-105703714D01*
X98569714Y-105703714D01*
X98664952Y-105751333D01*
X98712571Y-105798952D01*
X98760190Y-105894190D01*
X98760190Y-106275142D01*
X98331619Y-105322761D02*
X98284000Y-105275142D01*
X98236380Y-105179904D01*
X98236380Y-104941809D01*
X98284000Y-104846571D01*
X98331619Y-104798952D01*
X98426857Y-104751333D01*
X98522095Y-104751333D01*
X98664952Y-104798952D01*
X99236380Y-105370380D01*
X99236380Y-104751333D01*
X98236380Y-111831333D02*
X98950666Y-111831333D01*
X99093523Y-111878952D01*
X99188761Y-111974190D01*
X99236380Y-112117047D01*
X99236380Y-112212285D01*
X99236380Y-111355142D02*
X98236380Y-111355142D01*
X98236380Y-110974190D01*
X98284000Y-110878952D01*
X98331619Y-110831333D01*
X98426857Y-110783714D01*
X98569714Y-110783714D01*
X98664952Y-110831333D01*
X98712571Y-110878952D01*
X98760190Y-110974190D01*
X98760190Y-111355142D01*
X98236380Y-110450380D02*
X98236380Y-109831333D01*
X98617333Y-110164666D01*
X98617333Y-110021809D01*
X98664952Y-109926571D01*
X98712571Y-109878952D01*
X98807809Y-109831333D01*
X99045904Y-109831333D01*
X99141142Y-109878952D01*
X99188761Y-109926571D01*
X99236380Y-110021809D01*
X99236380Y-110307523D01*
X99188761Y-110402761D01*
X99141142Y-110450380D01*
X85018666Y-122156380D02*
X85018666Y-122870666D01*
X84971047Y-123013523D01*
X84875809Y-123108761D01*
X84732952Y-123156380D01*
X84637714Y-123156380D01*
X85494857Y-123156380D02*
X85494857Y-122156380D01*
X85875809Y-122156380D01*
X85971047Y-122204000D01*
X86018666Y-122251619D01*
X86066285Y-122346857D01*
X86066285Y-122489714D01*
X86018666Y-122584952D01*
X85971047Y-122632571D01*
X85875809Y-122680190D01*
X85494857Y-122680190D01*
X86923428Y-122489714D02*
X86923428Y-123156380D01*
X86685333Y-122108761D02*
X86447238Y-122823047D01*
X87066285Y-122823047D01*
X85160666Y-132316380D02*
X85160666Y-133030666D01*
X85113047Y-133173523D01*
X85017809Y-133268761D01*
X84874952Y-133316380D01*
X84779714Y-133316380D01*
X85636857Y-133316380D02*
X85636857Y-132316380D01*
X86017809Y-132316380D01*
X86113047Y-132364000D01*
X86160666Y-132411619D01*
X86208285Y-132506857D01*
X86208285Y-132649714D01*
X86160666Y-132744952D01*
X86113047Y-132792571D01*
X86017809Y-132840190D01*
X85636857Y-132840190D01*
X87113047Y-132316380D02*
X86636857Y-132316380D01*
X86589238Y-132792571D01*
X86636857Y-132744952D01*
X86732095Y-132697333D01*
X86970190Y-132697333D01*
X87065428Y-132744952D01*
X87113047Y-132792571D01*
X87160666Y-132887809D01*
X87160666Y-133125904D01*
X87113047Y-133221142D01*
X87065428Y-133268761D01*
X86970190Y-133316380D01*
X86732095Y-133316380D01*
X86636857Y-133268761D01*
X86589238Y-133221142D01*
X98236380Y-97861333D02*
X98950666Y-97861333D01*
X99093523Y-97908952D01*
X99188761Y-98004190D01*
X99236380Y-98147047D01*
X99236380Y-98242285D01*
X99236380Y-97385142D02*
X98236380Y-97385142D01*
X98236380Y-97004190D01*
X98284000Y-96908952D01*
X98331619Y-96861333D01*
X98426857Y-96813714D01*
X98569714Y-96813714D01*
X98664952Y-96861333D01*
X98712571Y-96908952D01*
X98760190Y-97004190D01*
X98760190Y-97385142D01*
X98236380Y-95956571D02*
X98236380Y-96147047D01*
X98284000Y-96242285D01*
X98331619Y-96289904D01*
X98474476Y-96385142D01*
X98664952Y-96432761D01*
X99045904Y-96432761D01*
X99141142Y-96385142D01*
X99188761Y-96337523D01*
X99236380Y-96242285D01*
X99236380Y-96051809D01*
X99188761Y-95956571D01*
X99141142Y-95908952D01*
X99045904Y-95861333D01*
X98807809Y-95861333D01*
X98712571Y-95908952D01*
X98664952Y-95956571D01*
X98617333Y-96051809D01*
X98617333Y-96242285D01*
X98664952Y-96337523D01*
X98712571Y-96385142D01*
X98807809Y-96432761D01*
X81962666Y-48672380D02*
X81962666Y-49386666D01*
X81915047Y-49529523D01*
X81819809Y-49624761D01*
X81676952Y-49672380D01*
X81581714Y-49672380D01*
X82962666Y-49672380D02*
X82391238Y-49672380D01*
X82676952Y-49672380D02*
X82676952Y-48672380D01*
X82581714Y-48815238D01*
X82486476Y-48910476D01*
X82391238Y-48958095D01*
X106689142Y-81954666D02*
X106736761Y-82002285D01*
X106784380Y-82145142D01*
X106784380Y-82240380D01*
X106736761Y-82383238D01*
X106641523Y-82478476D01*
X106546285Y-82526095D01*
X106355809Y-82573714D01*
X106212952Y-82573714D01*
X106022476Y-82526095D01*
X105927238Y-82478476D01*
X105832000Y-82383238D01*
X105784380Y-82240380D01*
X105784380Y-82145142D01*
X105832000Y-82002285D01*
X105879619Y-81954666D01*
X105879619Y-81573714D02*
X105832000Y-81526095D01*
X105784380Y-81430857D01*
X105784380Y-81192761D01*
X105832000Y-81097523D01*
X105879619Y-81049904D01*
X105974857Y-81002285D01*
X106070095Y-81002285D01*
X106212952Y-81049904D01*
X106784380Y-81621333D01*
X106784380Y-81002285D01*
X109483142Y-79414666D02*
X109530761Y-79462285D01*
X109578380Y-79605142D01*
X109578380Y-79700380D01*
X109530761Y-79843238D01*
X109435523Y-79938476D01*
X109340285Y-79986095D01*
X109149809Y-80033714D01*
X109006952Y-80033714D01*
X108816476Y-79986095D01*
X108721238Y-79938476D01*
X108626000Y-79843238D01*
X108578380Y-79700380D01*
X108578380Y-79605142D01*
X108626000Y-79462285D01*
X108673619Y-79414666D01*
X109578380Y-78462285D02*
X109578380Y-79033714D01*
X109578380Y-78748000D02*
X108578380Y-78748000D01*
X108721238Y-78843238D01*
X108816476Y-78938476D01*
X108864095Y-79033714D01*
X87104380Y-88209333D02*
X87818666Y-88209333D01*
X87961523Y-88256952D01*
X88056761Y-88352190D01*
X88104380Y-88495047D01*
X88104380Y-88590285D01*
X88104380Y-87733142D02*
X87104380Y-87733142D01*
X87104380Y-87352190D01*
X87152000Y-87256952D01*
X87199619Y-87209333D01*
X87294857Y-87161714D01*
X87437714Y-87161714D01*
X87532952Y-87209333D01*
X87580571Y-87256952D01*
X87628190Y-87352190D01*
X87628190Y-87733142D01*
X87104380Y-86828380D02*
X87104380Y-86161714D01*
X88104380Y-86590285D01*
X101274666Y-135364380D02*
X101274666Y-136078666D01*
X101227047Y-136221523D01*
X101131809Y-136316761D01*
X100988952Y-136364380D01*
X100893714Y-136364380D01*
X101750857Y-136364380D02*
X101750857Y-135364380D01*
X102131809Y-135364380D01*
X102227047Y-135412000D01*
X102274666Y-135459619D01*
X102322285Y-135554857D01*
X102322285Y-135697714D01*
X102274666Y-135792952D01*
X102227047Y-135840571D01*
X102131809Y-135888190D01*
X101750857Y-135888190D01*
X102893714Y-135792952D02*
X102798476Y-135745333D01*
X102750857Y-135697714D01*
X102703238Y-135602476D01*
X102703238Y-135554857D01*
X102750857Y-135459619D01*
X102798476Y-135412000D01*
X102893714Y-135364380D01*
X103084190Y-135364380D01*
X103179428Y-135412000D01*
X103227047Y-135459619D01*
X103274666Y-135554857D01*
X103274666Y-135602476D01*
X103227047Y-135697714D01*
X103179428Y-135745333D01*
X103084190Y-135792952D01*
X102893714Y-135792952D01*
X102798476Y-135840571D01*
X102750857Y-135888190D01*
X102703238Y-135983428D01*
X102703238Y-136173904D01*
X102750857Y-136269142D01*
X102798476Y-136316761D01*
X102893714Y-136364380D01*
X103084190Y-136364380D01*
X103179428Y-136316761D01*
X103227047Y-136269142D01*
X103274666Y-136173904D01*
X103274666Y-135983428D01*
X103227047Y-135888190D01*
X103179428Y-135840571D01*
X103084190Y-135792952D01*
X89662095Y-60936380D02*
X89662095Y-61745904D01*
X89709714Y-61841142D01*
X89757333Y-61888761D01*
X89852571Y-61936380D01*
X90043047Y-61936380D01*
X90138285Y-61888761D01*
X90185904Y-61841142D01*
X90233523Y-61745904D01*
X90233523Y-60936380D01*
X90614476Y-60936380D02*
X91233523Y-60936380D01*
X90900190Y-61317333D01*
X91043047Y-61317333D01*
X91138285Y-61364952D01*
X91185904Y-61412571D01*
X91233523Y-61507809D01*
X91233523Y-61745904D01*
X91185904Y-61841142D01*
X91138285Y-61888761D01*
X91043047Y-61936380D01*
X90757333Y-61936380D01*
X90662095Y-61888761D01*
X90614476Y-61841142D01*
X77667142Y-57062666D02*
X77714761Y-57110285D01*
X77762380Y-57253142D01*
X77762380Y-57348380D01*
X77714761Y-57491238D01*
X77619523Y-57586476D01*
X77524285Y-57634095D01*
X77333809Y-57681714D01*
X77190952Y-57681714D01*
X77000476Y-57634095D01*
X76905238Y-57586476D01*
X76810000Y-57491238D01*
X76762380Y-57348380D01*
X76762380Y-57253142D01*
X76810000Y-57110285D01*
X76857619Y-57062666D01*
X76762380Y-56729333D02*
X76762380Y-56110285D01*
X77143333Y-56443619D01*
X77143333Y-56300761D01*
X77190952Y-56205523D01*
X77238571Y-56157904D01*
X77333809Y-56110285D01*
X77571904Y-56110285D01*
X77667142Y-56157904D01*
X77714761Y-56205523D01*
X77762380Y-56300761D01*
X77762380Y-56586476D01*
X77714761Y-56681714D01*
X77667142Y-56729333D01*
X78914666Y-119570380D02*
X78914666Y-120284666D01*
X78867047Y-120427523D01*
X78771809Y-120522761D01*
X78628952Y-120570380D01*
X78533714Y-120570380D01*
X79343238Y-119665619D02*
X79390857Y-119618000D01*
X79486095Y-119570380D01*
X79724190Y-119570380D01*
X79819428Y-119618000D01*
X79867047Y-119665619D01*
X79914666Y-119760857D01*
X79914666Y-119856095D01*
X79867047Y-119998952D01*
X79295619Y-120570380D01*
X79914666Y-120570380D01*
X109902666Y-128206380D02*
X109902666Y-128920666D01*
X109855047Y-129063523D01*
X109759809Y-129158761D01*
X109616952Y-129206380D01*
X109521714Y-129206380D01*
X110283619Y-128206380D02*
X110902666Y-128206380D01*
X110569333Y-128587333D01*
X110712190Y-128587333D01*
X110807428Y-128634952D01*
X110855047Y-128682571D01*
X110902666Y-128777809D01*
X110902666Y-129015904D01*
X110855047Y-129111142D01*
X110807428Y-129158761D01*
X110712190Y-129206380D01*
X110426476Y-129206380D01*
X110331238Y-129158761D01*
X110283619Y-129111142D01*
X78914666Y-125206380D02*
X78914666Y-125920666D01*
X78867047Y-126063523D01*
X78771809Y-126158761D01*
X78628952Y-126206380D01*
X78533714Y-126206380D01*
X79819428Y-125539714D02*
X79819428Y-126206380D01*
X79581333Y-125158761D02*
X79343238Y-125873047D01*
X79962285Y-125873047D01*
X85090095Y-83907380D02*
X85090095Y-84716904D01*
X85137714Y-84812142D01*
X85185333Y-84859761D01*
X85280571Y-84907380D01*
X85471047Y-84907380D01*
X85566285Y-84859761D01*
X85613904Y-84812142D01*
X85661523Y-84716904D01*
X85661523Y-83907380D01*
X86661523Y-84907380D02*
X86090095Y-84907380D01*
X86375809Y-84907380D02*
X86375809Y-83907380D01*
X86280571Y-84050238D01*
X86185333Y-84145476D01*
X86090095Y-84193095D01*
M02*
